<?xml version="1.0" encoding="UTF-8" ?>
<!DOCTYPE svg PUBLIC "-//W3C//DTD SVG 1.1//EN" "http://www.w3.org/Graphics/SVG/1.1/DTD/svg11.dtd">
<svg width="960pt" height="960pt" viewBox="0 0 960 960" version="1.1" xmlns="http://www.w3.org/2000/svg">
<g id="#ffffffff">
<path fill="#ffffff" opacity="1.00" d=" M 0.00 0.00 L 960.00 0.00 L 960.00 960.00 L 0.00 960.00 L 0.00 0.00 M 479.42 332.03 C 476.68 335.97 474.22 340.15 472.32 344.56 C 471.62 347.84 474.74 350.13 476.39 352.56 C 477.63 354.00 479.71 357.05 481.57 354.61 C 484.37 351.27 489.62 347.20 486.61 342.41 C 484.39 338.87 483.16 334.32 479.42 332.03 M 426.39 350.90 C 426.31 358.48 426.42 366.07 426.37 373.65 C 432.48 378.50 438.02 384.16 444.64 388.29 C 444.68 382.73 444.61 377.16 444.67 371.60 C 456.48 381.99 468.14 392.54 480.02 402.85 C 491.82 392.45 503.55 381.98 515.34 371.56 C 515.32 377.14 515.28 382.73 515.35 388.31 C 521.94 384.11 527.54 378.53 533.60 373.62 C 533.44 365.54 533.82 357.44 533.44 349.38 C 532.62 342.54 523.15 339.52 518.38 344.34 C 505.46 356.33 492.74 368.55 479.96 380.68 C 467.81 368.95 455.45 357.43 443.23 345.78 C 441.25 343.92 438.97 341.96 436.09 342.04 C 431.05 341.42 426.26 345.86 426.39 350.90 M 373.74 363.24 C 387.23 390.47 401.10 417.51 414.49 444.80 C 415.86 444.74 417.96 444.91 418.04 442.97 C 418.39 434.35 418.03 425.69 418.19 417.05 C 418.14 414.30 418.58 411.34 417.12 408.85 C 414.71 404.20 412.51 399.45 409.93 394.89 C 429.64 410.84 448.97 427.28 468.55 443.40 C 471.54 445.71 474.16 448.82 477.92 449.89 C 480.95 450.83 484.13 449.46 486.45 447.52 C 507.69 430.00 528.72 412.23 550.05 394.83 C 547.59 399.19 545.44 403.72 543.14 408.17 C 542.36 409.64 541.84 411.27 541.92 412.96 C 541.91 421.95 541.97 430.95 541.90 439.94 C 541.94 441.46 541.82 443.08 542.48 444.51 C 543.45 444.64 544.44 444.74 545.43 444.81 C 558.33 418.67 571.53 392.68 584.57 366.61 C 585.79 363.92 587.85 361.10 587.04 357.99 C 585.74 351.62 577.52 348.09 572.29 352.28 C 541.41 377.71 510.77 403.44 479.98 428.98 C 449.59 403.71 419.25 378.39 388.83 353.16 C 386.96 351.50 384.58 350.34 382.02 350.59 C 375.75 350.15 370.91 357.65 373.74 363.24 M 406.45 455.55 C 399.87 458.11 401.55 469.86 408.99 469.48 C 456.33 469.51 503.68 469.52 551.02 469.47 C 556.14 469.66 559.26 463.30 556.99 459.03 C 555.76 456.43 552.97 454.79 550.11 454.93 C 505.43 454.90 460.74 454.94 416.05 454.91 C 412.86 455.01 409.52 454.48 406.45 455.55 M 123.31 498.84 C 118.48 520.05 114.08 541.35 109.46 562.60 C 111.39 562.71 113.84 564.44 115.48 562.80 C 119.04 547.23 122.29 531.57 125.70 515.96 C 132.76 531.84 139.68 547.79 146.48 563.78 C 147.02 563.82 148.09 563.89 148.63 563.92 C 155.53 547.88 162.36 531.80 169.46 515.85 C 172.55 530.62 175.91 545.34 179.03 560.11 C 179.20 561.46 179.80 562.70 180.58 563.82 C 182.27 563.44 183.96 563.09 185.67 562.77 C 181.45 542.03 176.76 521.39 172.33 500.70 C 172.63 499.21 170.12 498.26 169.73 499.83 C 162.21 516.81 155.07 533.98 147.48 550.94 C 140.58 534.17 133.06 517.66 125.96 500.97 C 125.66 499.64 124.54 499.07 123.31 498.84 M 338.53 499.68 C 326.09 503.02 316.28 514.29 314.76 527.08 C 312.60 541.06 320.70 555.72 333.57 561.50 C 343.89 566.37 356.65 565.34 366.06 558.91 C 378.75 550.58 384.15 533.09 378.17 519.09 C 372.37 503.81 354.19 494.86 338.53 499.68 M 421.01 500.05 C 416.35 520.86 411.97 541.75 407.45 562.60 C 409.41 562.72 413.03 564.93 413.73 561.96 C 417.08 546.63 420.40 531.29 423.71 515.96 C 430.82 531.75 437.45 547.77 444.55 563.56 C 445.03 563.71 446.01 564.01 446.50 564.15 C 453.50 548.06 460.30 531.87 467.46 515.85 C 470.54 530.60 473.90 545.28 477.01 560.03 C 477.17 561.46 477.82 562.74 478.67 563.90 C 480.38 563.41 482.11 562.96 483.84 562.50 C 478.94 541.48 474.86 520.25 469.87 499.25 C 469.43 499.22 468.56 499.15 468.12 499.11 C 460.40 516.27 453.14 533.64 445.60 550.88 C 438.29 534.01 430.99 517.13 423.62 500.28 C 423.60 498.86 420.94 498.44 421.01 500.05 M 717.58 519.85 C 712.12 533.47 717.35 550.31 729.63 558.38 C 741.94 567.16 760.44 565.58 770.90 554.58 C 771.71 552.28 768.68 551.06 767.53 549.50 C 761.56 555.82 752.54 559.10 743.92 557.64 C 731.60 555.91 721.53 544.49 721.56 532.02 C 721.06 520.19 729.64 508.91 741.07 505.98 C 750.46 503.25 760.90 506.49 767.60 513.50 C 768.67 511.92 771.74 510.65 770.89 508.40 C 766.18 503.52 759.76 500.36 753.08 499.31 C 738.33 496.69 722.68 505.79 717.58 519.85 M 807.42 499.57 C 796.52 502.40 787.38 511.27 784.32 522.12 C 781.45 531.48 783.16 542.06 788.66 550.13 C 795.44 560.13 807.89 565.93 819.92 564.33 C 831.02 563.15 841.12 555.80 845.89 545.75 C 850.48 536.18 850.07 524.48 844.86 515.25 C 837.77 502.38 821.60 495.46 807.42 499.57 M 199.50 501.99 C 199.41 521.00 199.53 540.01 199.44 559.01 C 199.62 560.26 198.93 563.02 200.96 562.96 C 211.68 563.19 222.43 563.03 233.16 563.04 C 235.99 563.12 235.87 558.23 234.09 557.03 C 224.62 556.79 215.12 557.01 205.64 556.93 C 205.64 548.97 205.64 541.02 205.64 533.06 C 214.47 533.03 223.30 533.12 232.12 533.04 C 235.29 533.43 234.51 529.08 233.90 527.21 C 224.51 526.56 215.06 527.12 205.64 526.93 C 205.64 519.97 205.64 513.02 205.64 506.06 C 215.09 505.98 224.56 506.21 234.00 505.97 C 235.84 504.92 235.75 501.21 234.08 500.02 C 223.70 499.79 213.31 500.01 202.93 499.92 C 201.45 499.86 199.15 499.82 199.50 501.99 M 267.99 502.94 C 268.08 522.59 267.86 542.24 268.09 561.88 C 268.34 562.15 268.82 562.70 269.07 562.97 C 280.68 563.07 292.33 563.23 303.94 562.89 C 305.00 561.24 305.03 558.74 303.93 557.12 C 294.01 556.68 284.05 557.06 274.11 556.93 C 274.05 538.27 274.24 519.60 274.02 500.95 C 272.40 498.84 267.04 499.41 267.99 502.94 M 497.49 502.09 C 497.45 521.70 497.45 541.31 497.49 560.92 C 497.64 561.39 497.94 562.34 498.08 562.82 C 508.71 563.40 519.40 562.88 530.06 563.08 C 533.68 564.17 534.24 558.62 532.10 557.02 C 522.62 556.79 513.13 557.01 503.64 556.93 C 503.64 548.97 503.64 541.02 503.64 533.06 C 513.06 532.87 522.53 533.44 531.92 532.79 C 532.58 531.02 532.55 529.00 531.93 527.23 C 522.55 526.53 513.07 527.14 503.64 526.93 C 503.64 519.97 503.64 513.02 503.64 506.06 C 513.09 505.98 522.55 506.21 532.00 505.96 C 533.83 504.94 533.78 501.14 532.05 500.03 C 522.05 499.78 512.04 500.04 502.03 499.91 C 500.31 500.03 497.12 499.32 497.49 502.09 M 549.49 502.08 C 549.42 520.73 549.53 539.38 549.44 558.04 C 549.57 559.62 549.10 561.42 550.08 562.84 C 551.75 563.13 553.47 563.09 555.18 563.16 C 556.23 555.86 555.36 548.42 555.64 541.07 C 559.64 541.07 563.65 541.00 567.66 541.15 C 573.40 549.07 579.78 556.51 585.45 564.48 C 586.91 563.16 590.73 562.10 589.44 559.58 C 584.62 553.08 579.58 546.73 574.60 540.36 C 577.99 539.13 581.44 537.73 584.07 535.18 C 590.68 529.33 592.35 519.08 588.92 511.12 C 585.97 504.64 578.95 500.99 572.12 500.23 C 566.08 499.63 560.01 500.07 553.96 499.91 C 552.26 500.02 549.13 499.34 549.49 502.08 M 605.50 502.03 C 605.41 521.01 605.53 540.00 605.44 558.98 C 605.62 560.25 604.92 563.06 607.00 562.97 C 617.68 563.18 628.38 563.03 639.07 563.04 C 642.00 563.23 641.89 558.23 640.08 557.03 C 630.61 556.79 621.12 557.01 611.64 556.93 C 611.64 548.97 611.64 541.02 611.64 533.06 C 621.02 532.89 630.44 533.40 639.79 532.82 C 640.74 531.15 640.47 528.99 639.94 527.23 C 630.55 526.52 621.07 527.14 611.64 526.93 C 611.64 519.97 611.64 513.02 611.64 506.06 C 620.79 506.03 629.93 506.11 639.08 506.04 C 642.01 506.22 641.87 501.27 640.10 500.03 C 630.08 499.78 620.05 500.03 610.03 499.91 C 608.34 500.05 605.17 499.29 605.50 502.03 M 661.10 505.82 C 672.01 506.39 682.99 505.90 693.93 506.06 C 681.27 524.48 668.37 542.73 655.82 561.22 C 655.91 561.62 656.07 562.42 656.15 562.82 C 670.08 563.40 684.08 562.88 698.04 563.08 C 702.21 564.27 702.20 555.71 698.04 556.92 C 687.36 556.94 676.69 556.92 666.02 556.94 C 678.56 538.81 691.15 520.72 703.67 502.58 C 704.89 501.36 703.77 499.51 702.13 499.96 C 689.07 499.91 676.00 499.91 662.95 499.96 C 659.71 499.41 660.08 503.97 661.10 505.82 M 204.86 591.55 C 205.83 592.16 206.91 592.77 207.41 593.88 C 207.70 598.19 207.25 602.50 206.84 606.79 C 206.11 607.32 205.38 607.85 204.66 608.40 C 206.87 608.40 209.07 608.40 211.28 608.42 C 210.46 607.63 208.85 607.38 208.75 606.07 C 208.42 602.91 208.72 599.72 208.82 596.56 C 211.95 600.33 212.43 605.56 215.48 609.35 C 217.37 604.82 219.33 600.32 221.53 595.94 C 221.49 599.58 221.48 603.23 221.64 606.87 C 220.73 607.32 219.82 607.77 218.91 608.23 C 221.71 608.39 224.52 608.42 227.32 608.42 C 226.61 607.89 225.89 607.36 225.17 606.85 C 225.08 602.40 224.21 597.80 225.23 593.44 C 225.75 592.97 226.80 592.03 227.32 591.56 C 225.46 591.61 223.60 591.63 221.75 591.64 C 220.23 595.66 218.38 599.55 216.51 603.42 C 214.19 599.71 212.40 595.71 210.85 591.63 C 208.85 591.63 206.85 591.62 204.86 591.55 M 239.42 591.58 C 234.26 593.20 232.06 599.81 234.49 604.46 C 237.35 610.25 246.72 610.46 250.17 605.17 C 252.44 601.50 252.07 596.13 248.74 593.21 C 246.25 590.96 242.52 590.56 239.42 591.58 M 258.84 592.02 C 259.30 592.36 260.23 593.05 260.69 593.39 C 261.20 597.83 260.80 602.34 260.82 606.81 C 260.12 607.37 259.42 607.94 258.73 608.52 C 263.48 608.18 268.60 609.25 273.03 607.04 C 278.32 604.27 278.50 595.53 273.04 592.85 C 268.58 590.97 263.53 591.38 258.84 592.02 M 289.55 592.57 C 288.84 594.53 288.11 596.45 287.37 598.40 C 287.91 598.23 289.01 597.89 289.55 597.72 L 289.18 595.37 C 290.39 597.19 291.06 599.28 291.69 601.37 C 290.64 601.45 289.60 601.54 288.56 601.63 C 288.13 600.47 287.68 599.35 287.14 598.26 C 286.22 601.97 285.43 606.49 281.72 608.48 C 283.89 608.40 286.06 608.39 288.24 608.36 C 287.47 607.89 286.71 607.42 285.94 606.96 C 286.34 605.62 286.74 604.28 287.14 602.95 C 288.75 602.89 290.37 602.83 292.00 602.78 C 292.46 603.93 292.93 605.09 293.40 606.26 C 292.90 606.99 292.41 607.74 291.92 608.49 C 294.57 608.35 297.23 608.34 299.89 608.46 C 298.99 607.89 298.10 607.30 297.21 606.75 C 295.31 601.52 293.51 596.27 291.83 590.97 C 291.06 591.50 290.30 592.03 289.55 592.57 M 312.98 592.00 C 313.52 592.28 314.61 592.83 315.15 593.11 C 315.71 597.72 315.33 602.39 315.29 607.02 C 314.46 607.46 313.63 607.91 312.81 608.37 C 315.68 608.34 318.56 608.36 321.44 608.37 C 320.65 607.88 319.86 607.41 319.08 606.94 C 318.94 602.11 318.99 597.28 319.02 592.46 C 320.71 592.75 322.92 592.98 323.32 595.06 C 324.20 597.38 322.74 599.38 321.27 601.02 C 321.96 602.29 324.25 600.71 325.38 600.36 C 328.30 598.63 327.88 593.55 324.67 592.37 C 320.93 591.01 316.84 591.52 312.98 592.00 M 339.21 590.79 C 333.77 595.27 335.26 604.10 329.63 608.48 C 331.51 608.40 333.41 608.40 335.30 608.45 C 334.67 607.74 334.05 607.03 333.44 606.33 C 333.93 605.13 334.43 603.94 334.94 602.76 C 336.55 602.83 338.18 602.90 339.80 602.98 C 340.17 604.33 340.55 605.69 340.93 607.06 C 340.24 607.50 339.55 607.95 338.86 608.40 C 341.64 608.34 344.42 608.35 347.21 608.50 C 345.95 607.51 344.43 606.62 344.04 604.95 C 342.34 600.26 340.84 595.50 339.21 590.79 M 352.12 591.97 C 352.63 592.26 353.64 592.83 354.15 593.12 C 354.94 597.72 354.39 602.46 354.37 607.11 C 353.72 607.38 352.42 607.92 351.78 608.19 C 354.62 608.40 357.48 608.44 360.34 608.41 C 359.58 607.87 358.82 607.34 358.06 606.82 C 358.03 604.76 358.04 602.71 358.09 600.67 C 361.53 601.64 361.29 606.29 364.33 607.81 C 365.86 608.67 367.67 608.36 369.34 608.36 C 366.58 606.48 364.89 603.60 363.37 600.71 C 365.94 599.12 367.67 595.28 364.94 592.99 C 361.15 590.59 356.34 591.68 352.12 591.97 M 382.21 590.79 C 376.82 595.28 378.19 603.97 372.74 608.49 C 374.59 608.41 376.45 608.40 378.31 608.45 C 377.68 607.74 377.05 607.03 376.43 606.34 C 376.94 605.13 377.45 603.93 377.97 602.73 C 379.58 602.82 381.20 602.91 382.82 603.02 C 383.19 604.35 383.57 605.69 383.95 607.03 C 383.26 607.49 382.57 607.96 381.89 608.44 C 384.67 608.34 387.46 608.35 390.25 608.49 C 389.22 607.65 387.87 607.04 387.39 605.73 C 385.43 600.83 383.97 595.75 382.21 590.79 M 402.98 591.48 C 403.75 592.00 404.53 592.53 405.31 593.06 C 405.44 597.70 405.48 602.34 405.28 606.98 C 404.41 607.46 403.54 607.94 402.69 608.44 C 407.34 608.58 411.99 608.45 416.65 608.51 C 416.99 606.98 417.32 605.45 417.66 603.93 C 416.88 604.75 416.11 605.57 415.29 606.35 C 413.73 608.11 411.20 607.13 409.18 607.13 C 409.08 604.90 409.00 602.67 408.94 600.44 C 410.28 600.51 411.63 600.59 412.99 600.69 C 413.42 601.52 413.86 602.35 414.31 603.19 C 414.36 601.02 414.39 598.86 414.46 596.71 C 413.36 598.84 411.30 599.43 409.00 599.30 C 409.00 597.04 409.00 594.79 409.00 592.54 C 412.00 592.20 414.92 593.00 416.32 595.92 C 416.17 594.41 416.02 592.90 415.89 591.40 C 411.59 591.56 407.28 591.50 402.98 591.48 M 422.72 591.64 C 423.56 592.09 424.41 592.55 425.27 593.02 C 425.48 597.70 425.45 602.39 425.29 607.08 C 424.40 607.51 423.51 607.95 422.64 608.41 C 427.30 608.58 431.96 608.47 436.63 608.51 C 436.94 606.97 437.26 605.43 437.58 603.90 C 435.76 606.96 432.50 608.09 429.15 607.07 C 428.93 602.43 428.94 597.78 429.09 593.13 C 429.85 592.62 430.62 592.11 431.38 591.60 C 428.49 591.61 425.60 591.62 422.72 591.64 M 443.73 591.49 C 444.43 592.07 445.13 592.66 445.84 593.25 C 445.93 597.81 445.91 602.36 445.85 606.92 C 444.84 607.42 443.85 607.94 442.87 608.47 C 447.47 608.38 452.10 608.76 456.69 608.37 C 458.07 607.51 457.59 605.19 458.11 603.79 C 457.08 604.93 456.12 606.15 454.94 607.14 C 453.24 607.50 451.49 607.30 449.78 607.29 C 449.55 605.04 449.48 602.77 449.49 600.52 C 450.41 600.49 452.25 600.44 453.17 600.41 C 453.55 601.15 454.32 602.62 454.70 603.35 C 454.83 601.08 454.92 598.80 455.02 596.54 C 454.03 599.00 451.73 599.56 449.33 599.02 C 449.46 596.81 449.55 594.60 449.63 592.40 C 452.71 592.13 455.51 593.27 456.82 596.18 C 456.70 594.61 456.61 593.06 456.53 591.51 C 452.26 591.50 448.00 591.49 443.73 591.49 M 467.26 593.24 C 462.95 596.60 462.87 604.25 467.58 607.30 C 471.39 609.75 476.14 608.94 480.32 608.06 C 480.17 606.37 480.05 604.68 479.93 603.00 C 480.64 602.54 481.35 602.08 482.07 601.62 C 479.28 601.67 476.50 601.61 473.73 601.55 C 476.65 602.53 476.66 605.38 476.23 608.02 C 473.62 607.92 470.44 607.57 469.21 604.87 C 466.99 600.67 467.69 593.27 473.19 592.17 C 476.43 591.33 478.43 594.33 480.00 596.60 C 479.78 594.93 479.60 593.28 479.43 591.62 C 475.38 590.92 470.67 590.47 467.26 593.24 M 487.65 591.57 C 488.38 592.17 489.11 592.77 489.85 593.37 C 489.91 597.80 489.93 602.22 489.83 606.65 C 489.10 607.24 488.39 607.84 487.68 608.44 C 490.48 608.38 493.29 608.29 496.10 608.45 C 494.77 607.84 493.30 606.70 493.52 605.07 C 493.37 601.03 493.51 596.98 493.61 592.95 C 494.25 592.66 495.55 592.08 496.19 591.79 C 493.35 591.61 490.50 591.57 487.65 591.57 M 502.13 592.07 C 502.65 592.33 503.69 592.84 504.21 593.10 C 504.86 597.73 504.44 602.44 504.36 607.10 C 503.72 607.38 502.45 607.92 501.81 608.20 C 504.69 608.40 507.60 608.63 510.47 608.10 C 509.86 607.82 508.64 607.24 508.04 606.96 C 508.02 604.86 508.04 602.76 508.10 600.67 C 511.50 601.64 511.30 606.21 514.25 607.77 C 515.76 608.52 517.52 608.39 519.16 608.64 C 516.81 606.31 514.82 603.66 513.39 600.68 C 515.90 599.10 517.65 595.39 515.03 593.07 C 511.25 590.60 506.36 591.59 502.13 592.07 M 522.99 591.18 C 522.77 592.82 522.56 594.46 522.31 596.10 C 523.59 593.74 525.65 592.08 528.48 592.45 C 528.33 597.24 528.90 602.09 528.21 606.85 C 527.39 607.40 526.57 607.94 525.74 608.48 C 528.82 608.37 531.90 608.33 534.99 608.46 C 534.04 607.91 533.08 607.35 532.15 606.82 C 532.07 602.07 532.11 597.32 532.10 592.58 C 533.37 592.65 534.64 592.74 535.93 592.84 C 536.55 593.98 537.18 595.14 537.81 596.30 C 537.93 594.59 538.06 592.91 538.21 591.22 C 533.15 591.64 528.04 591.71 522.99 591.18 M 543.99 591.47 C 544.74 591.97 545.50 592.48 546.27 593.00 C 546.48 597.71 546.45 602.44 546.29 607.17 C 545.60 607.40 544.23 607.86 543.55 608.10 C 548.18 609.01 552.95 608.26 557.65 608.51 C 557.98 606.97 558.31 605.44 558.65 603.91 C 557.47 605.08 556.46 606.49 554.96 607.28 C 553.35 607.53 551.74 607.22 550.15 607.08 C 550.07 604.87 550.00 602.66 549.94 600.45 C 551.26 600.51 552.59 600.58 553.93 600.65 C 554.39 601.49 554.85 602.32 555.33 603.17 C 555.38 600.98 555.39 598.79 555.36 596.62 C 554.84 597.40 554.33 598.20 553.83 599.01 C 552.54 599.08 551.27 599.14 550.00 599.22 C 550.00 596.99 550.00 594.76 550.00 592.54 C 553.03 592.24 556.12 592.92 557.24 596.15 C 557.13 594.57 557.03 592.99 556.93 591.42 C 552.62 591.55 548.30 591.50 543.99 591.47 M 572.85 592.02 C 573.31 592.38 574.24 593.08 574.70 593.43 C 575.19 597.87 574.80 602.35 574.82 606.81 C 574.12 607.37 573.42 607.94 572.73 608.52 C 577.47 608.18 582.58 609.24 587.02 607.05 C 592.28 604.30 592.51 595.65 587.14 592.90 C 582.66 590.96 577.57 591.38 572.85 592.02 M 597.98 591.48 C 598.76 592.02 599.54 592.56 600.33 593.11 C 600.41 597.75 600.52 602.39 600.24 607.03 C 599.37 607.48 598.51 607.95 597.66 608.43 C 602.32 608.59 606.98 608.45 611.64 608.51 C 611.99 606.98 612.33 605.46 612.67 603.95 C 611.48 605.09 610.46 606.47 608.99 607.27 C 607.36 607.56 605.72 607.21 604.12 607.03 C 604.07 604.83 604.00 602.63 603.95 600.45 C 605.28 600.51 606.62 600.59 607.97 600.67 C 608.41 601.51 608.86 602.34 609.31 603.18 C 609.38 600.98 609.39 598.77 609.35 596.58 C 608.82 597.39 608.31 598.21 607.81 599.04 C 606.53 599.09 605.26 599.15 604.00 599.21 C 604.00 596.98 604.00 594.76 603.99 592.55 C 605.59 592.62 607.23 592.55 608.82 592.94 C 609.77 593.90 610.44 595.10 611.21 596.22 C 611.11 594.61 611.03 593.00 610.95 591.41 C 606.62 591.55 602.30 591.50 597.98 591.48 M 624.75 591.52 C 628.13 594.50 628.83 599.20 630.60 603.14 C 631.65 605.23 631.72 608.16 633.89 609.48 C 636.35 604.57 637.74 599.18 640.32 594.33 C 640.99 593.08 642.23 592.35 643.32 591.52 C 641.15 591.61 638.99 591.61 636.83 591.61 C 637.56 592.09 638.29 592.57 639.03 593.06 C 637.57 596.52 636.88 600.40 634.51 603.41 C 633.26 600.17 632.07 596.91 630.71 593.72 C 631.14 592.97 631.58 592.22 632.03 591.48 C 629.60 591.61 627.17 591.65 624.75 591.52 M 647.71 591.49 C 648.41 592.07 649.12 592.65 649.83 593.23 C 649.93 597.79 649.91 602.35 649.85 606.91 C 648.85 607.42 647.88 607.95 646.90 608.48 C 651.49 608.38 656.11 608.75 660.70 608.37 C 662.05 607.50 661.61 605.18 662.17 603.78 C 661.11 604.91 660.16 606.17 658.92 607.12 C 657.24 607.54 655.48 607.27 653.78 607.28 C 653.55 605.02 653.47 602.75 653.50 600.49 C 654.42 600.49 656.25 600.48 657.17 600.48 C 657.73 601.42 658.31 602.37 658.89 603.33 C 658.87 601.07 658.89 598.81 658.98 596.56 C 658.02 599.02 655.73 599.54 653.35 599.03 C 653.46 596.81 653.54 594.60 653.63 592.40 C 656.69 592.14 659.50 593.26 660.81 596.16 C 660.69 594.60 660.60 593.05 660.53 591.51 C 656.25 591.50 651.98 591.49 647.71 591.49 M 668.12 591.98 C 668.63 592.26 669.66 592.84 670.18 593.12 C 670.90 597.70 670.43 602.38 670.35 606.99 C 669.54 607.46 668.73 607.93 667.93 608.40 C 670.72 608.37 673.52 608.38 676.32 608.42 C 675.57 607.88 674.82 607.35 674.08 606.84 C 674.04 604.78 674.03 602.73 674.08 600.69 C 677.50 601.61 677.29 606.23 680.26 607.77 C 681.77 608.52 683.51 608.40 685.15 608.64 C 682.81 606.31 680.81 603.66 679.40 600.67 C 681.94 599.08 683.67 595.30 680.96 593.01 C 677.17 590.58 672.34 591.68 668.12 591.98 M 690.78 591.87 C 691.19 592.35 692.02 593.30 692.43 593.78 C 692.37 598.23 692.47 602.70 692.29 607.16 C 691.63 607.43 690.31 607.96 689.65 608.22 C 694.47 608.49 699.63 609.11 704.22 607.21 C 709.60 604.68 710.17 596.06 704.93 593.07 C 700.57 590.84 695.47 591.55 690.78 591.87 M 721.55 592.57 C 720.85 594.51 720.11 596.42 719.38 598.36 C 719.92 598.22 721.00 597.93 721.54 597.79 L 721.09 595.47 C 722.45 597.19 723.04 599.31 723.69 601.37 C 722.64 601.45 721.59 601.53 720.55 601.62 C 720.12 600.46 719.67 599.34 719.14 598.25 C 718.24 601.98 717.40 606.44 713.75 608.50 C 715.96 608.46 718.20 608.44 720.40 608.09 C 719.78 607.84 718.53 607.35 717.90 607.10 C 718.32 605.70 718.72 604.31 719.15 602.93 C 720.77 602.88 722.40 602.84 724.04 602.80 C 724.48 603.95 724.93 605.11 725.40 606.28 C 724.89 607.01 724.39 607.74 723.90 608.48 C 726.55 608.35 729.22 608.34 731.88 608.45 C 730.98 607.88 730.08 607.30 729.21 606.74 C 727.31 601.52 725.51 596.26 723.82 590.97 C 723.05 591.49 722.30 592.03 721.55 592.57 M 736.88 592.07 C 737.34 592.41 738.25 593.10 738.71 593.44 C 739.18 597.87 738.79 602.35 738.83 606.80 C 738.12 607.37 737.42 607.94 736.74 608.53 C 741.48 608.17 746.59 609.24 751.02 607.05 C 756.29 604.29 756.51 595.64 751.13 592.89 C 746.66 591.00 741.57 591.31 736.88 592.07 Z" />
<path fill="#ffffff" opacity="1.00" d=" M 341.20 505.28 C 352.75 502.36 365.77 508.13 371.24 518.73 C 376.70 528.43 375.10 541.40 367.54 549.55 C 359.24 559.03 344.06 561.30 333.44 554.46 C 322.39 548.00 317.42 533.12 322.55 521.36 C 325.72 513.40 332.90 507.28 341.20 505.28 Z" />
<path fill="#ffffff" opacity="1.00" d=" M 808.45 505.62 C 822.54 501.12 838.81 510.49 842.16 524.84 C 846.48 539.70 835.22 556.33 819.94 558.15 C 806.43 560.50 792.48 550.77 789.69 537.43 C 786.33 524.02 795.19 509.25 808.45 505.62 Z" />
<path fill="#ffffff" opacity="1.00" d=" M 555.64 506.06 C 563.22 506.41 571.40 504.82 578.41 508.49 C 587.21 513.10 586.14 527.21 578.16 532.13 C 571.49 536.59 563.14 534.43 555.64 534.94 C 555.64 525.31 555.64 515.69 555.64 506.06 Z" />
<path fill="#ffffff" opacity="1.00" d=" M 241.19 592.27 C 244.71 591.16 247.18 595.01 247.38 598.07 C 247.69 601.31 247.81 605.86 244.46 607.60 C 241.33 608.96 238.43 605.97 238.00 603.03 C 237.18 599.40 237.14 593.96 241.19 592.27 Z" />
<path fill="#ffffff" opacity="1.00" d=" M 264.54 592.56 C 267.36 592.54 270.84 592.94 272.17 595.87 C 273.73 599.41 273.39 604.67 269.74 606.81 C 268.24 607.52 265.30 608.05 264.68 605.97 C 264.22 601.51 264.61 597.03 264.54 592.56 Z" />
<path fill="#ffffff" opacity="1.00" d=" M 357.99 592.43 C 360.53 592.41 363.06 594.15 362.51 596.98 C 362.75 599.56 360.02 600.12 358.05 600.19 C 358.01 597.59 357.99 595.01 357.99 592.43 Z" />
<path fill="#ffffff" opacity="1.00" d=" M 507.98 592.44 C 510.54 592.38 513.08 594.16 512.51 597.01 C 512.75 599.60 510.01 600.09 508.06 600.19 C 508.01 597.60 507.99 595.02 507.98 592.44 Z" />
<path fill="#ffffff" opacity="1.00" d=" M 578.53 592.57 C 581.34 592.54 584.79 592.93 586.14 595.81 C 588.29 600.00 586.77 607.58 581.00 607.41 C 578.91 607.73 578.34 605.59 578.50 603.99 C 578.40 600.18 578.54 596.37 578.53 592.57 Z" />
<path fill="#ffffff" opacity="1.00" d=" M 673.97 592.46 C 676.53 592.37 679.07 594.14 678.51 596.99 C 678.75 599.58 676.01 600.11 674.06 600.19 C 674.01 597.61 673.99 595.03 673.97 592.46 Z" />
<path fill="#ffffff" opacity="1.00" d=" M 696.02 592.63 C 698.04 592.72 700.33 592.53 702.02 593.90 C 704.96 596.22 705.00 600.65 703.82 603.90 C 702.81 606.75 699.01 608.49 696.40 606.70 C 695.50 602.07 696.20 597.31 696.02 592.63 Z" />
<path fill="#ffffff" opacity="1.00" d=" M 742.55 592.54 C 745.35 592.56 748.82 592.94 750.16 595.84 C 751.73 599.38 751.40 604.66 747.75 606.81 C 746.24 607.52 743.25 608.06 742.68 605.94 C 742.22 601.48 742.59 597.00 742.55 592.54 Z" />
<path fill="#ffffff" opacity="1.00" d=" M 335.16 601.40 C 335.81 599.45 336.50 597.53 337.38 595.68 C 338.03 597.63 338.57 599.62 339.03 601.63 C 337.74 601.55 336.45 601.47 335.16 601.40 Z" />
<path fill="#ffffff" opacity="1.00" d=" M 378.16 601.39 C 378.81 599.44 379.50 597.53 380.38 595.69 C 381.03 597.64 381.57 599.63 382.02 601.64 C 380.73 601.55 379.44 601.47 378.16 601.39 Z" />
</g>
<g id="#ff4e72ff">
<path fill="#ff4e72" opacity="1.00" d=" M 479.42 332.03 C 483.16 334.32 484.39 338.87 486.61 342.41 C 489.62 347.20 484.37 351.27 481.57 354.61 C 479.71 357.05 477.63 354.00 476.39 352.56 C 474.74 350.13 471.62 347.84 472.32 344.56 C 474.22 340.15 476.68 335.97 479.42 332.03 Z" />
<path fill="#ff4e72" opacity="1.00" d=" M 426.39 350.90 C 426.26 345.86 431.05 341.42 436.09 342.04 C 438.97 341.96 441.25 343.92 443.23 345.78 C 455.45 357.43 467.81 368.95 479.96 380.68 C 492.74 368.55 505.46 356.33 518.38 344.34 C 523.15 339.52 532.62 342.54 533.44 349.38 C 533.82 357.44 533.44 365.54 533.60 373.62 C 527.54 378.53 521.94 384.11 515.35 388.31 C 515.28 382.73 515.32 377.14 515.34 371.56 C 503.55 381.98 491.82 392.45 480.02 402.85 C 468.14 392.54 456.48 381.99 444.67 371.60 C 444.61 377.16 444.68 382.73 444.64 388.29 C 438.02 384.16 432.48 378.50 426.37 373.65 C 426.42 366.07 426.31 358.48 426.39 350.90 Z" />
<path fill="#ff4e72" opacity="1.00" d=" M 373.74 363.24 C 370.91 357.65 375.75 350.15 382.02 350.59 C 384.58 350.34 386.96 351.50 388.83 353.16 C 419.25 378.39 449.59 403.71 479.98 428.98 C 510.77 403.44 541.41 377.71 572.29 352.28 C 577.52 348.09 585.74 351.62 587.04 357.99 C 587.85 361.10 585.79 363.92 584.57 366.61 C 571.53 392.68 558.33 418.67 545.43 444.81 C 544.44 444.74 543.45 444.64 542.48 444.51 C 541.82 443.08 541.94 441.46 541.90 439.94 C 541.97 430.95 541.91 421.95 541.92 412.96 C 541.84 411.27 542.36 409.64 543.14 408.17 C 545.44 403.72 547.59 399.19 550.05 394.83 C 528.72 412.23 507.69 430.00 486.45 447.52 C 484.13 449.46 480.95 450.83 477.92 449.89 C 474.16 448.82 471.54 445.71 468.55 443.40 C 448.97 427.28 429.64 410.84 409.93 394.89 C 412.51 399.45 414.71 404.20 417.12 408.85 C 418.58 411.34 418.14 414.30 418.19 417.05 C 418.03 425.69 418.39 434.35 418.04 442.97 C 417.96 444.91 415.86 444.74 414.49 444.80 C 401.10 417.51 387.23 390.47 373.74 363.24 Z" />
<path fill="#ff4e72" opacity="1.00" d=" M 406.45 455.55 C 409.52 454.48 412.86 455.01 416.05 454.91 C 460.74 454.94 505.43 454.90 550.11 454.93 C 552.97 454.79 555.76 456.43 556.99 459.03 C 559.26 463.30 556.14 469.66 551.02 469.47 C 503.68 469.52 456.33 469.51 408.99 469.48 C 401.55 469.86 399.87 458.11 406.45 455.55 Z" />
<path fill="#ff4e72" opacity="1.00" d=" M 204.86 591.55 C 206.85 591.62 208.85 591.63 210.85 591.63 C 212.40 595.71 214.19 599.71 216.51 603.42 C 218.38 599.55 220.23 595.66 221.75 591.64 C 223.60 591.63 225.46 591.61 227.32 591.56 C 226.80 592.03 225.75 592.97 225.23 593.44 C 224.21 597.80 225.08 602.40 225.17 606.85 C 225.89 607.36 226.61 607.89 227.32 608.42 C 224.52 608.42 221.71 608.39 218.91 608.23 C 219.82 607.77 220.73 607.32 221.64 606.87 C 221.48 603.23 221.49 599.58 221.53 595.94 C 219.33 600.32 217.37 604.82 215.48 609.35 C 212.43 605.56 211.95 600.33 208.82 596.56 C 208.72 599.72 208.42 602.91 208.75 606.07 C 208.85 607.38 210.46 607.63 211.28 608.42 C 209.07 608.40 206.87 608.40 204.66 608.40 C 205.38 607.85 206.11 607.32 206.84 606.79 C 207.25 602.50 207.70 598.19 207.41 593.88 C 206.91 592.77 205.83 592.16 204.86 591.55 Z" />
<path fill="#ff4e72" opacity="1.00" d=" M 239.42 591.58 C 242.52 590.56 246.25 590.96 248.74 593.21 C 252.07 596.13 252.44 601.50 250.17 605.17 C 246.72 610.46 237.35 610.25 234.49 604.46 C 232.06 599.81 234.26 593.20 239.42 591.58 M 241.19 592.27 C 237.14 593.96 237.18 599.40 238.00 603.03 C 238.43 605.97 241.33 608.96 244.46 607.60 C 247.81 605.86 247.69 601.31 247.38 598.07 C 247.18 595.01 244.71 591.16 241.19 592.27 Z" />
<path fill="#ff4e72" opacity="1.00" d=" M 258.84 592.02 C 263.53 591.38 268.58 590.97 273.04 592.85 C 278.50 595.53 278.32 604.27 273.03 607.04 C 268.60 609.25 263.48 608.18 258.73 608.52 C 259.42 607.94 260.12 607.37 260.82 606.81 C 260.80 602.34 261.20 597.83 260.69 593.39 C 260.23 593.05 259.30 592.36 258.84 592.02 M 264.54 592.56 C 264.61 597.03 264.22 601.51 264.68 605.97 C 265.30 608.05 268.24 607.52 269.74 606.81 C 273.39 604.67 273.73 599.41 272.17 595.87 C 270.84 592.94 267.36 592.54 264.54 592.56 Z" />
<path fill="#ff4e72" opacity="1.00" d=" M 289.55 592.57 C 290.30 592.03 291.06 591.50 291.83 590.97 C 293.51 596.27 295.31 601.52 297.21 606.75 C 298.10 607.30 298.99 607.89 299.89 608.46 C 297.23 608.34 294.57 608.35 291.92 608.49 C 292.41 607.74 292.90 606.99 293.40 606.26 C 292.93 605.09 292.46 603.93 292.00 602.78 C 290.37 602.83 288.75 602.89 287.14 602.95 C 286.74 604.28 286.34 605.62 285.94 606.96 C 286.71 607.42 287.47 607.89 288.24 608.36 C 286.06 608.39 283.89 608.40 281.72 608.48 C 285.43 606.49 286.22 601.97 287.14 598.26 C 287.68 599.35 288.13 600.47 288.56 601.63 C 289.60 601.54 290.64 601.45 291.69 601.37 C 291.06 599.28 290.39 597.19 289.18 595.37 L 289.55 597.72 C 289.01 597.89 287.91 598.23 287.37 598.40 C 288.11 596.45 288.84 594.53 289.55 592.57 Z" />
<path fill="#ff4e72" opacity="1.00" d=" M 312.98 592.00 C 316.84 591.52 320.93 591.01 324.67 592.37 C 327.88 593.55 328.30 598.63 325.38 600.36 C 324.25 600.71 321.96 602.29 321.27 601.02 C 322.74 599.38 324.20 597.38 323.32 595.06 C 322.92 592.98 320.71 592.75 319.02 592.46 C 318.99 597.28 318.94 602.11 319.08 606.94 C 319.86 607.41 320.65 607.88 321.44 608.37 C 318.56 608.36 315.68 608.34 312.81 608.37 C 313.63 607.91 314.46 607.46 315.29 607.02 C 315.33 602.39 315.71 597.72 315.15 593.11 C 314.61 592.83 313.52 592.28 312.98 592.00 Z" />
<path fill="#ff4e72" opacity="1.00" d=" M 339.21 590.79 C 340.84 595.50 342.34 600.26 344.04 604.95 C 344.43 606.62 345.95 607.51 347.21 608.50 C 344.42 608.35 341.64 608.34 338.86 608.40 C 339.55 607.95 340.24 607.50 340.93 607.06 C 340.55 605.69 340.17 604.33 339.80 602.98 C 338.18 602.90 336.55 602.83 334.94 602.76 C 334.43 603.94 333.93 605.13 333.44 606.33 C 334.05 607.03 334.67 607.74 335.30 608.45 C 333.41 608.40 331.51 608.40 329.63 608.48 C 335.26 604.10 333.77 595.27 339.21 590.79 M 335.16 601.40 C 336.45 601.47 337.74 601.55 339.03 601.63 C 338.57 599.62 338.03 597.63 337.38 595.68 C 336.50 597.53 335.81 599.45 335.16 601.40 Z" />
<path fill="#ff4e72" opacity="1.00" d=" M 352.12 591.97 C 356.34 591.68 361.15 590.59 364.94 592.99 C 367.67 595.28 365.94 599.12 363.37 600.71 C 364.89 603.60 366.58 606.48 369.34 608.36 C 367.67 608.36 365.86 608.67 364.33 607.81 C 361.29 606.29 361.53 601.64 358.09 600.67 C 358.04 602.71 358.03 604.76 358.06 606.82 C 358.82 607.34 359.58 607.87 360.34 608.41 C 357.48 608.44 354.62 608.40 351.78 608.19 C 352.42 607.92 353.72 607.38 354.37 607.11 C 354.39 602.46 354.94 597.72 354.15 593.12 C 353.64 592.83 352.63 592.26 352.12 591.97 M 357.99 592.43 C 357.99 595.01 358.01 597.59 358.05 600.19 C 360.02 600.12 362.75 599.56 362.51 596.98 C 363.06 594.15 360.53 592.41 357.99 592.43 Z" />
<path fill="#ff4e72" opacity="1.00" d=" M 382.21 590.79 C 383.97 595.75 385.43 600.83 387.39 605.73 C 387.87 607.04 389.22 607.65 390.25 608.49 C 387.46 608.35 384.67 608.34 381.89 608.44 C 382.57 607.96 383.26 607.49 383.95 607.03 C 383.57 605.69 383.19 604.35 382.82 603.02 C 381.20 602.91 379.58 602.82 377.97 602.73 C 377.45 603.93 376.94 605.13 376.43 606.34 C 377.05 607.03 377.68 607.74 378.31 608.45 C 376.45 608.40 374.59 608.41 372.74 608.49 C 378.19 603.97 376.82 595.28 382.21 590.79 M 378.16 601.39 C 379.44 601.47 380.73 601.55 382.02 601.64 C 381.57 599.63 381.03 597.64 380.38 595.69 C 379.50 597.53 378.81 599.44 378.16 601.39 Z" />
<path fill="#ff4e72" opacity="1.00" d=" M 402.98 591.48 C 407.28 591.50 411.59 591.56 415.89 591.40 C 416.02 592.90 416.17 594.41 416.32 595.92 C 414.92 593.00 412.00 592.20 409.00 592.54 C 409.00 594.79 409.00 597.04 409.00 599.30 C 411.30 599.43 413.36 598.84 414.46 596.71 C 414.39 598.86 414.36 601.02 414.31 603.19 C 413.86 602.35 413.42 601.52 412.99 600.69 C 411.63 600.59 410.28 600.51 408.94 600.44 C 409.00 602.67 409.08 604.90 409.18 607.13 C 411.20 607.13 413.73 608.11 415.29 606.35 C 416.11 605.57 416.88 604.75 417.66 603.93 C 417.32 605.45 416.99 606.98 416.65 608.51 C 411.99 608.45 407.34 608.58 402.69 608.44 C 403.54 607.94 404.41 607.46 405.28 606.98 C 405.48 602.34 405.44 597.70 405.31 593.06 C 404.53 592.53 403.75 592.00 402.98 591.48 Z" />
<path fill="#ff4e72" opacity="1.00" d=" M 422.72 591.64 C 425.60 591.62 428.49 591.61 431.38 591.60 C 430.62 592.11 429.85 592.62 429.09 593.13 C 428.94 597.78 428.93 602.43 429.15 607.07 C 432.50 608.09 435.76 606.96 437.58 603.90 C 437.26 605.43 436.94 606.97 436.63 608.51 C 431.96 608.47 427.30 608.58 422.64 608.41 C 423.51 607.95 424.40 607.51 425.29 607.08 C 425.45 602.39 425.48 597.70 425.27 593.02 C 424.41 592.55 423.56 592.09 422.72 591.64 Z" />
<path fill="#ff4e72" opacity="1.00" d=" M 443.73 591.49 C 448.00 591.49 452.26 591.50 456.53 591.51 C 456.61 593.06 456.70 594.61 456.82 596.18 C 455.51 593.27 452.71 592.13 449.63 592.40 C 449.55 594.60 449.46 596.81 449.33 599.02 C 451.73 599.56 454.03 599.00 455.02 596.54 C 454.92 598.80 454.83 601.08 454.70 603.35 C 454.32 602.62 453.55 601.15 453.17 600.41 C 452.25 600.44 450.41 600.49 449.49 600.52 C 449.48 602.77 449.55 605.04 449.78 607.29 C 451.49 607.30 453.24 607.50 454.94 607.14 C 456.12 606.15 457.08 604.93 458.11 603.79 C 457.59 605.19 458.07 607.51 456.69 608.37 C 452.10 608.76 447.47 608.38 442.87 608.47 C 443.85 607.94 444.84 607.42 445.85 606.92 C 445.91 602.36 445.93 597.81 445.84 593.25 C 445.13 592.66 444.43 592.07 443.73 591.49 Z" />
<path fill="#ff4e72" opacity="1.00" d=" M 467.26 593.24 C 470.67 590.47 475.38 590.92 479.43 591.62 C 479.60 593.28 479.78 594.93 480.00 596.60 C 478.43 594.33 476.43 591.33 473.19 592.17 C 467.69 593.27 466.99 600.67 469.21 604.87 C 470.44 607.57 473.62 607.92 476.23 608.02 C 476.66 605.38 476.65 602.53 473.73 601.55 C 476.50 601.61 479.28 601.67 482.07 601.62 C 481.35 602.08 480.64 602.54 479.93 603.00 C 480.05 604.68 480.17 606.37 480.32 608.06 C 476.14 608.94 471.39 609.75 467.58 607.30 C 462.87 604.25 462.95 596.60 467.26 593.24 Z" />
<path fill="#ff4e72" opacity="1.00" d=" M 487.65 591.57 C 490.50 591.57 493.35 591.61 496.19 591.79 C 495.55 592.08 494.25 592.66 493.61 592.95 C 493.51 596.98 493.37 601.03 493.52 605.07 C 493.30 606.70 494.77 607.84 496.10 608.45 C 493.29 608.29 490.48 608.38 487.68 608.44 C 488.39 607.84 489.10 607.24 489.83 606.65 C 489.93 602.22 489.91 597.80 489.85 593.37 C 489.11 592.77 488.38 592.17 487.65 591.57 Z" />
<path fill="#ff4e72" opacity="1.00" d=" M 502.13 592.07 C 506.36 591.59 511.25 590.60 515.03 593.07 C 517.65 595.39 515.90 599.10 513.39 600.68 C 514.82 603.66 516.81 606.31 519.16 608.64 C 517.52 608.39 515.76 608.52 514.25 607.77 C 511.30 606.21 511.50 601.64 508.10 600.67 C 508.04 602.76 508.02 604.86 508.04 606.96 C 508.64 607.24 509.86 607.82 510.47 608.10 C 507.60 608.63 504.69 608.40 501.81 608.20 C 502.45 607.92 503.72 607.38 504.36 607.10 C 504.44 602.44 504.86 597.73 504.21 593.10 C 503.69 592.84 502.65 592.33 502.13 592.07 M 507.98 592.44 C 507.99 595.02 508.01 597.60 508.06 600.19 C 510.01 600.09 512.75 599.60 512.51 597.01 C 513.08 594.16 510.54 592.38 507.98 592.44 Z" />
<path fill="#ff4e72" opacity="1.00" d=" M 522.99 591.18 C 528.04 591.71 533.15 591.64 538.21 591.22 C 538.06 592.91 537.93 594.59 537.81 596.30 C 537.18 595.14 536.55 593.98 535.93 592.84 C 534.64 592.74 533.37 592.65 532.10 592.58 C 532.11 597.32 532.07 602.07 532.15 606.82 C 533.08 607.35 534.04 607.91 534.99 608.46 C 531.90 608.33 528.82 608.37 525.74 608.48 C 526.57 607.94 527.39 607.40 528.21 606.85 C 528.90 602.09 528.33 597.24 528.48 592.45 C 525.65 592.08 523.59 593.74 522.31 596.10 C 522.56 594.46 522.77 592.82 522.99 591.18 Z" />
<path fill="#ff4e72" opacity="1.00" d=" M 543.99 591.47 C 548.30 591.50 552.62 591.55 556.93 591.42 C 557.03 592.99 557.13 594.57 557.24 596.15 C 556.12 592.92 553.03 592.24 550.00 592.54 C 550.00 594.76 550.00 596.99 550.00 599.22 C 551.27 599.14 552.54 599.08 553.83 599.01 C 554.33 598.20 554.84 597.40 555.36 596.62 C 555.39 598.79 555.38 600.98 555.33 603.17 C 554.85 602.32 554.39 601.49 553.93 600.65 C 552.59 600.58 551.26 600.51 549.94 600.45 C 550.00 602.66 550.07 604.87 550.15 607.08 C 551.74 607.22 553.35 607.53 554.96 607.28 C 556.46 606.49 557.47 605.08 558.65 603.91 C 558.31 605.44 557.98 606.97 557.65 608.51 C 552.95 608.26 548.18 609.01 543.55 608.10 C 544.23 607.86 545.60 607.40 546.29 607.17 C 546.45 602.44 546.48 597.71 546.27 593.00 C 545.50 592.48 544.74 591.97 543.99 591.47 Z" />
<path fill="#ff4e72" opacity="1.00" d=" M 572.85 592.02 C 577.57 591.38 582.66 590.96 587.14 592.90 C 592.51 595.65 592.28 604.30 587.02 607.05 C 582.58 609.24 577.47 608.18 572.73 608.52 C 573.42 607.94 574.12 607.37 574.82 606.81 C 574.80 602.35 575.19 597.87 574.70 593.43 C 574.24 593.08 573.31 592.38 572.85 592.02 M 578.53 592.57 C 578.54 596.37 578.40 600.18 578.50 603.99 C 578.34 605.59 578.91 607.73 581.00 607.41 C 586.77 607.58 588.29 600.00 586.14 595.81 C 584.79 592.93 581.34 592.54 578.53 592.57 Z" />
<path fill="#ff4e72" opacity="1.00" d=" M 597.98 591.48 C 602.30 591.50 606.62 591.55 610.95 591.41 C 611.03 593.00 611.11 594.61 611.21 596.22 C 610.44 595.10 609.77 593.90 608.82 592.94 C 607.23 592.55 605.59 592.62 603.99 592.55 C 604.00 594.76 604.00 596.98 604.00 599.21 C 605.26 599.15 606.53 599.09 607.81 599.04 C 608.31 598.21 608.82 597.39 609.35 596.58 C 609.39 598.77 609.38 600.98 609.31 603.18 C 608.86 602.34 608.41 601.51 607.97 600.67 C 606.62 600.59 605.28 600.51 603.95 600.45 C 604.00 602.63 604.07 604.83 604.12 607.03 C 605.72 607.21 607.36 607.56 608.99 607.27 C 610.46 606.47 611.48 605.09 612.67 603.95 C 612.33 605.46 611.99 606.98 611.64 608.51 C 606.98 608.45 602.32 608.59 597.66 608.43 C 598.51 607.95 599.37 607.48 600.24 607.03 C 600.52 602.39 600.41 597.75 600.33 593.11 C 599.54 592.56 598.76 592.02 597.98 591.48 Z" />
<path fill="#ff4e72" opacity="1.00" d=" M 624.75 591.52 C 627.17 591.65 629.60 591.61 632.03 591.48 C 631.58 592.22 631.14 592.97 630.71 593.72 C 632.07 596.91 633.26 600.17 634.51 603.41 C 636.88 600.40 637.57 596.52 639.03 593.06 C 638.29 592.57 637.56 592.09 636.83 591.61 C 638.99 591.61 641.15 591.61 643.32 591.52 C 642.23 592.35 640.99 593.08 640.32 594.33 C 637.74 599.18 636.35 604.57 633.89 609.48 C 631.72 608.16 631.65 605.23 630.60 603.14 C 628.83 599.20 628.13 594.50 624.75 591.52 Z" />
<path fill="#ff4e72" opacity="1.00" d=" M 647.71 591.49 C 651.98 591.49 656.25 591.50 660.53 591.51 C 660.60 593.05 660.69 594.60 660.81 596.16 C 659.50 593.26 656.69 592.14 653.63 592.40 C 653.54 594.60 653.46 596.81 653.35 599.03 C 655.73 599.54 658.02 599.02 658.98 596.56 C 658.89 598.81 658.87 601.07 658.89 603.33 C 658.31 602.37 657.73 601.42 657.17 600.48 C 656.25 600.48 654.42 600.49 653.50 600.49 C 653.47 602.75 653.55 605.02 653.78 607.28 C 655.48 607.27 657.24 607.54 658.92 607.12 C 660.16 606.17 661.11 604.91 662.17 603.78 C 661.61 605.18 662.05 607.50 660.70 608.37 C 656.11 608.75 651.49 608.38 646.90 608.48 C 647.88 607.95 648.85 607.42 649.85 606.91 C 649.91 602.35 649.93 597.79 649.83 593.23 C 649.12 592.65 648.41 592.07 647.71 591.49 Z" />
<path fill="#ff4e72" opacity="1.00" d=" M 668.12 591.98 C 672.34 591.68 677.17 590.58 680.96 593.01 C 683.67 595.30 681.94 599.08 679.40 600.67 C 680.81 603.66 682.81 606.31 685.15 608.64 C 683.51 608.40 681.77 608.52 680.26 607.77 C 677.29 606.23 677.50 601.61 674.08 600.69 C 674.03 602.73 674.04 604.78 674.08 606.84 C 674.82 607.35 675.57 607.88 676.32 608.42 C 673.52 608.38 670.72 608.37 667.93 608.40 C 668.73 607.93 669.54 607.46 670.35 606.99 C 670.43 602.38 670.90 597.70 670.18 593.12 C 669.66 592.84 668.63 592.26 668.12 591.98 M 673.97 592.46 C 673.99 595.03 674.01 597.61 674.06 600.19 C 676.01 600.11 678.75 599.58 678.51 596.99 C 679.07 594.14 676.53 592.37 673.97 592.46 Z" />
<path fill="#ff4e72" opacity="1.00" d=" M 690.78 591.87 C 695.47 591.55 700.57 590.84 704.93 593.07 C 710.17 596.06 709.60 604.68 704.22 607.21 C 699.63 609.11 694.47 608.49 689.65 608.22 C 690.31 607.96 691.63 607.43 692.29 607.16 C 692.47 602.70 692.37 598.23 692.43 593.78 C 692.02 593.30 691.19 592.35 690.78 591.87 M 696.02 592.63 C 696.20 597.31 695.50 602.07 696.40 606.70 C 699.01 608.49 702.81 606.75 703.82 603.90 C 705.00 600.65 704.96 596.22 702.02 593.90 C 700.33 592.53 698.04 592.72 696.02 592.63 Z" />
<path fill="#ff4e72" opacity="1.00" d=" M 721.55 592.57 C 722.30 592.03 723.05 591.49 723.82 590.97 C 725.51 596.26 727.31 601.52 729.21 606.74 C 730.08 607.30 730.98 607.88 731.88 608.45 C 729.22 608.34 726.55 608.35 723.90 608.48 C 724.39 607.74 724.89 607.01 725.40 606.28 C 724.93 605.11 724.48 603.95 724.04 602.80 C 722.40 602.84 720.77 602.88 719.15 602.93 C 718.72 604.31 718.32 605.70 717.90 607.10 C 718.53 607.35 719.78 607.84 720.40 608.09 C 718.20 608.44 715.96 608.46 713.75 608.50 C 717.40 606.44 718.24 601.98 719.14 598.25 C 719.67 599.34 720.12 600.46 720.55 601.62 C 721.59 601.53 722.64 601.45 723.69 601.37 C 723.04 599.31 722.45 597.19 721.09 595.47 L 721.54 597.79 C 721.00 597.93 719.92 598.22 719.38 598.36 C 720.11 596.42 720.85 594.51 721.55 592.57 Z" />
<path fill="#ff4e72" opacity="1.00" d=" M 736.88 592.07 C 741.57 591.31 746.66 591.00 751.13 592.89 C 756.51 595.64 756.29 604.29 751.02 607.05 C 746.59 609.24 741.48 608.17 736.74 608.53 C 737.42 607.94 738.12 607.37 738.83 606.80 C 738.79 602.35 739.18 597.87 738.71 593.44 C 738.25 593.10 737.34 592.41 736.88 592.07 M 742.55 592.54 C 742.59 597.00 742.22 601.48 742.68 605.94 C 743.25 608.06 746.24 607.52 747.75 606.81 C 751.40 604.66 751.73 599.38 750.16 595.84 C 748.82 592.94 745.35 592.56 742.55 592.54 Z" />
</g>
<g id="#0f0f0fff">
<path fill="#0f0f0f" opacity="1.00" d=" M 123.31 498.84 C 124.54 499.07 125.66 499.64 125.96 500.97 C 133.06 517.66 140.58 534.17 147.48 550.94 C 155.07 533.98 162.21 516.81 169.73 499.83 C 170.12 498.26 172.63 499.21 172.33 500.70 C 176.76 521.39 181.45 542.03 185.67 562.77 C 183.96 563.09 182.27 563.44 180.58 563.82 C 179.80 562.70 179.20 561.46 179.03 560.11 C 175.91 545.34 172.55 530.62 169.46 515.85 C 162.36 531.80 155.53 547.88 148.63 563.92 C 148.09 563.89 147.02 563.82 146.48 563.78 C 139.68 547.79 132.76 531.84 125.70 515.96 C 122.29 531.57 119.04 547.23 115.48 562.80 C 113.84 564.44 111.39 562.71 109.46 562.60 C 114.08 541.35 118.48 520.05 123.31 498.84 Z" />
<path fill="#0f0f0f" opacity="1.00" d=" M 338.53 499.68 C 354.19 494.86 372.37 503.81 378.17 519.09 C 384.15 533.09 378.75 550.58 366.06 558.91 C 356.65 565.34 343.89 566.37 333.57 561.50 C 320.70 555.72 312.60 541.06 314.76 527.08 C 316.28 514.29 326.09 503.02 338.53 499.68 M 341.20 505.28 C 332.90 507.28 325.72 513.40 322.55 521.36 C 317.42 533.12 322.39 548.00 333.44 554.46 C 344.06 561.30 359.24 559.03 367.54 549.55 C 375.10 541.40 376.70 528.43 371.24 518.73 C 365.77 508.13 352.75 502.36 341.20 505.28 Z" />
<path fill="#0f0f0f" opacity="1.00" d=" M 421.01 500.05 C 420.94 498.44 423.60 498.86 423.62 500.28 C 430.99 517.13 438.29 534.01 445.60 550.88 C 453.14 533.64 460.40 516.27 468.12 499.11 C 468.56 499.15 469.43 499.22 469.87 499.25 C 474.86 520.25 478.94 541.48 483.84 562.50 C 482.11 562.96 480.38 563.41 478.67 563.90 C 477.82 562.74 477.17 561.46 477.01 560.03 C 473.90 545.28 470.54 530.60 467.46 515.85 C 460.30 531.87 453.50 548.06 446.50 564.15 C 446.01 564.01 445.03 563.71 444.55 563.56 C 437.45 547.77 430.82 531.75 423.71 515.96 C 420.40 531.29 417.08 546.63 413.73 561.96 C 413.03 564.93 409.41 562.72 407.45 562.60 C 411.97 541.75 416.35 520.86 421.01 500.05 Z" />
<path fill="#0f0f0f" opacity="1.00" d=" M 717.58 519.85 C 722.68 505.79 738.33 496.69 753.08 499.31 C 759.76 500.36 766.18 503.52 770.89 508.40 C 771.74 510.65 768.67 511.92 767.60 513.50 C 760.90 506.49 750.46 503.25 741.07 505.98 C 729.64 508.91 721.06 520.19 721.56 532.02 C 721.53 544.49 731.60 555.91 743.92 557.64 C 752.54 559.10 761.56 555.82 767.53 549.50 C 768.68 551.06 771.71 552.28 770.90 554.58 C 760.44 565.58 741.94 567.16 729.63 558.38 C 717.35 550.31 712.12 533.47 717.58 519.85 Z" />
<path fill="#0f0f0f" opacity="1.00" d=" M 807.42 499.57 C 821.60 495.46 837.77 502.38 844.86 515.25 C 850.07 524.48 850.48 536.18 845.89 545.75 C 841.12 555.80 831.02 563.15 819.92 564.33 C 807.89 565.93 795.44 560.13 788.66 550.13 C 783.16 542.06 781.45 531.48 784.32 522.12 C 787.38 511.27 796.52 502.40 807.42 499.57 M 808.45 505.62 C 795.19 509.25 786.33 524.02 789.69 537.43 C 792.48 550.77 806.43 560.50 819.94 558.15 C 835.22 556.33 846.48 539.70 842.16 524.84 C 838.81 510.49 822.54 501.12 808.45 505.62 Z" />
<path fill="#0f0f0f" opacity="1.00" d=" M 199.50 501.99 C 199.15 499.82 201.45 499.86 202.93 499.92 C 213.31 500.01 223.70 499.79 234.08 500.02 C 235.75 501.21 235.84 504.92 234.00 505.97 C 224.56 506.21 215.09 505.98 205.64 506.06 C 205.64 513.02 205.64 519.97 205.64 526.93 C 215.06 527.12 224.51 526.56 233.90 527.21 C 234.51 529.08 235.29 533.43 232.12 533.04 C 223.30 533.12 214.47 533.03 205.64 533.06 C 205.64 541.02 205.64 548.97 205.64 556.93 C 215.12 557.01 224.62 556.79 234.09 557.03 C 235.87 558.23 235.99 563.12 233.16 563.04 C 222.43 563.03 211.68 563.19 200.96 562.96 C 198.93 563.02 199.62 560.26 199.44 559.01 C 199.53 540.01 199.41 521.00 199.50 501.99 Z" />
<path fill="#0f0f0f" opacity="1.00" d=" M 267.99 502.94 C 267.04 499.41 272.40 498.84 274.02 500.95 C 274.24 519.60 274.05 538.27 274.11 556.93 C 284.05 557.06 294.01 556.68 303.93 557.12 C 305.03 558.74 305.00 561.24 303.94 562.89 C 292.33 563.23 280.68 563.07 269.07 562.97 C 268.82 562.70 268.34 562.15 268.09 561.88 C 267.86 542.24 268.08 522.59 267.99 502.94 Z" />
<path fill="#0f0f0f" opacity="1.00" d=" M 497.49 502.09 C 497.12 499.32 500.31 500.03 502.03 499.91 C 512.04 500.04 522.05 499.78 532.05 500.03 C 533.78 501.14 533.83 504.94 532.00 505.96 C 522.55 506.21 513.09 505.98 503.64 506.06 C 503.64 513.02 503.64 519.97 503.64 526.93 C 513.07 527.14 522.55 526.53 531.93 527.23 C 532.55 529.00 532.58 531.02 531.92 532.79 C 522.53 533.44 513.06 532.87 503.64 533.06 C 503.64 541.02 503.64 548.97 503.64 556.93 C 513.13 557.01 522.62 556.79 532.10 557.02 C 534.24 558.62 533.68 564.17 530.06 563.08 C 519.40 562.88 508.71 563.40 498.08 562.82 C 497.94 562.34 497.64 561.39 497.49 560.92 C 497.45 541.31 497.45 521.70 497.49 502.09 Z" />
<path fill="#0f0f0f" opacity="1.00" d=" M 549.49 502.08 C 549.13 499.34 552.26 500.02 553.96 499.91 C 560.01 500.07 566.08 499.63 572.12 500.23 C 578.95 500.99 585.97 504.64 588.92 511.12 C 592.35 519.08 590.68 529.33 584.07 535.18 C 581.44 537.73 577.99 539.13 574.60 540.36 C 579.58 546.73 584.62 553.08 589.44 559.58 C 590.73 562.10 586.91 563.16 585.45 564.48 C 579.78 556.51 573.40 549.07 567.66 541.15 C 563.65 541.00 559.64 541.07 555.64 541.07 C 555.36 548.42 556.23 555.86 555.18 563.16 C 553.47 563.09 551.75 563.13 550.08 562.84 C 549.10 561.42 549.57 559.62 549.44 558.04 C 549.53 539.38 549.42 520.73 549.49 502.08 M 555.64 506.06 C 555.64 515.69 555.64 525.31 555.64 534.94 C 563.14 534.43 571.49 536.59 578.16 532.13 C 586.14 527.21 587.21 513.10 578.41 508.49 C 571.40 504.82 563.22 506.41 555.64 506.06 Z" />
<path fill="#0f0f0f" opacity="1.00" d=" M 605.50 502.03 C 605.17 499.29 608.34 500.05 610.03 499.91 C 620.05 500.03 630.08 499.78 640.10 500.03 C 641.87 501.27 642.01 506.22 639.08 506.04 C 629.93 506.11 620.79 506.03 611.64 506.06 C 611.64 513.02 611.64 519.97 611.64 526.93 C 621.07 527.14 630.55 526.52 639.94 527.23 C 640.47 528.99 640.74 531.15 639.79 532.82 C 630.44 533.40 621.02 532.89 611.64 533.06 C 611.64 541.02 611.64 548.97 611.64 556.93 C 621.12 557.01 630.61 556.79 640.08 557.03 C 641.89 558.23 642.00 563.23 639.07 563.04 C 628.38 563.03 617.68 563.18 607.00 562.97 C 604.92 563.06 605.62 560.25 605.44 558.98 C 605.53 540.00 605.41 521.01 605.50 502.03 Z" />
<path fill="#0f0f0f" opacity="1.00" d=" M 661.10 505.82 C 660.08 503.97 659.71 499.41 662.95 499.96 C 676.00 499.91 689.07 499.91 702.13 499.96 C 703.77 499.51 704.89 501.36 703.67 502.58 C 691.15 520.72 678.56 538.81 666.02 556.94 C 676.69 556.92 687.36 556.94 698.04 556.92 C 702.20 555.71 702.21 564.27 698.04 563.08 C 684.08 562.88 670.08 563.40 656.15 562.82 C 656.07 562.42 655.91 561.62 655.82 561.22 C 668.37 542.73 681.27 524.48 693.93 506.06 C 682.99 505.90 672.01 506.39 661.10 505.82 Z" />
</g>
</svg>
