<?xml version="1.0" encoding="UTF-8" ?>
<!DOCTYPE svg PUBLIC "-//W3C//DTD SVG 1.1//EN" "http://www.w3.org/Graphics/SVG/1.1/DTD/svg11.dtd">
<svg width="1920pt" height="371pt" viewBox="0 0 1920 371" version="1.1" xmlns="http://www.w3.org/2000/svg">
<g id="#ffffffff">
<path fill="#ffffff" opacity="1.00" d=" M 685.46 81.82 C 701.95 79.28 719.32 83.48 732.97 93.05 C 743.67 100.83 752.42 111.56 756.83 124.12 C 762.11 138.22 762.31 154.17 757.35 168.39 C 750.95 187.70 734.86 203.51 715.46 209.64 C 701.48 214.27 685.95 213.94 672.16 208.79 C 659.38 204.30 648.47 195.34 640.69 184.37 C 629.67 168.38 626.20 147.40 631.72 128.76 C 638.38 104.37 660.39 85.14 685.46 81.82 M 686.41 93.57 C 670.30 96.09 655.57 106.36 647.76 120.70 C 641.84 131.19 639.51 143.71 641.53 155.60 C 644.12 171.96 654.69 186.86 669.35 194.60 C 679.93 200.41 692.53 202.49 704.41 200.29 C 720.71 197.47 735.49 186.78 743.03 172.02 C 749.22 160.58 750.77 146.84 747.70 134.24 C 744.60 121.90 737.19 110.60 726.80 103.20 C 715.28 94.88 700.45 91.15 686.41 93.57 Z" />
<path fill="#ffffff" opacity="1.00" d=" M 1622.46 81.82 C 1641.95 78.86 1662.82 85.18 1677.04 98.93 C 1688.26 109.11 1695.40 123.43 1697.38 138.40 C 1699.90 157.39 1693.80 177.56 1680.57 191.52 C 1670.84 202.37 1657.34 209.60 1642.99 211.97 C 1622.37 215.55 1600.04 208.66 1585.47 193.54 C 1575.87 184.30 1569.59 171.88 1567.22 158.82 C 1563.27 137.99 1570.16 115.25 1585.46 100.47 C 1595.23 90.31 1608.56 83.86 1622.46 81.82 M 1623.41 93.57 C 1601.44 96.81 1582.82 114.95 1578.84 136.78 C 1574.71 156.44 1583.09 177.87 1599.08 189.92 C 1613.26 200.97 1633.09 204.22 1650.01 198.03 C 1666.53 192.33 1679.70 178.18 1684.31 161.34 C 1688.71 145.70 1685.43 128.24 1675.80 115.17 C 1664.21 98.94 1643.08 90.14 1623.41 93.57 Z" />
<path fill="#ffffff" opacity="1.00" d=" M 1460.60 92.58 C 1478.14 80.89 1501.59 78.86 1520.98 87.06 C 1528.82 90.23 1535.84 95.18 1541.87 101.08 C 1541.88 101.81 1541.90 103.25 1541.91 103.98 C 1539.63 106.29 1537.28 108.53 1534.97 110.79 C 1522.88 97.51 1503.77 91.30 1486.19 94.80 C 1467.75 98.13 1451.68 111.93 1445.73 129.72 C 1439.21 147.78 1443.86 169.08 1457.02 183.01 C 1468.97 196.19 1487.89 202.62 1505.40 199.29 C 1516.70 197.42 1527.20 191.60 1534.95 183.18 C 1537.43 186.27 1542.21 188.23 1542.09 192.75 C 1530.04 204.91 1513.12 212.00 1496.00 211.88 C 1477.81 211.99 1459.75 203.99 1447.75 190.28 C 1431.57 172.95 1426.82 146.32 1435.22 124.26 C 1439.83 111.24 1449.20 100.23 1460.60 92.58 Z" />
<path fill="#ffffff" opacity="1.00" d=" M 246.28 82.88 C 247.55 82.70 248.82 82.53 250.10 82.38 C 264.84 116.47 279.74 150.49 294.42 184.61 C 294.77 184.71 295.46 184.92 295.81 185.02 C 310.50 150.88 325.32 116.79 340.05 82.67 C 341.33 82.51 342.61 82.54 343.91 82.76 C 352.91 124.88 362.24 166.94 371.18 209.07 C 367.43 209.41 362.59 212.72 359.49 209.45 C 352.92 179.33 346.36 149.21 339.81 119.10 C 339.52 117.90 339.20 116.71 338.82 115.54 C 338.28 116.45 337.79 117.39 337.33 118.34 C 323.79 149.42 310.57 180.64 296.89 211.66 C 295.72 211.64 294.56 211.64 293.40 211.64 C 280.63 182.08 267.73 152.58 254.95 123.04 C 253.84 120.54 252.92 117.93 251.31 115.71 C 244.32 147.00 237.83 178.42 230.76 209.69 C 227.30 212.39 222.93 209.19 219.10 208.96 C 228.25 166.95 237.37 124.93 246.28 82.88 Z" />
<path fill="#ffffff" opacity="1.00" d=" M 842.28 82.88 C 843.54 82.70 844.81 82.53 846.10 82.38 C 860.87 116.45 875.66 150.51 890.47 184.56 C 890.80 184.64 891.47 184.80 891.80 184.87 C 906.61 150.84 921.29 116.74 936.05 82.68 C 937.31 82.50 938.60 82.53 939.91 82.76 C 948.91 124.88 958.23 166.94 967.18 209.07 C 963.43 209.41 958.58 212.72 955.50 209.44 C 948.68 178.54 942.13 147.58 935.19 116.72 C 934.80 114.67 933.53 117.66 933.31 118.30 C 919.84 149.42 906.56 180.63 892.89 211.66 C 891.71 211.64 890.55 211.64 889.40 211.64 C 876.63 182.09 863.74 152.59 850.95 123.04 C 849.84 120.54 848.92 117.93 847.31 115.71 C 840.32 147.00 833.83 178.41 826.76 209.68 C 823.31 212.40 818.92 209.19 815.10 208.96 C 824.25 166.95 833.37 124.93 842.28 82.88 Z" />
<path fill="#ffffff" opacity="1.00" d=" M 401.07 84.10 C 423.04 84.23 445.01 84.08 466.98 84.17 C 470.19 83.84 470.20 87.76 470.16 90.00 C 470.21 92.22 470.18 96.15 466.98 95.83 C 448.36 95.88 429.75 95.84 411.13 95.85 C 411.03 109.95 411.03 124.05 411.13 138.15 C 429.66 138.21 448.19 138.03 466.71 138.23 C 469.36 139.98 468.28 143.35 468.47 146.01 C 468.83 148.02 467.13 150.35 464.96 149.86 C 447.02 149.85 429.07 149.86 411.13 149.85 C 411.03 165.95 411.03 182.05 411.13 198.15 C 429.75 198.16 448.36 198.12 466.98 198.17 C 470.19 197.84 470.19 201.76 470.16 204.00 C 470.21 206.23 470.18 210.15 466.97 209.83 C 445.36 209.86 423.74 209.87 402.13 209.83 C 400.81 209.93 400.09 208.55 399.10 207.93 C 399.23 167.66 399.08 127.39 399.17 87.13 C 399.06 85.81 400.44 85.09 401.07 84.10 Z" />
<path fill="#ffffff" opacity="1.00" d=" M 538.06 84.11 C 540.64 84.18 543.23 84.02 545.82 84.25 C 548.04 84.50 547.97 87.22 548.07 88.91 C 548.11 125.32 547.99 161.74 548.13 198.15 C 567.40 198.16 586.66 198.12 605.93 198.17 C 608.03 197.91 609.18 200.15 609.01 201.96 C 608.83 204.45 609.82 207.79 607.49 209.53 C 606.07 210.07 604.51 209.78 603.05 209.87 C 581.38 209.85 559.72 209.82 538.06 209.89 C 537.18 208.71 535.93 207.60 536.27 205.98 C 536.31 166.38 536.25 126.78 536.30 87.18 C 536.20 85.90 537.47 85.12 538.06 84.11 Z" />
<path fill="#ffffff" opacity="1.00" d=" M 995.13 87.99 C 994.69 85.85 996.84 83.70 999.00 84.13 C 1020.01 84.16 1041.03 84.15 1062.05 84.14 C 1063.54 84.06 1065.63 84.29 1065.79 86.19 C 1066.30 89.13 1066.57 92.45 1065.20 95.21 C 1063.97 96.03 1062.44 95.81 1061.07 95.87 C 1043.09 95.82 1025.11 95.87 1007.13 95.85 C 1007.03 109.95 1007.03 124.05 1007.13 138.15 C 1025.07 138.14 1043.02 138.15 1060.96 138.14 C 1063.12 137.65 1064.83 139.98 1064.48 141.99 C 1064.27 144.65 1065.36 148.02 1062.71 149.77 C 1044.19 149.97 1025.66 149.79 1007.13 149.85 C 1007.03 165.95 1007.03 182.05 1007.13 198.15 C 1025.75 198.16 1044.36 198.12 1062.98 198.17 C 1066.18 197.85 1066.20 201.77 1066.16 204.00 C 1066.19 206.23 1066.19 210.15 1062.97 209.83 C 1041.01 209.91 1019.03 209.77 997.07 209.90 C 996.43 208.90 995.05 208.18 995.17 206.87 C 995.10 167.25 995.19 127.62 995.13 87.99 Z" />
<path fill="#ffffff" opacity="1.00" d=" M 1101.20 84.13 C 1112.14 84.17 1123.07 84.15 1134.01 84.14 C 1145.46 83.92 1157.43 86.30 1166.79 93.23 C 1174.19 98.45 1179.10 106.80 1180.44 115.73 C 1181.91 126.01 1180.55 137.05 1174.90 145.95 C 1169.13 155.26 1159.41 161.64 1148.88 164.30 C 1158.73 177.78 1169.47 190.61 1179.29 204.10 C 1179.55 208.57 1173.95 209.79 1171.50 212.68 C 1159.15 197.21 1147.20 181.43 1135.00 165.84 C 1127.04 165.86 1119.08 165.85 1111.13 165.85 C 1110.99 178.59 1111.10 191.33 1111.08 204.07 C 1111.10 205.87 1110.79 207.66 1110.40 209.41 C 1106.79 209.83 1101.46 211.59 1099.21 207.75 C 1099.05 167.24 1099.21 126.72 1099.13 86.20 C 1099.81 85.51 1100.50 84.82 1101.20 84.13 M 1111.13 95.85 C 1111.03 115.28 1111.03 134.72 1111.13 154.15 C 1119.75 154.14 1128.38 154.14 1137.01 154.16 C 1147.11 154.09 1157.58 149.92 1163.71 141.64 C 1169.24 134.20 1170.21 124.26 1168.47 115.38 C 1166.38 105.95 1157.57 99.63 1148.57 97.51 C 1136.28 94.75 1123.60 96.22 1111.13 95.85 Z" />
<path fill="#ffffff" opacity="1.00" d=" M 1211.13 87.99 C 1210.69 85.85 1212.84 83.70 1214.99 84.13 C 1236.31 84.18 1257.64 84.11 1278.97 84.17 C 1282.17 83.84 1282.20 87.77 1282.16 90.00 C 1282.19 92.24 1282.19 96.16 1278.97 95.83 C 1260.36 95.88 1241.74 95.84 1223.13 95.85 C 1223.03 109.95 1223.03 124.05 1223.13 138.15 C 1241.65 138.21 1260.19 138.03 1278.71 138.23 C 1281.36 139.97 1280.27 143.35 1280.48 146.01 C 1280.83 148.02 1279.12 150.35 1276.96 149.86 C 1259.01 149.85 1241.07 149.86 1223.13 149.85 C 1223.03 165.95 1223.03 182.05 1223.13 198.15 C 1241.74 198.16 1260.36 198.12 1278.97 198.17 C 1282.18 197.84 1282.20 201.77 1282.16 204.00 C 1282.20 206.23 1282.17 210.15 1278.97 209.83 C 1257.05 209.89 1235.12 209.82 1213.20 209.87 C 1212.50 209.18 1211.81 208.49 1211.13 207.80 C 1211.16 167.86 1211.16 127.93 1211.13 87.99 Z" />
<path fill="#ffffff" opacity="1.00" d=" M 1323.06 84.11 C 1350.97 84.23 1378.88 84.07 1406.79 84.19 C 1408.00 85.50 1408.36 87.70 1407.13 89.13 C 1384.05 122.40 1361.00 155.69 1337.93 188.96 C 1335.87 192.00 1333.64 194.92 1331.83 198.12 C 1354.53 198.17 1377.24 198.17 1399.95 198.12 C 1402.36 200.39 1401.55 203.80 1401.59 206.77 C 1401.65 208.03 1400.48 208.86 1399.95 209.88 C 1371.00 209.82 1342.05 209.86 1313.10 209.86 C 1312.52 208.86 1311.98 207.86 1311.43 206.86 C 1334.53 173.50 1357.66 140.15 1380.77 106.79 C 1383.24 103.17 1385.86 99.65 1388.12 95.88 C 1366.44 95.85 1344.76 95.80 1323.08 95.90 C 1320.44 93.72 1321.35 90.18 1321.30 87.18 C 1321.19 85.90 1322.46 85.12 1323.06 84.11 Z" />
<path fill="#ffffff" opacity="1.00" d=" M 481.48 266.98 C 486.66 265.60 492.33 267.17 496.49 270.42 C 505.01 276.94 504.70 291.73 496.03 298.01 C 490.68 301.77 483.29 302.60 477.32 299.79 C 466.78 295.75 464.03 279.86 472.42 272.41 C 474.76 269.63 477.82 267.53 481.48 266.98 M 483.26 267.83 C 476.27 269.51 474.46 277.79 474.62 283.98 C 475.07 289.39 476.30 295.67 481.14 298.91 C 483.32 300.09 486.18 301.14 488.53 299.76 C 493.92 297.73 495.40 291.19 495.37 286.04 C 495.76 280.48 494.68 274.43 490.73 270.26 C 488.68 268.61 485.99 266.91 483.26 267.83 Z" />
<path fill="#ffffff" opacity="1.00" d=" M 578.96 270.03 C 580.70 269.10 582.27 267.86 583.43 266.24 C 586.05 276.84 590.35 286.99 593.75 297.37 C 594.43 299.63 596.67 299.56 598.64 299.61 C 598.67 299.87 598.72 300.39 598.75 300.65 C 593.73 300.11 588.69 300.32 583.66 300.51 C 584.60 299.64 585.83 299.34 587.09 299.24 C 586.94 295.92 585.91 292.76 585.12 289.57 C 581.45 289.16 577.75 289.30 574.08 289.40 C 573.26 292.34 571.86 295.13 571.40 298.16 C 572.11 299.97 574.67 299.39 576.14 300.41 C 572.03 300.36 567.92 300.34 563.82 300.47 C 565.33 299.71 566.94 299.20 568.44 298.42 C 571.57 292.48 573.58 286.02 575.86 279.72 C 577.06 276.55 578.47 273.41 578.96 270.03 M 579.15 274.53 C 577.58 278.74 575.77 282.94 575.19 287.43 C 578.03 287.38 580.88 287.37 583.73 287.44 C 582.62 283.03 581.72 278.37 579.15 274.53 Z" />
<path fill="#ffffff" opacity="1.00" d=" M 673.96 270.04 C 675.70 269.09 677.28 267.87 678.43 266.24 C 681.05 276.84 685.35 286.99 688.75 297.37 C 689.44 299.64 691.67 299.56 693.64 299.61 C 693.67 299.87 693.72 300.39 693.75 300.65 C 688.90 300.22 684.02 300.09 679.19 300.66 C 679.19 300.37 679.21 299.78 679.22 299.48 C 679.95 299.47 681.41 299.43 682.14 299.42 C 681.94 296.04 680.94 292.82 680.13 289.57 C 676.45 289.16 672.75 289.29 669.07 289.40 C 668.27 292.34 666.84 295.12 666.41 298.15 C 667.07 300.00 669.68 299.38 671.14 300.41 C 667.03 300.36 662.92 300.34 658.82 300.47 C 660.33 299.71 661.94 299.20 663.45 298.42 C 666.58 292.47 668.58 286.02 670.86 279.72 C 672.06 276.55 673.46 273.42 673.96 270.04 M 674.15 274.53 C 672.58 278.74 670.77 282.94 670.19 287.43 C 673.03 287.38 675.88 287.37 678.73 287.44 C 677.63 283.02 676.72 278.37 674.15 274.53 Z" />
<path fill="#ffffff" opacity="1.00" d=" M 759.96 270.04 C 761.70 269.09 763.27 267.87 764.43 266.24 C 767.05 276.84 771.36 286.99 774.75 297.37 C 775.43 299.64 777.67 299.55 779.64 299.61 C 779.67 299.87 779.72 300.39 779.75 300.65 C 774.73 300.11 769.69 300.31 764.67 300.51 C 765.55 299.54 766.87 299.46 768.09 299.22 C 767.93 295.91 766.91 292.76 766.13 289.57 C 762.45 289.16 758.75 289.30 755.08 289.40 C 754.27 292.34 752.84 295.12 752.41 298.15 C 753.06 300.00 755.68 299.37 757.13 300.41 C 753.02 300.36 748.92 300.34 744.82 300.47 C 746.32 299.71 747.94 299.20 749.44 298.42 C 752.58 292.48 754.58 286.02 756.86 279.72 C 758.05 276.55 759.46 273.42 759.96 270.04 M 760.15 274.53 C 758.58 278.74 756.77 282.94 756.19 287.43 C 759.03 287.38 761.87 287.37 764.72 287.44 C 763.63 283.02 762.72 278.37 760.15 274.53 Z" />
<path fill="#ffffff" opacity="1.00" d=" M 939.19 268.39 C 945.30 265.96 952.11 266.02 958.36 267.91 C 958.73 270.70 959.29 273.46 959.41 276.28 C 957.76 273.74 956.50 270.78 953.91 269.02 C 950.73 267.55 946.92 266.84 943.69 268.62 C 937.46 270.83 935.56 278.11 935.51 284.03 C 935.88 289.19 937.04 295.18 941.59 298.33 C 944.44 299.60 947.69 300.96 950.85 300.28 C 954.71 299.05 953.23 294.10 953.42 291.04 C 953.27 288.37 950.19 288.43 948.21 288.49 C 948.21 288.20 948.20 287.62 948.19 287.33 C 953.05 287.81 957.97 287.89 962.85 287.38 C 962.83 287.62 962.81 288.12 962.80 288.36 C 961.23 288.50 958.87 288.51 959.51 290.83 C 959.82 293.73 958.63 297.17 960.72 299.59 C 956.39 300.01 952.23 301.72 947.82 301.54 C 942.03 301.23 935.64 299.75 931.94 294.90 C 929.87 291.66 928.22 287.91 928.45 283.99 C 928.82 277.38 932.93 270.85 939.19 268.39 Z" />
<path fill="#ffffff" opacity="1.00" d=" M 1046.38 266.02 C 1047.22 267.15 1048.52 267.67 1049.93 267.48 C 1057.94 267.40 1065.95 267.52 1073.96 267.43 C 1074.42 267.16 1075.33 266.62 1075.79 266.35 C 1075.41 269.34 1075.62 272.37 1075.41 275.38 C 1074.27 273.54 1073.47 271.53 1072.31 269.72 C 1069.73 268.41 1066.61 268.05 1063.85 268.84 C 1063.15 277.81 1063.69 286.97 1063.58 296.01 C 1063.60 298.96 1066.09 300.00 1068.68 299.55 C 1068.71 299.83 1068.78 300.40 1068.81 300.69 C 1063.28 300.14 1057.72 300.19 1052.20 300.69 C 1052.23 300.42 1052.30 299.87 1052.34 299.60 C 1054.25 299.54 1057.41 299.61 1057.42 296.96 C 1057.47 287.52 1057.51 278.07 1057.38 268.63 C 1055.02 268.65 1052.48 268.04 1050.29 269.13 C 1047.48 269.99 1046.75 273.13 1045.19 275.26 C 1045.29 272.13 1046.73 269.18 1046.38 266.02 Z" />
<path fill="#ffffff" opacity="1.00" d=" M 1442.96 270.03 C 1444.69 269.09 1446.27 267.87 1447.43 266.24 C 1449.55 275.26 1453.23 283.87 1456.11 292.68 C 1456.96 294.94 1457.35 297.51 1459.13 299.29 C 1460.28 299.44 1461.45 299.54 1462.64 299.61 C 1462.67 299.87 1462.72 300.39 1462.75 300.65 C 1457.73 300.11 1452.69 300.31 1447.67 300.51 C 1448.54 299.54 1449.86 299.46 1451.09 299.22 C 1450.93 295.91 1449.91 292.76 1449.12 289.57 C 1445.45 289.16 1441.75 289.30 1438.07 289.40 C 1437.26 292.34 1435.85 295.12 1435.40 298.15 C 1436.08 299.98 1438.67 299.38 1440.13 300.41 C 1436.02 300.36 1431.92 300.34 1427.82 300.47 C 1429.32 299.71 1430.93 299.20 1432.44 298.42 C 1436.21 291.30 1438.29 283.47 1441.29 276.02 C 1442.05 274.09 1442.61 272.08 1442.96 270.03 M 1443.15 274.53 C 1441.58 278.74 1439.77 282.94 1439.19 287.43 C 1442.02 287.38 1444.87 287.37 1447.73 287.44 C 1446.62 283.02 1445.72 278.37 1443.15 274.53 Z" />
<path fill="#ffffff" opacity="1.00" d=" M 410.59 267.51 C 414.21 267.60 417.85 267.91 421.46 267.44 C 423.62 275.71 428.38 282.93 431.71 290.73 C 432.21 290.71 433.23 290.67 433.74 290.66 C 437.06 282.94 441.58 275.65 443.66 267.47 C 447.23 267.88 450.82 267.61 454.41 267.52 C 452.93 268.57 451.14 268.97 449.46 269.57 C 449.09 278.70 449.40 287.84 449.61 296.97 C 449.87 297.64 450.40 298.98 450.66 299.65 C 451.43 299.57 452.97 299.42 453.74 299.35 C 453.76 299.68 453.79 300.34 453.81 300.67 C 448.98 300.09 444.10 300.24 439.26 300.65 C 439.27 300.37 439.28 299.83 439.29 299.56 C 440.58 299.58 441.86 299.46 443.12 299.19 C 443.80 297.56 443.58 295.73 443.62 294.01 C 443.24 287.92 443.66 281.82 443.33 275.74 C 441.63 276.43 441.19 278.33 440.45 279.81 C 437.16 287.20 433.48 294.44 430.81 302.09 C 429.90 300.99 428.95 299.88 428.56 298.49 C 425.94 291.24 422.47 284.34 419.34 277.31 C 418.80 277.22 417.73 277.05 417.19 276.97 C 417.59 283.63 416.15 290.25 416.71 296.89 C 417.17 299.51 419.45 299.71 421.67 299.55 C 421.70 299.82 421.74 300.36 421.76 300.63 C 417.72 300.12 413.66 300.36 409.62 300.52 C 411.15 299.49 413.34 299.22 414.38 297.58 C 414.66 288.39 416.11 279.23 415.29 270.03 C 413.87 268.91 412.15 268.36 410.59 267.51 Z" />
<path fill="#ffffff" opacity="1.00" d=" M 517.84 268.09 C 526.71 267.52 536.03 266.41 544.55 269.62 C 549.90 272.15 554.18 277.88 553.59 284.01 C 553.74 290.82 548.86 297.27 542.33 299.15 C 534.29 301.41 525.87 300.11 517.65 300.54 C 518.90 299.80 520.43 299.53 521.53 298.55 C 522.83 296.61 522.39 294.20 522.47 292.01 C 522.39 285.34 522.54 278.67 522.42 272.01 C 522.52 269.34 519.81 268.79 517.84 268.09 M 528.50 269.57 C 528.77 278.41 528.53 287.25 528.61 296.09 C 530.77 300.67 536.83 299.77 540.43 297.54 C 543.39 295.53 545.26 292.29 546.11 288.86 C 547.16 282.61 546.53 274.98 540.82 271.05 C 537.14 269.10 532.46 267.48 528.50 269.57 Z" />
<path fill="#ffffff" opacity="1.00" d=" M 626.82 268.06 C 634.00 267.47 641.45 266.72 648.44 268.93 C 653.32 270.25 655.78 276.69 653.19 280.99 C 651.53 285.52 646.05 285.94 641.96 286.54 C 643.97 284.94 646.28 283.44 647.24 280.92 C 648.05 276.85 647.66 271.35 643.32 269.44 C 641.59 268.54 638.56 267.41 637.51 269.79 C 637.66 279.18 637.37 288.58 637.65 297.97 C 639.03 299.61 641.31 299.61 643.13 300.49 C 637.81 300.39 632.46 300.01 627.16 300.61 C 627.20 300.33 627.30 299.75 627.35 299.47 C 628.03 299.47 629.41 299.49 630.09 299.50 C 630.63 298.04 631.56 296.63 631.46 295.01 C 631.42 287.35 631.52 279.68 631.42 272.01 C 631.53 269.32 628.80 268.76 626.82 268.06 Z" />
<path fill="#ffffff" opacity="1.00" d=" M 704.83 268.07 C 712.03 267.63 719.47 266.62 726.52 268.71 C 729.97 269.80 732.59 273.23 732.32 276.91 C 731.76 280.15 729.14 282.49 726.34 283.91 C 726.71 288.01 729.66 291.18 731.45 294.74 C 732.72 297.57 735.61 298.92 738.16 300.36 C 733.31 301.14 727.31 299.93 724.90 295.18 C 722.71 292.14 722.08 287.98 719.19 285.52 C 718.30 285.54 716.52 285.57 715.63 285.59 C 715.54 289.71 715.39 293.85 715.66 297.98 C 717.03 299.12 718.78 299.63 720.31 300.52 C 715.27 300.38 710.20 300.04 705.18 300.67 C 705.20 300.42 705.24 299.90 705.26 299.64 C 706.92 299.55 709.45 299.11 709.42 296.98 C 709.46 288.00 709.54 279.01 709.38 270.03 C 707.96 269.15 706.35 268.67 704.83 268.07 M 715.75 268.77 C 715.35 273.95 715.63 279.18 715.63 284.39 C 718.54 284.60 721.51 284.57 724.14 283.16 C 726.03 279.22 726.13 274.12 723.48 270.52 C 721.30 268.99 718.40 268.02 715.75 268.77 Z" />
<path fill="#ffffff" opacity="1.00" d=" M 806.72 267.50 C 815.01 267.31 823.31 267.65 831.60 267.32 C 831.35 270.07 831.94 272.76 832.33 275.46 C 831.49 274.41 830.78 273.27 830.16 272.09 C 828.07 267.29 821.72 268.54 817.51 268.80 C 817.54 273.44 817.63 278.08 817.45 282.72 C 820.51 282.68 823.57 282.69 826.64 282.54 C 827.01 281.10 827.36 279.65 827.60 278.19 C 827.86 278.18 828.37 278.16 828.63 278.14 C 828.18 281.71 828.18 285.31 828.59 288.88 C 828.33 288.87 827.81 288.84 827.55 288.83 C 827.48 287.27 827.41 285.64 825.92 284.75 C 823.12 284.30 820.26 284.64 817.45 284.46 C 817.95 289.10 816.70 293.99 818.40 298.44 C 821.43 299.42 824.70 299.88 827.86 299.26 C 831.07 298.26 832.54 295.00 834.77 292.77 C 834.42 295.45 833.59 298.03 832.82 300.61 C 823.93 300.51 815.05 300.49 806.17 300.62 C 806.20 300.39 806.27 299.93 806.30 299.70 C 808.85 300.00 811.39 298.94 811.42 296.01 C 811.49 288.00 811.48 279.98 811.42 271.97 C 811.47 269.18 808.77 268.43 806.72 267.50 Z" />
<path fill="#ffffff" opacity="1.00" d=" M 847.16 267.34 C 852.19 267.98 857.26 267.59 862.31 267.50 C 860.79 268.40 858.96 268.80 857.64 270.02 C 857.39 278.02 857.62 286.05 857.53 294.06 C 857.39 295.59 857.90 297.02 858.40 298.44 C 862.14 299.75 866.38 300.04 870.00 298.16 C 871.80 296.54 872.82 294.19 874.82 292.77 C 874.23 295.42 873.42 298.00 872.72 300.62 C 863.89 300.48 855.05 300.52 846.23 300.60 C 846.26 300.35 846.32 299.87 846.35 299.62 C 847.67 299.60 848.99 299.59 850.33 299.59 C 850.60 298.94 851.13 297.63 851.39 296.97 C 851.55 288.97 851.41 280.96 851.46 272.96 C 851.65 270.43 850.04 267.75 847.23 268.45 C 847.21 268.17 847.18 267.62 847.16 267.34 Z" />
<path fill="#ffffff" opacity="1.00" d=" M 887.72 267.50 C 896.01 267.31 904.32 267.65 912.61 267.32 C 912.34 269.96 912.81 272.57 913.46 275.13 C 913.10 274.90 912.38 274.44 912.02 274.21 C 911.35 272.35 910.76 269.87 908.56 269.35 C 905.37 268.01 901.83 268.52 898.51 268.80 C 898.54 273.44 898.63 278.08 898.45 282.72 C 901.51 282.68 904.57 282.69 907.64 282.54 C 908.00 281.10 908.36 279.65 908.61 278.18 C 908.86 278.17 909.37 278.16 909.63 278.15 C 909.09 281.89 909.39 285.66 909.41 289.42 C 908.44 287.91 908.25 286.00 906.96 284.69 C 904.13 284.38 901.28 284.60 898.45 284.46 C 898.95 289.10 897.70 293.99 899.40 298.45 C 902.43 299.42 905.70 299.88 908.86 299.26 C 912.08 298.26 913.53 294.98 915.80 292.76 C 915.40 295.44 914.59 298.02 913.82 300.61 C 904.94 300.51 896.05 300.49 887.17 300.62 C 887.20 300.39 887.26 299.93 887.29 299.70 C 889.44 299.73 891.82 299.54 892.27 296.95 C 892.68 288.65 892.39 280.30 892.42 271.98 C 892.47 269.18 889.77 268.43 887.72 267.50 Z" />
<path fill="#ffffff" opacity="1.00" d=" M 975.64 267.52 C 980.86 267.72 986.08 267.74 991.31 267.47 C 989.76 268.34 988.06 268.93 986.67 270.03 C 986.45 279.33 986.46 288.67 986.67 297.97 C 988.06 299.06 989.76 299.65 991.30 300.52 C 986.08 300.26 980.86 300.28 975.64 300.48 C 976.81 299.63 978.42 299.58 979.45 298.52 C 980.91 296.65 980.35 294.20 980.47 292.02 C 980.31 285.04 980.70 278.05 980.30 271.09 C 979.81 268.75 977.35 268.54 975.64 267.52 Z" />
<path fill="#ffffff" opacity="1.00" d=" M 1004.83 268.07 C 1012.03 267.63 1019.47 266.61 1026.52 268.71 C 1029.97 269.80 1032.59 273.23 1032.32 276.91 C 1031.75 280.15 1029.14 282.49 1026.34 283.91 C 1026.71 288.01 1029.66 291.19 1031.45 294.74 C 1032.73 297.58 1035.62 298.93 1038.18 300.37 C 1033.33 301.13 1027.32 299.95 1024.91 295.19 C 1022.71 292.15 1022.09 287.97 1019.19 285.52 C 1018.30 285.54 1016.52 285.57 1015.64 285.58 C 1015.57 289.69 1015.33 293.83 1015.71 297.93 C 1016.62 299.33 1018.20 299.50 1019.74 299.64 C 1019.76 299.90 1019.80 300.42 1019.82 300.67 C 1014.79 300.04 1009.73 300.38 1004.69 300.52 C 1006.21 299.63 1007.95 299.12 1009.34 297.98 C 1009.56 288.67 1009.49 279.34 1009.38 270.03 C 1007.96 269.15 1006.34 268.67 1004.83 268.07 M 1015.76 268.77 C 1015.34 273.95 1015.63 279.18 1015.64 284.39 C 1018.54 284.60 1021.50 284.57 1024.14 283.16 C 1026.03 279.22 1026.13 274.12 1023.48 270.52 C 1021.30 268.99 1018.40 268.02 1015.76 268.77 Z" />
<path fill="#ffffff" opacity="1.00" d=" M 1088.72 267.50 C 1097.01 267.31 1105.32 267.65 1113.61 267.32 C 1113.34 269.96 1113.81 272.57 1114.46 275.12 C 1114.10 274.89 1113.38 274.44 1113.02 274.21 C 1112.35 272.35 1111.76 269.87 1109.56 269.35 C 1106.37 268.00 1102.83 268.52 1099.51 268.80 C 1099.54 273.44 1099.63 278.08 1099.45 282.72 C 1102.50 282.68 1105.57 282.69 1108.64 282.54 C 1109.00 281.10 1109.36 279.65 1109.60 278.19 C 1109.86 278.18 1110.37 278.16 1110.63 278.15 C 1110.18 281.70 1110.18 285.31 1110.59 288.87 C 1110.33 288.87 1109.81 288.85 1109.55 288.84 C 1109.47 287.28 1109.41 285.64 1107.92 284.75 C 1105.12 284.30 1102.26 284.64 1099.45 284.46 C 1099.94 289.10 1098.70 293.98 1100.40 298.44 C 1103.43 299.42 1106.70 299.88 1109.86 299.25 C 1113.09 298.27 1114.51 294.96 1116.81 292.77 C 1116.39 295.43 1115.59 298.02 1114.83 300.61 C 1105.94 300.51 1097.05 300.49 1088.16 300.62 C 1088.20 300.39 1088.27 299.93 1088.30 299.70 C 1090.85 300.00 1093.39 298.94 1093.42 296.01 C 1093.49 288.00 1093.48 279.99 1093.42 271.98 C 1093.48 269.19 1090.77 268.43 1088.72 267.50 Z" />
<path fill="#ffffff" opacity="1.00" d=" M 1145.83 268.12 C 1154.70 267.49 1164.03 266.42 1172.55 269.62 C 1177.90 272.14 1182.18 277.89 1181.59 284.01 C 1181.74 290.82 1176.86 297.27 1170.33 299.15 C 1162.28 301.42 1153.86 300.10 1145.63 300.55 C 1147.71 299.64 1150.50 298.83 1150.42 296.00 C 1150.49 288.00 1150.49 280.00 1150.42 272.00 C 1150.52 269.32 1147.81 268.79 1145.83 268.12 M 1156.50 269.57 C 1156.77 278.40 1156.52 287.25 1156.61 296.09 C 1157.97 299.05 1161.75 300.19 1164.71 298.99 C 1171.37 297.75 1175.01 290.30 1174.43 284.00 C 1174.89 278.88 1172.67 273.39 1168.20 270.64 C 1164.58 269.05 1160.25 267.52 1156.50 269.57 Z" />
<path fill="#ffffff" opacity="1.00" d=" M 1196.72 267.50 C 1205.01 267.32 1213.32 267.65 1221.61 267.32 C 1221.33 269.97 1221.81 272.57 1222.46 275.13 C 1222.10 274.90 1221.38 274.44 1221.03 274.21 C 1220.34 272.36 1219.76 269.87 1217.56 269.35 C 1214.37 268.01 1210.83 268.51 1207.51 268.80 C 1207.54 273.44 1207.63 278.08 1207.45 282.71 C 1210.46 282.68 1213.49 282.69 1216.52 282.54 C 1217.11 280.88 1217.28 278.99 1218.48 277.61 C 1218.36 281.36 1218.10 285.13 1218.59 288.88 C 1218.33 288.87 1217.81 288.85 1217.55 288.83 C 1217.47 287.28 1217.40 285.64 1215.92 284.75 C 1213.12 284.30 1210.26 284.64 1207.45 284.46 C 1207.95 289.10 1206.70 293.99 1208.40 298.45 C 1211.43 299.42 1214.70 299.88 1217.86 299.25 C 1221.08 298.26 1222.53 294.97 1224.80 292.76 C 1224.40 295.44 1223.59 298.02 1222.83 300.61 C 1213.94 300.51 1205.05 300.49 1196.16 300.62 C 1196.20 300.39 1196.26 299.93 1196.30 299.70 C 1198.45 299.73 1200.82 299.54 1201.27 296.94 C 1201.68 288.65 1201.39 280.29 1201.42 271.97 C 1201.46 269.18 1198.76 268.43 1196.72 267.50 Z" />
<path fill="#ffffff" opacity="1.00" d=" M 1248.81 267.51 C 1253.98 267.68 1259.16 267.73 1264.34 267.49 C 1263.23 268.16 1262.05 268.71 1260.92 269.28 C 1261.42 274.06 1263.80 278.33 1265.40 282.80 C 1266.84 286.02 1267.25 289.80 1269.91 292.36 C 1273.41 284.97 1275.99 277.18 1278.90 269.54 C 1277.71 268.97 1276.48 268.56 1275.22 268.30 C 1275.21 268.06 1275.18 267.59 1275.17 267.36 C 1278.86 267.84 1282.58 267.67 1286.30 267.50 C 1284.81 268.30 1283.20 268.84 1281.75 269.66 C 1279.82 272.07 1278.79 275.02 1277.60 277.82 C 1274.39 285.72 1270.88 293.51 1268.35 301.67 C 1267.48 301.60 1266.62 301.53 1265.78 301.47 C 1262.65 290.66 1257.36 280.61 1254.13 269.84 C 1252.32 269.11 1250.47 268.51 1248.81 267.51 Z" />
<path fill="#ffffff" opacity="1.00" d=" M 1295.72 267.50 C 1304.01 267.32 1312.32 267.65 1320.61 267.32 C 1320.33 269.97 1320.81 272.57 1321.46 275.13 C 1321.10 274.90 1320.38 274.44 1320.02 274.21 C 1319.34 272.36 1318.76 269.87 1316.56 269.35 C 1313.37 268.01 1309.83 268.51 1306.51 268.80 C 1306.54 273.44 1306.62 278.08 1306.45 282.72 C 1309.46 282.68 1312.49 282.69 1315.52 282.55 C 1316.11 280.88 1316.26 278.97 1317.49 277.60 C 1317.26 281.54 1317.30 285.47 1317.43 289.41 C 1316.41 287.93 1316.27 285.99 1314.96 284.69 C 1312.13 284.38 1309.28 284.60 1306.45 284.46 C 1306.94 289.10 1305.70 293.99 1307.40 298.44 C 1310.43 299.42 1313.69 299.88 1316.86 299.26 C 1320.10 298.27 1321.51 294.95 1323.81 292.76 C 1323.39 295.43 1322.59 298.02 1321.83 300.60 C 1312.94 300.51 1304.05 300.49 1295.17 300.62 C 1295.20 300.39 1295.26 299.93 1295.30 299.70 C 1297.85 300.00 1300.38 298.94 1300.42 296.01 C 1300.49 288.00 1300.48 279.99 1300.42 271.98 C 1300.47 269.18 1297.76 268.43 1295.72 267.50 Z" />
<path fill="#ffffff" opacity="1.00" d=" M 1336.83 268.08 C 1344.03 267.62 1351.47 266.62 1358.52 268.71 C 1361.97 269.80 1364.58 273.23 1364.32 276.91 C 1363.75 280.15 1361.14 282.49 1358.34 283.91 C 1358.71 288.01 1361.66 291.18 1363.45 294.74 C 1364.73 297.58 1367.62 298.93 1370.18 300.39 C 1365.32 301.11 1359.31 299.95 1356.91 295.18 C 1354.71 292.14 1354.08 287.98 1351.19 285.52 C 1350.30 285.54 1348.52 285.57 1347.64 285.58 C 1347.57 289.70 1347.32 293.84 1347.71 297.94 C 1348.62 299.33 1350.20 299.50 1351.74 299.64 C 1351.76 299.90 1351.80 300.42 1351.82 300.67 C 1346.79 300.04 1341.73 300.38 1336.69 300.52 C 1338.21 299.64 1339.94 299.11 1341.34 297.98 C 1341.56 288.67 1341.49 279.34 1341.38 270.03 C 1339.96 269.14 1338.33 268.68 1336.83 268.08 M 1347.75 268.76 C 1347.35 273.95 1347.63 279.18 1347.63 284.39 C 1350.54 284.59 1353.51 284.58 1356.15 283.15 C 1358.02 279.22 1358.13 274.12 1355.49 270.53 C 1353.30 268.99 1350.39 268.02 1347.75 268.76 Z" />
<path fill="#ffffff" opacity="1.00" d=" M 1380.85 268.09 C 1388.98 267.51 1397.35 266.70 1405.35 268.82 C 1410.32 270.17 1414.39 274.24 1416.06 279.07 C 1418.34 286.70 1414.30 295.89 1406.64 298.65 C 1398.30 301.68 1389.29 300.02 1380.63 300.55 C 1382.71 299.63 1385.50 298.83 1385.42 296.00 C 1385.49 288.00 1385.48 280.00 1385.42 272.00 C 1385.51 269.34 1382.81 268.78 1380.85 268.09 M 1391.50 269.57 C 1391.77 278.40 1391.52 287.25 1391.61 296.09 C 1392.96 299.05 1396.75 300.19 1399.71 298.99 C 1406.37 297.75 1410.01 290.30 1409.43 284.01 C 1409.89 278.89 1407.67 273.40 1403.20 270.65 C 1399.58 269.05 1395.25 267.52 1391.50 269.57 Z" />
<path fill="#ffffff" opacity="1.00" d=" M 1473.80 268.00 C 1481.97 267.64 1490.34 266.64 1498.36 268.83 C 1503.66 270.25 1507.83 274.77 1509.39 279.97 C 1510.24 285.29 1509.06 291.20 1505.08 295.04 C 1501.01 299.38 1494.70 300.28 1489.05 300.52 C 1483.92 300.21 1478.79 300.69 1473.66 300.53 C 1475.72 299.60 1478.51 298.82 1478.42 296.00 C 1478.48 288.00 1478.48 279.99 1478.42 271.99 C 1478.48 269.36 1475.72 268.77 1473.80 268.00 M 1484.50 269.57 C 1484.76 278.40 1484.52 287.25 1484.61 296.08 C 1486.77 300.68 1492.83 299.77 1496.43 297.54 C 1500.73 294.57 1502.85 289.12 1502.43 284.01 C 1502.89 278.89 1500.67 273.39 1496.20 270.65 C 1492.58 269.05 1488.25 267.52 1484.50 269.57 Z" />
</g>
</svg>
