<?xml version="1.0" encoding="UTF-8" ?>
<!DOCTYPE svg PUBLIC "-//W3C//DTD SVG 1.1//EN" "http://www.w3.org/Graphics/SVG/1.1/DTD/svg11.dtd">
<svg width="960pt" height="960pt" viewBox="0 0 960 960" version="1.1" xmlns="http://www.w3.org/2000/svg">
<g id="#ff4d74ff">
<path fill="#ff4d74" opacity="1.00" d=" M 478.42 241.42 C 481.26 240.23 483.45 243.02 485.19 244.82 C 489.39 248.94 491.72 254.39 494.59 259.42 C 498.06 265.67 501.27 272.05 504.73 278.31 C 506.89 282.29 509.92 286.16 509.79 290.94 C 510.50 299.76 503.28 306.01 498.46 312.45 C 492.98 318.61 488.95 326.43 481.58 330.61 C 478.38 331.58 475.23 329.02 473.09 326.90 C 466.85 319.09 460.56 311.33 454.42 303.45 C 450.08 298.15 448.66 290.26 451.99 284.10 C 458.41 272.89 464.20 261.32 470.51 250.05 C 473.10 247.16 474.88 243.25 478.42 241.42 Z" />
</g>
<g id="#ff4e72ff">
<path fill="#ff4e72" opacity="1.00" d=" M 301.48 278.61 C 306.29 277.77 311.23 278.27 316.09 278.43 C 320.90 277.99 324.05 282.39 328.38 283.77 C 334.74 288.59 339.86 294.89 346.07 299.92 C 354.80 307.84 363.17 316.15 371.67 324.32 C 377.37 330.31 383.97 335.33 389.68 341.31 C 399.21 349.41 407.30 359.06 416.93 367.05 C 425.68 375.64 434.96 383.68 443.49 392.50 C 448.75 397.22 453.30 402.70 458.92 407.01 C 462.43 410.19 465.54 413.79 469.23 416.77 C 473.02 419.85 475.95 423.95 479.98 426.70 C 483.88 424.56 486.37 420.53 490.00 417.96 C 495.51 414.18 499.09 408.38 504.46 404.43 C 515.94 392.90 527.98 381.96 539.69 370.67 C 549.57 361.91 558.51 352.15 568.33 343.32 C 573.50 338.83 578.21 333.84 583.46 329.43 C 593.08 319.38 603.73 310.40 613.52 300.53 C 620.01 295.83 624.82 289.22 631.06 284.22 C 635.37 281.81 639.82 279.04 644.96 279.31 C 650.33 277.70 656.08 278.07 661.57 278.75 C 665.10 281.20 669.39 282.39 672.58 285.38 C 679.48 291.32 686.06 299.40 685.71 309.02 C 685.73 339.37 685.80 369.73 685.67 400.08 C 680.67 405.99 673.92 410.01 668.38 415.36 C 661.31 420.96 654.75 427.13 647.55 432.55 C 643.25 437.33 637.50 440.40 632.97 444.92 C 629.37 448.43 624.92 450.91 621.50 454.61 C 620.36 456.01 618.41 455.51 616.87 455.67 C 615.57 453.66 615.42 451.30 615.95 449.02 C 617.24 442.35 615.33 435.69 615.65 429.00 C 615.53 425.31 616.82 421.67 616.06 418.00 C 615.00 413.02 617.24 407.99 615.98 403.00 C 614.90 399.71 617.19 396.26 616.06 393.10 C 613.99 393.16 612.78 395.12 611.34 396.33 C 606.79 401.17 601.10 404.72 596.46 409.45 C 589.79 415.81 582.42 421.39 575.95 427.95 C 560.42 441.41 545.06 455.05 529.86 468.89 C 523.37 474.37 517.30 480.34 510.58 485.56 C 505.08 491.10 499.20 496.23 493.27 501.29 C 489.27 504.43 485.97 508.36 481.92 511.42 C 479.49 512.23 477.34 510.89 475.69 509.24 C 460.83 495.72 445.94 482.22 430.64 469.21 C 414.73 454.50 398.43 440.18 382.13 425.86 C 372.64 416.65 362.31 408.36 352.41 399.60 C 349.62 397.19 347.33 394.25 344.37 392.05 C 344.48 412.72 344.41 433.41 344.42 454.09 C 344.09 454.48 343.42 455.26 343.09 455.65 C 338.62 456.56 336.52 451.83 333.45 449.59 C 323.66 442.47 314.83 434.16 305.38 426.63 C 299.71 421.61 293.62 417.10 288.05 411.97 C 283.37 408.16 278.38 404.64 274.44 400.03 C 274.20 371.36 274.45 342.67 274.31 314.00 C 274.08 307.15 275.47 299.97 279.26 294.18 C 282.90 290.15 286.28 285.53 291.31 283.15 C 293.99 280.29 298.01 280.00 301.48 278.61 Z" />
<path fill="#ff4e72" opacity="1.00" d=" M 90.75 312.99 C 99.87 310.94 109.67 310.54 118.65 313.42 C 124.58 316.87 129.89 321.36 135.04 325.89 C 144.44 333.12 153.05 341.32 162.51 348.49 C 167.69 352.27 171.75 357.38 177.19 360.83 C 196.20 376.47 214.71 392.72 234.01 408.01 C 247.43 419.95 261.62 430.99 275.35 442.57 C 281.06 446.44 285.44 451.88 291.05 455.89 C 296.15 459.41 300.05 464.36 305.29 467.70 C 311.49 473.17 318.14 478.11 324.26 483.67 C 328.97 486.52 332.35 490.93 336.85 494.06 C 341.89 497.64 345.96 502.38 351.08 505.84 C 354.80 508.43 357.73 511.95 361.46 514.54 C 366.86 518.42 371.10 523.67 376.68 527.33 C 388.89 537.46 400.90 547.82 413.31 557.72 C 434.51 575.88 456.27 593.35 477.43 611.53 C 478.55 612.80 480.70 613.20 482.06 612.08 C 489.57 605.92 496.84 599.47 504.50 593.49 C 512.84 585.78 521.96 579.00 530.68 571.74 C 539.81 563.47 549.69 556.08 558.89 547.88 C 571.18 538.27 582.89 527.92 594.78 517.81 C 597.79 515.49 600.88 513.27 603.53 510.54 C 606.73 507.34 610.71 505.09 614.04 502.05 C 619.59 496.90 625.77 492.48 631.19 487.18 C 638.27 482.34 644.14 475.99 651.26 471.20 C 654.95 467.53 659.43 464.79 662.97 460.95 C 665.42 458.33 668.58 456.56 671.36 454.32 C 683.23 443.48 695.95 433.60 708.31 423.33 C 712.28 418.86 717.69 416.09 721.98 411.98 C 726.40 407.69 731.52 404.23 736.07 400.08 C 741.85 396.29 746.40 391.00 751.96 386.93 C 754.65 384.93 757.08 382.63 759.53 380.35 C 767.43 374.37 774.70 367.60 782.45 361.44 C 786.91 358.30 790.74 354.40 794.98 350.98 C 805.80 342.15 816.45 333.11 827.20 324.21 C 832.24 320.28 836.97 315.83 842.78 313.02 C 851.39 310.66 860.60 310.81 869.25 312.96 C 877.78 317.18 884.98 324.36 889.03 332.99 C 893.53 339.44 892.65 347.94 891.10 355.22 C 887.81 361.01 885.53 367.31 882.19 373.07 C 879.28 378.05 877.61 383.67 874.13 388.30 C 872.07 393.88 869.54 399.31 866.39 404.35 C 864.13 408.67 862.87 413.48 860.06 417.49 C 857.93 421.76 856.40 426.38 853.49 430.21 C 845.83 446.44 837.49 462.33 829.38 478.34 C 827.63 483.58 824.46 488.09 822.12 493.04 C 819.40 500.63 814.58 507.18 811.57 514.64 C 804.06 529.19 796.93 543.93 789.39 558.45 C 786.00 563.66 784.64 569.89 781.18 575.07 C 777.27 584.29 772.18 592.88 767.92 601.93 C 764.68 607.73 762.17 613.90 758.85 619.66 C 757.40 622.11 756.48 624.82 755.34 627.42 C 752.48 632.98 748.99 638.24 746.88 644.16 C 744.35 648.46 742.03 652.87 740.21 657.53 C 737.09 662.54 735.33 668.24 732.20 673.24 C 729.53 675.17 726.02 674.50 722.95 674.38 C 719.98 673.33 718.32 670.08 718.45 667.06 C 718.48 626.36 718.45 585.66 718.47 544.96 C 719.51 537.90 724.73 532.39 726.82 525.65 C 730.56 519.82 733.01 513.29 736.24 507.18 C 739.13 503.62 739.56 498.83 742.12 495.06 C 744.02 490.58 747.66 486.92 748.82 482.16 C 745.48 483.37 743.50 486.62 740.73 488.69 C 731.50 496.12 722.64 503.97 713.45 511.43 C 708.41 516.13 702.57 519.85 697.62 524.65 C 687.67 531.95 679.08 540.87 669.12 548.13 C 656.49 559.21 643.21 569.52 630.46 580.47 C 626.00 585.08 620.37 588.30 615.91 592.91 C 609.37 598.01 602.95 603.27 596.57 608.57 C 591.96 613.36 586.16 616.75 581.46 621.44 C 574.36 626.98 567.56 632.89 560.54 638.54 C 556.32 643.06 550.76 646.00 546.53 650.51 C 539.50 656.51 532.17 662.17 525.11 668.13 C 521.89 672.01 517.02 673.88 513.64 677.58 C 509.67 681.75 504.64 684.66 500.46 688.59 C 488.84 697.11 472.02 696.64 460.16 688.83 C 448.36 679.69 437.43 669.47 425.54 660.45 C 416.19 651.74 405.75 644.33 396.44 635.59 C 380.21 622.87 364.71 609.26 348.67 596.28 C 336.93 586.74 325.66 576.65 313.89 567.15 C 308.60 563.47 304.46 558.41 299.03 554.91 C 284.24 542.32 269.21 530.00 254.35 517.50 C 253.56 517.06 252.74 516.70 251.88 516.45 C 251.97 516.11 252.07 515.77 252.17 515.45 C 245.36 510.48 239.05 504.82 232.64 499.35 C 226.14 494.31 219.98 488.85 213.71 483.52 C 213.39 483.86 212.74 484.53 212.41 484.86 C 216.38 491.61 219.95 498.58 223.26 505.67 C 226.72 511.39 228.76 517.83 232.28 523.51 C 234.08 526.63 234.97 530.20 236.92 533.25 C 239.20 536.81 241.71 540.60 241.77 544.98 C 241.79 585.32 241.75 625.66 241.79 666.00 C 241.89 669.36 240.67 673.41 237.04 674.41 C 234.29 674.43 230.96 675.28 228.72 673.24 C 225.74 668.99 224.25 663.90 221.22 659.68 C 217.18 653.69 215.38 646.58 211.78 640.37 C 207.05 631.45 202.92 622.24 198.33 613.25 C 196.81 608.67 193.99 604.71 191.68 600.53 C 189.62 593.42 184.50 587.74 182.13 580.74 C 181.21 577.40 177.93 575.51 177.18 572.09 C 175.67 566.74 171.80 562.57 170.01 557.35 C 168.13 551.44 164.19 546.46 162.03 540.67 C 160.06 535.63 156.57 531.25 155.19 525.97 C 152.47 524.54 152.77 520.82 151.21 518.46 C 148.39 513.89 146.32 508.93 143.75 504.21 C 142.44 501.39 140.20 499.07 139.37 496.03 C 138.03 491.72 134.64 488.42 133.33 484.09 C 132.28 480.62 129.78 477.87 128.73 474.40 C 126.00 469.08 123.76 463.50 120.62 458.40 C 118.25 453.79 117.02 448.58 113.84 444.40 C 111.33 441.56 111.53 437.35 109.00 434.53 C 108.18 432.11 107.05 429.87 105.09 428.18 C 102.82 423.15 101.69 417.27 97.77 413.16 C 96.19 410.34 95.54 407.06 93.56 404.44 C 89.17 398.01 87.67 390.17 83.39 383.72 C 82.20 380.70 80.15 378.11 79.18 375.00 C 78.63 372.50 76.14 371.06 75.65 368.53 C 75.15 366.27 73.31 364.63 72.78 362.36 C 71.75 358.47 68.59 355.28 68.71 351.08 C 68.63 347.08 68.33 343.03 68.96 339.07 C 70.86 333.95 72.75 328.64 76.52 324.56 C 80.74 320.15 84.89 315.25 90.75 312.99 Z" />
<path fill="#ff4e72" opacity="1.00" d=" M 200.48 714.72 C 204.44 712.99 208.81 713.65 213.00 713.54 C 391.33 713.54 569.67 713.55 748.00 713.53 C 752.44 713.43 757.00 713.34 761.15 715.20 C 769.58 718.55 776.04 726.31 778.29 735.05 C 778.90 739.01 778.73 743.05 778.55 747.04 C 776.91 759.61 765.38 769.32 753.06 770.46 C 573.71 770.47 394.35 770.46 215.00 770.46 C 210.10 770.35 204.96 771.12 200.39 768.91 C 192.42 766.33 185.78 760.09 182.84 752.25 C 181.60 746.98 181.96 741.49 182.15 736.13 C 182.20 730.39 185.94 725.68 189.57 721.60 C 192.47 718.31 196.36 716.11 200.48 714.72 Z" />
</g>
</svg>
