<?xml version="1.0" encoding="UTF-8" ?>
<!DOCTYPE svg PUBLIC "-//W3C//DTD SVG 1.1//EN" "http://www.w3.org/Graphics/SVG/1.1/DTD/svg11.dtd">
<svg width="960pt" height="960pt" viewBox="0 0 960 960" version="1.1" xmlns="http://www.w3.org/2000/svg">
<g id="#ff4d74ff">
<path fill="#ff4d74" opacity="1.00" d=" M 472.70 343.50 C 474.96 339.55 476.60 335.10 479.96 331.92 C 483.29 335.34 485.16 339.84 487.38 344.00 C 488.42 348.47 483.98 351.48 481.58 354.64 C 479.71 357.02 477.61 354.07 476.43 352.59 C 474.58 349.94 470.80 347.11 472.70 343.50 Z" />
<path fill="#ff4d74" opacity="1.00" d=" M 426.51 349.36 C 427.39 342.53 436.81 339.52 441.61 344.34 C 454.47 356.37 467.26 368.47 479.95 380.68 C 492.74 368.53 505.47 356.31 518.40 344.32 C 523.17 339.53 532.57 342.54 533.45 349.33 C 533.80 357.41 533.45 365.51 533.61 373.60 C 527.60 378.60 521.85 383.99 515.39 388.41 C 515.30 382.71 515.20 377.01 515.44 371.32 C 503.77 381.98 491.83 392.37 479.99 402.86 C 468.13 392.39 456.18 382.01 444.55 371.29 C 444.74 377.00 444.67 382.72 444.60 388.44 C 438.13 384.00 432.39 378.60 426.35 373.61 C 426.50 365.53 426.14 357.43 426.51 349.36 Z" />
<path fill="#ff4d74" opacity="1.00" d=" M 374.11 355.21 C 376.67 350.11 384.16 349.00 388.30 352.74 C 418.93 378.06 449.39 403.59 479.99 428.96 C 509.50 404.45 538.93 379.86 568.46 355.38 C 571.19 353.09 574.03 350.18 577.93 350.49 C 582.70 350.34 586.55 354.54 587.25 359.02 C 587.35 361.80 585.69 364.19 584.56 366.61 C 571.54 392.68 558.36 418.66 545.44 444.77 C 544.43 444.78 543.45 444.70 542.48 444.51 C 541.60 442.78 541.99 440.77 541.91 438.92 C 542.04 429.60 541.75 420.28 542.03 410.97 C 544.15 405.39 547.37 400.28 549.87 394.87 C 528.54 412.51 507.32 430.28 485.97 447.90 C 482.80 450.67 477.90 450.91 474.56 448.31 C 452.91 430.65 431.66 412.49 409.96 394.90 C 412.81 400.19 415.56 405.55 418.06 411.01 C 418.29 421.64 418.21 432.31 418.10 442.94 C 417.92 445.38 414.24 445.61 413.81 443.23 C 400.87 417.43 387.95 391.62 374.97 365.83 C 373.08 362.69 371.99 358.51 374.11 355.21 Z" />
<path fill="#ff4d74" opacity="1.00" d=" M 407.21 455.26 C 408.43 454.97 409.68 454.85 410.96 454.89 C 457.30 454.94 503.65 454.89 549.99 454.92 C 555.03 454.43 559.08 459.93 557.38 464.64 C 556.43 467.71 553.32 469.94 550.08 469.51 C 502.75 469.44 455.42 469.60 408.10 469.43 C 400.87 468.81 400.33 457.04 407.21 455.26 Z" />
<path fill="#ff4d74" opacity="1.00" d=" M 123.39 498.97 C 124.56 499.25 125.60 499.76 125.86 501.06 C 133.08 517.68 140.20 534.33 147.55 550.89 C 155.41 533.76 162.57 516.30 170.17 499.05 C 171.44 499.10 172.13 499.75 172.25 501.01 C 176.78 521.50 181.12 542.03 185.64 562.52 C 183.74 562.99 181.82 563.47 179.85 563.32 C 176.33 547.46 173.20 531.50 169.31 515.73 C 162.33 531.72 155.40 547.73 148.56 563.78 C 148.07 563.76 147.10 563.73 146.61 563.71 C 139.69 547.71 132.97 531.60 125.65 515.79 C 122.43 530.53 119.21 545.28 116.06 560.04 C 115.60 561.17 115.86 563.26 114.19 563.44 C 112.62 563.21 111.10 562.83 109.56 562.49 C 114.25 541.33 118.59 520.10 123.39 498.97 Z" />
<path fill="#ff4d74" opacity="1.00" d=" M 339.39 499.57 C 355.55 495.00 373.86 505.17 378.79 521.14 C 383.43 534.33 378.32 549.93 367.01 558.07 C 357.96 564.81 345.33 566.38 334.94 561.93 C 321.40 556.58 312.61 541.45 314.87 527.02 C 316.50 514.03 326.67 502.66 339.39 499.57 M 339.46 505.63 C 324.58 509.86 316.02 528.07 322.61 542.17 C 328.12 555.89 345.77 562.71 359.01 555.99 C 371.92 550.32 378.35 533.75 372.44 520.90 C 367.40 508.39 352.27 501.37 339.46 505.63 Z" />
<path fill="#ff4d74" opacity="1.00" d=" M 421.40 498.96 C 422.57 499.24 423.59 499.79 423.86 501.08 C 431.08 517.68 438.20 534.33 445.54 550.88 C 453.50 533.85 460.34 516.30 468.24 499.25 C 468.61 499.26 469.35 499.28 469.71 499.29 C 474.74 520.26 478.88 541.46 483.64 562.51 C 481.81 562.57 478.99 564.61 477.79 562.57 C 474.18 547.00 471.04 531.31 467.45 515.74 C 460.17 531.61 453.50 547.77 446.54 563.79 C 446.06 563.78 445.10 563.74 444.62 563.73 C 437.70 547.71 430.94 531.61 423.67 515.76 C 420.24 531.17 417.00 546.64 413.57 562.05 C 412.75 564.75 409.45 562.58 407.57 562.49 C 412.25 541.33 416.58 520.09 421.40 498.96 Z" />
<path fill="#ff4d74" opacity="1.00" d=" M 725.86 507.84 C 737.79 495.98 759.05 496.23 770.70 508.37 C 771.70 510.53 768.73 511.70 767.74 513.24 C 760.82 506.47 750.53 503.10 741.06 505.86 C 729.20 508.83 720.51 520.79 721.45 533.01 C 721.92 545.27 731.98 556.21 744.14 557.79 C 752.56 559.07 761.54 556.11 767.31 549.79 C 768.61 551.03 770.91 551.95 770.97 554.00 C 769.49 556.44 766.78 557.88 764.47 559.45 C 751.45 567.47 733.07 564.40 723.39 552.57 C 712.11 540.14 713.26 518.95 725.86 507.84 Z" />
<path fill="#ff4d74" opacity="1.00" d=" M 809.17 499.27 C 825.69 495.32 843.83 506.51 847.83 522.98 C 852.83 539.73 841.83 558.88 824.95 563.20 C 808.99 568.14 790.44 558.60 785.09 542.81 C 779.65 528.87 785.42 511.88 798.01 503.89 C 801.40 501.68 805.22 500.16 809.17 499.27 M 808.38 505.51 C 796.59 508.78 788.09 520.77 788.95 532.98 C 789.42 544.72 798.43 555.41 809.90 557.88 C 820.61 560.50 832.57 555.74 838.57 546.51 C 844.22 538.24 844.62 526.82 839.59 518.18 C 833.75 507.41 820.08 501.88 808.38 505.51 Z" />
<path fill="#ff4d74" opacity="1.00" d=" M 200.18 500.31 C 211.12 499.77 222.12 500.19 233.08 500.10 C 236.06 499.70 236.02 506.40 233.01 505.90 C 223.86 505.98 214.71 505.89 205.55 505.93 C 205.52 512.97 205.52 520.02 205.56 527.07 C 214.05 527.07 222.55 527.08 231.05 527.06 C 232.30 527.02 234.59 526.94 234.25 528.89 C 234.10 530.11 234.89 532.80 232.92 532.83 C 223.80 533.08 214.67 532.84 205.55 532.93 C 205.52 540.97 205.52 549.02 205.55 557.07 C 214.03 557.06 222.51 557.10 230.99 557.05 C 232.22 557.28 234.30 556.48 234.89 558.03 C 235.18 559.51 235.32 561.20 234.59 562.59 C 231.49 563.35 228.20 562.75 225.02 562.92 C 216.74 562.75 208.40 563.28 200.15 562.67 C 200.01 562.25 199.73 561.41 199.59 560.99 C 199.61 541.02 199.46 521.05 199.67 501.09 L 200.18 500.31 Z" />
<path fill="#ff4d74" opacity="1.00" d=" M 268.15 501.99 C 268.06 499.22 271.58 500.25 273.30 499.94 C 273.84 501.25 274.13 502.63 274.05 504.08 C 274.03 521.74 274.02 539.41 274.06 557.08 C 283.99 557.20 293.95 556.82 303.87 557.26 C 304.89 558.75 304.85 561.19 303.91 562.73 C 292.34 563.14 280.72 562.90 269.14 562.85 C 268.91 562.62 268.45 562.15 268.22 561.91 C 268.04 541.94 268.18 521.96 268.15 501.99 Z" />
<path fill="#ff4d74" opacity="1.00" d=" M 498.19 500.30 C 509.10 499.78 520.06 500.19 530.99 500.10 C 533.85 499.65 533.82 504.97 531.93 505.82 C 522.48 506.08 513.01 505.84 503.55 505.93 C 503.52 512.97 503.52 520.02 503.55 527.07 C 512.05 527.08 520.56 527.08 529.06 527.06 C 530.30 527.02 532.57 526.94 532.25 528.88 C 532.08 530.11 532.90 532.55 531.06 532.82 C 521.90 533.08 512.72 532.84 503.55 532.93 C 503.52 540.97 503.52 549.02 503.56 557.07 C 513.03 557.15 522.52 556.93 532.00 557.17 C 533.77 558.17 533.85 563.11 531.14 562.90 C 521.10 562.97 511.05 562.89 501.01 562.94 C 499.65 562.90 497.21 563.15 497.59 561.02 C 497.61 541.04 497.45 521.04 497.67 501.06 L 498.19 500.30 Z" />
<path fill="#ff4d74" opacity="1.00" d=" M 550.12 500.34 C 553.05 499.80 556.05 500.15 559.01 500.08 C 564.99 500.19 571.15 499.51 576.94 501.39 C 582.56 503.07 587.65 507.20 589.48 512.90 C 591.73 520.03 590.37 528.57 585.04 534.03 C 582.24 537.16 578.35 538.96 574.43 540.24 C 579.49 547.26 585.41 553.68 589.99 561.02 C 588.47 561.84 587.21 563.91 585.40 563.82 C 579.20 556.30 573.56 548.32 567.31 540.84 C 563.39 540.98 559.47 540.91 555.56 540.92 C 555.47 547.60 555.61 554.28 555.51 560.95 C 555.63 564.00 551.27 563.21 549.50 562.23 C 549.65 543.16 549.56 524.08 549.55 505.00 C 549.71 503.46 549.13 501.67 550.12 500.34 M 555.55 505.93 C 555.52 515.64 555.52 525.36 555.55 535.07 C 563.09 534.59 571.51 536.69 578.22 532.25 C 586.24 527.37 587.36 513.20 578.64 508.46 C 571.56 504.69 563.24 506.27 555.55 505.93 Z" />
<path fill="#ff4d74" opacity="1.00" d=" M 605.59 502.02 C 605.17 499.91 607.56 500.05 608.92 500.06 C 618.97 500.11 629.01 500.03 639.06 500.10 C 641.86 499.74 641.81 505.04 639.91 505.82 C 630.47 506.08 621.00 505.84 611.56 505.93 C 611.52 512.97 611.52 520.02 611.56 527.08 C 620.92 527.24 630.33 526.74 639.66 527.31 C 640.61 528.86 641.11 533.25 638.18 532.90 C 629.31 532.98 620.43 532.89 611.55 532.93 C 611.52 540.97 611.52 549.02 611.55 557.07 C 621.02 557.15 630.49 556.94 639.95 557.16 C 641.84 558.09 641.83 563.15 639.10 562.91 C 628.13 562.79 617.11 563.24 606.17 562.68 L 605.67 561.91 C 605.46 541.96 605.61 521.98 605.59 502.02 Z" />
<path fill="#ff4d74" opacity="1.00" d=" M 661.14 500.36 C 662.74 499.93 664.42 500.08 666.07 500.05 C 678.71 500.17 691.35 499.92 703.99 500.19 C 703.95 501.24 703.66 502.22 703.13 503.12 C 690.77 521.13 678.14 538.97 665.88 557.05 C 677.25 557.19 688.64 556.90 700.00 557.19 C 701.31 558.54 701.31 561.39 700.05 562.78 C 685.39 563.07 670.70 562.93 656.04 562.84 C 656.00 561.73 656.27 560.73 656.85 559.83 C 669.25 541.86 681.79 523.98 694.11 505.95 C 683.16 505.74 672.18 506.23 661.26 505.71 C 660.19 504.27 660.34 501.89 661.14 500.36 Z" />
<path fill="#ff4d74" opacity="1.00" d=" M 205.16 591.58 C 206.97 591.65 208.78 591.80 210.60 591.79 C 212.16 595.87 214.16 599.76 216.09 603.68 C 218.30 601.89 218.47 598.76 220.42 596.73 C 219.20 600.98 216.84 604.77 215.48 608.97 C 212.73 604.89 211.68 599.85 208.88 595.75 C 208.58 599.20 208.24 602.66 208.33 606.13 C 208.39 607.74 210.08 607.68 211.13 608.22 C 209.02 608.18 206.92 608.18 204.82 608.19 C 205.58 607.84 206.35 607.51 207.13 607.18 C 207.34 602.64 207.96 598.12 207.71 593.57 C 207.20 592.41 205.62 592.66 205.16 591.58 Z" />
<path fill="#ff4d74" opacity="1.00" d=" M 221.94 591.81 C 223.69 591.81 225.45 591.81 227.21 591.84 C 226.38 592.16 225.56 592.49 224.73 592.82 C 224.94 597.94 223.82 603.38 225.69 608.26 C 224.61 608.24 222.45 608.21 221.37 608.19 C 222.14 604.15 221.51 600.04 221.82 595.97 L 219.81 596.96 C 220.53 595.23 221.24 593.53 221.94 591.81 Z" />
<path fill="#ff4d74" opacity="1.00" d=" M 239.53 591.78 C 242.13 591.10 245.14 591.04 247.44 592.64 C 252.69 595.60 252.68 604.35 247.48 607.35 C 243.13 610.06 236.15 608.65 234.38 603.49 C 232.43 599.03 234.93 593.35 239.53 591.78 M 239.72 592.38 C 236.67 596.40 236.47 602.39 239.38 606.52 C 241.10 608.59 243.98 608.23 246.15 607.17 C 248.12 602.84 248.63 597.27 245.59 593.31 C 244.20 591.44 241.66 592.14 239.72 592.38 Z" />
<path fill="#ff4d74" opacity="1.00" d=" M 259.06 592.07 C 263.88 591.77 269.23 590.97 273.60 593.52 C 278.30 596.55 277.66 604.27 272.84 606.84 C 268.54 609.07 263.51 608.00 258.86 608.23 C 259.59 607.93 260.33 607.65 261.07 607.38 C 261.16 602.58 261.61 597.72 260.90 592.97 C 260.44 592.75 259.52 592.30 259.06 592.07 M 264.39 592.37 C 264.32 596.93 264.16 601.50 264.40 606.07 C 265.17 608.28 268.11 607.81 269.81 607.11 C 273.58 604.83 274.07 599.37 272.33 595.67 C 270.97 592.72 267.27 592.20 264.39 592.37 Z" />
<path fill="#ff4d74" opacity="1.00" d=" M 352.82 591.90 C 357.51 591.96 364.50 590.23 366.49 595.99 C 365.88 597.79 364.73 599.27 363.08 600.24 C 364.48 603.27 365.84 606.70 369.02 608.28 C 367.04 608.27 364.74 608.35 363.38 606.63 C 361.20 604.79 361.35 600.45 357.79 600.65 C 357.76 602.83 357.77 605.02 357.84 607.22 C 358.61 607.53 359.39 607.86 360.17 608.20 C 357.49 608.18 354.81 608.18 352.14 608.17 C 352.73 607.99 353.90 607.62 354.49 607.44 C 354.86 602.68 354.86 597.88 354.57 593.13 C 354.13 592.82 353.25 592.21 352.82 591.90 M 357.79 592.23 C 357.78 594.93 357.78 597.64 357.82 600.35 C 360.00 600.64 363.09 599.80 362.74 597.01 C 363.30 594.07 360.56 591.90 357.79 592.23 Z" />
<path fill="#ff4d74" opacity="1.00" d=" M 403.19 591.56 C 407.39 591.86 411.61 591.72 415.82 591.68 C 415.72 593.00 415.63 594.33 415.54 595.68 C 415.37 591.98 411.49 592.15 408.81 592.25 C 408.77 594.61 408.77 596.99 408.76 599.37 C 410.23 599.33 411.70 599.30 413.19 599.27 C 413.51 598.45 413.84 597.64 414.18 596.84 C 414.18 598.86 414.15 600.89 414.18 602.92 C 414.01 599.86 410.95 600.14 408.72 600.22 C 408.92 602.53 408.30 605.05 409.34 607.23 C 412.00 608.37 415.18 607.80 416.72 605.21 C 418.18 603.23 416.44 607.46 416.38 608.29 C 411.88 608.27 407.39 608.25 402.89 608.30 C 403.98 607.75 405.78 607.55 405.64 605.94 C 405.81 601.98 405.80 598.01 405.64 594.06 C 405.77 592.57 404.15 592.21 403.19 591.56 Z" />
<path fill="#ff4d74" opacity="1.00" d=" M 422.93 591.90 C 425.66 591.79 428.39 591.80 431.13 591.79 C 430.37 592.11 429.61 592.44 428.85 592.77 C 428.78 597.22 428.63 601.68 428.86 606.13 C 429.46 608.31 432.30 607.78 433.97 607.48 C 435.70 607.23 436.28 605.30 437.37 604.18 C 437.05 605.55 436.71 606.91 436.39 608.29 C 431.88 608.23 427.38 608.35 422.88 608.20 C 423.75 607.96 424.62 607.73 425.51 607.52 C 425.80 602.51 426.00 597.46 425.37 592.48 C 424.76 592.33 423.54 592.04 422.93 591.90 Z" />
<path fill="#ff4d74" opacity="1.00" d=" M 443.89 591.75 C 448.00 591.69 452.12 591.75 456.24 591.70 C 456.35 593.12 456.50 594.54 456.62 595.98 C 456.09 594.94 455.58 593.87 455.10 592.83 C 453.20 592.39 451.25 592.22 449.32 592.22 C 449.27 594.61 449.27 597.01 449.27 599.41 C 451.75 599.68 454.16 599.51 454.84 596.74 C 454.65 598.88 454.63 601.03 454.72 603.19 C 454.76 599.93 451.57 600.12 449.22 600.17 C 449.23 602.54 449.29 604.93 449.51 607.30 C 451.59 607.62 453.84 608.13 455.82 607.09 C 456.56 606.08 457.20 605.00 457.89 603.96 C 457.62 605.45 457.26 606.92 456.78 608.37 C 452.19 608.18 447.61 608.33 443.02 608.24 C 443.96 607.97 444.90 607.72 445.85 607.48 C 446.56 602.61 446.21 597.68 446.09 592.79 C 445.35 592.44 444.62 592.09 443.89 591.75 Z" />
<path fill="#ff4d74" opacity="1.00" d=" M 467.52 593.38 C 470.82 590.82 475.32 590.95 479.20 591.87 C 479.39 593.33 479.59 594.78 479.80 596.25 C 478.65 593.76 476.74 591.80 473.87 591.54 C 465.66 592.82 465.60 607.45 474.05 608.15 C 478.07 609.01 477.71 601.57 473.85 601.75 C 476.54 601.84 479.24 601.81 481.93 601.86 C 481.22 602.09 480.50 602.32 479.79 602.56 C 479.77 604.34 479.75 606.12 479.72 607.91 C 475.43 609.01 470.18 609.43 466.67 606.21 C 463.03 602.77 463.68 596.41 467.52 593.38 Z" />
<path fill="#ff4d74" opacity="1.00" d=" M 487.87 591.78 C 490.55 591.82 493.23 591.86 495.91 591.74 C 494.51 592.24 492.60 593.00 493.26 594.95 C 493.49 599.02 492.77 603.26 493.67 607.23 C 494.20 607.48 495.24 607.97 495.77 608.22 C 493.12 608.15 490.47 608.18 487.83 608.20 C 488.57 607.85 489.32 607.51 490.08 607.18 C 490.31 602.40 490.31 597.61 490.08 592.83 C 489.34 592.48 488.60 592.13 487.87 591.78 Z" />
<path fill="#ff4d74" opacity="1.00" d=" M 503.01 592.07 C 507.63 591.73 514.54 590.39 516.50 595.99 C 515.86 597.79 514.74 599.31 513.06 600.27 C 514.45 603.33 515.95 606.55 518.93 608.39 C 514.13 609.15 511.79 604.81 510.07 601.17 C 509.51 601.01 508.38 600.70 507.82 600.54 C 507.75 602.76 507.77 604.99 507.84 607.23 C 508.63 607.54 509.41 607.86 510.20 608.19 C 507.52 608.17 504.84 608.17 502.17 608.24 C 502.98 607.91 503.78 607.59 504.60 607.28 C 504.72 602.54 504.95 597.76 504.53 593.05 L 503.01 592.07 M 507.80 592.23 C 507.78 594.90 507.78 597.58 507.81 600.26 C 510.02 600.69 513.11 599.77 512.75 596.96 C 513.27 594.03 510.53 591.92 507.80 592.23 Z" />
<path fill="#ff4d74" opacity="1.00" d=" M 523.30 591.46 C 528.13 591.95 532.99 591.74 537.83 591.60 C 537.77 593.07 537.72 594.56 537.69 596.06 C 537.18 593.02 534.74 591.75 531.80 592.24 C 531.80 597.22 531.64 602.21 531.92 607.19 C 532.89 607.55 533.97 607.87 534.77 608.62 C 531.84 608.09 528.87 608.13 525.92 608.18 C 526.49 607.98 527.64 607.60 528.21 607.41 C 529.39 602.53 528.44 597.22 528.67 592.17 C 525.76 591.76 523.43 593.14 522.43 595.84 C 522.74 594.38 523.03 592.92 523.30 591.46 Z" />
<path fill="#ff4d74" opacity="1.00" d=" M 544.12 591.66 C 548.32 591.76 552.53 591.75 556.74 591.68 C 556.76 593.01 556.79 594.35 556.85 595.70 C 556.10 592.29 552.69 591.97 549.80 592.25 C 549.77 594.62 549.76 596.99 549.76 599.37 C 551.22 599.33 552.70 599.30 554.18 599.27 C 554.50 598.45 554.84 597.64 555.19 596.84 C 555.19 598.91 555.17 600.98 555.08 603.05 C 554.93 602.43 554.63 601.17 554.48 600.55 C 552.89 600.39 551.30 600.27 549.72 600.18 C 549.74 602.15 549.67 604.15 549.88 606.13 C 550.14 608.03 552.52 607.64 553.90 607.75 C 556.08 607.82 557.20 605.72 558.36 604.24 C 558.05 605.59 557.71 606.92 557.41 608.29 C 552.92 608.27 548.42 608.25 543.93 608.31 C 544.97 607.72 546.79 607.54 546.64 605.97 C 546.81 601.53 546.87 597.07 546.46 592.66 C 545.87 592.41 544.70 591.91 544.12 591.66 Z" />
<path fill="#ff4d74" opacity="1.00" d=" M 573.07 592.06 C 577.89 591.77 583.23 590.97 587.60 593.52 C 592.31 596.55 591.66 604.29 586.82 606.85 C 582.51 609.07 577.48 608.00 572.83 608.23 C 573.57 607.93 574.32 607.65 575.07 607.37 C 575.19 602.58 575.54 597.74 574.95 592.99 C 574.48 592.76 573.54 592.29 573.07 592.06 M 578.35 592.43 C 578.58 597.25 577.67 602.26 578.80 606.96 C 579.34 607.15 580.41 607.53 580.95 607.73 C 586.69 607.85 588.47 600.60 586.59 596.23 C 585.45 592.92 581.44 592.05 578.35 592.43 Z" />
<path fill="#ff4d74" opacity="1.00" d=" M 598.19 591.55 C 602.36 591.86 606.56 591.72 610.75 591.68 C 610.76 592.99 610.78 594.31 610.82 595.65 C 610.06 592.27 606.68 591.98 603.80 592.25 C 603.77 594.62 603.76 596.99 603.76 599.37 C 605.22 599.33 606.70 599.30 608.18 599.27 C 608.50 598.45 608.84 597.64 609.19 596.84 C 609.19 598.87 609.17 600.90 609.13 602.93 C 608.89 602.12 608.66 601.32 608.44 600.53 C 606.86 600.38 605.29 600.27 603.72 600.18 C 603.94 602.50 603.27 605.05 604.35 607.22 C 607.48 608.73 610.97 607.27 612.36 604.18 C 612.04 605.55 611.71 606.91 611.41 608.29 C 606.92 608.26 602.43 608.25 597.94 608.31 C 599.00 607.75 600.76 607.52 600.64 605.95 C 600.81 601.96 600.81 597.96 600.64 593.98 C 600.70 592.53 599.12 592.19 598.19 591.55 Z" />
<path fill="#ff4d74" opacity="1.00" d=" M 624.86 591.78 C 627.30 591.82 629.74 591.81 632.18 591.76 C 631.71 592.01 630.76 592.51 630.29 592.76 C 631.76 596.61 632.70 600.80 635.03 604.25 C 636.59 600.40 638.14 596.54 639.41 592.58 C 638.80 592.41 637.56 592.07 636.94 591.90 C 639.03 591.81 641.11 591.79 643.21 591.82 C 642.40 592.11 641.59 592.41 640.78 592.70 C 638.18 597.57 636.44 602.83 634.42 607.96 C 634.12 608.29 633.50 608.95 633.19 609.28 C 631.27 603.80 628.96 598.47 626.97 593.01 C 626.26 592.59 625.56 592.19 624.86 591.78 Z" />
<path fill="#ff4d74" opacity="1.00" d=" M 647.86 591.76 C 651.98 591.68 656.11 591.75 660.24 591.70 C 660.35 593.13 660.49 594.55 660.62 595.99 C 660.09 594.95 659.58 593.88 659.10 592.84 C 657.19 592.39 655.25 592.23 653.31 592.24 C 653.27 594.62 653.26 597.01 653.27 599.41 C 654.83 599.35 656.39 599.28 657.97 599.21 C 658.16 598.56 658.56 597.27 658.75 596.62 C 658.75 598.82 658.70 601.02 658.64 603.23 C 658.49 602.57 658.19 601.23 658.04 600.57 C 656.43 600.40 654.83 600.26 653.23 600.14 C 653.23 602.52 653.29 604.91 653.51 607.30 C 655.57 607.61 657.82 608.14 659.79 607.10 C 660.54 606.10 661.19 605.02 661.89 603.99 C 661.61 605.46 661.25 606.93 660.78 608.37 C 656.19 608.19 651.60 608.30 647.02 608.28 C 647.95 608.00 648.88 607.74 649.83 607.49 C 650.58 602.63 650.20 597.67 650.08 592.78 C 649.33 592.44 648.59 592.10 647.86 591.76 Z" />
<path fill="#ff4d74" opacity="1.00" d=" M 669.03 592.09 C 673.65 591.69 680.56 590.40 682.50 596.01 C 681.85 597.81 680.68 599.30 679.06 600.32 C 680.47 603.36 681.96 606.56 684.93 608.39 C 682.99 608.23 680.69 608.29 679.36 606.61 C 677.19 604.74 677.32 600.50 673.82 600.48 C 673.76 602.72 673.76 604.96 673.83 607.21 C 674.60 607.53 675.38 607.86 676.17 608.21 C 673.52 608.18 670.88 608.14 668.24 608.25 C 669.56 607.72 671.32 606.92 670.74 605.10 C 670.65 601.08 670.93 597.05 670.55 593.06 L 669.03 592.09 M 673.80 592.23 C 673.78 594.87 673.78 597.52 673.79 600.17 C 675.97 600.69 679.03 599.84 678.74 597.06 C 679.32 594.11 676.58 591.88 673.80 592.23 Z" />
<path fill="#ff4d74" opacity="1.00" d=" M 690.99 591.93 C 695.77 591.86 701.09 590.93 705.35 593.68 C 709.93 596.90 709.00 604.75 703.95 607.03 C 699.56 608.95 694.63 607.99 690.00 608.31 C 690.64 608.07 691.92 607.59 692.56 607.35 C 692.85 602.79 692.67 598.23 692.75 593.67 C 692.31 593.23 691.43 592.37 690.99 591.93 M 695.79 592.50 C 695.78 597.11 695.88 601.72 695.72 606.33 C 696.97 607.09 698.39 608.29 699.96 607.44 C 704.68 606.55 705.45 600.53 704.28 596.70 C 703.26 593.13 699.10 591.86 695.79 592.50 Z" />
<path fill="#ff4d74" opacity="1.00" d=" M 737.04 592.12 C 741.86 591.71 747.22 590.99 751.59 593.52 C 756.30 596.54 755.67 604.27 750.84 606.84 C 746.54 609.07 741.50 608.00 736.86 608.23 C 737.59 607.94 738.32 607.65 739.07 607.38 C 739.20 602.58 739.53 597.74 738.96 592.97 C 738.48 592.76 737.52 592.33 737.04 592.12 M 742.32 592.47 C 742.37 596.99 742.14 601.51 742.40 606.03 C 743.08 608.28 746.11 607.83 747.81 607.10 C 751.41 604.98 751.94 599.93 750.62 596.31 C 749.51 592.95 745.45 591.99 742.32 592.47 Z" />
<path fill="#ff4d74" opacity="1.00" d=" M 289.68 592.69 C 290.24 592.51 291.37 592.16 291.93 591.98 C 293.42 597.13 295.40 602.11 297.03 607.22 C 297.96 607.58 298.90 607.97 299.84 608.35 C 297.15 608.15 294.46 608.14 291.77 608.22 C 292.26 607.98 293.23 607.51 293.71 607.28 C 293.26 605.71 292.81 604.16 292.35 602.62 C 290.56 602.64 288.77 602.66 286.99 602.69 C 286.53 604.26 286.07 605.83 285.63 607.42 C 286.43 607.66 287.23 607.91 288.04 608.17 C 285.98 608.19 283.91 608.20 281.85 608.17 C 282.61 607.93 283.38 607.70 284.15 607.49 C 285.61 604.36 286.71 601.08 288.08 597.92 C 287.99 599.20 287.90 600.48 287.80 601.77 C 289.18 601.72 290.56 601.67 291.95 601.64 C 291.31 599.35 290.65 597.04 289.33 595.05 L 288.95 598.61 C 288.63 598.06 288.33 597.52 288.04 596.98 C 288.74 595.61 289.23 594.15 289.68 592.69 Z" />
<path fill="#ff4d74" opacity="1.00" d=" M 313.90 591.89 C 315.83 591.85 317.77 591.74 319.70 591.59 C 317.86 596.20 319.07 601.40 318.84 606.26 C 318.49 607.73 320.21 607.68 321.05 608.26 C 318.38 608.13 315.71 608.16 313.04 608.17 C 313.82 607.93 314.59 607.71 315.38 607.49 C 315.97 603.35 315.72 599.15 315.71 594.99 C 315.75 593.61 315.15 592.58 313.90 591.89 Z" />
<path fill="#ff4d74" opacity="1.00" d=" M 320.18 592.09 C 322.94 591.77 326.67 592.72 327.09 595.97 C 327.66 599.38 324.06 601.26 321.13 601.24 C 324.12 599.77 324.33 596.10 322.90 593.44 C 322.22 593.10 320.86 592.43 320.18 592.09 Z" />
<path fill="#ff4d74" opacity="1.00" d=" M 336.44 594.89 C 336.77 593.29 338.00 592.21 339.09 591.12 C 340.67 596.09 342.33 601.04 344.15 605.92 C 344.40 607.38 345.92 607.72 347.05 608.27 C 344.39 608.14 341.72 608.16 339.06 608.20 C 339.75 607.95 340.44 607.70 341.13 607.46 C 340.79 605.87 340.42 604.29 340.07 602.73 C 338.26 602.67 336.47 602.63 334.68 602.59 C 334.09 604.13 333.55 605.68 333.02 607.25 C 333.55 607.49 334.61 607.96 335.14 608.19 C 333.35 608.19 331.56 608.19 329.78 608.19 C 330.49 607.84 331.20 607.50 331.92 607.17 C 333.51 603.10 335.10 599.04 336.44 594.89 M 336.97 595.30 C 336.19 597.39 335.55 599.53 334.96 601.70 C 336.10 601.67 338.38 601.62 339.52 601.60 C 338.85 599.43 338.18 597.23 336.97 595.30 Z" />
<path fill="#ff4d74" opacity="1.00" d=" M 380.03 593.12 C 380.56 592.65 381.63 591.72 382.16 591.25 C 383.67 596.19 385.36 601.08 387.15 605.92 C 387.38 607.39 388.94 607.70 390.06 608.27 C 387.39 608.15 384.72 608.17 382.05 608.19 C 382.74 607.94 383.43 607.69 384.13 607.46 C 383.79 605.87 383.42 604.29 383.07 602.73 C 381.27 602.67 379.47 602.63 377.68 602.59 C 377.09 604.13 376.54 605.69 376.01 607.26 C 376.57 607.49 377.68 607.94 378.24 608.16 C 376.47 608.17 374.70 608.20 372.94 608.29 C 373.74 607.64 374.92 607.31 375.23 606.21 C 377.10 601.95 378.58 597.53 380.03 593.12 M 380.00 595.28 C 379.19 597.37 378.55 599.53 377.98 601.72 C 379.12 601.68 381.39 601.61 382.52 601.58 C 381.86 599.41 381.14 597.24 380.00 595.28 Z" />
<path fill="#ff4d74" opacity="1.00" d=" M 721.62 592.63 C 722.20 592.48 723.37 592.18 723.95 592.02 C 725.42 597.16 727.41 602.13 729.04 607.23 C 729.96 607.58 730.88 607.93 731.82 608.30 C 729.13 608.16 726.44 608.14 723.76 608.21 C 724.24 607.98 725.22 607.52 725.71 607.29 C 725.25 605.72 724.81 604.17 724.36 602.63 C 722.56 602.64 720.78 602.66 719.00 602.69 C 718.53 604.26 718.06 605.82 717.62 607.41 C 718.41 607.65 719.20 607.91 720.01 608.17 C 718.00 608.18 715.99 608.20 713.99 608.28 C 718.24 606.81 718.09 601.36 719.80 597.86 C 719.76 598.81 719.67 600.71 719.63 601.66 C 721.06 601.67 722.49 601.67 723.94 601.68 C 723.31 599.56 722.89 597.26 721.39 595.55 C 721.01 596.47 720.24 598.31 719.86 599.23 C 720.32 596.99 721.02 594.83 721.62 592.63 Z" />
</g>
</svg>
