<?xml version="1.0" encoding="UTF-8" ?>
<!DOCTYPE svg PUBLIC "-//W3C//DTD SVG 1.1//EN" "http://www.w3.org/Graphics/SVG/1.1/DTD/svg11.dtd">
<svg width="1920pt" height="371pt" viewBox="0 0 1920 371" version="1.1" xmlns="http://www.w3.org/2000/svg">
<g id="#ffffffff">
<path fill="#ffffff" opacity="1.00" d=" M 689.35 123.32 C 707.45 121.79 726.26 127.92 739.52 140.43 C 748.06 148.16 754.52 158.13 757.86 169.17 C 764.14 188.43 760.63 210.46 748.96 226.97 C 741.31 237.47 730.83 246.08 718.55 250.56 C 704.52 255.95 688.64 256.36 674.38 251.56 C 654.50 245.23 638.21 228.67 632.16 208.70 C 627.51 194.18 628.27 178.11 634.05 164.01 C 642.97 141.52 665.23 125.20 689.35 123.32 M 686.41 135.57 C 670.05 138.12 655.12 148.68 647.40 163.35 C 641.86 173.46 639.65 185.39 641.40 196.80 C 643.77 213.47 654.45 228.74 669.35 236.61 C 679.69 242.28 691.95 244.39 703.59 242.43 C 720.21 239.83 735.37 229.04 743.03 214.02 C 749.35 202.34 750.82 188.25 747.50 175.44 C 744.39 163.88 737.54 153.27 727.94 146.05 C 716.28 137.14 700.92 133.08 686.41 135.57 Z" />
<path fill="#ffffff" opacity="1.00" d=" M 1626.35 123.32 C 1645.40 121.70 1665.24 128.60 1678.56 142.44 C 1690.11 153.49 1696.80 169.15 1697.83 185.01 C 1698.93 203.54 1692.03 222.64 1678.56 235.56 C 1665.85 248.77 1647.17 255.67 1628.95 254.85 C 1613.01 254.01 1597.21 247.49 1585.97 236.03 C 1570.34 221.25 1563.21 198.25 1567.22 177.18 C 1569.60 164.12 1575.87 151.70 1585.46 142.47 C 1596.15 131.34 1611.07 124.74 1626.35 123.32 M 1623.41 135.57 C 1601.15 138.84 1582.35 157.43 1578.68 179.61 C 1574.67 200.26 1584.44 222.55 1602.00 234.01 C 1617.57 244.62 1638.80 246.13 1655.65 237.64 C 1671.06 230.38 1682.41 215.34 1685.39 198.60 C 1688.09 183.98 1684.31 168.43 1675.37 156.58 C 1663.70 140.72 1642.84 132.19 1623.41 135.57 Z" />
<path fill="#ffffff" opacity="1.00" d=" M 1464.96 131.94 C 1487.07 119.65 1516.37 121.96 1536.06 137.94 C 1538.43 140.22 1542.41 141.98 1542.04 145.86 C 1539.72 148.19 1537.35 150.45 1534.97 152.71 C 1523.01 139.78 1504.43 133.46 1487.08 136.65 C 1468.27 139.67 1451.77 153.64 1445.73 171.71 C 1439.12 190.00 1443.98 211.60 1457.49 225.52 C 1469.46 238.38 1488.12 244.55 1505.39 241.30 C 1516.70 239.45 1527.14 233.58 1534.96 225.25 C 1537.30 227.49 1539.69 229.70 1541.92 232.07 C 1541.91 232.77 1541.89 234.16 1541.88 234.85 C 1527.42 249.70 1505.45 256.61 1485.09 252.93 C 1470.25 250.59 1456.50 242.62 1446.80 231.20 C 1431.89 214.44 1427.28 189.59 1434.45 168.44 C 1439.39 152.91 1450.83 139.85 1464.96 131.94 Z" />
<path fill="#ffffff" opacity="1.00" d=" M 246.26 124.92 C 247.53 124.72 248.81 124.54 250.09 124.38 C 264.83 158.47 279.75 192.49 294.41 226.62 C 294.76 226.70 295.47 226.88 295.83 226.96 C 310.39 193.15 325.07 159.38 339.66 125.57 C 340.16 123.56 342.54 124.86 343.89 124.84 C 352.28 163.55 360.67 202.26 369.06 240.98 C 369.79 244.32 370.59 247.65 371.08 251.04 C 367.81 251.97 364.49 252.73 361.11 253.06 C 358.97 251.51 358.96 248.78 358.39 246.44 C 353.59 224.30 348.75 202.17 343.93 180.03 C 342.17 172.58 340.93 165.00 338.83 157.63 C 336.78 160.86 335.59 164.53 334.02 168.01 C 321.54 196.53 309.51 225.26 296.82 253.68 C 295.68 253.65 294.54 253.64 293.40 253.64 C 280.43 223.63 267.34 193.67 254.35 163.66 C 253.48 161.63 252.75 159.48 251.25 157.81 C 244.33 189.08 237.81 220.45 230.75 251.68 C 227.31 254.39 222.93 251.20 219.12 250.96 C 228.23 208.96 237.39 166.97 246.26 124.92 Z" />
<path fill="#ffffff" opacity="1.00" d=" M 842.26 124.92 C 843.52 124.72 844.80 124.54 846.09 124.38 C 860.84 158.46 875.73 192.49 890.42 226.61 C 890.77 226.68 891.48 226.84 891.83 226.92 C 906.42 193.13 921.06 159.36 935.66 125.57 C 936.15 123.56 938.53 124.86 939.89 124.84 C 948.22 163.29 956.55 201.73 964.88 240.17 C 965.66 243.78 966.55 247.38 967.07 251.04 C 963.81 251.97 960.49 252.73 957.11 253.06 C 956.22 252.13 955.18 251.23 955.13 249.85 C 948.74 220.24 942.19 190.66 935.82 161.04 C 935.32 160.23 935.65 157.73 934.22 158.22 C 920.38 190.03 906.91 221.99 892.82 253.68 C 891.67 253.65 890.53 253.64 889.40 253.64 C 876.53 223.86 863.54 194.12 850.65 164.35 C 849.64 162.10 848.91 159.68 847.25 157.81 C 840.52 188.55 833.90 219.31 827.21 250.06 C 827.20 252.13 824.84 253.30 823.03 252.73 C 820.37 252.20 817.76 251.51 815.12 250.96 C 824.22 208.96 833.39 166.97 842.26 124.92 Z" />
<path fill="#ffffff" opacity="1.00" d=" M 401.19 126.14 C 422.49 126.15 443.78 126.16 465.07 126.13 C 466.42 126.25 468.04 125.86 469.17 126.83 C 470.53 128.97 470.10 131.66 470.10 134.07 C 470.12 135.88 469.20 138.19 466.99 137.83 C 448.37 137.90 429.75 137.81 411.13 137.87 C 411.03 151.96 411.03 166.04 411.13 180.13 C 429.70 180.15 448.27 180.17 466.85 180.12 C 469.06 182.19 468.44 185.30 468.48 188.02 C 468.71 189.57 467.67 190.73 466.84 191.88 C 448.27 191.82 429.70 191.85 411.13 191.87 C 411.03 207.96 411.03 224.04 411.12 240.12 C 429.10 240.16 447.08 240.16 465.07 240.13 C 466.42 240.23 468.01 239.89 469.18 240.82 C 470.50 242.98 470.12 245.66 470.10 248.07 C 470.12 249.87 469.19 252.19 466.99 251.83 C 445.06 251.90 423.13 251.82 401.20 251.86 C 400.50 251.17 399.82 250.49 399.14 249.80 C 399.16 209.27 399.15 168.73 399.14 128.20 C 399.82 127.51 400.50 126.82 401.19 126.14 Z" />
<path fill="#ffffff" opacity="1.00" d=" M 538.09 126.11 C 540.67 126.18 543.26 126.02 545.84 126.25 C 548.04 126.54 547.98 129.23 548.07 130.92 C 548.10 167.32 548.00 203.73 548.12 240.13 C 567.40 240.18 586.67 240.11 605.94 240.16 C 608.52 239.95 609.27 242.93 609.04 244.95 C 608.92 247.26 609.69 250.90 606.78 251.78 C 583.89 251.99 560.99 251.74 538.10 251.90 C 537.19 250.72 535.91 249.62 536.27 247.98 C 536.31 208.37 536.25 168.76 536.30 129.15 C 536.19 127.86 537.50 127.11 538.09 126.11 Z" />
<path fill="#ffffff" opacity="1.00" d=" M 997.19 126.14 C 1019.12 126.18 1041.06 126.11 1062.99 126.17 C 1066.19 125.85 1066.20 129.78 1066.16 132.00 C 1066.21 134.21 1066.18 138.15 1062.99 137.83 C 1044.37 137.90 1025.75 137.81 1007.13 137.87 C 1007.03 151.96 1007.03 166.04 1007.12 180.13 C 1025.70 180.15 1044.27 180.17 1062.84 180.12 C 1065.05 182.19 1064.44 185.30 1064.48 188.02 C 1064.70 189.56 1063.67 190.73 1062.84 191.88 C 1044.27 191.83 1025.70 191.84 1007.12 191.87 C 1007.03 207.96 1007.03 224.04 1007.12 240.12 C 1025.10 240.16 1043.09 240.16 1061.07 240.13 C 1062.41 240.24 1064.01 239.88 1065.17 240.82 C 1066.60 243.27 1066.14 246.30 1066.00 249.00 C 1065.89 250.63 1064.74 252.08 1062.99 251.83 C 1041.06 251.89 1019.12 251.82 997.19 251.86 C 996.49 251.17 995.81 250.49 995.14 249.80 C 995.16 209.27 995.15 168.73 995.14 128.19 C 995.81 127.51 996.50 126.82 997.19 126.14 Z" />
<path fill="#ffffff" opacity="1.00" d=" M 1101.19 126.14 C 1112.46 126.15 1123.74 126.15 1135.01 126.14 C 1146.37 126.05 1158.21 128.62 1167.36 135.66 C 1174.47 140.89 1179.12 149.06 1180.44 157.74 C 1182.00 168.48 1180.38 180.08 1174.11 189.15 C 1168.29 197.81 1158.99 203.75 1148.93 206.25 C 1158.63 219.82 1169.50 232.57 1179.28 246.09 C 1179.61 250.55 1174.00 251.71 1171.61 254.62 C 1159.04 239.34 1147.27 223.37 1134.98 207.84 C 1127.03 207.89 1119.07 207.82 1111.12 207.87 C 1110.99 220.94 1111.11 234.01 1111.07 247.08 C 1110.95 248.77 1111.09 251.52 1108.85 251.77 C 1105.55 252.05 1101.40 252.97 1099.09 249.94 C 1099.22 209.36 1099.12 168.78 1099.14 128.19 C 1099.81 127.51 1100.49 126.82 1101.19 126.14 M 1111.13 137.87 C 1111.03 157.29 1111.03 176.71 1111.13 196.13 C 1119.75 196.17 1128.37 196.13 1137.00 196.16 C 1147.11 196.10 1157.58 191.92 1163.71 183.64 C 1169.24 176.19 1170.21 166.25 1168.48 157.37 C 1166.30 147.64 1157.05 141.30 1147.76 139.31 C 1135.70 136.87 1123.33 138.17 1111.13 137.87 Z" />
<path fill="#ffffff" opacity="1.00" d=" M 1213.19 126.14 C 1235.12 126.18 1257.06 126.11 1278.99 126.17 C 1282.18 125.85 1282.20 129.79 1282.16 132.00 C 1282.20 134.21 1282.18 138.15 1278.99 137.83 C 1260.37 137.90 1241.75 137.81 1223.13 137.87 C 1223.03 151.96 1223.03 166.04 1223.13 180.13 C 1241.70 180.15 1260.27 180.17 1278.85 180.12 C 1281.05 182.19 1280.44 185.30 1280.48 188.02 C 1280.69 189.56 1279.67 190.72 1278.85 191.88 C 1260.27 191.83 1241.70 191.85 1223.13 191.87 C 1223.03 207.95 1223.03 224.04 1223.13 240.13 C 1241.74 240.19 1260.37 240.10 1278.99 240.17 C 1282.17 239.85 1282.21 243.79 1282.16 245.99 C 1282.21 248.20 1282.18 252.15 1279.00 251.83 C 1257.06 251.90 1235.13 251.82 1213.20 251.86 C 1212.49 251.17 1211.81 250.49 1211.14 249.80 C 1211.15 209.27 1211.15 168.73 1211.14 128.19 C 1211.81 127.51 1212.49 126.82 1213.19 126.14 Z" />
<path fill="#ffffff" opacity="1.00" d=" M 1323.09 126.10 C 1351.06 126.17 1379.03 126.20 1407.00 126.09 C 1407.63 127.68 1408.51 129.66 1407.12 131.13 C 1385.14 162.82 1363.20 194.52 1341.22 226.21 C 1338.13 230.85 1334.66 235.25 1331.88 240.09 C 1354.55 240.20 1377.23 240.16 1399.90 240.11 C 1402.41 242.35 1401.53 245.82 1401.60 248.80 C 1401.67 250.07 1400.45 250.87 1399.90 251.89 C 1370.98 251.80 1342.05 251.88 1313.13 251.86 C 1312.53 250.87 1311.96 249.89 1311.40 248.91 C 1334.11 216.13 1356.83 183.35 1379.54 150.57 C 1382.39 146.35 1385.49 142.30 1388.07 137.91 C 1366.41 137.81 1344.75 137.83 1323.10 137.90 C 1320.42 135.72 1321.34 132.16 1321.30 129.16 C 1321.18 127.87 1322.49 127.11 1323.09 126.10 Z" />
</g>
</svg>
