<?xml version="1.0" encoding="UTF-8" ?>
<!DOCTYPE svg PUBLIC "-//W3C//DTD SVG 1.1//EN" "http://www.w3.org/Graphics/SVG/1.1/DTD/svg11.dtd">
<svg width="1920pt" height="371pt" viewBox="0 0 1920 371" version="1.1" xmlns="http://www.w3.org/2000/svg">
<g id="#2626266f">
<path fill="#262626" opacity="0.44" d=" M 685.29 82.13 C 685.29 80.13 688.90 80.02 689.83 81.49 C 688.34 81.91 686.82 82.17 685.29 82.13 Z" />
<path fill="#262626" opacity="0.44" d=" M 1622.30 82.13 C 1622.28 80.12 1625.88 80.02 1626.83 81.49 C 1625.33 81.91 1623.81 82.17 1622.30 82.13 Z" />
<path fill="#262626" opacity="0.44" d=" M 685.29 211.87 C 686.82 211.83 688.35 212.09 689.83 212.50 C 688.90 213.97 685.29 213.87 685.29 211.87 Z" />
<path fill="#262626" opacity="0.44" d=" M 1622.29 211.87 C 1623.81 211.83 1625.34 212.09 1626.83 212.50 C 1625.89 213.97 1622.28 213.87 1622.29 211.87 Z" />
</g>
<g id="#000000ff">
<path fill="#000000" opacity="1.00" d=" M 689.83 81.49 C 693.22 80.90 696.76 80.91 700.17 81.49 C 701.64 81.91 703.17 82.17 704.73 82.12 C 715.59 83.10 725.95 87.92 734.69 94.33 C 745.57 102.86 754.63 114.54 757.92 128.15 C 758.14 128.63 758.59 129.59 758.81 130.08 C 758.84 130.55 758.89 131.50 758.92 131.98 C 759.12 132.48 759.52 133.47 759.72 133.97 C 759.76 134.78 759.85 136.40 759.90 137.21 C 759.75 138.46 760.02 139.70 760.50 140.86 C 761.11 144.90 761.11 149.10 760.50 153.14 C 760.02 154.29 759.74 155.53 759.90 156.78 C 759.85 157.59 759.76 159.22 759.72 160.03 C 759.52 160.53 759.12 161.53 758.92 162.03 C 758.89 162.51 758.83 163.47 758.79 163.95 C 758.58 164.43 758.14 165.41 757.93 165.90 C 754.53 179.70 745.28 191.55 734.12 200.11 C 725.49 206.26 715.36 210.93 704.74 211.89 C 703.48 211.78 702.26 212.04 701.11 212.50 C 697.40 213.14 693.54 213.08 689.83 212.50 C 688.35 212.09 686.82 211.83 685.29 211.87 C 657.39 208.77 633.24 184.58 630.12 156.68 C 630.15 155.15 629.91 153.63 629.50 152.16 C 628.90 148.76 628.90 145.23 629.50 141.84 C 629.91 140.36 630.15 138.85 630.12 137.32 C 633.25 109.42 657.39 85.23 685.29 82.13 C 686.82 82.17 688.34 81.91 689.83 81.49 M 686.22 93.99 C 685.43 94.03 683.84 94.12 683.05 94.16 L 682.27 93.69 L 681.28 94.13 L 681.11 95.02 C 675.93 95.62 671.28 98.34 666.80 100.84 C 655.22 107.98 645.86 119.68 643.02 133.10 L 642.13 133.28 L 641.70 134.27 L 642.17 135.05 C 642.12 135.82 642.02 137.36 641.97 138.13 C 640.35 138.73 640.16 139.67 641.39 140.95 C 640.53 144.57 640.45 148.52 641.42 152.13 C 639.99 152.80 640.27 155.91 642.04 155.77 C 642.09 162.76 645.49 169.23 648.82 175.20 C 655.99 186.77 667.67 196.16 681.10 198.99 L 681.28 199.87 L 682.27 200.31 L 683.05 199.84 C 683.84 199.88 685.43 199.97 686.22 200.01 C 686.13 201.76 689.22 201.96 689.89 200.55 C 693.18 201.49 696.81 201.49 700.11 200.55 C 700.76 201.96 703.85 201.76 703.78 200.01 C 704.57 199.97 706.16 199.88 706.95 199.84 L 707.73 200.31 L 708.72 199.87 L 708.89 198.98 C 721.39 196.40 732.42 188.03 739.67 177.65 C 743.65 171.35 747.54 164.40 747.95 156.82 C 749.60 156.29 749.83 155.36 748.65 154.03 C 749.48 149.43 749.49 144.58 748.65 139.98 C 749.84 138.65 749.60 137.72 747.95 137.19 C 747.64 130.56 744.39 124.46 741.22 118.78 C 734.07 107.18 722.32 97.84 708.89 95.02 L 708.72 94.13 L 707.73 93.69 L 706.95 94.16 C 706.16 94.11 704.57 94.03 703.78 93.99 C 703.85 92.23 700.76 92.04 700.12 93.45 C 696.82 92.50 693.18 92.51 689.89 93.44 C 689.22 92.04 686.13 92.23 686.22 93.99 Z" />
<path fill="#000000" opacity="1.00" d=" M 1626.83 81.49 C 1630.22 80.90 1633.76 80.90 1637.17 81.49 C 1638.63 81.91 1640.16 82.17 1641.73 82.12 C 1656.58 83.65 1670.53 91.49 1680.55 102.47 C 1687.25 109.70 1692.64 118.51 1694.92 128.14 C 1695.14 128.63 1695.59 129.59 1695.82 130.07 C 1695.84 130.55 1695.89 131.50 1695.92 131.98 C 1696.12 132.48 1696.52 133.47 1696.72 133.97 C 1696.76 134.78 1696.85 136.40 1696.90 137.21 C 1696.73 138.46 1697.01 139.70 1697.50 140.86 C 1698.11 144.90 1698.10 149.10 1697.50 153.14 C 1697.01 154.29 1696.73 155.53 1696.90 156.78 C 1696.85 157.60 1696.76 159.22 1696.72 160.03 C 1696.52 160.53 1696.12 161.53 1695.92 162.03 C 1695.89 162.51 1695.83 163.47 1695.80 163.95 C 1695.58 164.43 1695.14 165.41 1694.93 165.90 C 1691.12 181.07 1680.47 193.99 1667.58 202.55 C 1659.73 207.29 1650.96 211.17 1641.74 211.89 C 1640.47 211.78 1639.25 212.04 1638.12 212.50 C 1634.40 213.14 1630.54 213.08 1626.83 212.50 C 1625.34 212.09 1623.81 211.83 1622.29 211.87 C 1594.39 208.77 1570.24 184.58 1567.12 156.68 C 1567.14 155.15 1566.90 153.63 1566.50 152.16 C 1565.90 148.76 1565.90 145.23 1566.50 141.84 C 1566.89 140.37 1567.14 138.85 1567.12 137.32 C 1570.25 109.42 1594.39 85.23 1622.30 82.13 C 1623.81 82.17 1625.33 81.91 1626.83 81.49 M 1623.22 93.99 C 1622.43 94.03 1620.84 94.12 1620.05 94.16 L 1619.27 93.70 L 1618.28 94.13 L 1618.10 95.02 C 1612.92 95.62 1608.27 98.34 1603.79 100.84 C 1592.21 107.99 1582.85 119.69 1580.02 133.10 L 1579.13 133.28 L 1578.70 134.28 L 1579.16 135.06 C 1579.11 135.82 1579.01 137.36 1578.97 138.13 C 1577.33 138.73 1577.14 139.67 1578.39 140.96 C 1577.53 144.58 1577.44 148.52 1578.42 152.13 C 1576.98 152.80 1577.25 155.91 1579.04 155.77 C 1578.86 160.53 1580.85 165.00 1582.69 169.28 C 1589.24 183.71 1602.49 195.63 1618.11 198.98 L 1618.28 199.87 L 1619.27 200.31 L 1620.05 199.84 C 1620.84 199.88 1622.43 199.97 1623.22 200.01 C 1623.11 201.76 1626.20 201.96 1626.89 200.55 C 1630.17 201.49 1633.81 201.49 1637.11 200.55 C 1637.74 201.96 1640.84 201.76 1640.78 200.01 C 1641.57 199.97 1643.16 199.89 1643.95 199.85 L 1644.73 200.31 L 1645.72 199.87 L 1645.89 198.98 C 1661.26 195.68 1674.39 184.14 1681.04 170.02 C 1682.92 165.85 1684.94 161.48 1684.95 156.82 C 1686.59 156.28 1686.82 155.35 1685.64 154.03 C 1686.48 149.43 1686.48 144.58 1685.65 139.98 C 1686.82 138.65 1686.59 137.72 1684.95 137.20 C 1684.93 132.78 1683.05 128.65 1681.33 124.67 C 1674.80 110.22 1661.51 98.38 1645.89 95.02 L 1645.72 94.13 L 1644.73 93.69 L 1643.95 94.16 C 1643.16 94.12 1641.57 94.03 1640.78 93.99 C 1640.84 92.23 1637.74 92.04 1637.11 93.44 C 1633.81 92.51 1630.17 92.50 1626.89 93.45 C 1626.20 92.04 1623.11 92.23 1623.22 93.99 Z" />
<path fill="#000000" opacity="1.00" d=" M 1490.84 82.50 C 1494.54 81.92 1498.41 81.85 1502.12 82.51 C 1503.26 82.96 1504.49 83.23 1505.77 83.09 C 1506.58 83.14 1508.19 83.22 1508.99 83.26 C 1509.48 83.47 1510.46 83.89 1510.95 84.10 C 1521.11 85.80 1530.42 91.21 1538.27 97.74 C 1539.92 99.35 1542.68 100.96 1541.77 103.69 C 1539.98 106.38 1537.32 108.34 1535.01 110.54 C 1528.05 103.56 1519.52 98.33 1510.05 95.56 C 1509.54 95.40 1508.51 95.09 1508.00 94.94 C 1507.23 94.84 1505.68 94.64 1504.91 94.54 C 1503.75 94.03 1502.52 93.71 1501.29 93.89 C 1497.75 93.93 1494.22 93.93 1490.70 93.89 C 1489.41 93.72 1488.16 94.05 1487.03 94.58 C 1486.50 94.66 1485.45 94.82 1484.93 94.90 C 1483.86 94.71 1482.91 94.93 1482.06 95.55 C 1468.21 99.75 1455.77 109.05 1449.07 122.04 C 1447.11 125.48 1446.05 129.30 1444.56 132.94 C 1444.40 133.45 1444.10 134.48 1443.95 134.99 C 1443.86 135.75 1443.70 137.26 1443.62 138.01 C 1442.92 138.83 1442.67 139.76 1442.88 140.80 C 1442.93 144.93 1442.93 149.06 1442.88 153.20 C 1442.67 154.24 1442.91 155.16 1443.62 155.98 C 1443.70 156.74 1443.86 158.25 1443.94 159.01 C 1444.10 159.52 1444.40 160.54 1444.56 161.06 C 1448.70 174.63 1457.86 186.74 1470.42 193.55 C 1474.07 195.69 1478.17 196.84 1482.06 198.45 C 1482.91 199.06 1483.87 199.28 1484.93 199.10 C 1485.46 199.18 1486.51 199.34 1487.03 199.42 C 1488.16 199.95 1489.41 200.28 1490.71 200.11 C 1494.23 200.07 1497.75 200.06 1501.28 200.11 C 1502.51 200.29 1503.75 199.97 1504.90 199.46 C 1505.68 199.36 1507.22 199.16 1508.00 199.06 C 1508.51 198.90 1509.54 198.60 1510.05 198.44 C 1519.51 195.64 1528.07 190.46 1535.00 183.43 C 1537.39 186.27 1542.44 188.34 1541.78 192.66 C 1532.46 202.68 1519.30 209.39 1505.69 210.88 C 1504.14 210.83 1502.62 211.09 1501.17 211.51 C 1497.76 212.09 1494.22 212.09 1490.83 211.50 C 1489.34 211.09 1487.83 210.84 1486.32 210.88 C 1468.56 209.03 1452.51 198.07 1442.43 183.59 C 1437.02 175.60 1432.94 166.35 1432.12 156.67 C 1432.14 155.14 1431.90 153.62 1431.51 152.14 C 1430.89 148.76 1430.89 145.24 1431.51 141.86 C 1431.90 140.38 1432.14 138.86 1432.12 137.33 C 1433.92 119.80 1444.60 103.93 1458.80 93.82 C 1466.92 88.21 1476.35 83.90 1486.27 83.12 C 1487.80 83.17 1489.33 82.91 1490.84 82.50 Z" />
<path fill="#000000" opacity="1.00" d=" M 246.51 82.92 C 247.51 83.35 248.54 83.41 249.59 83.10 L 250.41 82.93 C 264.70 116.43 279.46 149.72 293.79 183.19 C 293.81 184.23 295.79 185.82 296.15 184.18 C 309.24 153.92 322.34 123.65 335.43 93.37 C 336.97 89.83 338.33 86.19 340.36 82.88 C 341.43 83.29 342.52 83.31 343.62 82.94 C 344.28 84.91 344.99 86.93 344.91 89.04 C 345.08 89.54 345.42 90.54 345.59 91.04 C 346.60 94.71 347.51 98.44 347.82 102.24 C 347.69 103.26 347.95 104.18 348.60 104.99 C 349.38 107.27 349.87 109.69 349.89 112.11 C 350.11 112.60 350.56 113.57 350.78 114.06 C 350.81 114.57 350.87 115.60 350.91 116.11 C 350.72 117.15 350.95 118.10 351.59 118.95 C 352.34 120.95 352.80 123.09 352.84 125.24 C 352.69 126.25 352.92 127.17 353.56 128.00 C 354.62 131.65 355.51 135.40 355.86 139.20 C 355.71 140.23 355.96 141.15 356.60 141.97 C 357.31 143.98 357.77 146.10 357.84 148.24 C 357.68 149.26 357.93 150.18 358.56 151.00 C 359.61 154.66 360.51 158.41 360.83 162.22 C 360.69 163.24 360.95 164.16 361.60 164.98 C 362.38 167.27 362.87 169.68 362.89 172.11 C 363.11 172.60 363.56 173.57 363.78 174.06 C 363.81 174.57 363.88 175.60 363.91 176.11 C 363.72 177.15 363.95 178.10 364.59 178.95 C 365.34 180.95 365.80 183.09 365.84 185.24 C 365.68 186.25 365.92 187.17 366.56 188.00 C 367.63 191.65 368.51 195.40 368.86 199.20 C 368.72 200.23 368.97 201.15 369.62 201.97 C 370.36 204.25 370.69 206.64 371.08 209.00 C 367.88 209.80 364.66 211.01 361.32 210.83 C 359.63 210.20 358.84 208.53 359.12 206.80 C 359.29 205.77 359.05 204.85 358.41 204.03 C 357.63 201.76 357.10 199.36 357.11 196.96 C 356.94 196.46 356.59 195.46 356.41 194.96 C 355.39 191.30 354.48 187.57 354.17 183.79 C 354.30 182.76 354.04 181.84 353.40 181.03 C 352.69 179.01 352.22 176.89 352.16 174.75 C 352.31 173.73 352.07 172.81 351.44 172.00 C 350.38 168.34 349.48 164.60 349.14 160.80 C 349.28 159.77 349.03 158.85 348.39 158.03 C 347.65 156.02 347.21 153.89 347.17 151.75 C 347.30 150.73 347.05 149.81 346.40 149.01 C 345.62 146.72 345.13 144.31 345.11 141.89 C 344.89 141.40 344.44 140.43 344.22 139.94 C 344.19 139.43 344.12 138.40 344.09 137.89 C 344.27 136.85 344.04 135.90 343.40 135.06 C 342.65 133.05 342.19 130.91 342.16 128.77 C 342.31 127.74 342.05 126.82 341.40 126.02 C 340.61 123.68 340.06 121.22 340.13 118.74 C 340.12 118.34 340.09 117.54 340.07 117.14 L 339.36 116.93 C 339.03 116.83 338.38 116.62 338.05 116.52 C 324.59 148.07 310.73 179.45 297.38 211.04 L 296.55 210.88 C 295.47 210.57 294.43 210.65 293.43 211.13 C 281.96 185.91 271.29 160.31 260.12 134.95 C 257.08 128.60 255.00 121.77 251.31 115.76 C 250.69 118.16 250.33 120.63 249.56 123.00 C 248.92 123.81 248.68 124.73 248.84 125.76 C 248.77 127.89 248.33 130.02 247.61 132.03 C 246.96 132.85 246.71 133.77 246.86 134.80 C 246.52 138.60 245.62 142.35 244.56 146.00 C 243.92 146.82 243.68 147.74 243.84 148.76 C 243.79 150.91 243.34 153.04 242.59 155.05 C 241.95 155.90 241.72 156.85 241.90 157.89 C 241.87 158.40 241.81 159.43 241.78 159.94 C 241.56 160.42 241.11 161.40 240.89 161.88 C 240.87 164.29 240.38 166.69 239.65 168.98 C 239.45 169.47 239.07 170.46 238.88 170.95 C 238.92 173.37 238.41 175.78 237.59 178.05 C 236.96 178.90 236.73 179.85 236.91 180.89 C 236.88 181.40 236.82 182.43 236.78 182.94 C 236.56 183.43 236.12 184.40 235.89 184.89 C 235.88 187.32 235.38 189.73 234.60 192.03 C 233.95 192.84 233.69 193.76 233.83 194.79 C 233.50 198.57 232.63 202.31 231.57 205.96 C 231.39 206.45 231.03 207.43 230.84 207.93 C 230.93 208.42 231.10 209.41 231.19 209.91 C 229.79 210.17 228.38 211.02 226.93 210.70 C 226.16 210.00 225.26 209.71 224.23 209.82 C 222.51 209.74 220.83 209.34 219.15 209.01 C 219.91 205.67 220.41 202.27 221.43 199.00 C 222.07 198.18 222.31 197.26 222.16 196.24 C 222.19 194.09 222.65 191.95 223.41 189.94 C 224.04 189.08 224.27 188.13 224.09 187.09 C 224.14 186.58 224.24 185.55 224.29 185.04 C 225.00 184.25 225.29 183.33 225.16 182.28 C 225.23 180.12 225.65 177.96 226.41 175.94 C 227.04 175.09 227.27 174.15 227.09 173.11 C 227.13 172.60 227.19 171.57 227.22 171.06 C 227.44 170.57 227.88 169.60 228.11 169.11 C 228.12 166.68 228.62 164.27 229.40 161.98 C 230.05 161.16 230.30 160.24 230.16 159.21 C 230.48 155.41 231.38 151.65 232.44 147.99 C 233.07 147.17 233.31 146.25 233.16 145.23 C 233.19 143.08 233.65 140.94 234.41 138.94 C 235.04 138.08 235.26 137.13 235.08 136.09 C 235.13 135.58 235.24 134.55 235.29 134.04 C 235.99 133.25 236.29 132.33 236.16 131.28 C 236.23 129.12 236.65 126.96 237.41 124.94 C 238.04 124.09 238.27 123.15 238.10 122.11 C 238.13 121.60 238.19 120.57 238.22 120.06 C 238.44 119.57 238.89 118.60 239.11 118.11 C 239.12 115.68 239.62 113.27 240.40 110.97 C 241.04 110.16 241.30 109.24 241.17 108.21 C 241.48 104.40 242.38 100.65 243.44 96.99 C 244.07 96.18 244.31 95.26 244.18 94.24 C 244.42 90.38 245.57 86.65 246.51 82.92 Z" />
<path fill="#000000" opacity="1.00" d=" M 842.51 82.92 C 843.50 83.35 844.53 83.41 845.59 83.10 L 846.41 82.93 C 860.94 116.85 875.74 150.67 890.46 184.51 C 890.79 184.61 891.45 184.82 891.78 184.92 C 904.58 155.61 917.20 126.21 929.92 96.85 C 932.05 92.19 933.71 87.29 936.36 82.88 C 937.42 83.29 938.51 83.31 939.61 82.94 C 940.27 84.91 940.99 86.93 940.91 89.04 C 941.08 89.54 941.42 90.54 941.59 91.05 C 942.59 94.71 943.51 98.44 943.82 102.24 C 943.68 103.26 943.94 104.18 944.60 104.99 C 945.37 107.27 945.86 109.69 945.89 112.11 C 946.12 112.60 946.56 113.57 946.78 114.06 C 946.82 114.57 946.88 115.59 946.91 116.11 C 946.71 117.15 946.94 118.09 947.59 118.94 C 948.33 120.95 948.79 123.09 948.84 125.23 C 948.67 126.25 948.91 127.17 949.56 128.00 C 950.62 131.65 951.51 135.40 951.86 139.20 C 951.70 140.23 951.95 141.15 952.60 141.97 C 953.30 143.98 953.77 146.11 953.84 148.25 C 953.68 149.26 953.92 150.18 954.56 151.00 C 955.60 154.66 956.51 158.41 956.83 162.21 C 956.68 163.24 956.94 164.16 957.60 164.98 C 958.37 167.26 958.87 169.68 958.89 172.11 C 959.12 172.59 959.56 173.57 959.79 174.06 C 959.82 174.57 959.88 175.59 959.91 176.11 C 959.71 177.15 959.94 178.09 960.59 178.94 C 961.33 180.95 961.80 183.09 961.84 185.24 C 961.67 186.25 961.91 187.17 962.56 188.00 C 963.63 191.65 964.51 195.40 964.86 199.20 C 964.71 200.23 964.96 201.15 965.62 201.97 C 966.36 204.25 966.69 206.64 967.08 209.00 C 963.88 209.80 960.66 211.03 957.33 210.81 C 955.15 210.17 954.93 207.89 955.09 205.97 C 954.91 205.47 954.54 204.48 954.36 203.98 C 953.62 201.71 953.10 199.34 953.12 196.95 C 952.94 196.45 952.59 195.46 952.41 194.96 C 951.39 191.30 950.47 187.58 950.17 183.79 C 950.29 182.76 950.04 181.84 949.40 181.03 C 948.68 179.01 948.21 176.89 948.16 174.75 C 948.30 173.73 948.06 172.81 947.44 172.00 C 946.38 168.34 945.48 164.60 945.14 160.80 C 945.27 159.77 945.02 158.85 944.39 158.03 C 943.65 156.02 943.20 153.89 943.17 151.75 C 943.30 150.73 943.04 149.81 942.40 149.01 C 941.61 146.72 941.13 144.31 941.11 141.88 C 940.88 141.40 940.44 140.42 940.21 139.94 C 940.18 139.43 940.12 138.40 940.09 137.89 C 940.26 136.85 940.03 135.90 939.41 135.05 C 938.64 133.05 938.18 130.91 938.16 128.77 C 938.30 127.74 938.05 126.82 937.40 126.02 C 936.61 123.68 936.06 121.22 936.13 118.74 C 936.12 118.34 936.08 117.54 936.07 117.14 L 935.36 116.93 C 935.03 116.83 934.38 116.62 934.05 116.52 C 920.59 148.07 906.73 179.45 893.38 211.04 L 892.55 210.88 C 891.46 210.57 890.42 210.65 889.43 211.13 C 877.04 183.80 865.47 156.10 853.37 128.65 C 851.39 124.33 849.95 119.73 847.31 115.75 C 846.68 118.16 846.33 120.63 845.56 123.00 C 844.92 123.82 844.67 124.73 844.84 125.76 C 844.77 127.89 844.33 130.02 843.61 132.03 C 842.95 132.85 842.70 133.77 842.86 134.80 C 842.51 138.60 841.62 142.35 840.56 146.00 C 839.92 146.82 839.67 147.74 839.84 148.76 C 839.79 150.91 839.33 153.04 838.59 155.05 C 837.95 155.90 837.72 156.85 837.91 157.89 C 837.88 158.40 837.81 159.43 837.78 159.94 C 837.56 160.42 837.11 161.40 836.89 161.88 C 836.86 164.29 836.37 166.69 835.65 168.98 C 835.46 169.47 835.07 170.46 834.88 170.95 C 834.91 173.37 834.41 175.79 833.60 178.05 C 832.95 178.90 832.72 179.85 832.91 180.89 C 832.88 181.40 832.81 182.43 832.78 182.94 C 832.56 183.43 832.12 184.40 831.89 184.89 C 831.87 187.32 831.37 189.73 830.60 192.02 C 829.94 192.84 829.68 193.76 829.83 194.79 C 829.50 198.57 828.63 202.32 827.57 205.96 C 827.39 206.45 827.02 207.44 826.84 207.93 C 826.93 208.43 827.10 209.42 827.19 209.91 C 825.77 210.18 824.38 211.01 822.93 210.70 C 822.14 210.00 821.25 209.71 820.23 209.83 C 818.50 209.74 816.82 209.34 815.15 209.01 C 815.91 205.67 816.40 202.27 817.43 199.00 C 818.06 198.18 818.30 197.26 818.16 196.24 C 818.18 194.09 818.64 191.95 819.41 189.94 C 820.03 189.09 820.26 188.14 820.08 187.09 C 820.14 186.58 820.24 185.56 820.29 185.04 C 820.99 184.25 821.28 183.33 821.16 182.28 C 821.23 180.12 821.65 177.97 822.41 175.95 C 823.03 175.10 823.26 174.15 823.09 173.11 C 823.13 172.60 823.19 171.57 823.22 171.06 C 823.44 170.57 823.88 169.60 824.11 169.11 C 824.12 166.68 824.61 164.27 825.40 161.98 C 826.04 161.16 826.29 160.24 826.16 159.22 C 826.47 155.41 827.38 151.66 828.44 148.00 C 829.06 147.17 829.30 146.25 829.16 145.24 C 829.18 143.09 829.64 140.95 830.41 138.95 C 831.03 138.09 831.26 137.14 831.08 136.09 C 831.13 135.58 831.24 134.56 831.29 134.04 C 831.99 133.25 832.28 132.33 832.16 131.28 C 832.23 129.12 832.65 126.97 833.41 124.95 C 834.03 124.10 834.26 123.15 834.09 122.11 C 834.12 121.60 834.19 120.58 834.22 120.06 C 834.44 119.58 834.88 118.60 835.11 118.11 C 835.12 115.68 835.61 113.27 836.40 110.97 C 837.04 110.16 837.29 109.24 837.17 108.21 C 837.48 104.41 838.38 100.66 839.43 96.99 C 840.06 96.18 840.31 95.26 840.18 94.24 C 840.42 90.38 841.57 86.65 842.51 82.92 Z" />
<path fill="#000000" opacity="1.00" d=" M 399.15 88.00 C 398.79 85.80 400.80 83.79 403.00 84.15 C 423.35 84.12 443.70 84.21 464.06 84.12 C 465.79 84.17 467.62 84.03 469.25 84.75 C 470.59 88.05 470.54 91.96 469.27 95.27 C 466.62 96.21 463.74 95.78 461.00 95.87 C 444.37 95.86 427.74 95.77 411.11 95.92 C 411.00 109.97 411.00 124.03 411.11 138.08 C 429.06 138.26 447.02 138.09 464.98 138.16 C 466.27 137.96 467.86 138.64 467.96 140.11 C 468.12 142.70 468.12 145.30 467.94 147.89 C 467.96 149.39 466.22 149.99 464.97 149.84 C 447.02 149.91 429.06 149.73 411.11 149.92 C 411.00 165.97 411.00 182.03 411.11 198.09 C 427.74 198.23 444.37 198.14 461.00 198.13 C 463.74 198.22 466.62 197.77 469.26 198.74 C 470.57 202.05 470.54 205.95 469.27 209.27 C 467.61 209.92 465.80 209.84 464.06 209.88 C 443.70 209.79 423.35 209.88 403.00 209.85 C 400.80 210.20 398.80 208.19 399.16 206.01 C 399.15 166.67 399.15 127.33 399.15 88.00 Z" />
<path fill="#000000" opacity="1.00" d=" M 537.17 84.39 C 540.25 84.16 543.44 83.80 546.49 84.48 C 548.03 85.40 547.93 87.36 548.04 88.92 C 548.10 125.31 547.94 161.70 548.11 198.08 C 562.74 198.25 577.37 198.10 592.00 198.16 C 597.48 198.21 602.99 197.88 608.45 198.52 C 609.18 202.14 609.18 205.86 608.45 209.48 C 603.98 210.01 599.48 209.85 595.00 209.85 C 576.67 209.84 558.34 209.85 540.01 209.85 C 538.43 210.09 537.06 209.24 536.67 207.69 C 537.19 167.26 536.69 126.80 536.92 86.36 C 536.99 85.87 537.11 84.88 537.17 84.39 Z" />
<path fill="#000000" opacity="1.00" d=" M 995.30 86.30 C 995.90 84.84 997.41 83.94 999.00 84.15 C 1018.66 84.12 1038.34 84.21 1058.01 84.12 C 1060.41 84.19 1062.94 83.87 1065.26 84.73 C 1066.57 88.05 1066.54 91.95 1065.27 95.28 C 1062.27 96.25 1059.07 95.77 1055.99 95.86 C 1039.69 95.87 1023.40 95.76 1007.11 95.92 C 1006.99 109.97 1006.99 124.03 1007.11 138.08 C 1025.06 138.26 1043.01 138.09 1060.97 138.16 C 1062.22 137.99 1063.93 138.61 1063.95 140.11 C 1064.11 142.70 1064.11 145.30 1063.95 147.89 C 1063.93 149.39 1062.22 150.00 1060.97 149.84 C 1043.01 149.91 1025.06 149.74 1007.11 149.92 C 1007.00 165.97 1006.99 182.03 1007.11 198.09 C 1025.09 198.24 1043.08 198.13 1061.07 198.13 C 1062.47 198.16 1063.92 198.21 1065.28 198.72 C 1066.53 202.05 1066.57 205.94 1065.26 209.26 C 1063.60 209.93 1061.78 209.84 1060.06 209.88 C 1039.70 209.79 1019.35 209.88 999.00 209.84 C 996.79 210.20 994.79 208.20 995.16 206.00 C 995.15 169.34 995.16 132.67 995.15 96.00 C 995.18 92.77 994.94 89.52 995.30 86.30 Z" />
<path fill="#000000" opacity="1.00" d=" M 1099.21 87.11 C 1099.28 84.17 1102.70 83.91 1104.95 84.11 C 1117.00 84.44 1129.12 83.64 1141.13 84.51 C 1142.28 84.97 1143.52 85.21 1144.79 85.07 C 1145.61 85.12 1147.24 85.22 1148.06 85.28 C 1148.56 85.48 1149.55 85.89 1150.05 86.09 C 1150.53 86.12 1151.48 86.17 1151.96 86.19 C 1152.44 86.42 1153.41 86.87 1153.89 87.09 C 1166.57 90.15 1178.13 100.93 1179.88 114.20 C 1179.70 115.22 1179.94 116.14 1180.60 116.96 C 1181.11 120.97 1181.17 125.08 1180.61 129.09 C 1179.92 129.90 1179.68 130.82 1179.87 131.86 C 1179.40 139.51 1175.22 146.55 1170.11 152.09 C 1164.50 158.23 1156.86 162.05 1148.96 164.31 C 1158.39 177.37 1168.67 189.80 1178.34 202.69 C 1179.21 203.77 1179.78 205.37 1178.81 206.61 C 1176.71 209.08 1173.82 210.72 1171.26 212.66 C 1159.26 196.99 1147.14 181.39 1134.95 165.86 C 1127.00 165.86 1119.05 165.78 1111.11 165.91 C 1110.95 174.94 1111.08 183.97 1111.04 193.00 C 1110.97 198.50 1111.37 204.04 1110.50 209.49 C 1107.44 209.91 1104.30 210.39 1101.26 209.77 C 1099.33 209.01 1098.97 206.87 1099.12 205.05 C 1099.23 165.74 1099.06 126.42 1099.21 87.11 M 1111.11 95.92 C 1110.99 115.30 1111.00 134.69 1111.11 154.08 C 1118.73 154.24 1126.36 154.11 1133.99 154.18 C 1141.09 154.41 1148.39 153.18 1154.61 149.60 C 1162.26 145.43 1167.71 137.58 1168.85 128.94 C 1169.60 122.06 1169.62 114.44 1165.50 108.53 C 1160.65 101.57 1152.17 97.17 1143.75 97.00 C 1143.85 95.22 1140.72 95.03 1140.10 96.47 C 1130.54 95.12 1120.75 96.12 1111.11 95.92 Z" />
<path fill="#000000" opacity="1.00" d=" M 1211.15 88.00 C 1210.79 85.80 1212.80 83.80 1215.00 84.16 C 1235.35 84.12 1255.71 84.21 1276.06 84.12 C 1277.79 84.15 1279.60 84.07 1281.27 84.73 C 1282.55 88.05 1282.55 91.95 1281.27 95.27 C 1278.61 96.20 1275.74 95.79 1273.00 95.87 C 1256.37 95.86 1239.74 95.77 1223.11 95.92 C 1222.99 109.97 1222.99 124.03 1223.11 138.08 C 1241.06 138.26 1259.02 138.09 1276.97 138.16 C 1278.21 138.00 1279.94 138.61 1279.94 140.12 C 1280.11 142.70 1280.11 145.30 1279.96 147.89 C 1279.86 149.36 1278.25 150.03 1276.98 149.84 C 1259.02 149.91 1241.06 149.74 1223.11 149.92 C 1222.99 165.97 1222.99 182.03 1223.11 198.09 C 1241.10 198.24 1259.08 198.14 1277.07 198.13 C 1278.46 198.16 1279.93 198.18 1281.27 198.74 C 1282.57 202.06 1282.53 205.95 1281.27 209.28 C 1279.60 209.91 1277.79 209.85 1276.06 209.88 C 1255.71 209.79 1235.35 209.88 1215.00 209.85 C 1212.79 210.20 1210.79 208.20 1211.15 206.00 C 1211.15 166.67 1211.15 127.33 1211.15 88.00 Z" />
<path fill="#000000" opacity="1.00" d=" M 1321.24 88.06 C 1320.94 85.91 1322.74 83.77 1325.00 84.15 C 1351.66 84.15 1378.32 84.15 1404.98 84.15 C 1407.88 83.44 1408.66 87.35 1407.10 89.11 C 1384.61 121.61 1362.08 154.09 1339.57 186.58 C 1336.97 190.37 1334.23 194.07 1331.90 198.04 C 1353.92 198.31 1375.96 198.09 1397.99 198.14 C 1399.47 197.85 1400.91 198.81 1401.22 200.32 C 1401.01 202.77 1401.01 205.23 1401.21 207.69 C 1400.91 209.19 1399.46 210.14 1397.99 209.86 C 1370.03 209.79 1342.07 209.92 1314.11 209.80 C 1312.44 210.05 1312.15 208.13 1311.86 206.98 C 1313.12 203.78 1315.45 201.15 1317.35 198.31 C 1330.61 179.23 1343.82 160.13 1357.06 141.03 C 1367.33 125.96 1378.06 111.20 1388.04 95.94 C 1366.73 95.67 1345.41 95.99 1324.11 95.79 C 1320.40 95.36 1321.25 90.71 1321.24 88.06 Z" />
</g>
<g id="#25252572">
<path fill="#252525" opacity="0.45" d=" M 700.17 81.49 C 701.09 80.03 704.69 80.12 704.73 82.12 C 703.17 82.17 701.64 81.91 700.17 81.49 Z" />
<path fill="#252525" opacity="0.45" d=" M 1637.17 81.49 C 1638.08 80.03 1641.68 80.13 1641.73 82.12 C 1640.16 82.17 1638.63 81.91 1637.17 81.49 Z" />
</g>
<g id="#2929295d">
<path fill="#292929" opacity="0.36" d=" M 246.51 82.92 C 246.16 81.07 250.09 81.33 249.59 83.10 C 248.54 83.41 247.51 83.35 246.51 82.92 Z" />
<path fill="#292929" opacity="0.36" d=" M 842.51 82.92 C 842.16 81.07 846.08 81.33 845.59 83.10 C 844.53 83.41 843.50 83.35 842.51 82.92 Z" />
</g>
<g id="#2a2a2a65">
<path fill="#2a2a2a" opacity="0.40" d=" M 340.36 82.88 C 340.11 81.14 343.88 81.22 343.62 82.94 C 342.52 83.31 341.43 83.29 340.36 82.88 Z" />
<path fill="#2a2a2a" opacity="0.40" d=" M 936.36 82.88 C 936.10 81.14 939.87 81.22 939.61 82.94 C 938.51 83.31 937.42 83.29 936.36 82.88 Z" />
</g>
<g id="#26262671">
<path fill="#262626" opacity="0.44" d=" M 1486.27 83.12 C 1486.28 81.12 1489.88 81.04 1490.84 82.50 C 1489.33 82.91 1487.80 83.17 1486.27 83.12 Z" />
</g>
<g id="#29292967">
<path fill="#292929" opacity="0.40" d=" M 1502.12 82.51 C 1502.74 81.02 1505.93 81.27 1505.77 83.09 C 1504.49 83.23 1503.26 82.96 1502.12 82.51 Z" />
</g>
<g id="#2a2a2a6b">
<path fill="#2a2a2a" opacity="0.42" d=" M 1508.99 83.26 L 1509.77 82.78 L 1510.76 83.21 L 1510.95 84.10 C 1510.46 83.89 1509.48 83.47 1508.99 83.26 Z" />
</g>
<g id="#2b2b2b6b">
<path fill="#2b2b2b" opacity="0.42" d=" M 1141.13 84.51 C 1141.74 83.03 1144.93 83.25 1144.79 85.07 C 1143.52 85.21 1142.28 84.97 1141.13 84.51 Z" />
<path fill="#2b2b2b" opacity="0.42" d=" M 349.89 112.11 L 350.78 112.28 L 351.23 113.27 L 350.78 114.06 C 350.56 113.57 350.11 112.60 349.89 112.11 Z" />
<path fill="#2b2b2b" opacity="0.42" d=" M 945.89 112.11 L 946.78 112.28 L 947.24 113.27 L 946.78 114.06 C 946.56 113.57 946.12 112.60 945.89 112.11 Z" />
<path fill="#2b2b2b" opacity="0.42" d=" M 238.22 118.28 L 239.11 118.11 C 238.89 118.60 238.44 119.57 238.22 120.06 L 237.77 119.27 L 238.22 118.28 Z" />
<path fill="#2b2b2b" opacity="0.42" d=" M 834.22 118.28 L 835.11 118.11 C 834.88 118.60 834.44 119.58 834.22 120.06 L 833.77 119.27 L 834.22 118.28 Z" />
<path fill="#2b2b2b" opacity="0.42" d=" M 344.22 139.94 C 344.44 140.43 344.89 141.40 345.11 141.89 L 344.22 141.72 L 343.77 140.73 L 344.22 139.94 Z" />
<path fill="#2b2b2b" opacity="0.42" d=" M 940.21 139.94 C 940.44 140.42 940.88 141.40 941.11 141.88 L 940.22 141.72 L 939.76 140.73 L 940.21 139.94 Z" />
<path fill="#2b2b2b" opacity="0.42" d=" M 227.22 169.28 L 228.11 169.11 C 227.88 169.60 227.44 170.57 227.22 171.06 L 226.77 170.27 L 227.22 169.28 Z" />
<path fill="#2b2b2b" opacity="0.42" d=" M 823.22 169.28 L 824.11 169.11 C 823.88 169.60 823.44 170.57 823.22 171.06 L 822.77 170.27 L 823.22 169.28 Z" />
</g>
<g id="#27272780">
<path fill="#272727" opacity="0.50" d=" M 1148.06 85.28 L 1148.83 84.80 L 1149.84 85.21 L 1150.05 86.09 C 1149.55 85.89 1148.56 85.48 1148.06 85.28 Z" />
</g>
<g id="#141414b7">
<path fill="#141414" opacity="0.72" d=" M 536.48 85.36 L 536.92 86.36 C 536.69 126.80 537.19 167.26 536.67 207.69 L 536.50 208.66 C 535.82 204.80 536.11 200.88 536.09 197.00 C 536.09 163.67 536.09 130.33 536.09 97.00 C 536.10 93.12 535.83 89.21 536.48 85.36 Z" />
</g>
<g id="#24242483">
<path fill="#242424" opacity="0.51" d=" M 1151.96 86.19 L 1152.75 85.74 L 1153.73 86.20 L 1153.89 87.09 C 1153.41 86.87 1152.44 86.42 1151.96 86.19 Z" />
</g>
<g id="#2b2b2b6f">
<path fill="#2b2b2b" opacity="0.44" d=" M 344.91 89.04 L 345.78 89.28 L 346.14 90.30 L 345.59 91.04 C 345.42 90.54 345.08 89.54 344.91 89.04 Z" />
<path fill="#2b2b2b" opacity="0.44" d=" M 940.91 89.04 L 941.78 89.28 L 942.14 90.31 L 941.59 91.05 C 941.42 90.54 941.08 89.54 940.91 89.04 Z" />
</g>
<g id="#26262655">
<path fill="#262626" opacity="0.33" d=" M 686.22 93.99 C 686.13 92.23 689.22 92.04 689.89 93.44 C 688.73 93.98 687.47 94.22 686.22 93.99 Z" />
<path fill="#262626" opacity="0.33" d=" M 700.12 93.45 C 700.76 92.04 703.85 92.23 703.78 93.99 C 702.51 94.22 701.25 93.98 700.12 93.45 Z" />
<path fill="#262626" opacity="0.33" d=" M 1623.22 93.99 C 1623.11 92.23 1626.20 92.04 1626.89 93.45 C 1625.72 93.98 1624.45 94.22 1623.22 93.99 Z" />
<path fill="#262626" opacity="0.33" d=" M 1637.11 93.44 C 1637.74 92.04 1640.84 92.23 1640.78 93.99 C 1639.50 94.22 1638.24 93.98 1637.11 93.44 Z" />
<path fill="#262626" opacity="0.33" d=" M 686.22 200.01 C 687.46 199.77 688.73 200.01 689.89 200.55 C 689.22 201.96 686.13 201.76 686.22 200.01 Z" />
<path fill="#262626" opacity="0.33" d=" M 700.11 200.55 C 701.25 200.01 702.51 199.77 703.78 200.01 C 703.85 201.76 700.76 201.96 700.11 200.55 Z" />
<path fill="#262626" opacity="0.33" d=" M 1623.22 200.01 C 1624.45 199.77 1625.72 200.01 1626.89 200.55 C 1626.20 201.96 1623.11 201.76 1623.22 200.01 Z" />
<path fill="#262626" opacity="0.33" d=" M 1637.11 200.55 C 1638.24 200.01 1639.50 199.78 1640.78 200.01 C 1640.84 201.76 1637.74 201.96 1637.11 200.55 Z" />
</g>
<g id="#2424245b">
<path fill="#242424" opacity="0.36" d=" M 243.44 96.99 C 242.21 95.65 242.46 94.74 244.18 94.24 C 244.31 95.26 244.07 96.18 243.44 96.99 Z" />
<path fill="#242424" opacity="0.36" d=" M 839.43 96.99 C 838.20 95.66 838.45 94.74 840.18 94.24 C 840.31 95.26 840.06 96.18 839.43 96.99 Z" />
<path fill="#242424" opacity="0.36" d=" M 346.40 149.01 C 347.05 149.81 347.30 150.73 347.17 151.75 C 345.45 151.27 345.19 150.35 346.40 149.01 Z" />
<path fill="#242424" opacity="0.36" d=" M 942.40 149.01 C 943.04 149.81 943.30 150.73 943.17 151.75 C 941.44 151.27 941.19 150.35 942.40 149.01 Z" />
<path fill="#242424" opacity="0.36" d=" M 365.84 185.24 C 367.54 185.74 367.78 186.66 366.56 188.00 C 365.92 187.17 365.68 186.25 365.84 185.24 Z" />
<path fill="#242424" opacity="0.36" d=" M 961.84 185.24 C 963.53 185.74 963.77 186.66 962.56 188.00 C 961.91 187.17 961.67 186.25 961.84 185.24 Z" />
</g>
<g id="#29292972">
<path fill="#292929" opacity="0.45" d=" M 681.28 94.13 L 682.27 93.69 L 683.05 94.16 C 682.57 94.37 681.59 94.80 681.11 95.02 L 681.28 94.13 Z" />
<path fill="#292929" opacity="0.45" d=" M 1618.28 94.13 L 1619.27 93.70 L 1620.05 94.16 C 1619.56 94.38 1618.59 94.81 1618.10 95.02 L 1618.28 94.13 Z" />
<path fill="#292929" opacity="0.45" d=" M 1508.00 94.94 C 1508.51 95.09 1509.54 95.40 1510.05 95.56 L 1509.32 96.12 L 1508.28 95.80 L 1508.00 94.94 Z" />
<path fill="#292929" opacity="0.45" d=" M 1508.27 198.20 L 1509.32 197.88 L 1510.05 198.44 C 1509.54 198.60 1508.51 198.90 1508.00 199.06 L 1508.27 198.20 Z" />
</g>
<g id="#2a2a2a74">
<path fill="#2a2a2a" opacity="0.45" d=" M 706.95 94.16 L 707.73 93.69 L 708.72 94.13 L 708.89 95.02 C 708.40 94.80 707.43 94.37 706.95 94.16 Z" />
<path fill="#2a2a2a" opacity="0.45" d=" M 1643.95 94.16 L 1644.73 93.69 L 1645.72 94.13 L 1645.89 95.02 C 1645.41 94.80 1644.43 94.38 1643.95 94.16 Z" />
</g>
<g id="#2727275a">
<path fill="#272727" opacity="0.35" d=" M 1487.03 94.58 C 1488.16 94.05 1489.41 93.72 1490.70 93.89 C 1490.82 95.67 1487.73 95.97 1487.03 94.58 Z" />
<path fill="#272727" opacity="0.35" d=" M 1487.03 199.42 C 1487.74 198.03 1490.83 198.33 1490.71 200.11 C 1489.41 200.28 1488.16 199.95 1487.03 199.42 Z" />
</g>
<g id="#26262653">
<path fill="#262626" opacity="0.33" d=" M 1501.29 93.89 C 1502.52 93.71 1503.75 94.03 1504.91 94.54 C 1504.21 95.98 1501.09 95.67 1501.29 93.89 Z" />
<path fill="#262626" opacity="0.33" d=" M 1501.28 200.11 C 1501.08 198.32 1504.20 198.02 1504.90 199.46 C 1503.75 199.97 1502.51 200.29 1501.28 200.11 Z" />
</g>
<g id="#22222264">
<path fill="#222222" opacity="0.39" d=" M 1482.06 95.55 C 1482.91 94.93 1483.86 94.71 1484.93 94.90 C 1484.31 96.55 1483.35 96.77 1482.06 95.55 Z" />
<path fill="#222222" opacity="0.39" d=" M 1482.06 198.45 C 1483.35 197.22 1484.31 197.44 1484.93 199.10 C 1483.87 199.28 1482.91 199.06 1482.06 198.45 Z" />
</g>
<g id="#28282864">
<path fill="#282828" opacity="0.39" d=" M 1140.10 96.47 C 1140.72 95.03 1143.85 95.22 1143.75 97.00 C 1142.48 97.22 1141.23 96.97 1140.10 96.47 Z" />
</g>
<g id="#2525255e">
<path fill="#252525" opacity="0.37" d=" M 347.82 102.24 C 349.54 102.72 349.80 103.64 348.60 104.99 C 347.95 104.18 347.69 103.26 347.82 102.24 Z" />
<path fill="#252525" opacity="0.37" d=" M 943.82 102.24 C 945.53 102.72 945.79 103.64 944.60 104.99 C 943.94 104.18 943.68 103.26 943.82 102.24 Z" />
<path fill="#252525" opacity="0.37" d=" M 341.40 126.02 C 342.05 126.82 342.31 127.74 342.16 128.77 C 340.45 128.27 340.20 127.35 341.40 126.02 Z" />
<path fill="#252525" opacity="0.37" d=" M 937.40 126.02 C 938.05 126.82 938.30 127.74 938.16 128.77 C 936.44 128.27 936.19 127.35 937.40 126.02 Z" />
<path fill="#252525" opacity="0.37" d=" M 360.83 162.22 C 362.54 162.71 362.79 163.63 361.60 164.98 C 360.95 164.16 360.69 163.24 360.83 162.22 Z" />
<path fill="#252525" opacity="0.37" d=" M 956.83 162.21 C 958.53 162.71 958.78 163.63 957.60 164.98 C 956.94 164.16 956.68 163.24 956.83 162.21 Z" />
<path fill="#252525" opacity="0.37" d=" M 358.41 204.03 C 359.05 204.85 359.29 205.77 359.12 206.80 C 357.42 206.26 357.19 205.34 358.41 204.03 Z" />
</g>
<g id="#25252560">
<path fill="#252525" opacity="0.38" d=" M 240.40 110.97 C 239.20 109.63 239.45 108.71 241.17 108.21 C 241.30 109.24 241.04 110.16 240.40 110.97 Z" />
<path fill="#252525" opacity="0.38" d=" M 836.40 110.97 C 835.19 109.63 835.44 108.71 837.17 108.21 C 837.29 109.24 837.04 110.16 836.40 110.97 Z" />
<path fill="#252525" opacity="0.38" d=" M 229.40 161.98 C 228.20 160.63 228.45 159.71 230.16 159.21 C 230.30 160.24 230.05 161.16 229.40 161.98 Z" />
<path fill="#252525" opacity="0.38" d=" M 825.40 161.98 C 824.19 160.63 824.44 159.71 826.16 159.22 C 826.29 160.24 826.04 161.16 825.40 161.98 Z" />
<path fill="#252525" opacity="0.38" d=" M 233.83 194.79 C 233.69 193.76 233.95 192.84 234.60 192.03 C 235.80 193.37 235.54 194.29 233.83 194.79 Z" />
<path fill="#252525" opacity="0.38" d=" M 829.83 194.79 C 829.68 193.76 829.94 192.84 830.60 192.02 C 831.79 193.37 831.53 194.29 829.83 194.79 Z" />
</g>
<g id="#28282860">
<path fill="#282828" opacity="0.38" d=" M 1179.88 114.20 C 1181.57 114.71 1181.80 115.63 1180.60 116.96 C 1179.94 116.14 1179.70 115.22 1179.88 114.20 Z" />
</g>
<g id="#24242468">
<path fill="#242424" opacity="0.41" d=" M 350.91 116.11 C 352.57 116.68 352.79 117.63 351.59 118.95 C 350.95 118.10 350.72 117.15 350.91 116.11 Z" />
<path fill="#242424" opacity="0.41" d=" M 343.40 135.06 C 344.04 135.90 344.27 136.85 344.09 137.89 C 342.42 137.31 342.19 136.37 343.40 135.06 Z" />
<path fill="#242424" opacity="0.41" d=" M 939.41 135.05 C 940.03 135.90 940.26 136.85 940.09 137.89 C 938.41 137.31 938.18 136.36 939.41 135.05 Z" />
<path fill="#242424" opacity="0.41" d=" M 363.91 176.11 C 365.57 176.69 365.80 177.63 364.59 178.95 C 363.95 178.10 363.72 177.15 363.91 176.11 Z" />
<path fill="#242424" opacity="0.41" d=" M 959.91 176.11 C 961.56 176.68 961.79 177.63 960.59 178.94 C 959.94 178.09 959.71 177.15 959.91 176.11 Z" />
</g>
<g id="#24242467">
<path fill="#242424" opacity="0.40" d=" M 946.91 116.11 C 948.56 116.68 948.79 117.63 947.59 118.94 C 946.94 118.09 946.71 117.15 946.91 116.11 Z" />
</g>
<g id="#2a2a2a6d">
<path fill="#2a2a2a" opacity="0.43" d=" M 339.36 116.93 L 340.07 117.14 C 340.09 117.54 340.12 118.34 340.13 118.74 C 339.82 118.49 339.20 117.98 338.89 117.73 L 339.36 116.93 Z" />
<path fill="#2a2a2a" opacity="0.43" d=" M 935.36 116.93 L 936.07 117.14 C 936.08 117.54 936.12 118.34 936.13 118.74 C 935.82 118.49 935.20 117.98 934.89 117.72 L 935.36 116.93 Z" />
<path fill="#2a2a2a" opacity="0.43" d=" M 758.92 131.98 L 759.80 132.19 L 760.20 133.21 L 759.72 133.97 C 759.52 133.47 759.12 132.48 758.92 131.98 Z" />
<path fill="#2a2a2a" opacity="0.43" d=" M 1695.92 131.98 L 1696.80 132.19 L 1697.20 133.21 L 1696.72 133.97 C 1696.52 133.47 1696.12 132.48 1695.92 131.98 Z" />
<path fill="#2a2a2a" opacity="0.43" d=" M 758.92 162.03 C 759.12 161.53 759.52 160.53 759.72 160.03 L 760.20 160.79 L 759.80 161.81 L 758.92 162.03 Z" />
<path fill="#2a2a2a" opacity="0.43" d=" M 235.89 184.89 C 236.12 184.40 236.56 183.43 236.78 182.94 L 237.23 183.73 L 236.78 184.72 L 235.89 184.89 Z" />
<path fill="#2a2a2a" opacity="0.43" d=" M 831.89 184.89 C 832.12 184.40 832.56 183.43 832.78 182.94 L 833.24 183.73 L 832.78 184.72 L 831.89 184.89 Z" />
<path fill="#2a2a2a" opacity="0.43" d=" M 952.41 194.96 C 952.59 195.46 952.94 196.45 953.12 196.95 L 952.24 196.72 L 951.87 195.70 L 952.41 194.96 Z" />
</g>
<g id="#24242465">
<path fill="#242424" opacity="0.40" d=" M 237.41 124.94 C 236.20 123.63 236.43 122.68 238.10 122.11 C 238.27 123.15 238.04 124.09 237.41 124.94 Z" />
<path fill="#242424" opacity="0.40" d=" M 833.41 124.95 C 832.19 123.63 832.41 122.69 834.09 122.11 C 834.26 123.15 834.03 124.10 833.41 124.95 Z" />
<path fill="#242424" opacity="0.40" d=" M 348.39 158.03 C 349.03 158.85 349.28 159.77 349.14 160.80 C 347.43 160.29 347.18 159.37 348.39 158.03 Z" />
<path fill="#242424" opacity="0.40" d=" M 944.39 158.03 C 945.02 158.85 945.27 159.77 945.14 160.80 C 943.42 160.29 943.17 159.36 944.39 158.03 Z" />
<path fill="#242424" opacity="0.40" d=" M 226.41 175.94 C 225.19 174.63 225.42 173.68 227.09 173.11 C 227.27 174.15 227.04 175.09 226.41 175.94 Z" />
<path fill="#242424" opacity="0.40" d=" M 822.41 175.95 C 821.19 174.63 821.42 173.68 823.09 173.11 C 823.26 174.15 823.03 175.10 822.41 175.95 Z" />
</g>
<g id="#24242457">
<path fill="#242424" opacity="0.34" d=" M 248.84 125.76 C 248.68 124.73 248.92 123.81 249.56 123.00 C 250.78 124.33 250.54 125.25 248.84 125.76 Z" />
<path fill="#242424" opacity="0.34" d=" M 844.84 125.76 C 844.67 124.73 844.92 123.82 845.56 123.00 C 846.77 124.33 846.53 125.25 844.84 125.76 Z" />
<path fill="#242424" opacity="0.34" d=" M 351.44 172.00 C 352.07 172.81 352.31 173.73 352.16 174.75 C 350.45 174.25 350.21 173.33 351.44 172.00 Z" />
<path fill="#242424" opacity="0.34" d=" M 947.44 172.00 C 948.06 172.81 948.30 173.73 948.16 174.75 C 946.44 174.25 946.20 173.33 947.44 172.00 Z" />
</g>
<g id="#2424245a">
<path fill="#242424" opacity="0.35" d=" M 352.84 125.24 C 354.54 125.74 354.78 126.67 353.56 128.00 C 352.92 127.17 352.69 126.25 352.84 125.24 Z" />
<path fill="#242424" opacity="0.35" d=" M 948.84 125.23 C 950.53 125.74 950.77 126.66 949.56 128.00 C 948.91 127.17 948.67 126.25 948.84 125.23 Z" />
<path fill="#242424" opacity="0.35" d=" M 243.84 148.76 C 243.68 147.74 243.92 146.82 244.56 146.00 C 245.78 147.33 245.54 148.25 243.84 148.76 Z" />
<path fill="#242424" opacity="0.35" d=" M 839.84 148.76 C 839.67 147.74 839.92 146.82 840.56 146.00 C 841.77 147.33 841.53 148.25 839.84 148.76 Z" />
</g>
<g id="#2828286d">
<path fill="#282828" opacity="0.43" d=" M 757.92 128.15 L 758.81 128.30 L 759.27 129.29 L 758.81 130.08 C 758.59 129.59 758.14 128.63 757.92 128.15 Z" />
<path fill="#282828" opacity="0.43" d=" M 1694.92 128.14 L 1695.81 128.30 L 1696.27 129.28 L 1695.82 130.07 C 1695.59 129.59 1695.14 128.63 1694.92 128.14 Z" />
</g>
<g id="#28282877">
<path fill="#282828" opacity="0.47" d=" M 1179.87 131.86 C 1179.68 130.82 1179.92 129.90 1180.61 129.09 C 1181.78 130.42 1181.54 131.35 1179.87 131.86 Z" />
</g>
<g id="#24242456">
<path fill="#242424" opacity="0.34" d=" M 235.29 134.04 C 234.17 132.65 234.46 131.73 236.16 131.28 C 236.29 132.33 235.99 133.25 235.29 134.04 Z" />
<path fill="#242424" opacity="0.34" d=" M 831.29 134.04 C 830.16 132.65 830.45 131.73 832.16 131.28 C 832.28 132.33 831.99 133.25 831.29 134.04 Z" />
<path fill="#242424" opacity="0.34" d=" M 357.84 148.24 C 359.54 148.75 359.78 149.67 358.56 151.00 C 357.93 150.18 357.68 149.26 357.84 148.24 Z" />
<path fill="#242424" opacity="0.34" d=" M 953.84 148.25 C 955.53 148.75 955.77 149.67 954.56 151.00 C 953.92 150.18 953.68 149.26 953.84 148.25 Z" />
</g>
<g id="#24242463">
<path fill="#242424" opacity="0.39" d=" M 246.86 134.80 C 246.71 133.77 246.96 132.85 247.61 132.03 C 248.81 133.37 248.56 134.29 246.86 134.80 Z" />
<path fill="#242424" opacity="0.39" d=" M 842.86 134.80 C 842.70 133.77 842.95 132.85 843.61 132.03 C 844.80 133.37 844.55 134.29 842.86 134.80 Z" />
<path fill="#242424" opacity="0.39" d=" M 355.86 139.20 C 357.56 139.71 357.81 140.64 356.60 141.97 C 355.96 141.15 355.71 140.23 355.86 139.20 Z" />
<path fill="#242424" opacity="0.39" d=" M 951.86 139.20 C 953.55 139.71 953.80 140.64 952.60 141.97 C 951.95 141.15 951.70 140.23 951.86 139.20 Z" />
</g>
<g id="#2a2a2a70">
<path fill="#2a2a2a" opacity="0.44" d=" M 642.13 133.28 L 643.02 133.10 C 642.80 133.59 642.38 134.56 642.17 135.05 L 641.70 134.27 L 642.13 133.28 Z" />
<path fill="#2a2a2a" opacity="0.44" d=" M 1579.13 133.28 L 1580.02 133.10 C 1579.80 133.59 1579.38 134.57 1579.16 135.06 L 1578.70 134.28 L 1579.13 133.28 Z" />
<path fill="#2a2a2a" opacity="0.44" d=" M 230.84 207.93 C 231.03 207.43 231.39 206.45 231.57 205.96 L 232.09 206.70 L 231.72 207.70 L 230.84 207.93 Z" />
<path fill="#2a2a2a" opacity="0.44" d=" M 826.84 207.93 C 827.02 207.44 827.39 206.45 827.57 205.96 L 828.09 206.70 L 827.72 207.71 L 826.84 207.93 Z" />
</g>
<g id="#2929296e">
<path fill="#292929" opacity="0.43" d=" M 1443.95 134.99 C 1444.10 134.48 1444.40 133.45 1444.56 132.94 L 1445.12 133.67 L 1444.81 134.71 L 1443.95 134.99 Z" />
</g>
<g id="#2424246b">
<path fill="#242424" opacity="0.42" d=" M 234.41 138.94 C 233.19 137.63 233.42 136.68 235.08 136.09 C 235.26 137.13 235.04 138.08 234.41 138.94 Z" />
<path fill="#242424" opacity="0.42" d=" M 830.41 138.95 C 829.19 137.63 829.41 136.68 831.08 136.09 C 831.26 137.14 831.03 138.09 830.41 138.95 Z" />
<path fill="#242424" opacity="0.42" d=" M 223.41 189.94 C 222.20 188.63 222.42 187.68 224.09 187.09 C 224.27 188.13 224.04 189.08 223.41 189.94 Z" />
<path fill="#242424" opacity="0.42" d=" M 819.41 189.94 C 818.19 188.63 818.41 187.68 820.08 187.09 C 820.26 188.14 820.03 189.09 819.41 189.94 Z" />
</g>
<g id="#26262668">
<path fill="#262626" opacity="0.41" d=" M 629.50 141.84 C 628.00 140.93 628.11 137.31 630.12 137.32 C 630.15 138.85 629.91 140.36 629.50 141.84 Z" />
<path fill="#262626" opacity="0.41" d=" M 1566.50 141.84 C 1564.99 140.93 1565.10 137.31 1567.12 137.32 C 1567.14 138.85 1566.89 140.37 1566.50 141.84 Z" />
<path fill="#262626" opacity="0.41" d=" M 629.50 152.16 C 629.91 153.63 630.15 155.15 630.12 156.68 C 628.11 156.68 628.00 153.06 629.50 152.16 Z" />
<path fill="#262626" opacity="0.41" d=" M 1566.50 152.16 C 1566.90 153.63 1567.14 155.15 1567.12 156.68 C 1565.10 156.68 1564.99 153.06 1566.50 152.16 Z" />
</g>
<g id="#27272773">
<path fill="#272727" opacity="0.45" d=" M 747.95 137.19 C 749.60 137.72 749.84 138.65 748.65 139.98 C 747.97 139.16 747.74 138.23 747.95 137.19 Z" />
<path fill="#272727" opacity="0.45" d=" M 1684.95 137.20 C 1686.59 137.72 1686.82 138.65 1685.65 139.98 C 1684.96 139.16 1684.73 138.23 1684.95 137.20 Z" />
</g>
<g id="#2828286f">
<path fill="#282828" opacity="0.44" d=" M 759.90 137.21 C 761.69 137.04 761.97 140.21 760.50 140.86 C 760.02 139.70 759.75 138.46 759.90 137.21 Z" />
<path fill="#282828" opacity="0.44" d=" M 1696.90 137.21 C 1698.68 137.04 1698.95 140.21 1697.50 140.86 C 1697.01 139.70 1696.73 138.46 1696.90 137.21 Z" />
<path fill="#282828" opacity="0.44" d=" M 759.90 156.78 C 759.74 155.53 760.02 154.29 760.50 153.14 C 761.97 153.79 761.69 156.95 759.90 156.78 Z" />
<path fill="#282828" opacity="0.44" d=" M 1696.90 156.78 C 1696.73 155.53 1697.01 154.29 1697.50 153.14 C 1698.96 153.79 1698.67 156.95 1696.90 156.78 Z" />
<path fill="#282828" opacity="0.44" d=" M 747.95 156.82 C 747.74 155.78 747.97 154.85 748.65 154.03 C 749.83 155.36 749.60 156.29 747.95 156.82 Z" />
</g>
<g id="#27272763">
<path fill="#272727" opacity="0.39" d=" M 1431.51 141.86 C 1430.01 140.95 1430.09 137.32 1432.12 137.33 C 1432.14 138.86 1431.90 140.38 1431.51 141.86 Z" />
<path fill="#272727" opacity="0.39" d=" M 1431.51 152.14 C 1431.90 153.62 1432.14 155.14 1432.12 156.67 C 1430.09 156.68 1430.00 153.05 1431.51 152.14 Z" />
</g>
<g id="#2a2a2a60">
<path fill="#2a2a2a" opacity="0.38" d=" M 641.39 140.95 C 640.16 139.67 640.35 138.73 641.97 138.13 C 642.23 139.16 642.04 140.10 641.39 140.95 Z" />
<path fill="#2a2a2a" opacity="0.38" d=" M 1578.39 140.96 C 1577.14 139.67 1577.33 138.73 1578.97 138.13 C 1579.22 139.16 1579.02 140.10 1578.39 140.96 Z" />
</g>
<g id="#2a2a2a59">
<path fill="#2a2a2a" opacity="0.35" d=" M 1442.88 140.80 C 1442.67 139.76 1442.92 138.83 1443.62 138.01 C 1444.77 139.36 1444.52 140.29 1442.88 140.80 Z" />
<path fill="#2a2a2a" opacity="0.35" d=" M 1442.88 153.20 C 1444.52 153.70 1444.77 154.63 1443.62 155.98 C 1442.91 155.16 1442.67 154.24 1442.88 153.20 Z" />
</g>
<g id="#2d2d2d74">
<path fill="#2d2d2d" opacity="0.45" d=" M 467.96 140.11 L 469.01 140.03 C 468.98 142.68 468.98 145.32 469.00 147.97 L 467.94 147.89 C 468.12 145.30 468.12 142.70 467.96 140.11 Z" />
<path fill="#2d2d2d" opacity="0.45" d=" M 1063.95 140.11 L 1065.00 140.02 C 1064.98 142.67 1064.98 145.32 1065.00 147.97 L 1063.95 147.89 C 1064.11 145.30 1064.11 142.70 1063.95 140.11 Z" />
<path fill="#2d2d2d" opacity="0.45" d=" M 1279.94 140.12 L 1281.00 140.02 C 1280.97 142.67 1280.98 145.33 1281.01 147.98 L 1279.96 147.89 C 1280.11 145.30 1280.11 142.70 1279.94 140.12 Z" />
</g>
<g id="#2525255c">
<path fill="#252525" opacity="0.36" d=" M 232.44 147.99 C 231.21 146.66 231.45 145.74 233.16 145.23 C 233.31 146.25 233.07 147.17 232.44 147.99 Z" />
<path fill="#252525" opacity="0.36" d=" M 828.44 148.00 C 827.20 146.67 827.44 145.75 829.16 145.24 C 829.30 146.25 829.06 147.17 828.44 148.00 Z" />
<path fill="#252525" opacity="0.36" d=" M 221.43 199.00 C 220.21 197.67 220.45 196.75 222.16 196.24 C 222.31 197.26 222.07 198.18 221.43 199.00 Z" />
<path fill="#252525" opacity="0.36" d=" M 817.43 199.00 C 816.20 197.66 816.44 196.74 818.16 196.24 C 818.30 197.26 818.06 198.18 817.43 199.00 Z" />
</g>
<g id="#2525254d">
<path fill="#252525" opacity="0.30" d=" M 641.42 152.13 C 641.95 153.26 642.22 154.51 642.04 155.77 C 640.27 155.91 639.99 152.80 641.42 152.13 Z" />
<path fill="#252525" opacity="0.30" d=" M 1578.42 152.13 C 1578.94 153.26 1579.20 154.51 1579.04 155.77 C 1577.25 155.91 1576.98 152.80 1578.42 152.13 Z" />
</g>
<g id="#2828286e">
<path fill="#282828" opacity="0.43" d=" M 1684.95 156.82 C 1684.72 155.78 1684.96 154.85 1685.64 154.03 C 1686.82 155.35 1686.59 156.28 1684.95 156.82 Z" />
<path fill="#282828" opacity="0.43" d=" M 757.93 165.90 C 758.14 165.41 758.58 164.43 758.79 163.95 L 759.26 164.73 L 758.82 165.72 L 757.93 165.90 Z" />
<path fill="#282828" opacity="0.43" d=" M 1694.93 165.90 C 1695.14 165.41 1695.58 164.43 1695.80 163.95 L 1696.26 164.73 L 1695.82 165.72 L 1694.93 165.90 Z" />
</g>
<g id="#24242466">
<path fill="#242424" opacity="0.40" d=" M 241.90 157.89 C 241.72 156.85 241.95 155.90 242.59 155.05 C 243.80 156.37 243.57 157.31 241.90 157.89 Z" />
<path fill="#242424" opacity="0.40" d=" M 837.91 157.89 C 837.72 156.85 837.95 155.90 838.59 155.05 C 839.79 156.37 839.56 157.31 837.91 157.89 Z" />
</g>
<g id="#29292970">
<path fill="#292929" opacity="0.44" d=" M 1443.94 159.01 L 1444.81 159.28 L 1445.12 160.33 L 1444.56 161.06 C 1444.40 160.54 1444.10 159.52 1443.94 159.01 Z" />
</g>
<g id="#2b2b2b6a">
<path fill="#2b2b2b" opacity="0.42" d=" M 240.89 161.88 C 241.11 161.40 241.56 160.42 241.78 159.94 L 242.23 160.73 L 241.78 161.72 L 240.89 161.88 Z" />
<path fill="#2b2b2b" opacity="0.42" d=" M 836.89 161.88 C 837.11 161.40 837.56 160.42 837.78 159.94 L 838.23 160.73 L 837.78 161.72 L 836.89 161.88 Z" />
</g>
<g id="#2b2b2b6e">
<path fill="#2b2b2b" opacity="0.43" d=" M 1695.92 162.03 C 1696.12 161.53 1696.52 160.53 1696.72 160.03 L 1697.20 160.80 L 1696.80 161.81 L 1695.92 162.03 Z" />
</g>
<g id="#29292977">
<path fill="#292929" opacity="0.47" d=" M 238.88 170.95 C 239.07 170.46 239.45 169.47 239.65 168.98 L 240.16 169.73 L 239.77 170.74 L 238.88 170.95 Z" />
<path fill="#292929" opacity="0.47" d=" M 834.88 170.95 C 835.07 170.46 835.46 169.47 835.65 168.98 L 836.16 169.73 L 835.77 170.75 L 834.88 170.95 Z" />
</g>
<g id="#2a2a2a6c">
<path fill="#2a2a2a" opacity="0.42" d=" M 362.89 172.11 L 363.78 172.28 L 364.23 173.27 L 363.78 174.06 C 363.56 173.57 363.11 172.60 362.89 172.11 Z" />
<path fill="#2a2a2a" opacity="0.42" d=" M 958.89 172.11 L 959.78 172.27 L 960.24 173.26 L 959.79 174.06 C 959.56 173.57 959.12 172.59 958.89 172.11 Z" />
</g>
<g id="#24242469">
<path fill="#242424" opacity="0.41" d=" M 236.91 180.89 C 236.73 179.85 236.96 178.90 237.59 178.05 C 238.80 179.37 238.57 180.31 236.91 180.89 Z" />
<path fill="#242424" opacity="0.41" d=" M 832.91 180.89 C 832.72 179.85 832.95 178.90 833.60 178.05 C 834.79 179.37 834.56 180.31 832.91 180.89 Z" />
</g>
<g id="#24242461">
<path fill="#242424" opacity="0.38" d=" M 353.40 181.03 C 354.04 181.84 354.30 182.76 354.17 183.79 C 352.45 183.28 352.20 182.36 353.40 181.03 Z" />
<path fill="#242424" opacity="0.38" d=" M 949.40 181.03 C 950.04 181.84 950.29 182.76 950.17 183.79 C 948.44 183.29 948.19 182.37 949.40 181.03 Z" />
</g>
<g id="#25252557">
<path fill="#252525" opacity="0.34" d=" M 224.29 185.04 C 223.17 183.65 223.46 182.73 225.16 182.28 C 225.29 183.33 225.00 184.25 224.29 185.04 Z" />
<path fill="#252525" opacity="0.34" d=" M 820.29 185.04 C 819.16 183.66 819.45 182.73 821.16 182.28 C 821.28 183.33 820.99 184.25 820.29 185.04 Z" />
</g>
<g id="#2a2a2a6e">
<path fill="#2a2a2a" opacity="0.43" d=" M 356.41 194.96 C 356.59 195.46 356.94 196.46 357.11 196.96 L 356.23 196.72 L 355.87 195.70 L 356.41 194.96 Z" />
</g>
<g id="#24242464">
<path fill="#242424" opacity="0.39" d=" M 368.86 199.20 C 370.56 199.71 370.82 200.63 369.62 201.97 C 368.97 201.15 368.72 200.23 368.86 199.20 Z" />
<path fill="#242424" opacity="0.39" d=" M 964.86 199.20 C 966.55 199.70 966.81 200.63 965.62 201.97 C 964.96 201.15 964.71 200.23 964.86 199.20 Z" />
</g>
<g id="#29292971">
<path fill="#292929" opacity="0.44" d=" M 681.10 198.99 C 681.59 199.20 682.56 199.63 683.05 199.84 L 682.27 200.31 L 681.28 199.87 L 681.10 198.99 Z" />
<path fill="#292929" opacity="0.44" d=" M 1618.11 198.98 C 1618.59 199.20 1619.57 199.63 1620.05 199.84 L 1619.27 200.31 L 1618.28 199.87 L 1618.11 198.98 Z" />
</g>
<g id="#29292973">
<path fill="#292929" opacity="0.45" d=" M 706.95 199.84 C 707.43 199.62 708.41 199.19 708.89 198.98 L 708.72 199.87 L 707.73 200.31 L 706.95 199.84 Z" />
<path fill="#292929" opacity="0.45" d=" M 1643.95 199.85 C 1644.44 199.63 1645.41 199.20 1645.89 198.98 L 1645.72 199.87 L 1644.73 200.31 L 1643.95 199.85 Z" />
</g>
<g id="#2424249b">
<path fill="#242424" opacity="0.61" d=" M 1401.22 200.32 L 1401.62 199.38 C 1402.10 202.44 1402.10 205.56 1401.63 208.63 L 1401.21 207.69 C 1401.01 205.23 1401.01 202.77 1401.22 200.32 Z" />
</g>
<g id="#29292979">
<path fill="#292929" opacity="0.47" d=" M 954.36 203.98 C 954.54 204.48 954.91 205.47 955.09 205.97 L 954.21 205.75 L 953.83 204.73 L 954.36 203.98 Z" />
</g>
<g id="#23232365">
<path fill="#232323" opacity="0.40" d=" M 224.23 209.82 C 225.26 209.71 226.16 210.00 226.93 210.70 C 225.55 211.84 224.65 211.55 224.23 209.82 Z" />
<path fill="#232323" opacity="0.40" d=" M 820.23 209.83 C 821.25 209.71 822.14 210.00 822.93 210.70 C 821.54 211.85 820.64 211.55 820.23 209.83 Z" />
</g>
<g id="#26262696">
<path fill="#262626" opacity="0.59" d=" M 293.43 211.13 C 294.43 210.65 295.47 210.57 296.55 210.88 C 297.07 212.61 293.16 212.92 293.43 211.13 Z" />
<path fill="#262626" opacity="0.59" d=" M 889.43 211.13 C 890.42 210.65 891.46 210.57 892.55 210.88 C 893.07 212.60 889.15 212.92 889.43 211.13 Z" />
</g>
<g id="#2626266b">
<path fill="#262626" opacity="0.42" d=" M 1486.32 210.88 C 1487.83 210.84 1489.34 211.09 1490.83 211.50 C 1489.90 212.99 1486.29 212.88 1486.32 210.88 Z" />
</g>
<g id="#2525256f">
<path fill="#252525" opacity="0.44" d=" M 1501.17 211.51 C 1502.62 211.09 1504.14 210.83 1505.69 210.88 C 1505.67 212.88 1502.06 212.99 1501.17 211.51 Z" />
</g>
<g id="#29292963">
<path fill="#292929" opacity="0.39" d=" M 701.11 212.50 C 702.26 212.04 703.48 211.78 704.74 211.89 C 704.95 213.71 701.74 214.00 701.11 212.50 Z" />
<path fill="#292929" opacity="0.39" d=" M 1638.12 212.50 C 1639.25 212.04 1640.47 211.78 1641.74 211.89 C 1641.94 213.71 1638.72 214.00 1638.12 212.50 Z" />
</g>
<g id="#ff4d74ff">
<path fill="#ff4d74" opacity="1.00" d=" M 482.42 266.75 C 489.06 265.46 496.07 268.72 500.00 274.08 C 502.74 278.49 503.23 284.03 502.06 289.01 C 500.64 295.02 495.37 299.91 489.29 300.95 C 484.10 302.46 478.52 300.93 474.12 298.04 C 470.53 295.45 468.51 291.20 467.62 286.97 C 466.01 277.71 473.24 268.15 482.42 266.75 M 482.35 268.18 C 478.18 269.37 476.01 273.51 475.30 277.51 C 473.75 283.17 474.88 289.30 477.29 294.56 C 479.31 298.70 484.87 302.09 489.24 299.39 C 494.10 297.05 495.32 290.94 495.38 286.04 C 495.75 280.49 494.67 274.43 490.66 270.31 C 488.47 268.33 485.25 266.66 482.35 268.18 Z" />
<path fill="#ff4d74" opacity="1.00" d=" M 579.19 270.36 C 580.55 268.98 582.04 267.74 583.40 266.36 C 586.07 276.67 590.26 286.51 593.47 296.66 C 593.97 299.51 597.26 299.34 599.30 300.45 C 594.08 300.38 588.85 300.29 583.63 300.45 C 584.72 299.91 585.85 299.46 586.99 299.02 C 586.81 295.91 586.24 292.83 585.07 289.94 C 582.98 288.78 580.27 289.52 577.95 289.29 C 576.65 289.52 574.96 288.90 573.96 289.93 C 572.92 292.68 572.06 295.50 571.16 298.30 C 572.71 299.23 574.55 299.55 576.09 300.53 C 571.99 300.30 567.89 300.36 563.79 300.51 C 565.88 299.34 568.75 298.88 569.51 296.25 C 573.30 287.85 575.95 278.98 579.19 270.36 M 579.15 274.59 C 577.55 278.76 575.85 282.96 575.20 287.41 C 578.03 287.39 580.86 287.38 583.70 287.40 C 582.45 283.07 581.88 278.31 579.15 274.59 Z" />
<path fill="#ff4d74" opacity="1.00" d=" M 674.20 270.36 C 675.55 268.98 677.04 267.74 678.40 266.36 C 681.07 276.67 685.26 286.51 688.47 296.66 C 688.97 299.50 692.25 299.35 694.30 300.44 C 689.08 300.38 683.85 300.29 678.63 300.45 C 679.72 299.91 680.84 299.46 681.99 299.03 C 681.81 295.92 681.24 292.83 680.07 289.95 C 677.99 288.77 675.27 289.52 672.95 289.29 C 671.66 289.54 669.91 288.86 668.96 289.95 C 667.90 292.69 667.06 295.50 666.16 298.30 C 667.72 299.21 669.55 299.57 671.10 300.53 C 666.99 300.30 662.89 300.36 658.79 300.51 C 660.88 299.34 663.74 298.88 664.51 296.26 C 668.30 287.85 670.95 278.98 674.20 270.36 M 674.16 274.58 C 672.54 278.76 670.85 282.96 670.20 287.41 C 673.03 287.39 675.86 287.38 678.70 287.40 C 677.45 283.07 676.87 278.32 674.16 274.58 Z" />
<path fill="#ff4d74" opacity="1.00" d=" M 760.19 270.36 C 761.55 268.98 763.04 267.74 764.40 266.36 C 767.07 276.67 771.26 286.51 774.47 296.66 C 774.97 299.49 778.25 299.36 780.31 300.44 C 775.08 300.38 769.85 300.29 764.63 300.45 C 765.71 299.91 766.84 299.46 767.99 299.03 C 767.81 295.93 767.25 292.84 766.07 289.96 C 764.35 288.81 761.95 289.53 759.98 289.29 C 758.35 289.54 756.27 288.80 754.96 289.94 C 753.91 292.68 753.06 295.50 752.16 298.30 C 753.72 299.21 755.55 299.57 757.09 300.53 C 752.99 300.30 748.89 300.36 744.79 300.51 C 746.88 299.34 749.74 298.88 750.51 296.26 C 754.30 287.85 756.95 278.98 760.19 270.36 M 760.15 274.59 C 758.54 278.76 756.85 282.96 756.20 287.41 C 759.03 287.39 761.86 287.38 764.70 287.40 C 763.45 283.07 762.88 278.31 760.15 274.59 Z" />
<path fill="#ff4d74" opacity="1.00" d=" M 944.31 266.67 C 949.02 266.08 953.91 266.57 958.46 268.05 C 958.75 270.80 959.23 273.53 959.48 276.29 C 957.77 273.81 956.46 270.97 954.04 269.10 C 951.08 267.55 947.57 267.20 944.36 268.15 L 943.88 267.73 C 943.99 267.46 944.20 266.93 944.31 266.67 Z" />
<path fill="#ff4d74" opacity="1.00" d=" M 1046.50 266.35 C 1047.90 266.97 1049.33 267.60 1050.92 267.46 C 1057.96 267.46 1065.01 267.47 1072.06 267.46 C 1073.36 267.55 1074.59 267.06 1075.76 266.51 C 1075.49 269.45 1075.58 272.42 1075.40 275.38 C 1074.23 273.70 1073.49 271.78 1073.13 269.78 C 1070.14 269.22 1065.68 266.80 1063.54 269.85 C 1063.48 276.23 1063.59 282.61 1063.54 289.00 C 1063.57 292.50 1063.03 296.20 1064.87 299.39 C 1066.43 299.35 1068.08 299.37 1069.32 300.50 C 1063.44 300.30 1057.56 300.36 1051.69 300.48 C 1053.44 299.31 1055.86 299.63 1057.33 297.96 C 1057.61 288.18 1057.44 278.38 1057.38 268.60 C 1054.52 268.57 1051.34 268.01 1048.90 269.90 C 1047.34 271.41 1046.40 273.41 1045.15 275.16 C 1045.51 272.20 1046.34 269.33 1046.50 266.35 Z" />
<path fill="#ff4d74" opacity="1.00" d=" M 1442.36 272.60 C 1442.81 269.71 1445.63 268.39 1447.40 266.36 C 1450.07 276.67 1454.26 286.51 1457.47 296.66 C 1457.96 299.50 1461.25 299.35 1463.31 300.44 C 1458.07 300.38 1452.85 300.28 1447.63 300.45 C 1448.72 299.92 1449.83 299.46 1450.99 299.01 C 1450.60 295.83 1450.52 292.10 1448.54 289.53 C 1445.19 289.17 1441.79 289.20 1438.45 289.48 C 1436.69 292.02 1436.31 295.41 1435.16 298.29 C 1436.69 299.24 1438.55 299.54 1440.09 300.53 C 1435.98 300.30 1431.88 300.36 1427.79 300.51 C 1429.87 299.34 1432.74 298.88 1433.51 296.26 C 1436.98 288.58 1439.47 280.51 1442.36 272.60 M 1443.15 274.58 C 1441.54 278.76 1439.84 282.96 1439.20 287.41 C 1442.02 287.39 1444.86 287.38 1447.70 287.40 C 1446.45 283.07 1445.87 278.31 1443.15 274.58 Z" />
<path fill="#ff4d74" opacity="1.00" d=" M 410.69 267.50 C 414.27 267.65 417.87 267.79 421.46 267.47 C 423.57 275.77 428.46 282.94 431.69 290.79 C 433.09 290.55 434.45 290.12 435.80 289.65 C 434.18 293.79 432.33 297.84 430.75 302.00 C 429.84 300.86 428.91 299.71 428.47 298.31 C 425.82 291.16 422.49 284.30 419.36 277.35 C 418.82 277.26 417.74 277.07 417.20 276.98 C 417.62 283.64 416.12 290.27 416.72 296.90 C 417.23 299.74 420.34 299.29 422.32 300.42 C 418.11 300.44 413.90 300.25 409.70 300.52 C 411.25 299.53 413.16 298.99 414.38 297.56 C 414.61 288.39 416.16 279.25 415.27 270.07 C 413.80 269.10 412.21 268.36 410.69 267.50 Z" />
<path fill="#ff4d74" opacity="1.00" d=" M 443.70 267.49 C 447.25 267.79 450.81 267.59 454.37 267.58 C 452.83 268.48 451.12 269.03 449.45 269.63 C 449.14 278.94 449.44 288.24 449.59 297.54 C 450.74 299.05 452.71 299.57 454.27 300.56 C 449.08 300.18 443.89 300.43 438.70 300.47 C 440.25 299.60 442.22 299.45 443.51 298.16 C 443.54 290.70 443.55 283.22 443.26 275.77 C 439.27 278.84 439.91 285.63 435.29 287.85 C 437.70 280.90 441.95 274.68 443.70 267.49 Z" />
<path fill="#ff4d74" opacity="1.00" d=" M 517.95 267.95 C 527.03 267.65 536.60 266.23 545.22 269.88 C 549.80 272.56 553.91 277.39 553.60 282.99 C 554.30 290.40 548.89 297.61 541.72 299.34 C 533.61 301.41 525.17 300.12 516.91 300.53 C 518.19 300.01 519.51 299.58 520.81 299.07 C 522.76 297.75 522.42 295.08 522.48 293.02 C 522.38 286.02 522.57 279.01 522.40 272.00 C 522.42 269.51 519.75 268.85 517.95 267.95 M 528.50 269.61 C 528.80 278.42 528.46 287.25 528.65 296.06 C 529.83 298.67 533.07 300.12 535.81 299.21 C 542.47 298.31 546.76 291.41 546.44 285.03 C 546.97 279.63 545.07 273.62 540.23 270.69 C 536.64 268.99 532.25 267.53 528.50 269.61 Z" />
<path fill="#ff4d74" opacity="1.00" d=" M 626.85 268.14 C 633.57 267.44 640.58 266.76 647.18 268.61 C 651.83 270.00 656.19 275.45 653.48 280.30 C 652.07 285.32 646.27 286.11 641.87 286.56 C 643.13 285.45 644.56 284.55 646.18 284.06 C 647.78 279.63 648.57 273.73 645.04 270.05 C 642.78 269.19 639.05 266.90 637.57 269.90 C 637.58 279.25 637.39 288.63 637.67 297.98 C 639.16 299.41 641.30 299.70 643.12 300.54 C 637.66 300.28 632.20 300.22 626.74 300.52 C 628.39 299.49 630.84 299.14 631.27 296.90 C 631.74 291.95 631.32 286.96 631.46 282.00 C 631.32 277.82 631.95 273.52 630.73 269.45 C 629.43 269.02 628.13 268.58 626.85 268.14 Z" />
<path fill="#ff4d74" opacity="1.00" d=" M 704.90 268.08 C 712.29 267.60 720.05 266.47 727.21 268.98 C 731.66 270.55 734.17 276.87 730.58 280.50 C 729.25 282.40 725.50 283.60 726.72 286.42 C 729.46 291.83 732.63 297.46 738.09 300.55 C 733.48 300.87 727.81 300.22 725.24 295.82 C 722.88 292.60 722.12 288.29 719.11 285.59 C 718.24 285.58 716.51 285.54 715.65 285.52 C 715.55 289.66 715.36 293.83 715.68 297.96 C 717.12 298.97 718.74 299.70 720.28 300.56 C 715.10 300.27 709.91 300.27 704.72 300.56 C 706.25 299.69 707.86 298.97 709.32 297.96 C 709.65 288.63 709.37 279.27 709.44 269.93 C 707.93 269.27 706.41 268.66 704.90 268.08 M 715.95 268.91 C 715.05 273.95 715.79 279.24 715.64 284.38 C 718.09 284.18 721.25 285.33 723.09 283.13 C 726.83 280.22 725.75 274.68 723.91 270.98 C 721.98 269.10 718.45 267.84 715.95 268.91 Z" />
<path fill="#ff4d74" opacity="1.00" d=" M 806.74 267.45 C 815.00 267.39 823.27 267.61 831.53 267.34 C 831.49 270.07 831.92 272.78 832.31 275.48 C 830.90 273.60 829.92 271.40 828.28 269.70 C 825.14 268.08 821.52 268.45 818.12 268.63 C 816.71 272.99 818.01 278.06 817.44 282.70 C 820.44 282.65 823.43 282.65 826.44 282.55 C 827.00 280.88 827.48 279.15 828.42 277.63 C 828.38 281.52 828.28 285.41 828.48 289.31 C 827.63 287.77 826.90 286.16 825.94 284.70 C 823.13 284.40 820.30 284.56 817.49 284.49 C 817.67 288.61 817.29 292.75 817.71 296.86 C 820.84 300.79 826.97 299.93 831.00 297.97 C 832.25 296.22 833.35 294.37 834.76 292.74 C 834.33 295.33 833.67 297.88 833.11 300.45 C 823.96 300.59 814.80 300.63 805.66 300.43 C 807.00 299.60 808.56 299.44 810.12 299.34 C 810.85 297.65 811.65 295.92 811.48 294.03 C 811.39 286.69 811.56 279.36 811.40 272.02 C 811.49 269.27 808.69 268.51 806.74 267.45 Z" />
<path fill="#ff4d74" opacity="1.00" d=" M 846.70 267.47 C 851.89 267.72 857.09 267.72 862.28 267.45 C 860.73 268.29 859.09 268.99 857.66 270.02 C 857.38 278.35 857.60 286.70 857.55 295.04 C 857.12 297.60 859.84 299.05 861.98 299.44 C 865.06 299.81 868.09 298.90 871.06 298.17 C 871.87 296.11 872.73 293.88 874.82 292.78 C 874.24 295.42 873.50 298.02 872.73 300.61 C 863.72 300.38 854.71 300.75 845.71 300.41 C 847.09 299.59 848.69 299.48 850.28 299.44 C 852.00 296.58 851.37 293.17 851.47 290.00 C 851.37 284.01 851.59 278.01 851.40 272.02 C 851.48 269.26 848.63 268.55 846.70 267.47 Z" />
<path fill="#ff4d74" opacity="1.00" d=" M 887.73 267.46 C 895.99 267.38 904.26 267.61 912.53 267.34 C 912.49 270.07 912.92 272.78 913.31 275.48 C 911.90 273.59 910.91 271.40 909.28 269.70 C 905.93 267.96 902.06 268.48 898.47 268.83 C 898.57 273.45 898.62 278.08 898.44 282.70 C 901.43 282.65 904.43 282.65 907.43 282.55 C 907.99 280.88 908.47 279.14 909.42 277.63 C 909.38 281.52 909.28 285.41 909.48 289.30 C 908.63 287.77 907.90 286.16 906.94 284.70 C 904.13 284.40 901.30 284.56 898.49 284.49 C 898.67 288.61 898.29 292.75 898.71 296.86 C 901.84 300.80 907.97 299.93 912.00 297.97 C 913.25 296.23 914.34 294.37 915.75 292.74 C 915.12 295.26 915.21 298.54 913.46 300.48 C 904.53 300.59 895.58 300.62 886.66 300.43 C 888.00 299.61 889.56 299.44 891.12 299.34 C 891.85 297.65 892.65 295.92 892.48 294.03 C 892.39 286.69 892.56 279.35 892.40 272.02 C 892.48 269.26 889.69 268.50 887.73 267.46 Z" />
<path fill="#ff4d74" opacity="1.00" d=" M 975.71 267.44 C 980.90 267.76 986.10 267.68 991.30 267.47 C 989.76 268.39 988.11 269.11 986.56 269.99 C 986.53 279.33 986.53 288.67 986.56 298.02 C 988.11 298.88 989.76 299.61 991.30 300.53 C 986.10 300.31 980.90 300.24 975.71 300.55 C 977.54 299.38 980.43 298.68 980.40 296.00 C 980.57 288.99 980.37 281.98 980.48 274.97 C 980.37 273.14 980.78 271.03 979.39 269.58 C 978.20 268.79 976.93 268.16 975.71 267.44 Z" />
<path fill="#ff4d74" opacity="1.00" d=" M 1004.84 268.09 C 1012.03 267.57 1019.48 266.62 1026.52 268.70 C 1029.98 269.76 1032.59 273.24 1032.33 276.89 C 1031.85 280.37 1028.56 282.04 1026.50 284.47 C 1026.37 285.40 1026.55 286.28 1027.04 287.10 C 1029.76 292.25 1032.82 297.61 1038.09 300.54 C 1033.48 300.88 1027.81 300.22 1025.24 295.82 C 1022.88 292.60 1022.12 288.29 1019.11 285.59 C 1018.24 285.58 1016.52 285.54 1015.65 285.52 C 1015.54 289.66 1015.35 293.82 1015.68 297.96 C 1017.11 298.97 1018.74 299.70 1020.28 300.56 C 1015.09 300.27 1009.90 300.27 1004.72 300.56 C 1006.25 299.69 1007.86 298.98 1009.32 297.96 C 1009.65 288.62 1009.37 279.26 1009.44 269.92 C 1007.91 269.27 1006.37 268.67 1004.84 268.09 M 1015.89 268.86 C 1015.14 273.97 1015.74 279.22 1015.64 284.39 C 1018.09 284.18 1021.26 285.33 1023.09 283.13 C 1026.83 280.22 1025.75 274.69 1023.92 270.98 C 1021.95 269.06 1018.50 267.92 1015.89 268.86 Z" />
<path fill="#ff4d74" opacity="1.00" d=" M 1088.73 267.46 C 1096.99 267.38 1105.26 267.61 1113.53 267.34 C 1113.49 270.07 1113.92 272.78 1114.31 275.48 C 1112.90 273.59 1111.91 271.40 1110.28 269.70 C 1107.13 268.08 1103.52 268.45 1100.12 268.63 C 1098.71 273.00 1100.01 278.06 1099.44 282.70 C 1102.43 282.65 1105.43 282.65 1108.44 282.55 C 1108.99 280.88 1109.47 279.15 1110.42 277.64 C 1110.37 281.53 1110.28 285.42 1110.48 289.31 C 1109.63 287.77 1108.90 286.16 1107.93 284.70 C 1105.12 284.40 1102.29 284.56 1099.49 284.49 C 1099.67 288.61 1099.29 292.76 1099.72 296.86 C 1102.84 300.80 1108.97 299.93 1113.00 297.97 C 1114.24 296.22 1115.34 294.37 1116.75 292.74 C 1116.40 295.24 1115.83 297.72 1115.02 300.12 C 1113.90 300.95 1112.33 300.39 1111.05 300.57 C 1103.25 300.44 1095.45 300.70 1087.66 300.43 C 1089.00 299.60 1090.56 299.44 1092.12 299.34 C 1092.85 297.65 1093.65 295.92 1093.48 294.02 C 1093.39 286.69 1093.56 279.35 1093.40 272.02 C 1093.49 269.27 1090.69 268.50 1088.73 267.46 Z" />
<path fill="#ff4d74" opacity="1.00" d=" M 1145.94 267.96 C 1155.01 267.65 1164.60 266.23 1173.22 269.88 C 1177.80 272.56 1181.91 277.39 1181.60 282.99 C 1182.30 290.40 1176.89 297.62 1169.72 299.34 C 1161.61 301.41 1153.16 300.12 1144.90 300.52 C 1146.40 299.80 1148.20 299.65 1149.49 298.53 C 1150.82 296.62 1150.38 294.20 1150.48 292.02 C 1150.37 285.35 1150.57 278.67 1150.40 272.00 C 1150.39 269.56 1147.75 268.79 1145.94 267.96 M 1156.50 269.62 C 1156.80 278.43 1156.46 287.25 1156.65 296.06 C 1157.83 298.66 1161.07 300.12 1163.82 299.21 C 1170.47 298.31 1174.76 291.41 1174.44 285.03 C 1174.97 279.63 1173.07 273.62 1168.23 270.69 C 1164.63 269.00 1160.24 267.53 1156.50 269.62 Z" />
<path fill="#ff4d74" opacity="1.00" d=" M 1196.73 267.46 C 1205.00 267.38 1213.26 267.61 1221.53 267.34 C 1221.48 270.07 1221.91 272.78 1222.31 275.48 C 1220.90 273.59 1219.91 271.40 1218.28 269.70 C 1215.13 268.08 1211.52 268.45 1208.13 268.63 C 1206.71 272.99 1208.01 278.07 1207.44 282.70 C 1210.43 282.65 1213.43 282.65 1216.44 282.55 C 1216.99 280.88 1217.47 279.15 1218.42 277.63 C 1218.37 281.52 1218.28 285.42 1218.47 289.31 C 1217.62 287.77 1216.89 286.16 1215.93 284.70 C 1213.12 284.40 1210.29 284.56 1207.49 284.49 C 1207.67 288.61 1207.28 292.76 1207.72 296.86 C 1210.82 300.81 1216.99 299.93 1221.00 297.96 C 1222.25 296.22 1223.35 294.37 1224.76 292.74 C 1224.33 295.33 1223.67 297.88 1223.11 300.45 C 1213.96 300.59 1204.80 300.63 1195.66 300.43 C 1197.00 299.60 1198.55 299.44 1200.12 299.34 C 1202.14 295.87 1201.32 291.80 1201.46 287.99 C 1201.31 282.36 1201.74 276.71 1201.27 271.10 C 1200.81 268.86 1198.38 268.48 1196.73 267.46 Z" />
<path fill="#ff4d74" opacity="1.00" d=" M 1248.76 267.51 C 1253.93 267.63 1259.11 267.76 1264.29 267.44 C 1263.19 268.14 1262.05 268.76 1260.95 269.41 C 1261.51 274.07 1263.74 278.26 1265.33 282.61 C 1266.71 285.92 1267.36 289.66 1269.87 292.39 C 1271.40 289.26 1272.64 286.00 1273.86 282.74 C 1274.47 281.31 1274.81 279.22 1276.81 279.10 C 1274.35 286.74 1270.60 293.91 1268.37 301.64 C 1267.48 301.68 1266.62 301.60 1265.78 301.40 C 1262.75 291.37 1258.14 281.91 1254.78 271.99 C 1254.37 268.98 1250.89 268.84 1248.76 267.51 Z" />
<path fill="#ff4d74" opacity="1.00" d=" M 1274.69 267.47 C 1278.56 267.65 1282.43 267.69 1286.31 267.53 C 1284.58 268.39 1282.70 268.96 1281.13 270.06 C 1279.89 271.76 1279.46 274.26 1277.29 275.06 C 1277.68 273.23 1278.17 271.43 1278.75 269.66 C 1277.32 269.04 1275.92 268.39 1274.69 267.47 Z" />
<path fill="#ff4d74" opacity="1.00" d=" M 1295.73 267.45 C 1303.99 267.38 1312.26 267.61 1320.53 267.34 C 1320.48 270.07 1320.91 272.78 1321.31 275.48 C 1319.90 273.59 1318.91 271.40 1317.28 269.70 C 1313.92 267.96 1310.06 268.47 1306.47 268.83 C 1306.57 273.45 1306.62 278.08 1306.44 282.70 C 1309.43 282.65 1312.43 282.65 1315.44 282.55 C 1315.99 280.88 1316.47 279.15 1317.42 277.63 C 1317.37 281.52 1317.28 285.42 1317.47 289.31 C 1316.62 287.77 1315.89 286.16 1314.93 284.70 C 1312.12 284.40 1309.29 284.56 1306.49 284.49 C 1306.67 288.61 1306.29 292.75 1306.71 296.86 C 1309.85 300.79 1315.97 299.93 1320.00 297.97 C 1321.24 296.22 1322.34 294.37 1323.76 292.74 C 1323.33 295.33 1322.66 297.88 1322.11 300.45 C 1312.96 300.59 1303.80 300.63 1294.66 300.43 C 1296.00 299.61 1297.55 299.44 1299.12 299.34 C 1301.14 295.87 1300.32 291.80 1300.46 287.99 C 1300.31 282.36 1300.74 276.71 1300.27 271.10 C 1299.81 268.86 1297.39 268.48 1295.73 267.45 Z" />
<path fill="#ff4d74" opacity="1.00" d=" M 1336.89 268.09 C 1344.05 267.57 1351.50 266.62 1358.52 268.70 C 1361.98 269.76 1364.58 273.23 1364.34 276.90 C 1363.73 280.14 1361.07 282.39 1358.34 283.94 C 1358.74 287.94 1361.38 291.18 1363.47 294.46 C 1365.08 297.07 1367.58 298.87 1370.09 300.55 C 1365.48 300.87 1359.81 300.23 1357.24 295.83 C 1354.88 292.60 1354.12 288.29 1351.11 285.59 C 1350.24 285.57 1348.51 285.54 1347.65 285.52 C 1347.54 289.66 1347.35 293.83 1347.68 297.96 C 1349.11 298.97 1350.74 299.70 1352.28 300.56 C 1347.09 300.27 1341.90 300.27 1336.72 300.56 C 1338.25 299.69 1339.86 298.97 1341.32 297.96 C 1341.65 288.63 1341.37 279.27 1341.44 269.93 C 1339.93 269.27 1338.40 268.66 1336.89 268.09 M 1347.93 268.90 C 1347.08 273.96 1347.77 279.24 1347.64 284.39 C 1350.09 284.18 1353.25 285.33 1355.09 283.13 C 1358.83 280.22 1357.74 274.69 1355.92 270.98 C 1353.96 269.10 1350.47 267.86 1347.93 268.90 Z" />
<path fill="#ff4d74" opacity="1.00" d=" M 1380.87 267.95 C 1389.97 267.67 1399.57 266.21 1408.22 269.88 C 1412.80 272.56 1416.90 277.39 1416.60 282.99 C 1417.29 290.40 1411.89 297.61 1404.71 299.34 C 1396.61 301.41 1388.17 300.12 1379.91 300.52 C 1381.40 299.80 1383.20 299.64 1384.49 298.53 C 1385.81 296.61 1385.38 294.20 1385.48 292.01 C 1385.37 285.34 1385.58 278.67 1385.40 272.00 C 1385.40 269.49 1382.69 268.81 1380.87 267.95 M 1391.50 269.61 C 1391.79 278.42 1391.46 287.25 1391.64 296.06 C 1392.83 298.66 1396.06 300.12 1398.81 299.21 C 1405.46 298.31 1409.76 291.41 1409.44 285.03 C 1409.97 279.62 1408.07 273.62 1403.23 270.69 C 1399.63 268.99 1395.25 267.53 1391.50 269.61 Z" />
<path fill="#ff4d74" opacity="1.00" d=" M 1473.93 267.96 C 1483.01 267.64 1492.59 266.23 1501.22 269.88 C 1505.80 272.56 1509.91 277.39 1509.60 282.99 C 1510.30 290.40 1504.89 297.62 1497.72 299.34 C 1489.61 301.41 1481.17 300.12 1472.91 300.52 C 1474.40 299.80 1476.19 299.64 1477.49 298.54 C 1478.81 296.62 1478.38 294.20 1478.48 292.01 C 1478.37 285.34 1478.57 278.67 1478.40 272.00 C 1478.37 269.57 1475.76 268.76 1473.93 267.96 M 1484.50 269.61 C 1484.79 278.42 1484.46 287.25 1484.65 296.06 C 1485.83 298.66 1489.06 300.12 1491.81 299.21 C 1498.47 298.31 1502.76 291.41 1502.44 285.03 C 1502.97 279.63 1501.07 273.62 1496.23 270.69 C 1492.63 268.99 1488.25 267.53 1484.50 269.61 Z" />
<path fill="#ff4d74" opacity="1.00" d=" M 938.43 268.66 C 939.85 268.13 941.41 266.93 942.84 268.15 C 942.57 269.58 940.85 270.05 940.00 271.08 C 936.95 273.41 936.52 277.49 935.64 280.95 C 935.14 285.89 936.18 291.07 938.68 295.38 C 940.99 299.20 945.85 300.27 949.98 300.51 C 954.62 299.92 953.43 294.30 953.41 290.99 C 953.10 288.06 949.35 289.05 947.63 287.52 C 952.85 287.61 958.07 287.80 963.30 287.49 C 962.09 288.36 960.74 289.00 959.44 289.70 C 959.68 292.98 958.97 296.50 960.55 299.54 C 954.32 300.87 947.81 302.58 941.51 300.64 C 933.64 299.49 928.22 291.65 928.45 283.99 C 928.62 277.53 932.60 271.41 938.43 268.66 Z" />
<path fill="#ff4d74" opacity="1.00" d=" M 1277.44 275.18 C 1279.36 275.47 1277.62 279.31 1276.08 278.80 C 1275.30 277.60 1276.30 275.78 1277.44 275.18 Z" />
<path fill="#ff4d74" opacity="1.00" d=" M 435.22 288.22 C 435.87 288.87 435.87 288.87 435.22 288.22 Z" />
</g>
</svg>
