<?xml version="1.0" encoding="UTF-8" ?>
<!DOCTYPE svg PUBLIC "-//W3C//DTD SVG 1.1//EN" "http://www.w3.org/Graphics/SVG/1.1/DTD/svg11.dtd">
<svg width="960pt" height="960pt" viewBox="0 0 960 960" version="1.1" xmlns="http://www.w3.org/2000/svg">
<g id="#ffffffff">
<path fill="#ffffff" opacity="1.00" d=" M 472.68 343.53 C 474.95 339.58 476.59 335.12 479.94 331.92 C 483.31 335.33 485.15 339.86 487.40 344.02 C 488.40 348.48 483.99 351.45 481.61 354.61 C 479.74 357.04 477.61 354.09 476.42 352.57 C 474.57 349.94 470.83 347.13 472.68 343.53 Z" />
<path fill="#ffffff" opacity="1.00" d=" M 426.51 349.40 C 427.34 342.51 436.85 339.50 441.65 344.38 C 454.49 356.39 467.28 368.48 479.95 380.68 C 492.74 368.53 505.47 356.31 518.40 344.32 C 523.19 339.50 532.64 342.56 533.47 349.40 C 533.77 357.46 533.47 365.55 533.61 373.62 C 527.56 378.57 521.87 384.06 515.36 388.40 C 515.30 382.72 515.24 377.03 515.40 371.35 C 503.75 382.01 491.82 392.38 479.99 402.86 C 468.13 392.41 456.21 382.01 444.56 371.34 C 444.73 377.03 444.66 382.73 444.61 388.43 C 438.13 384.03 432.39 378.59 426.35 373.61 C 426.50 365.54 426.15 357.46 426.51 349.40 Z" />
<path fill="#ffffff" opacity="1.00" d=" M 373.71 363.18 C 370.93 357.64 375.75 350.16 381.98 350.59 C 385.91 350.09 388.75 353.10 391.50 355.38 C 421.05 379.85 450.46 404.48 480.01 428.96 C 509.68 404.27 539.32 379.55 569.03 354.91 C 571.39 352.92 573.82 350.51 577.14 350.51 C 582.21 349.92 586.57 354.28 587.26 359.07 C 587.25 362.31 585.21 365.03 583.92 367.88 C 571.07 393.55 558.18 419.21 545.32 444.88 C 544.36 444.79 543.42 444.68 542.49 444.53 C 541.73 443.13 541.95 441.51 541.91 440.00 C 541.98 430.64 541.87 421.27 541.95 411.92 C 541.92 410.35 542.75 408.99 543.40 407.64 C 545.67 403.28 547.80 398.86 550.12 394.53 C 528.84 412.44 507.38 430.13 485.98 447.89 C 482.62 450.88 477.35 450.84 473.98 447.90 C 452.57 430.20 431.27 412.38 409.86 394.69 C 412.74 400.04 415.52 405.48 418.06 411.00 C 418.35 421.01 418.08 431.05 418.20 441.08 C 418.36 442.43 417.71 443.65 417.19 444.86 C 416.54 444.82 415.22 444.74 414.56 444.71 C 400.95 417.53 387.26 390.39 373.71 363.18 Z" />
<path fill="#ffffff" opacity="1.00" d=" M 406.39 455.57 C 407.83 454.88 409.47 454.92 411.04 454.90 C 457.38 454.94 503.72 454.89 550.06 454.92 C 555.32 454.44 559.35 460.47 557.17 465.21 C 556.13 467.61 553.75 469.65 551.02 469.49 C 503.39 469.48 455.76 469.57 408.13 469.45 C 401.30 468.87 400.24 458.06 406.39 455.57 Z" />
<path fill="#ffffff" opacity="1.00" d=" M 123.45 498.92 C 123.87 499.09 124.70 499.44 125.12 499.62 C 132.78 516.63 139.91 533.90 147.58 550.91 C 155.39 533.84 162.41 516.40 170.17 499.30 C 170.56 499.30 171.35 499.29 171.74 499.29 C 176.69 520.30 180.95 541.49 185.61 562.57 C 183.72 562.99 181.81 563.49 179.85 563.33 C 176.42 547.43 173.02 531.52 169.43 515.65 C 162.23 531.61 155.50 547.78 148.50 563.83 C 148.04 563.81 147.13 563.78 146.67 563.76 C 139.69 547.74 132.91 531.62 125.69 515.70 C 122.15 531.34 118.98 547.07 115.37 562.69 C 113.85 564.37 111.45 562.57 109.57 562.50 C 114.26 541.32 118.54 520.05 123.45 498.92 Z" />
<path fill="#ffffff" opacity="1.00" d=" M 341.19 499.16 C 357.95 495.42 376.03 507.20 379.59 523.94 C 383.91 540.33 373.19 558.61 356.91 563.07 C 340.73 568.38 321.73 558.58 316.46 542.45 C 311.05 528.20 317.41 511.03 330.43 503.31 C 333.74 501.31 337.41 499.95 341.19 499.16 M 339.50 505.62 C 326.53 509.40 317.89 523.81 320.99 537.03 C 323.55 550.82 338.11 560.89 351.93 558.19 C 366.65 556.17 377.54 540.48 374.04 525.97 C 371.30 510.81 354.13 500.65 339.50 505.62 Z" />
<path fill="#ffffff" opacity="1.00" d=" M 421.42 498.95 C 421.85 499.12 422.70 499.44 423.12 499.61 C 430.77 516.63 437.92 533.89 445.58 550.91 C 453.37 533.74 460.59 516.30 468.19 499.03 C 469.43 499.10 470.11 499.75 470.25 500.96 C 474.74 521.49 479.18 542.04 483.61 562.58 C 481.72 563.00 479.81 563.46 477.86 563.34 C 474.42 547.45 471.02 531.55 467.44 515.69 C 460.19 531.61 453.51 547.80 446.49 563.84 C 446.03 563.81 445.11 563.76 444.65 563.73 C 437.70 547.70 430.87 531.61 423.70 515.69 C 420.15 531.32 416.98 547.05 413.39 562.67 C 411.87 564.40 409.46 562.56 407.57 562.50 C 412.25 541.33 416.56 520.08 421.42 498.95 Z" />
<path fill="#ffffff" opacity="1.00" d=" M 720.74 513.86 C 725.74 506.30 733.90 500.76 742.92 499.45 C 752.87 497.78 763.56 501.14 770.64 508.34 C 771.86 510.40 768.64 511.76 767.70 513.29 C 761.51 507.14 752.57 503.71 743.85 505.27 C 731.11 507.00 720.90 519.08 721.41 531.95 C 721.38 544.48 731.42 556.00 743.81 557.73 C 752.53 559.29 761.51 555.88 767.69 549.70 C 768.65 551.23 771.81 552.52 770.66 554.64 C 761.43 564.11 746.08 566.64 734.22 560.86 C 726.02 557.00 719.52 549.60 716.95 540.89 C 714.17 531.90 715.63 521.75 720.74 513.86 Z" />
<path fill="#ffffff" opacity="1.00" d=" M 807.52 499.67 C 824.38 494.66 843.65 505.86 847.81 522.89 C 852.72 539.26 842.40 558.02 826.08 562.87 C 809.90 568.54 790.54 559.00 785.08 542.78 C 779.87 529.36 784.99 513.03 796.74 504.77 C 799.96 502.40 803.67 500.75 807.52 499.67 M 810.09 505.07 C 799.26 507.35 790.51 516.91 789.16 527.89 C 787.49 538.88 793.52 550.41 803.40 555.46 C 813.64 561.06 827.35 558.88 835.39 550.42 C 843.37 542.51 845.45 529.43 840.26 519.46 C 835.06 508.48 821.89 502.24 810.09 505.07 Z" />
<path fill="#ffffff" opacity="1.00" d=" M 200.16 500.32 C 211.11 499.77 222.14 500.20 233.12 500.10 C 235.87 499.82 235.78 505.00 233.95 505.82 C 224.49 506.08 215.02 505.85 205.55 505.92 C 205.52 512.97 205.52 520.02 205.55 527.08 C 214.94 527.23 224.36 526.75 233.72 527.31 C 234.57 528.84 234.52 531.08 233.77 532.65 C 224.41 533.30 214.95 532.74 205.55 532.93 C 205.52 540.97 205.52 549.02 205.55 557.07 C 214.71 557.10 223.87 557.03 233.04 557.10 C 235.88 556.82 235.29 560.86 234.61 562.59 C 232.15 563.28 229.53 562.79 227.01 562.93 C 218.06 562.76 209.08 563.24 200.15 562.70 C 200.01 562.27 199.73 561.41 199.59 560.98 C 199.61 541.01 199.46 521.04 199.66 501.09 L 200.16 500.32 Z" />
<path fill="#ffffff" opacity="1.00" d=" M 268.77 500.04 C 270.30 500.05 271.84 500.05 273.38 500.04 C 273.86 501.31 274.09 502.64 274.05 504.02 C 274.03 521.70 274.02 539.39 274.05 557.08 C 284.10 557.13 294.16 556.95 304.21 557.17 C 304.33 558.99 305.06 561.08 303.95 562.74 C 292.34 563.13 280.69 562.90 269.07 562.86 C 268.85 562.60 268.42 562.09 268.21 561.84 C 268.03 542.54 268.22 523.24 268.12 503.95 C 268.02 502.59 268.28 501.29 268.77 500.04 Z" />
<path fill="#ffffff" opacity="1.00" d=" M 497.59 501.94 C 497.32 499.38 500.47 500.24 502.02 500.06 C 512.19 500.27 522.42 499.72 532.57 500.33 C 533.26 502.03 533.92 506.04 531.13 505.90 C 521.94 505.97 512.74 505.90 503.55 505.92 C 503.52 512.97 503.52 520.02 503.55 527.08 C 512.94 527.26 522.40 526.71 531.75 527.34 C 532.54 528.89 532.55 531.13 531.73 532.68 C 522.37 533.26 512.94 532.76 503.55 532.92 C 503.52 540.97 503.52 549.02 503.55 557.07 C 512.73 557.10 521.92 557.03 531.10 557.10 C 533.90 556.91 533.26 560.89 532.61 562.60 C 529.82 563.30 526.87 562.78 524.03 562.93 C 515.40 562.77 506.74 563.24 498.14 562.70 L 497.66 561.88 C 497.46 541.91 497.61 521.92 497.59 501.94 Z" />
<path fill="#ffffff" opacity="1.00" d=" M 550.12 500.32 C 555.39 499.74 560.73 500.24 566.03 500.06 C 572.74 499.85 579.99 501.24 585.03 505.99 C 591.84 512.34 592.06 523.64 587.27 531.24 C 584.37 535.88 579.44 538.60 574.42 540.38 C 579.63 547.22 585.33 553.74 589.99 560.97 C 588.59 562.06 587.19 563.16 585.81 564.26 C 579.46 556.64 573.68 548.57 567.42 540.88 C 563.46 540.96 559.50 540.92 555.55 540.92 C 555.38 548.02 555.80 555.15 555.36 562.24 C 553.76 563.66 551.28 563.05 549.52 562.27 C 549.70 541.89 549.41 521.50 549.66 501.12 L 550.12 500.32 M 555.55 505.93 C 555.52 515.64 555.52 525.36 555.55 535.08 C 563.10 534.58 571.55 536.70 578.26 532.23 C 586.26 527.31 587.34 513.15 578.61 508.44 C 571.53 504.69 563.22 506.28 555.55 505.93 Z" />
<path fill="#ffffff" opacity="1.00" d=" M 605.55 503.96 C 605.73 502.74 604.97 500.11 606.97 500.17 C 617.67 499.95 628.39 500.12 639.10 500.09 C 642.01 499.97 641.23 503.89 640.57 505.67 C 630.94 506.28 621.22 505.74 611.55 505.93 C 611.52 512.97 611.52 520.02 611.55 527.08 C 620.97 527.26 630.44 526.69 639.82 527.35 C 640.45 528.97 640.56 531.08 639.77 532.66 C 630.40 533.28 620.95 532.75 611.55 532.92 C 611.52 540.97 611.52 549.02 611.55 557.07 C 620.71 557.10 629.88 557.03 639.05 557.10 C 641.90 556.83 641.27 560.89 640.59 562.64 C 636.77 563.29 632.84 562.76 628.98 562.92 C 621.37 562.77 613.73 563.24 606.16 562.69 L 605.66 561.90 C 605.44 542.59 605.66 523.27 605.55 503.96 Z" />
<path fill="#ffffff" opacity="1.00" d=" M 661.18 505.70 C 660.23 503.97 659.81 499.56 662.90 500.10 C 675.26 500.02 687.62 500.12 699.98 500.05 C 701.53 499.96 703.09 500.16 704.52 500.82 C 691.95 519.77 678.59 538.21 665.85 557.05 C 677.30 557.07 688.75 557.11 700.20 557.03 C 700.80 558.83 701.60 561.44 699.91 562.86 C 685.26 562.93 670.60 563.06 655.95 562.78 C 656.09 562.19 656.35 561.00 656.48 560.41 C 668.94 542.21 681.70 524.19 694.09 505.95 C 683.12 505.74 672.12 506.25 661.18 505.70 Z" />
<path fill="#ffffff" opacity="1.00" d=" M 204.99 591.75 C 206.86 591.81 208.73 591.83 210.60 591.76 C 212.15 595.90 214.19 599.82 216.16 603.78 C 217.85 602.00 218.64 599.65 219.57 597.44 L 219.93 597.87 C 218.86 601.87 216.63 605.45 215.12 609.28 C 213.19 604.77 211.68 599.99 208.81 595.97 C 208.58 599.38 208.27 602.81 208.32 606.23 C 208.50 607.76 210.15 607.70 211.21 608.24 C 209.03 608.17 206.85 608.18 204.68 608.19 C 205.50 607.84 206.32 607.51 207.14 607.19 C 207.32 602.62 207.97 598.06 207.70 593.49 C 207.30 592.31 205.93 592.27 204.99 591.75 Z" />
<path fill="#ffffff" opacity="1.00" d=" M 239.59 591.75 C 242.19 591.11 245.15 591.04 247.45 592.64 C 252.71 595.62 252.67 604.43 247.41 607.39 C 243.08 610.04 236.17 608.63 234.39 603.52 C 232.40 599.03 234.95 593.30 239.59 591.75 M 238.46 594.37 C 236.71 598.19 236.90 603.11 239.42 606.55 C 241.13 608.61 243.98 608.18 246.14 607.18 C 247.97 603.12 248.55 598.10 246.19 594.13 C 244.74 591.13 239.70 591.27 238.46 594.37 Z" />
<path fill="#ffffff" opacity="1.00" d=" M 259.05 591.90 C 263.90 591.94 269.21 590.91 273.60 593.51 C 278.32 596.54 277.67 604.33 272.79 606.87 C 268.45 609.07 263.39 607.99 258.72 608.23 C 259.50 607.93 260.29 607.65 261.09 607.38 C 261.29 603.24 261.26 599.10 261.22 594.96 C 261.25 593.46 260.53 592.44 259.05 591.90 M 264.38 592.38 C 264.30 596.95 264.19 601.52 264.39 606.09 C 265.19 608.26 268.05 607.79 269.75 607.13 C 273.53 604.94 274.04 599.55 272.42 595.85 C 271.13 592.79 267.33 592.14 264.38 592.38 Z" />
<path fill="#ffffff" opacity="1.00" d=" M 314.02 591.86 C 318.18 591.78 322.80 591.10 326.38 593.79 C 326.69 594.84 327.01 595.89 327.35 596.95 C 326.54 599.83 323.89 601.16 321.08 601.28 C 324.22 599.89 324.00 596.36 323.26 593.59 C 321.85 592.88 320.40 592.22 318.80 592.19 C 318.78 597.31 318.69 602.43 318.87 607.56 C 319.40 607.63 320.48 607.78 321.01 607.86 L 320.93 608.23 C 318.28 608.14 315.64 608.12 313.00 608.22 C 313.54 608.02 314.61 607.60 315.15 607.40 C 316.37 603.50 315.48 599.20 315.72 595.14 C 315.99 593.70 314.95 592.74 314.02 591.86 Z" />
<path fill="#ffffff" opacity="1.00" d=" M 337.06 593.06 C 337.76 592.45 338.46 591.84 339.17 591.24 C 340.64 596.18 342.36 601.03 344.13 605.87 C 344.35 607.42 345.96 607.74 347.16 608.28 C 344.43 608.14 341.70 608.16 338.98 608.19 C 339.69 607.94 340.41 607.70 341.14 607.46 C 340.80 605.87 340.43 604.29 340.06 602.73 C 338.25 602.67 336.44 602.63 334.64 602.61 C 334.09 604.16 333.55 605.71 333.00 607.28 C 333.63 607.49 334.90 607.93 335.53 608.14 C 333.60 608.18 331.67 608.18 329.74 608.23 C 330.47 607.86 331.20 607.51 331.94 607.16 C 333.74 602.50 335.56 597.84 337.06 593.06 M 337.09 594.95 C 336.27 597.16 335.57 599.41 334.91 601.68 C 336.07 601.67 338.37 601.64 339.53 601.63 C 338.81 599.37 338.02 597.12 337.09 594.95 Z" />
<path fill="#ffffff" opacity="1.00" d=" M 352.72 591.91 C 357.40 591.99 364.45 590.18 366.44 595.96 C 365.87 597.75 364.84 599.28 363.11 600.16 C 364.35 603.35 365.98 606.56 368.98 608.43 C 367.04 608.20 364.70 608.30 363.36 606.62 C 361.18 604.77 361.37 600.42 357.79 600.62 C 357.76 602.81 357.76 605.02 357.83 607.23 C 358.64 607.53 359.45 607.86 360.26 608.20 C 357.50 608.17 354.74 608.14 351.99 608.24 C 353.47 607.78 355.41 607.11 354.74 605.06 C 354.67 601.08 354.90 597.09 354.59 593.13 C 354.12 592.82 353.19 592.21 352.72 591.91 M 357.81 592.22 C 357.78 594.90 357.78 597.60 357.81 600.29 C 360.03 600.72 363.08 599.79 362.74 596.98 C 363.28 594.06 360.55 591.90 357.81 592.22 Z" />
<path fill="#ffffff" opacity="1.00" d=" M 380.06 593.07 C 380.75 592.45 381.46 591.86 382.17 591.26 C 383.66 596.20 385.37 601.07 387.14 605.92 C 387.36 607.44 388.98 607.72 390.14 608.28 C 387.40 608.14 384.67 608.17 381.94 608.17 C 382.67 607.93 383.40 607.70 384.14 607.47 C 383.80 605.88 383.43 604.30 383.06 602.73 C 381.25 602.67 379.44 602.63 377.64 602.61 C 377.09 604.14 376.56 605.69 376.01 607.23 C 376.60 607.47 377.78 607.95 378.37 608.19 C 376.45 608.18 374.53 608.19 372.62 608.20 C 373.39 607.85 374.16 607.51 374.94 607.18 C 376.73 602.51 378.55 597.84 380.06 593.07 M 380.09 594.87 C 379.29 597.11 378.58 599.39 377.92 601.68 C 379.07 601.67 381.38 601.65 382.53 601.63 C 381.80 599.35 381.00 597.07 380.09 594.87 Z" />
<path fill="#ffffff" opacity="1.00" d=" M 403.07 591.74 C 407.32 591.73 411.56 591.74 415.80 591.69 C 415.75 593.07 415.72 594.47 415.67 595.88 C 415.26 594.88 414.88 593.88 414.53 592.89 C 412.67 592.30 410.73 592.23 408.81 592.24 C 408.77 594.61 408.77 596.99 408.76 599.37 C 410.23 599.34 411.71 599.31 413.20 599.28 C 413.50 598.39 413.83 597.52 414.17 596.65 C 414.17 598.78 414.16 600.92 414.21 603.06 C 413.93 600.12 411.14 599.93 408.72 600.22 C 409.01 602.55 408.16 605.20 409.46 607.31 C 412.61 608.68 415.98 607.21 417.40 604.17 C 417.06 605.54 416.71 606.90 416.41 608.29 C 411.86 608.27 407.30 608.25 402.75 608.30 C 403.89 607.78 405.81 607.61 405.65 605.94 C 405.83 602.29 405.73 598.64 405.71 595.00 C 406.06 593.18 404.71 592.04 403.07 591.74 Z" />
<path fill="#ffffff" opacity="1.00" d=" M 422.92 591.83 C 425.71 591.81 428.50 591.81 431.30 591.81 C 430.48 592.13 429.66 592.44 428.84 592.74 C 429.12 597.55 427.92 602.75 429.48 607.31 C 432.66 608.67 435.87 607.05 437.50 604.24 C 437.11 605.58 436.71 606.92 436.34 608.28 C 431.84 608.24 427.33 608.34 422.83 608.21 C 426.64 608.38 425.62 604.47 425.74 601.96 C 425.71 598.81 425.89 595.65 425.40 592.53 C 424.57 592.29 423.74 592.06 422.92 591.83 Z" />
<path fill="#ffffff" opacity="1.00" d=" M 443.74 591.77 C 447.90 591.68 452.05 591.75 456.21 591.70 C 456.36 593.14 456.53 594.57 456.70 596.02 C 456.13 594.96 455.58 593.88 455.06 592.81 C 453.18 592.38 451.25 592.22 449.33 592.22 C 449.26 594.59 449.27 596.98 449.27 599.36 C 450.32 599.36 452.43 599.35 453.49 599.34 C 453.88 598.42 454.28 597.50 454.70 596.60 C 454.65 598.80 454.62 601.01 454.68 603.22 C 454.80 599.92 451.60 600.12 449.24 600.17 C 449.25 602.54 449.27 604.92 449.50 607.29 C 451.66 607.79 453.88 607.82 456.02 607.18 C 456.59 606.05 457.19 604.96 457.84 603.89 C 457.60 605.38 457.30 606.88 456.88 608.34 C 452.23 608.17 447.57 608.41 442.92 608.15 C 443.89 607.92 444.85 607.72 445.83 607.53 C 446.58 602.65 446.18 597.69 446.10 592.78 C 445.31 592.44 444.52 592.10 443.74 591.77 Z" />
<path fill="#ffffff" opacity="1.00" d=" M 467.46 593.44 C 470.75 590.82 475.27 590.94 479.17 591.84 C 479.40 593.34 479.62 594.84 479.86 596.36 C 478.68 593.81 476.77 591.74 473.80 591.55 C 465.70 592.90 465.60 607.34 473.94 608.08 C 477.77 609.45 478.05 601.37 474.12 602.02 C 474.14 601.94 474.18 601.79 474.20 601.71 C 476.79 601.85 479.38 601.83 481.98 601.84 C 481.22 602.08 480.47 602.32 479.72 602.57 C 479.83 604.20 479.47 606.00 480.42 607.47 C 476.03 609.11 470.40 609.55 466.67 606.23 C 463.05 602.80 463.66 596.48 467.46 593.44 Z" />
<path fill="#ffffff" opacity="1.00" d=" M 487.75 591.79 C 490.44 591.83 493.12 591.87 495.81 591.69 C 494.93 592.19 493.87 592.47 493.29 593.37 C 493.24 597.77 493.24 602.18 493.29 606.59 C 493.78 607.61 494.98 607.77 495.89 608.27 C 493.15 608.13 490.41 608.17 487.67 608.20 C 488.47 607.84 489.28 607.51 490.10 607.18 C 490.30 602.40 490.30 597.61 490.10 592.83 C 489.31 592.48 488.53 592.14 487.75 591.79 Z" />
<path fill="#ffffff" opacity="1.00" d=" M 503.04 591.88 C 507.62 591.96 514.58 590.27 516.45 595.99 C 515.86 597.77 514.80 599.28 513.10 600.18 C 514.37 603.35 515.97 606.58 518.98 608.43 C 517.04 608.21 514.70 608.30 513.36 606.61 C 511.20 604.80 511.38 600.36 507.77 600.81 C 507.76 602.94 507.77 605.08 507.83 607.23 C 508.65 607.54 509.47 607.86 510.29 608.20 C 507.58 608.18 504.87 608.13 502.17 608.24 C 504.03 607.89 504.88 606.84 504.74 605.09 C 504.62 601.14 504.98 597.15 504.54 593.23 C 504.16 592.89 503.42 592.21 503.04 591.88 M 507.81 592.19 C 507.77 594.97 507.76 597.75 507.86 600.53 C 510.02 600.53 513.11 599.82 512.74 596.99 C 513.28 594.05 510.57 591.91 507.81 592.19 Z" />
<path fill="#ffffff" opacity="1.00" d=" M 523.27 591.48 C 528.11 591.94 533.00 591.73 537.87 591.61 C 537.76 593.10 537.67 594.61 537.57 596.12 C 537.14 594.97 536.73 593.81 536.34 592.67 C 534.83 592.46 533.32 592.31 531.81 592.20 C 531.78 597.22 531.67 602.25 531.90 607.27 C 532.89 607.57 533.90 607.90 534.90 608.23 C 531.98 608.17 529.06 608.11 526.15 608.32 C 526.18 608.23 526.23 608.04 526.25 607.95 C 528.13 607.88 528.96 606.93 528.74 605.09 C 528.73 600.78 528.75 596.47 528.67 592.17 C 527.11 592.30 525.57 592.50 524.05 592.78 C 523.55 593.83 523.06 594.90 522.55 595.95 C 522.75 594.45 523.01 592.96 523.27 591.48 Z" />
<path fill="#ffffff" opacity="1.00" d=" M 544.00 591.80 C 548.27 591.65 552.54 591.77 556.82 591.69 C 556.75 593.07 556.72 594.47 556.66 595.87 C 556.26 594.88 555.88 593.89 555.54 592.90 C 553.68 592.30 551.73 592.23 549.81 592.23 C 549.76 594.61 549.77 596.99 549.76 599.37 C 551.23 599.34 552.71 599.31 554.19 599.28 C 554.50 598.40 554.82 597.53 555.16 596.67 C 555.17 598.77 555.16 600.88 555.23 603.00 C 554.91 600.05 552.12 599.98 549.73 600.22 C 550.09 602.57 548.97 605.46 550.69 607.44 C 553.82 608.60 556.97 607.12 558.39 604.19 C 558.05 605.55 557.72 606.90 557.42 608.28 C 552.88 608.28 548.34 608.24 543.80 608.31 C 544.89 607.76 546.78 607.62 546.64 605.99 C 546.72 601.49 547.03 596.93 546.33 592.46 C 545.55 592.24 544.77 592.02 544.00 591.80 Z" />
<path fill="#ffffff" opacity="1.00" d=" M 573.05 591.97 C 577.89 591.88 583.22 590.93 587.61 593.52 C 592.31 596.55 591.67 604.31 586.81 606.85 C 582.46 609.08 577.36 607.99 572.68 608.22 C 573.47 607.93 574.27 607.65 575.09 607.38 C 575.18 602.61 575.54 597.77 574.95 593.03 C 574.48 592.76 573.53 592.23 573.05 591.97 M 578.35 592.43 C 578.33 596.97 578.17 601.52 578.39 606.06 C 579.13 608.28 582.03 607.78 583.73 607.14 C 587.35 605.09 587.91 600.10 586.70 596.49 C 585.65 593.02 581.54 591.99 578.35 592.43 Z" />
<path fill="#ffffff" opacity="1.00" d=" M 597.98 591.81 C 602.25 591.64 606.53 591.77 610.81 591.69 C 610.75 593.08 610.72 594.48 610.66 595.88 C 610.24 594.86 609.84 593.83 609.47 592.80 C 607.61 592.35 605.70 592.24 603.81 592.23 C 603.76 594.60 603.77 596.98 603.76 599.37 C 605.23 599.34 606.70 599.31 608.19 599.28 C 608.50 598.41 608.82 597.55 609.17 596.70 C 609.18 598.84 609.14 600.99 609.20 603.14 C 609.04 600.08 606.13 599.96 603.72 600.22 C 604.02 602.55 603.13 605.24 604.50 607.33 C 607.64 608.65 610.95 607.20 612.39 604.20 C 612.05 605.55 611.72 606.90 611.42 608.28 C 606.87 608.28 602.32 608.25 597.78 608.31 C 598.90 607.78 600.80 607.61 600.65 605.95 C 600.71 601.45 601.04 596.91 600.33 592.46 C 599.54 592.24 598.75 592.02 597.98 591.81 Z" />
<path fill="#ffffff" opacity="1.00" d=" M 624.73 591.77 C 627.24 591.83 629.75 591.81 632.27 591.77 C 631.78 592.01 630.79 592.50 630.29 592.75 C 631.63 596.71 632.97 600.70 634.90 604.43 C 636.61 600.56 638.06 596.58 639.44 592.59 C 638.78 592.41 637.47 592.06 636.82 591.88 C 638.96 591.80 641.11 591.80 643.27 591.81 C 642.43 592.12 641.59 592.42 640.76 592.72 C 638.19 597.59 636.45 602.82 634.43 607.92 C 634.11 608.26 633.47 608.94 633.14 609.27 C 631.34 603.77 628.90 598.50 627.01 593.03 C 626.24 592.61 625.48 592.19 624.73 591.77 Z" />
<path fill="#ffffff" opacity="1.00" d=" M 647.74 591.77 C 651.90 591.68 656.06 591.75 660.22 591.70 C 660.35 593.13 660.52 594.56 660.67 596.00 C 660.11 594.95 659.57 593.87 659.07 592.81 C 657.17 592.37 655.24 592.22 653.32 592.23 C 653.26 594.63 653.26 597.03 653.28 599.44 C 655.69 599.49 658.52 599.73 658.77 596.66 C 658.67 598.85 658.62 601.05 658.69 603.26 C 658.82 599.92 655.62 600.12 653.24 600.17 C 653.25 602.54 653.27 604.93 653.51 607.30 C 655.66 607.79 657.88 607.83 660.03 607.18 C 660.58 606.06 661.18 604.97 661.81 603.90 C 661.60 605.28 661.45 606.70 661.06 608.07 C 656.40 608.55 651.64 608.22 646.96 608.16 C 647.91 607.93 648.86 607.71 649.83 607.52 C 650.58 602.64 650.18 597.68 650.10 592.78 C 649.31 592.44 648.52 592.10 647.74 591.77 Z" />
<path fill="#ffffff" opacity="1.00" d=" M 669.01 592.03 C 673.60 591.81 680.51 590.34 682.44 595.95 C 681.87 597.75 680.81 599.27 679.11 600.17 C 680.07 602.71 681.46 605.05 683.09 607.23 C 683.64 607.47 684.74 607.95 685.29 608.19 C 683.24 608.31 680.82 608.41 679.39 606.66 C 677.22 604.79 677.37 600.58 673.83 600.58 C 673.76 602.79 673.76 605.00 673.83 607.23 C 674.63 607.53 675.44 607.86 676.25 608.21 C 673.54 608.17 670.84 608.13 668.15 608.26 C 669.44 607.68 671.46 607.05 670.74 605.11 C 670.65 601.12 670.91 597.11 670.58 593.13 L 669.01 592.03 M 673.81 592.19 C 673.77 594.91 673.77 597.63 673.81 600.36 C 675.42 600.45 676.96 600.01 678.43 599.36 C 679.62 595.99 677.96 591.66 673.81 592.19 Z" />
<path fill="#ffffff" opacity="1.00" d=" M 690.56 591.89 C 695.47 591.98 700.96 590.82 705.34 593.68 C 709.92 596.87 709.02 604.69 704.00 606.99 C 699.60 608.97 694.59 608.03 689.92 608.23 C 690.77 607.96 691.64 607.69 692.51 607.44 C 692.84 603.28 692.74 599.09 692.71 594.92 C 692.99 593.38 691.83 592.40 690.56 591.89 M 695.79 592.48 C 695.79 597.11 695.86 601.75 695.74 606.38 C 697.01 607.12 698.39 608.28 699.96 607.45 C 704.72 606.53 705.48 600.41 704.24 596.56 C 703.15 593.07 699.07 591.90 695.79 592.48 Z" />
<path fill="#ffffff" opacity="1.00" d=" M 737.05 591.90 C 741.89 591.94 747.20 590.91 751.59 593.51 C 756.30 596.53 755.68 604.29 750.82 606.84 C 746.45 609.09 741.34 607.99 736.63 608.22 C 737.44 607.93 738.26 607.65 739.09 607.39 C 739.29 603.24 739.25 599.08 739.22 594.93 C 739.23 593.45 738.51 592.44 737.05 591.90 M 742.35 592.43 C 742.57 597.25 741.67 602.29 742.81 606.98 C 743.34 607.16 744.40 607.53 744.93 607.72 C 750.57 607.87 752.39 600.85 750.70 596.50 C 749.66 593.03 745.55 591.99 742.35 592.43 Z" />
<path fill="#ffffff" opacity="1.00" d=" M 222.13 591.78 C 223.30 592.00 224.46 592.23 225.63 592.48 L 224.80 593.62 C 224.55 598.28 224.40 603.03 225.25 607.65 C 224.07 607.86 222.90 608.05 221.72 608.22 C 221.38 603.96 223.36 598.94 220.75 595.22 C 221.20 594.07 221.66 592.91 222.13 591.78 Z" />
<path fill="#ffffff" opacity="1.00" d=" M 289.62 592.91 C 290.18 592.51 291.30 591.71 291.86 591.31 C 293.11 596.73 295.36 601.84 297.03 607.14 C 297.95 607.59 299.20 607.81 299.69 608.86 C 297.24 607.53 294.34 608.37 291.70 608.22 C 292.20 607.99 293.20 607.53 293.70 607.30 C 293.26 605.73 292.82 604.18 292.37 602.63 C 290.57 602.64 288.78 602.66 286.99 602.70 C 286.53 604.26 286.06 605.84 285.61 607.42 C 286.45 607.65 287.28 607.90 288.12 608.16 C 286.04 608.18 283.95 608.19 281.87 608.29 C 283.03 607.73 284.60 607.42 284.88 605.93 C 286.62 601.65 288.26 597.32 289.62 592.91 M 289.79 595.02 C 288.89 597.15 288.08 599.34 287.36 601.56 C 288.89 601.63 290.43 601.67 291.97 601.70 C 291.29 599.45 290.56 597.22 289.79 595.02 Z" />
<path fill="#ffffff" opacity="1.00" d=" M 721.63 592.90 C 722.19 592.50 723.30 591.70 723.86 591.30 C 725.09 596.76 727.42 601.88 729.03 607.23 C 729.93 607.56 730.87 607.91 731.79 608.27 C 729.06 608.16 726.33 608.17 723.61 608.16 C 724.14 607.96 725.18 607.56 725.70 607.36 C 725.26 605.77 724.83 604.21 724.39 602.64 C 722.59 602.64 720.80 602.66 719.01 602.69 C 718.53 604.26 718.04 605.84 717.58 607.43 C 718.26 607.60 719.63 607.94 720.31 608.11 C 718.16 608.18 716.01 608.18 713.88 608.30 C 715.05 607.73 716.61 607.39 716.91 605.88 C 718.63 601.61 720.27 597.30 721.63 592.90 M 721.81 595.00 C 720.89 597.13 720.08 599.33 719.35 601.54 C 720.88 601.63 722.42 601.67 723.97 601.71 C 723.28 599.45 722.56 597.22 721.81 595.00 Z" />
</g>
<g id="#4c4c4c4c">
<path fill="#4c4c4c" opacity="0.30" d=" M 221.69 591.52 C 223.51 591.41 225.34 591.30 227.17 591.19 C 227.14 591.59 227.08 592.39 227.05 592.79 C 226.69 592.71 225.98 592.55 225.63 592.48 C 224.46 592.23 223.30 592.00 222.13 591.78 C 221.66 592.91 221.20 594.07 220.75 595.22 C 223.36 598.94 221.38 603.96 221.72 608.22 C 222.90 608.05 224.07 607.86 225.25 607.65 C 225.69 607.54 226.57 607.33 227.01 607.22 C 227.02 607.62 227.04 608.42 227.05 608.81 C 224.38 608.56 221.70 608.54 219.03 608.72 C 219.89 607.84 220.73 606.94 221.59 606.06 C 221.44 603.77 221.29 601.47 221.09 599.19 C 220.80 598.86 220.22 598.20 219.93 597.87 L 219.57 597.44 L 219.31 597.13 C 220.14 595.27 220.94 593.40 221.69 591.52 Z" />
</g>
</svg>
