<?xml version="1.0" encoding="UTF-8" ?>
<!DOCTYPE svg PUBLIC "-//W3C//DTD SVG 1.1//EN" "http://www.w3.org/Graphics/SVG/1.1/DTD/svg11.dtd">
<svg width="960pt" height="960pt" viewBox="0 0 960 960" version="1.1" xmlns="http://www.w3.org/2000/svg">
<g id="#ffffffff">
<path fill="#ffffff" opacity="1.00" d=" M 478.44 241.41 C 480.15 240.58 482.00 241.58 483.21 242.80 C 485.72 245.29 488.21 247.91 489.93 251.03 C 495.16 260.52 500.29 270.06 505.48 279.56 C 507.10 282.55 509.20 285.46 509.57 288.92 C 510.62 294.59 508.49 300.49 504.76 304.76 C 499.66 310.99 494.71 317.34 489.65 323.61 C 487.34 326.66 484.29 329.27 480.83 330.89 C 477.84 330.94 475.09 328.95 473.01 326.96 C 466.94 319.38 460.91 311.75 454.81 304.20 C 449.98 298.61 448.54 289.98 452.32 283.47 C 458.73 272.10 464.72 260.50 471.15 249.15 C 473.60 246.61 475.11 242.94 478.44 241.41 Z" />
<path fill="#ffffff" opacity="1.00" d=" M 296.55 280.38 C 303.65 276.78 311.93 278.34 319.55 278.79 C 322.81 280.80 326.19 282.63 329.47 284.60 C 351.73 304.28 372.38 325.68 394.48 345.53 C 400.38 351.28 406.19 357.13 412.17 362.81 C 416.49 366.11 420.09 370.21 424.05 373.93 C 436.66 384.94 447.82 397.53 460.53 408.43 C 466.39 414.77 473.29 420.01 479.15 426.34 C 479.59 426.36 480.46 426.41 480.90 426.43 C 485.50 421.84 490.45 417.62 495.31 413.32 C 499.78 407.45 506.13 403.49 510.95 397.94 C 523.81 385.80 536.46 373.46 549.49 361.50 C 555.30 355.63 561.20 349.87 567.25 344.26 C 572.53 339.89 576.95 334.58 582.38 330.38 C 590.00 322.99 597.35 315.29 605.46 308.42 C 608.99 305.28 611.91 301.48 615.76 298.70 C 623.31 292.63 628.92 283.42 638.65 280.61 C 641.99 280.51 645.32 280.14 648.59 279.44 C 666.77 276.92 685.22 292.53 685.33 310.98 C 685.44 339.35 685.29 367.72 685.41 396.09 C 685.58 399.33 683.19 401.81 681.48 404.30 C 673.61 411.15 665.41 417.68 657.49 424.51 C 653.17 428.54 648.15 431.75 643.96 435.95 C 636.54 442.25 628.66 448.02 621.47 454.59 C 620.30 456.01 618.27 455.47 616.70 455.77 C 615.34 453.37 615.48 450.59 616.14 448.01 C 617.37 441.32 614.51 434.62 616.32 428.00 C 614.30 419.38 617.73 410.64 615.83 402.01 C 615.17 399.20 616.34 396.46 616.69 393.70 C 614.21 392.08 612.67 395.65 610.90 396.88 C 600.93 405.94 590.62 414.63 580.54 423.55 C 573.23 430.94 564.96 437.29 557.39 444.39 C 540.51 458.81 524.47 474.19 507.50 488.50 C 499.91 496.29 491.10 502.75 483.40 510.42 C 481.97 512.02 478.95 512.12 477.43 510.60 C 463.65 498.73 450.51 486.14 436.56 474.45 C 429.06 466.91 420.55 460.48 412.93 453.06 C 402.88 444.47 393.24 435.40 383.09 426.91 C 374.97 418.69 365.82 411.60 357.37 403.74 C 352.65 400.57 349.48 395.46 344.36 392.91 C 344.66 413.63 344.14 434.36 344.62 455.07 C 343.14 455.64 341.52 455.68 339.97 455.56 C 337.66 454.10 336.07 451.78 333.95 450.08 C 317.25 437.22 301.58 423.12 285.25 409.81 C 283.54 408.49 281.73 407.21 280.48 405.43 C 279.18 403.07 277.07 401.25 275.88 398.85 C 275.24 394.93 275.64 390.94 275.60 387.00 C 275.62 367.33 275.60 347.66 275.61 328.00 C 275.68 319.24 275.28 310.46 276.17 301.73 C 276.33 298.94 277.79 296.47 279.31 294.20 C 283.78 288.25 289.48 282.99 296.55 280.38 Z" />
<path fill="#ffffff" opacity="1.00" d=" M 93.94 313.00 C 103.89 310.51 115.03 311.57 123.70 317.32 C 129.76 321.07 134.39 326.60 140.09 330.83 C 145.10 334.54 149.44 339.12 154.81 342.34 C 163.21 348.47 170.55 355.91 178.86 362.15 C 212.91 390.81 247.12 419.25 281.46 447.55 C 286.65 452.73 292.83 456.77 298.11 461.86 C 320.69 480.26 342.87 499.11 365.34 517.66 C 374.56 526.14 384.74 533.52 393.98 541.99 C 413.11 557.11 431.36 573.31 450.37 588.58 C 459.63 596.70 469.21 604.44 478.60 612.40 C 480.23 613.12 482.05 612.48 483.24 611.24 C 506.88 591.18 530.74 571.41 554.57 551.59 C 590.15 522.20 625.10 492.04 660.92 462.95 C 665.91 457.85 672.13 454.20 677.07 449.06 C 708.14 423.46 738.98 397.64 769.96 371.94 C 778.20 364.48 787.20 357.92 795.49 350.52 C 806.29 341.67 816.99 332.71 827.65 323.71 C 832.41 319.81 837.41 316.22 842.57 312.88 C 849.28 311.65 856.19 310.55 863.01 311.79 C 865.24 312.51 867.61 312.60 869.95 312.74 C 871.41 314.84 874.09 315.46 876.01 317.04 C 881.63 321.49 886.60 326.99 889.36 333.68 C 892.10 336.49 891.40 340.49 892.45 343.98 C 892.86 347.58 891.31 351.02 891.35 354.62 C 887.80 361.08 885.25 368.05 881.45 374.37 C 877.68 382.34 873.37 390.03 869.88 398.14 C 865.83 405.11 862.60 412.49 858.77 419.58 C 856.21 426.18 852.31 432.14 849.46 438.60 C 847.28 443.13 844.99 447.61 842.59 452.02 C 839.94 458.64 835.89 464.57 833.21 471.17 C 829.46 477.03 827.54 483.83 823.80 489.71 C 812.64 512.49 801.16 535.14 789.78 557.80 C 788.18 560.30 786.93 563.00 785.80 565.75 C 782.67 573.45 777.62 580.27 775.12 588.24 C 774.66 588.40 774.21 588.56 773.77 588.72 C 773.28 591.72 771.41 594.22 770.17 596.93 C 767.40 603.16 764.01 609.08 761.21 615.29 C 757.65 620.94 755.71 627.40 752.15 633.05 C 748.88 639.47 745.68 645.92 742.49 652.37 C 739.47 659.55 735.19 666.14 732.27 673.35 C 728.30 675.00 722.22 675.86 719.59 671.61 C 718.57 670.28 718.40 668.61 718.44 667.01 C 718.46 628.01 718.47 589.01 718.44 550.01 C 718.48 547.42 718.19 544.75 718.89 542.24 C 721.44 536.34 724.79 530.83 727.22 524.88 C 731.34 518.28 733.79 510.79 738.11 504.32 C 740.35 496.26 746.09 489.79 748.86 482.01 C 746.68 483.00 745.12 484.86 743.38 486.43 C 722.52 503.91 701.60 521.32 680.59 538.64 C 677.62 541.39 674.71 544.20 671.30 546.42 C 653.22 561.64 634.94 576.62 616.97 591.96 C 612.70 595.72 608.02 599.00 603.73 602.74 C 589.49 615.23 574.51 626.84 560.02 639.03 C 555.75 643.48 550.31 646.56 546.00 650.95 C 530.79 663.47 515.75 676.19 500.47 688.60 C 488.57 697.09 471.43 696.81 459.57 688.41 C 428.05 662.62 397.17 636.12 365.58 610.41 C 352.92 599.37 339.53 589.21 327.01 578.02 C 311.23 565.10 295.67 551.92 279.92 538.96 C 275.11 535.55 271.33 530.93 266.45 527.61 C 252.96 516.77 239.93 505.38 226.53 494.44 C 224.10 492.14 221.16 490.44 218.92 487.93 C 216.90 485.90 214.95 483.81 212.87 481.84 C 211.88 481.47 210.88 481.17 209.87 480.94 C 210.45 482.32 211.08 483.69 211.83 485.00 C 215.21 489.89 217.63 495.35 220.72 500.42 C 225.75 511.26 231.57 521.76 236.58 532.64 C 238.80 536.58 241.50 540.51 242.43 544.97 C 242.44 585.66 242.45 626.35 242.43 667.03 C 241.48 669.67 240.19 672.40 237.90 674.15 C 235.69 674.89 233.26 674.48 230.97 674.44 C 228.17 673.96 227.37 670.88 226.07 668.78 C 223.52 663.08 219.83 657.97 217.69 652.07 C 212.28 640.90 206.15 630.07 201.17 618.68 C 197.60 613.27 195.58 607.07 192.40 601.45 C 189.34 594.36 185.08 587.88 182.03 580.79 C 180.39 576.78 177.71 573.32 176.09 569.31 C 170.64 557.17 163.84 545.70 158.49 533.52 C 156.62 529.67 153.74 526.07 153.27 521.71 C 152.88 521.65 152.10 521.55 151.70 521.50 C 151.59 520.34 151.46 519.19 151.22 518.05 C 149.55 516.74 148.76 514.72 147.93 512.84 C 145.94 508.01 143.18 503.53 141.19 498.69 C 140.74 498.54 140.30 498.39 139.86 498.24 C 139.67 495.06 137.75 492.43 136.39 489.66 C 133.67 484.50 131.36 479.13 128.66 473.95 C 125.21 468.11 122.93 461.67 119.28 455.95 C 117.37 452.11 116.08 447.96 113.76 444.33 C 112.56 442.51 111.87 440.43 111.29 438.36 C 111.10 438.80 110.91 439.26 110.72 439.71 C 109.98 434.42 106.33 430.27 104.24 425.50 C 101.24 418.36 97.15 411.77 93.99 404.71 C 90.09 397.63 87.19 390.06 83.06 383.11 C 81.18 379.60 79.84 375.82 77.78 372.40 C 74.81 367.69 73.14 362.32 70.62 357.39 C 67.70 352.87 68.79 347.27 68.65 342.20 C 70.87 334.51 74.42 326.88 80.36 321.36 C 84.07 317.48 88.42 313.75 93.94 313.00 Z" />
<path fill="#ffffff" opacity="1.00" d=" M 200.49 714.78 C 202.55 713.92 204.72 713.37 206.97 713.53 C 389.33 713.54 571.69 713.51 754.05 713.55 C 766.09 714.79 776.95 724.82 778.58 736.94 C 778.59 741.77 779.35 746.87 777.49 751.47 C 774.29 761.63 764.54 769.34 754.06 770.45 C 571.35 770.47 388.65 770.48 205.95 770.45 C 195.33 769.19 185.08 761.26 182.46 750.66 C 181.96 742.59 180.58 733.44 185.48 726.38 C 189.00 720.98 194.41 716.87 200.49 714.78 Z" />
</g>
<g id="#97979797">
<path fill="#979797" opacity="0.59" d=" M 640.20 278.68 C 645.74 277.61 651.43 278.09 657.05 277.98 C 661.93 277.58 666.05 280.58 670.08 282.88 C 678.18 287.47 683.68 295.76 686.11 304.61 C 687.07 309.01 686.70 313.54 686.75 318.00 C 686.76 344.66 686.69 371.33 686.78 397.99 C 687.18 401.25 683.65 402.71 681.48 404.30 C 683.19 401.81 685.58 399.33 685.41 396.09 C 685.29 367.72 685.44 339.35 685.33 310.98 C 685.22 292.53 666.77 276.92 648.59 279.44 C 645.32 280.14 641.99 280.51 638.65 280.61 C 639.04 280.13 639.81 279.16 640.20 278.68 Z" />
</g>
<g id="#c7c7c7c7">
<path fill="#c7c7c7" opacity="0.78" d=" M 273.53 311.97 C 273.51 308.41 274.49 304.85 276.17 301.73 C 275.28 310.46 275.68 319.24 275.61 328.00 C 275.60 347.66 275.62 367.33 275.60 387.00 C 275.64 390.94 275.24 394.93 275.88 398.85 C 277.07 401.25 279.18 403.07 280.48 405.43 C 277.77 404.17 275.89 401.80 273.60 399.97 C 273.50 370.64 273.64 341.30 273.53 311.97 Z" />
</g>
<g id="#61616162">
<path fill="#616161" opacity="0.38" d=" M 90.77 311.97 C 97.74 309.91 105.18 310.34 112.35 310.86 C 120.77 311.62 127.06 317.75 133.35 322.72 C 138.86 325.68 142.28 331.14 147.32 334.69 C 150.21 336.79 153.41 338.90 154.81 342.34 C 149.44 339.12 145.10 334.54 140.09 330.83 C 134.39 326.60 129.76 321.07 123.70 317.32 C 115.03 311.57 103.89 310.51 93.94 313.00 C 88.42 313.75 84.07 317.48 80.36 321.36 C 74.42 326.88 70.87 334.51 68.65 342.20 C 68.35 339.62 68.57 337.00 69.64 334.63 C 71.99 329.05 74.29 323.04 79.23 319.21 C 82.82 316.45 86.55 313.69 90.77 311.97 Z" />
</g>
<g id="#bbbbbbbb">
<path fill="#bbbbbb" opacity="0.73" d=" M 209.87 480.94 C 210.88 481.17 211.88 481.47 212.87 481.84 C 212.52 482.89 212.18 483.94 211.83 485.00 C 211.08 483.69 210.45 482.32 209.87 480.94 Z" />
</g>
<g id="#45454545">
<path fill="#454545" opacity="0.27" d=" M 211.83 485.00 C 212.18 483.94 212.52 482.89 212.87 481.84 C 214.95 483.81 216.90 485.90 218.92 487.93 C 217.93 488.27 216.93 488.61 215.94 488.95 C 217.66 492.70 220.45 496.16 220.72 500.42 C 217.63 495.35 215.21 489.89 211.83 485.00 Z" />
</g>
</svg>
