<?xml version="1.0" encoding="UTF-8" ?>
<!DOCTYPE svg PUBLIC "-//W3C//DTD SVG 1.1//EN" "http://www.w3.org/Graphics/SVG/1.1/DTD/svg11.dtd">
<svg width="1920pt" height="371pt" viewBox="0 0 1920 371" version="1.1" xmlns="http://www.w3.org/2000/svg">
<g id="#000000ff">
<path fill="#000000" opacity="1.00" d=" M 685.57 81.79 C 701.79 79.35 718.84 83.38 732.37 92.63 C 743.57 100.57 752.65 111.75 757.09 124.83 C 763.83 143.27 761.54 164.60 751.36 181.34 C 743.57 193.77 731.78 203.87 717.89 208.80 C 702.79 214.46 685.65 214.22 670.69 208.24 C 658.54 203.62 648.21 194.93 640.71 184.41 C 631.30 170.67 627.24 153.27 629.94 136.80 C 632.11 122.93 638.70 109.70 648.92 100.00 C 658.67 90.07 671.86 83.82 685.57 81.79 M 686.46 93.56 C 672.44 95.76 659.42 103.78 651.16 115.32 C 643.35 126.13 639.56 139.87 641.19 153.15 C 642.89 168.51 651.62 182.92 664.40 191.60 C 675.29 199.11 688.98 202.50 702.10 200.65 C 718.80 198.51 734.25 188.11 742.34 173.31 C 748.41 162.74 750.49 150.06 748.49 138.06 C 746.00 123.53 737.41 110.07 725.03 101.98 C 713.82 94.51 699.77 91.31 686.46 93.56 Z" />
<path fill="#000000" opacity="1.00" d=" M 1622.55 81.79 C 1642.75 78.77 1664.37 85.70 1678.60 100.46 C 1688.64 110.10 1694.99 123.23 1697.17 136.91 C 1700.37 157.30 1693.50 179.21 1678.56 193.58 C 1668.92 203.60 1655.80 209.97 1642.13 212.12 C 1621.74 215.37 1599.83 208.43 1585.44 193.52 C 1575.66 184.08 1569.33 171.34 1567.07 157.99 C 1563.44 137.37 1570.39 115.05 1585.47 100.45 C 1595.27 90.28 1608.63 83.85 1622.55 81.79 M 1623.47 93.55 C 1614.85 94.88 1606.65 98.48 1599.66 103.65 C 1587.51 112.61 1579.50 126.91 1578.07 141.93 C 1576.13 160.39 1584.76 179.42 1599.69 190.38 C 1612.41 199.97 1629.47 203.50 1644.93 199.56 C 1660.31 195.80 1673.83 185.04 1680.69 170.73 C 1689.52 153.45 1687.57 131.50 1676.26 115.81 C 1664.77 99.20 1643.39 90.12 1623.47 93.55 Z" />
<path fill="#000000" opacity="1.00" d=" M 1451.71 99.66 C 1465.39 86.37 1485.25 80.18 1504.10 82.58 C 1518.31 84.22 1531.70 91.00 1541.86 101.02 C 1541.86 101.79 1541.86 103.32 1541.86 104.08 C 1539.56 106.32 1537.26 108.55 1534.97 110.80 C 1523.51 98.21 1505.73 91.92 1488.90 94.37 C 1471.24 96.63 1455.14 108.42 1447.78 124.66 C 1439.95 141.00 1441.51 161.32 1451.73 176.28 C 1462.17 192.40 1481.87 201.89 1500.99 199.90 C 1513.89 198.80 1526.21 192.74 1534.95 183.19 C 1537.53 186.21 1542.12 188.30 1542.10 192.82 C 1530.18 204.65 1513.75 211.75 1496.93 211.89 C 1478.67 212.22 1460.41 204.45 1448.23 190.80 C 1435.34 177.20 1429.26 157.68 1431.63 139.16 C 1433.34 124.16 1440.50 109.81 1451.71 99.66 Z" />
<path fill="#000000" opacity="1.00" d=" M 246.34 82.81 C 247.59 82.68 248.84 82.54 250.10 82.41 C 264.56 115.74 279.06 149.04 293.48 182.38 C 293.99 183.53 294.78 184.52 295.55 185.52 C 310.42 151.16 325.32 116.81 340.14 82.42 C 341.34 82.52 342.55 82.63 343.76 82.73 C 351.87 118.98 359.53 155.34 367.47 191.63 C 368.65 197.47 370.19 203.23 371.05 209.13 C 367.27 209.80 363.21 211.87 359.49 209.95 C 353.86 182.94 347.78 156.02 341.97 129.04 C 340.87 124.53 340.37 119.84 338.53 115.54 C 324.61 147.57 310.94 179.71 296.90 211.68 C 295.72 211.66 294.56 211.64 293.39 211.63 C 280.94 182.81 268.38 154.04 255.90 125.23 C 254.51 121.94 253.18 118.61 251.26 115.59 C 244.48 147.08 237.57 178.56 230.81 210.06 C 226.94 211.68 222.96 209.59 219.12 208.94 C 228.29 166.91 237.32 124.86 246.34 82.81 Z" />
<path fill="#000000" opacity="1.00" d=" M 842.35 82.81 C 843.59 82.67 844.84 82.54 846.10 82.41 C 861.13 116.81 875.85 151.34 891.06 185.66 C 893.22 182.34 894.53 178.59 896.11 174.98 C 909.50 144.12 922.80 113.21 936.22 82.36 C 937.11 82.46 938.89 82.67 939.78 82.77 C 947.86 119.02 955.54 155.35 963.47 191.63 C 964.65 197.47 966.19 203.24 967.05 209.13 C 963.27 209.79 959.17 211.91 955.48 209.91 C 950.64 186.45 945.31 163.08 940.28 139.66 C 938.27 131.64 937.29 123.35 934.56 115.54 C 920.60 147.54 906.94 179.67 892.94 211.65 C 891.75 211.64 890.57 211.64 889.40 211.64 C 876.25 181.18 862.94 150.80 849.80 120.34 C 849.05 118.69 848.18 117.12 847.26 115.58 C 840.49 147.08 833.56 178.55 826.81 210.05 C 822.94 211.68 818.96 209.59 815.12 208.94 C 824.29 166.91 833.32 124.86 842.35 82.81 Z" />
<path fill="#000000" opacity="1.00" d=" M 401.21 84.14 C 422.84 84.17 444.47 84.14 466.11 84.14 C 467.52 84.08 469.40 84.32 469.76 86.00 C 470.36 88.60 470.36 91.39 469.76 93.99 C 469.24 96.15 466.67 95.83 464.99 95.88 C 447.04 95.81 429.08 95.88 411.13 95.84 C 411.03 109.95 411.03 124.05 411.13 138.16 C 429.63 138.13 448.14 138.17 466.64 138.14 C 467.09 138.64 468.00 139.64 468.45 140.13 C 468.45 142.71 468.45 145.28 468.46 147.85 C 468.00 148.35 467.10 149.36 466.65 149.86 C 448.14 149.83 429.64 149.87 411.13 149.84 C 411.03 165.95 411.03 182.05 411.13 198.16 C 429.07 198.12 447.01 198.19 464.95 198.12 C 466.65 198.19 469.26 197.82 469.76 200.02 C 470.36 202.61 470.36 205.38 469.77 207.98 C 469.41 209.69 467.49 209.92 466.06 209.86 C 444.44 209.86 422.82 209.84 401.20 209.86 C 400.51 209.17 399.82 208.49 399.14 207.81 C 399.16 167.26 399.15 126.72 399.14 86.18 C 399.83 85.50 400.52 84.82 401.21 84.14 Z" />
<path fill="#000000" opacity="1.00" d=" M 538.23 84.14 C 541.58 84.47 548.25 82.46 548.01 87.86 C 548.20 124.62 547.94 161.40 548.13 198.16 C 567.85 198.07 587.57 198.28 607.29 198.05 C 609.70 200.74 609.24 204.65 608.72 207.94 C 608.32 209.56 606.49 209.95 605.06 209.86 C 582.79 209.86 560.52 209.83 538.25 209.87 C 537.58 209.17 536.92 208.48 536.27 207.79 C 536.30 167.26 536.29 126.73 536.27 86.20 C 536.92 85.51 537.57 84.82 538.23 84.14 Z" />
<path fill="#000000" opacity="1.00" d=" M 997.19 84.14 C 1019.16 84.20 1041.13 84.07 1063.09 84.20 C 1066.15 83.97 1066.21 87.77 1066.19 89.92 C 1066.21 92.12 1066.20 96.05 1063.05 95.80 C 1044.41 95.92 1025.77 95.82 1007.13 95.84 C 1007.03 109.95 1007.03 124.05 1007.13 138.16 C 1025.63 138.13 1044.13 138.17 1062.63 138.14 C 1063.09 138.64 1064.00 139.63 1064.45 140.13 C 1064.45 142.71 1064.45 145.29 1064.45 147.87 C 1064.00 148.36 1063.09 149.36 1062.63 149.86 C 1044.13 149.83 1025.63 149.87 1007.13 149.84 C 1007.03 165.94 1007.03 182.05 1007.13 198.16 C 1025.79 198.17 1044.46 198.08 1063.12 198.20 C 1066.19 198.02 1066.22 201.84 1066.19 204.01 C 1066.17 206.17 1066.19 210.04 1063.08 209.80 C 1041.12 209.93 1019.15 209.80 997.19 209.86 C 996.50 209.18 995.81 208.49 995.14 207.82 C 995.15 167.27 995.15 126.73 995.14 86.19 C 995.81 85.50 996.50 84.82 997.19 84.14 Z" />
<path fill="#000000" opacity="1.00" d=" M 1101.19 84.14 C 1112.13 84.15 1123.07 84.17 1134.01 84.13 C 1145.48 83.95 1157.47 86.29 1166.83 93.26 C 1174.05 98.38 1178.91 106.48 1180.35 115.19 C 1181.94 125.38 1180.70 136.34 1175.30 145.30 C 1169.59 154.98 1159.63 161.54 1148.87 164.34 C 1158.49 177.24 1168.56 189.81 1178.32 202.60 C 1179.55 203.83 1179.76 206.03 1178.37 207.24 C 1176.17 209.24 1173.66 210.86 1171.33 212.67 C 1159.25 197.04 1147.11 181.46 1135.01 165.85 C 1127.05 165.84 1119.09 165.86 1111.13 165.84 C 1110.97 178.91 1111.13 191.99 1111.06 205.06 C 1110.94 206.71 1111.09 209.33 1108.97 209.74 C 1105.63 210.25 1101.68 210.72 1099.08 208.12 C 1099.23 167.48 1099.11 126.84 1099.14 86.20 C 1099.81 85.51 1100.49 84.83 1101.19 84.14 M 1111.13 95.84 C 1111.02 115.28 1111.03 134.72 1111.13 154.16 C 1119.73 154.13 1128.34 154.17 1136.95 154.16 C 1147.08 154.11 1157.58 149.93 1163.71 141.63 C 1169.25 134.20 1170.19 124.27 1168.49 115.39 C 1166.31 105.70 1157.13 99.32 1147.85 97.34 C 1135.77 94.83 1123.37 96.21 1111.13 95.84 Z" />
<path fill="#000000" opacity="1.00" d=" M 1213.19 84.14 C 1235.18 84.20 1257.17 84.07 1279.15 84.20 C 1282.22 84.06 1282.19 87.87 1282.19 90.03 C 1282.19 92.18 1282.19 95.97 1279.13 95.80 C 1260.46 95.92 1241.80 95.83 1223.13 95.84 C 1223.03 109.95 1223.03 124.05 1223.13 138.16 C 1241.64 138.13 1260.14 138.16 1278.65 138.14 C 1279.10 138.64 1280.00 139.64 1280.46 140.14 C 1280.44 142.72 1280.44 145.30 1280.45 147.88 C 1280.00 148.37 1279.09 149.36 1278.63 149.86 C 1260.13 149.83 1241.63 149.87 1223.13 149.84 C 1223.03 165.95 1223.03 182.05 1223.13 198.16 C 1241.80 198.18 1260.48 198.08 1279.15 198.20 C 1282.23 198.05 1282.19 201.89 1282.19 204.05 C 1282.21 206.21 1282.16 210.02 1279.09 209.80 C 1257.13 209.93 1235.16 209.80 1213.19 209.86 C 1212.49 209.17 1211.81 208.49 1211.14 207.81 C 1211.16 167.27 1211.15 126.73 1211.14 86.19 C 1211.81 85.50 1212.49 84.82 1213.19 84.14 Z" />
<path fill="#000000" opacity="1.00" d=" M 1323.24 84.14 C 1351.21 84.14 1379.19 84.20 1407.16 84.11 C 1407.51 85.77 1408.39 87.69 1407.08 89.17 C 1384.46 121.85 1361.80 154.51 1339.17 187.18 C 1336.67 190.80 1334.07 194.36 1331.79 198.12 C 1354.44 198.18 1377.09 198.16 1399.74 198.13 C 1400.35 198.83 1400.98 199.53 1401.62 200.24 C 1401.60 202.74 1401.60 205.24 1401.63 207.75 C 1400.98 208.46 1400.35 209.16 1399.73 209.87 C 1370.79 209.84 1341.84 209.83 1312.90 209.88 C 1312.42 208.43 1310.93 206.80 1312.42 205.44 C 1334.78 173.14 1357.17 140.86 1379.54 108.57 C 1382.43 104.35 1385.45 100.22 1388.15 95.87 C 1366.51 95.83 1344.88 95.85 1323.24 95.87 C 1322.56 95.17 1321.91 94.48 1321.27 93.79 C 1321.27 91.25 1321.27 88.72 1321.28 86.19 C 1321.91 85.50 1322.57 84.82 1323.24 84.14 Z" />
<path fill="#000000" opacity="1.00" d=" M 479.19 267.58 C 483.64 266.12 488.89 265.84 492.96 268.50 C 493.31 268.43 494.03 268.30 494.39 268.23 L 494.42 269.07 C 504.39 274.30 505.46 289.93 497.11 297.06 C 494.47 299.79 490.60 300.68 487.01 301.37 C 483.06 302.09 479.29 300.41 475.59 299.32 L 475.54 298.88 C 473.25 297.57 471.29 295.78 470.08 293.41 L 469.23 293.39 C 469.30 293.03 469.43 292.31 469.50 291.95 C 466.14 286.93 467.45 280.51 469.65 275.31 C 472.63 272.53 475.06 268.73 479.19 267.58 M 482.18 268.18 C 477.16 269.75 475.49 275.29 474.77 279.94 C 474.26 285.12 475.04 290.60 477.61 295.18 C 479.78 299.06 484.99 301.88 489.20 299.48 C 493.30 297.83 494.56 293.05 495.22 289.12 C 495.68 283.30 495.66 276.92 492.18 271.95 C 490.10 268.83 485.85 266.55 482.18 268.18 Z" />
<path fill="#000000" opacity="1.00" d=" M 579.10 269.96 C 580.86 269.10 582.30 267.75 583.49 266.20 C 585.88 276.95 590.56 287.05 593.70 297.59 C 594.10 298.01 594.89 298.86 595.29 299.29 C 596.74 299.53 598.19 299.79 599.64 300.13 C 594.26 300.66 588.84 300.23 583.45 300.36 C 584.64 299.89 585.84 299.48 587.07 299.09 C 586.76 295.86 586.02 292.72 585.17 289.60 C 581.42 289.21 577.63 289.17 573.89 289.57 C 573.02 292.74 571.72 295.82 571.48 299.14 C 573.06 299.45 574.66 299.78 576.23 300.22 C 572.02 300.43 567.80 300.48 563.60 300.30 C 564.92 299.87 566.24 299.55 567.60 299.26 C 568.15 298.70 568.70 298.15 569.26 297.60 C 570.52 293.54 572.42 289.72 573.77 285.69 C 575.40 280.39 577.91 275.39 579.10 269.96 M 578.80 275.08 C 577.35 279.12 575.83 283.16 575.12 287.41 C 578.00 287.39 580.89 287.40 583.78 287.45 C 582.85 283.29 581.38 279.29 580.18 275.21 C 579.84 275.18 579.14 275.11 578.80 275.08 Z" />
<path fill="#000000" opacity="1.00" d=" M 674.10 269.96 C 675.86 269.10 677.30 267.77 678.48 266.22 C 680.89 276.99 685.61 287.09 688.70 297.68 C 689.27 298.21 689.85 298.74 690.44 299.27 C 691.78 299.50 693.18 299.78 694.46 300.34 C 689.11 300.41 683.77 300.34 678.43 300.35 C 679.63 299.90 680.83 299.49 682.07 299.09 C 681.76 295.87 681.03 292.71 680.17 289.60 C 676.41 289.20 672.62 289.16 668.87 289.60 C 668.02 292.76 666.76 295.83 666.44 299.12 C 668.03 299.44 669.66 299.78 671.24 300.21 C 667.02 300.43 662.79 300.50 658.58 300.28 C 659.90 299.86 661.22 299.55 662.60 299.26 C 663.14 298.70 663.70 298.14 664.27 297.59 C 665.52 293.53 667.42 289.71 668.77 285.69 C 670.41 280.39 672.91 275.39 674.10 269.96 M 673.80 275.05 C 672.33 279.10 670.85 283.16 670.12 287.41 C 673.00 287.39 675.89 287.40 678.78 287.45 C 677.85 283.29 676.39 279.29 675.18 275.22 C 674.84 275.18 674.15 275.09 673.80 275.05 Z" />
<path fill="#000000" opacity="1.00" d=" M 760.10 269.96 C 761.86 269.11 763.28 267.76 764.47 266.23 C 766.92 276.96 771.55 287.05 774.69 297.58 C 775.09 298.00 775.89 298.83 776.29 299.25 C 777.69 299.48 779.13 299.76 780.46 300.34 C 775.01 300.37 769.55 300.46 764.11 300.22 C 765.42 299.85 766.75 299.50 768.09 299.19 C 767.77 295.90 767.03 292.69 766.11 289.54 C 762.36 289.22 758.60 289.18 754.86 289.58 C 753.99 292.72 752.92 295.80 752.30 299.00 C 753.93 299.37 755.60 299.76 757.23 300.23 C 753.02 300.41 748.81 300.50 744.61 300.30 C 745.91 299.83 747.23 299.53 748.61 299.27 C 749.16 298.69 749.72 298.12 750.29 297.55 C 753.53 288.35 757.53 279.38 760.10 269.96 M 759.80 275.08 C 758.35 279.12 756.83 283.16 756.12 287.41 C 759.00 287.39 761.89 287.40 764.78 287.45 C 763.84 283.29 762.39 279.29 761.18 275.21 C 760.84 275.18 760.15 275.11 759.80 275.08 Z" />
<path fill="#000000" opacity="1.00" d=" M 931.08 275.56 C 936.38 266.18 949.05 264.99 958.42 267.95 C 958.81 270.87 959.22 273.80 959.42 276.75 C 958.09 273.69 956.24 270.89 953.76 268.65 C 950.95 268.16 948.01 266.91 945.21 268.05 C 942.09 268.79 939.79 271.09 937.68 273.34 C 936.80 276.86 935.26 280.33 935.51 284.04 C 935.60 288.12 936.89 292.06 938.63 295.72 C 939.85 296.79 941.07 297.89 942.33 298.95 C 945.71 299.99 949.28 301.01 952.77 299.76 C 953.48 296.71 953.53 293.57 953.54 290.46 C 952.84 289.79 952.15 289.12 951.47 288.45 C 950.64 288.49 948.99 288.56 948.16 288.60 C 948.15 288.29 948.12 287.68 948.11 287.38 C 953.02 287.77 957.95 287.84 962.87 287.42 C 962.88 287.69 962.89 288.23 962.90 288.50 C 962.07 288.54 960.43 288.62 959.60 288.65 C 959.55 291.92 959.54 295.20 959.46 298.47 C 959.92 298.71 960.84 299.17 961.30 299.40 C 955.55 300.34 949.78 302.43 943.91 301.12 C 938.87 300.45 933.70 298.02 931.10 293.46 L 930.71 293.39 C 929.74 290.64 928.52 287.90 928.43 284.95 C 928.35 281.68 929.63 278.61 930.70 275.59 L 931.08 275.56 Z" />
<path fill="#000000" opacity="1.00" d=" M 1046.65 266.00 L 1047.26 265.99 C 1047.28 266.38 1047.31 267.15 1047.33 267.53 C 1055.93 267.32 1064.54 267.56 1073.14 267.43 C 1074.23 267.44 1075.12 266.98 1075.82 266.05 C 1075.55 269.25 1075.63 272.49 1075.11 275.68 C 1074.31 273.74 1073.65 271.75 1073.10 269.74 C 1070.06 268.69 1066.86 268.38 1063.67 268.48 C 1063.39 276.66 1063.63 284.84 1063.51 293.02 C 1063.36 295.19 1063.87 297.29 1064.77 299.26 C 1066.39 299.45 1068.08 299.62 1069.59 300.35 C 1063.54 300.41 1057.49 300.37 1051.44 300.39 C 1053.39 299.56 1055.89 299.60 1057.31 297.84 C 1057.65 288.10 1057.39 278.32 1057.41 268.57 C 1054.18 268.37 1050.95 268.66 1047.91 269.80 C 1047.14 271.73 1046.31 273.64 1045.33 275.48 C 1045.56 272.29 1046.24 269.16 1046.65 266.00 Z" />
<path fill="#000000" opacity="1.00" d=" M 1443.10 269.96 C 1444.85 269.09 1446.29 267.76 1447.48 266.22 C 1449.88 276.98 1454.61 287.09 1457.70 297.66 C 1458.26 298.20 1458.84 298.74 1459.45 299.28 C 1460.77 299.50 1462.20 299.77 1463.48 300.33 C 1458.13 300.42 1452.78 300.33 1447.44 300.35 C 1448.64 299.90 1449.82 299.49 1451.07 299.09 C 1450.75 295.88 1450.02 292.75 1449.19 289.64 C 1445.43 289.18 1441.63 289.16 1437.88 289.59 C 1437.02 292.86 1435.56 296.02 1435.50 299.46 C 1436.35 299.45 1438.06 299.44 1438.91 299.44 C 1439.17 299.69 1439.69 300.19 1439.95 300.44 C 1435.83 300.27 1431.72 300.52 1427.62 300.31 C 1428.91 299.82 1430.19 299.52 1431.59 299.27 C 1432.13 298.71 1432.69 298.14 1433.27 297.58 C 1436.53 288.38 1440.51 279.39 1443.10 269.96 M 1442.80 275.07 C 1441.35 279.11 1439.83 283.16 1439.12 287.41 C 1441.99 287.39 1444.88 287.40 1447.78 287.45 C 1446.85 283.30 1445.38 279.29 1444.19 275.22 C 1443.84 275.18 1443.15 275.11 1442.80 275.07 Z" />
<path fill="#000000" opacity="1.00" d=" M 410.10 267.77 C 413.89 267.57 417.69 267.78 421.48 267.42 C 422.30 270.48 423.35 273.48 424.69 276.35 C 427.15 281.29 429.69 286.20 432.00 291.22 C 435.72 289.25 436.19 284.53 438.27 281.21 C 440.25 276.73 442.64 272.36 443.63 267.51 C 447.39 267.73 451.16 267.57 454.93 267.74 C 453.09 268.35 451.25 268.94 449.40 269.51 C 449.20 278.02 449.32 286.53 449.57 295.03 C 449.56 296.52 449.97 297.96 450.34 299.40 C 451.77 299.47 453.27 299.57 454.52 300.38 C 449.20 300.33 443.87 300.41 438.55 300.37 C 440.04 299.56 441.73 299.43 443.38 299.19 C 443.81 291.54 443.22 283.87 443.50 276.20 L 441.39 276.24 C 441.46 276.79 441.60 277.89 441.67 278.44 L 440.79 278.38 C 439.77 282.18 437.53 285.48 436.25 289.17 C 436.12 289.25 435.88 289.41 435.75 289.50 C 434.08 293.85 432.55 298.33 430.05 302.29 C 428.40 297.20 425.88 292.44 424.26 287.35 L 423.78 287.38 C 422.55 283.81 420.71 280.51 419.16 277.08 C 418.66 277.09 417.65 277.11 417.15 277.11 C 417.14 281.10 417.27 285.10 416.78 289.07 C 416.40 292.50 416.10 296.13 417.82 299.27 C 419.39 299.46 421.02 299.55 422.44 300.35 C 418.30 300.46 414.15 300.20 410.02 300.58 C 410.07 300.38 410.16 299.97 410.20 299.77 C 411.77 299.45 413.21 298.79 414.52 297.88 C 414.53 288.75 415.91 279.69 415.52 270.54 C 415.06 270.09 414.14 269.19 413.69 268.75 C 412.48 268.44 411.29 268.11 410.10 267.77 Z" />
<path fill="#000000" opacity="1.00" d=" M 517.60 267.97 C 527.02 267.63 536.88 266.28 545.83 270.07 C 548.11 271.83 550.16 273.89 551.92 276.17 C 554.83 281.85 553.85 288.70 550.30 293.85 C 545.87 299.21 538.57 300.63 531.95 300.49 C 526.90 300.25 521.83 300.88 516.80 300.24 C 518.37 299.87 519.95 299.60 521.56 299.35 C 523.02 294.35 522.32 289.10 522.45 283.97 C 522.34 279.68 522.76 275.35 522.24 271.09 C 521.79 268.89 519.22 268.84 517.60 267.97 M 528.50 269.38 C 528.72 278.54 528.60 287.71 528.57 296.88 C 529.92 297.76 531.23 298.80 532.77 299.37 C 535.12 299.56 537.39 298.75 539.65 298.22 C 540.51 297.56 541.38 296.90 542.26 296.25 C 547.49 290.31 547.60 281.36 544.39 274.44 C 540.74 269.75 534.20 267.36 528.50 269.38 Z" />
<path fill="#000000" opacity="1.00" d=" M 626.53 267.97 C 633.99 267.59 641.66 266.65 648.91 269.03 C 653.85 270.88 655.11 276.86 653.48 281.43 L 652.93 281.48 C 650.56 285.38 645.51 286.62 641.21 286.19 C 642.60 285.57 644.03 285.00 645.45 284.42 C 647.31 281.53 647.76 278.15 647.46 274.77 C 647.05 273.68 646.67 272.58 646.30 271.48 C 645.71 270.82 645.14 270.17 644.57 269.52 C 642.28 268.95 639.96 268.59 637.62 268.41 C 637.44 276.27 637.62 284.13 637.51 291.99 C 637.44 294.47 637.57 296.97 638.28 299.36 C 639.94 299.56 641.63 299.84 643.25 300.31 C 637.61 300.40 631.96 300.31 626.32 300.33 C 627.61 299.90 628.91 299.52 630.24 299.17 C 632.04 295.70 631.37 291.73 631.46 287.98 C 631.34 282.56 631.66 277.14 631.35 271.73 C 631.31 269.09 628.41 268.78 626.53 267.97 Z" />
<path fill="#000000" opacity="1.00" d=" M 704.52 267.98 C 710.73 267.77 717.00 266.96 723.19 267.90 C 726.73 268.41 730.74 270.10 731.86 273.84 C 732.82 275.88 731.78 278.05 731.45 280.11 C 729.87 281.45 728.22 282.71 726.48 283.82 C 726.47 284.78 726.45 285.74 726.44 286.70 L 727.79 286.62 C 727.65 287.11 727.36 288.10 727.22 288.60 L 728.14 288.64 C 729.30 291.01 730.58 293.33 731.82 295.66 C 732.98 296.92 734.18 298.14 735.40 299.36 C 736.29 299.54 738.08 299.90 738.98 300.08 C 735.74 300.76 732.40 300.63 729.29 299.48 C 727.03 296.96 723.86 294.89 723.17 291.35 L 722.14 291.47 C 722.31 290.96 722.65 289.94 722.82 289.43 L 721.83 289.40 C 721.24 287.97 720.54 286.60 719.72 285.30 C 718.67 285.42 716.59 285.67 715.54 285.79 C 715.54 289.69 715.57 293.58 715.48 297.48 C 715.91 297.94 716.76 298.84 717.19 299.30 C 718.34 299.52 719.50 299.77 720.66 300.05 C 715.31 300.80 709.85 300.15 704.46 300.39 C 705.57 299.96 706.69 299.55 707.83 299.14 C 708.25 298.74 709.10 297.93 709.53 297.52 C 709.38 288.32 709.47 279.12 709.47 269.92 C 707.82 269.25 706.17 268.62 704.52 267.98 M 715.65 268.44 C 715.54 273.75 715.54 279.06 715.64 284.37 C 717.52 284.39 719.40 284.44 721.30 284.46 C 721.79 284.17 722.76 283.57 723.25 283.28 C 723.99 282.29 724.74 281.32 725.51 280.35 C 725.52 277.32 725.31 274.29 724.38 271.40 C 723.73 270.79 723.09 270.18 722.47 269.57 C 720.23 268.97 717.94 268.61 715.65 268.44 Z" />
<path fill="#000000" opacity="1.00" d=" M 806.15 267.76 C 814.57 267.04 823.04 267.74 831.48 267.35 C 831.64 268.74 831.85 270.12 832.09 271.51 L 831.74 272.01 C 831.28 272.64 830.83 273.29 830.41 273.95 C 830.37 272.53 830.60 270.80 829.05 270.08 C 825.68 267.91 821.49 268.65 817.71 268.51 C 817.44 273.24 817.59 277.97 817.47 282.71 C 820.47 282.69 823.47 282.66 826.48 282.59 C 827.04 280.81 827.60 279.04 828.23 277.29 C 828.46 281.18 828.25 285.09 828.50 289.00 C 828.32 288.98 827.94 288.95 827.75 288.94 C 827.53 287.24 826.78 285.75 825.73 284.43 C 822.97 284.54 820.21 284.54 817.46 284.47 C 817.73 289.16 817.00 293.97 818.32 298.56 C 822.41 299.78 826.74 299.71 830.82 298.44 C 832.01 296.74 832.97 294.91 833.85 293.03 C 834.09 293.09 834.57 293.20 834.81 293.25 C 834.22 295.70 833.57 298.13 832.93 300.57 C 823.70 300.36 814.44 300.90 805.23 300.26 C 806.88 299.84 808.55 299.54 810.24 299.24 C 812.43 294.47 811.13 289.09 811.45 284.04 C 811.11 278.95 812.45 273.54 810.24 268.75 C 808.86 268.44 807.50 268.11 806.15 267.76 Z" />
<path fill="#000000" opacity="1.00" d=" M 847.10 267.40 C 852.03 267.80 856.98 267.79 861.92 267.38 C 861.90 267.59 861.86 268.00 861.84 268.21 C 860.33 268.56 858.56 268.71 857.68 270.18 C 857.31 275.12 857.65 280.08 857.55 285.02 C 857.65 289.53 857.05 294.14 858.31 298.54 C 862.24 299.83 866.39 299.55 870.34 298.46 C 870.84 297.49 871.38 296.55 871.97 295.63 C 872.86 294.58 873.78 293.56 874.75 292.58 C 874.22 295.26 873.51 297.90 872.90 300.57 C 863.73 300.25 854.48 301.12 845.35 300.09 C 847.10 299.80 848.87 299.59 850.65 299.44 C 851.28 297.35 851.55 295.17 851.49 292.99 C 851.40 286.65 851.50 280.31 851.47 273.97 C 851.56 272.05 850.83 270.27 850.20 268.51 C 849.42 268.52 847.88 268.54 847.10 268.54 C 847.10 268.26 847.10 267.68 847.10 267.40 Z" />
<path fill="#000000" opacity="1.00" d=" M 887.15 267.76 C 895.66 267.04 904.21 267.74 912.74 267.35 C 912.64 268.66 912.53 269.97 912.43 271.28 L 912.38 271.90 C 912.30 272.89 912.26 273.89 912.26 274.89 C 911.47 273.32 911.66 271.15 910.06 270.07 C 906.68 267.93 902.50 268.65 898.72 268.50 C 898.43 273.23 898.59 277.97 898.47 282.71 C 901.51 282.68 904.56 282.66 907.61 282.60 C 907.98 281.08 908.30 279.54 908.66 278.02 C 908.88 278.06 909.34 278.13 909.57 278.16 C 909.25 281.77 909.25 285.39 909.52 289.00 C 909.25 289.00 908.71 288.99 908.44 288.98 C 908.45 288.31 908.47 286.98 908.48 286.31 C 907.98 285.86 906.98 284.97 906.48 284.52 C 903.80 284.54 901.12 284.53 898.46 284.46 C 898.72 289.16 898.01 293.96 899.32 298.56 C 903.42 299.79 907.74 299.71 911.83 298.44 C 913.11 296.57 914.17 294.55 915.22 292.54 C 915.81 295.30 914.57 297.95 913.90 300.57 C 904.67 300.35 895.42 300.91 886.20 300.26 C 887.86 299.83 889.54 299.53 891.25 299.24 C 893.43 294.47 892.13 289.10 892.45 284.04 C 892.12 278.95 893.45 273.54 891.24 268.75 C 889.86 268.44 888.49 268.11 887.15 267.76 Z" />
<path fill="#000000" opacity="1.00" d=" M 975.02 267.85 C 980.56 267.58 986.18 267.35 991.71 267.92 C 990.46 268.19 989.22 268.43 987.98 268.64 C 986.04 270.66 986.57 273.50 986.51 276.04 C 986.56 283.19 986.58 290.34 986.49 297.50 C 986.92 297.94 987.80 298.83 988.24 299.28 C 989.38 299.54 990.53 299.82 991.70 300.12 C 986.52 300.78 981.28 299.96 976.10 300.60 C 976.11 300.32 976.11 299.74 976.12 299.45 C 976.88 299.46 978.39 299.47 979.15 299.48 C 981.44 294.63 980.14 289.15 980.45 284.00 C 980.11 278.92 981.48 273.50 979.18 268.75 C 977.78 268.48 976.39 268.18 975.02 267.85 Z" />
<path fill="#000000" opacity="1.00" d=" M 1004.58 268.04 C 1010.54 267.68 1016.54 267.09 1022.50 267.79 C 1026.23 268.27 1030.61 269.82 1031.84 273.79 C 1032.83 275.84 1031.78 278.03 1031.44 280.11 C 1029.86 281.45 1028.22 282.71 1026.48 283.83 C 1026.46 284.78 1026.45 285.73 1026.44 286.69 L 1027.78 286.62 C 1027.64 287.11 1027.36 288.11 1027.22 288.61 L 1028.13 288.65 C 1029.29 291.01 1030.58 293.31 1031.81 295.65 C 1032.97 296.91 1034.17 298.13 1035.40 299.36 C 1036.28 299.53 1038.04 299.89 1038.91 300.07 C 1035.69 300.77 1032.37 300.61 1029.28 299.48 C 1027.01 296.96 1023.88 294.88 1023.17 291.36 L 1022.14 291.46 C 1022.30 290.97 1022.63 290.01 1022.80 289.53 C 1022.54 289.46 1022.03 289.33 1021.78 289.26 C 1021.16 287.91 1020.51 286.61 1019.75 285.35 C 1018.72 285.43 1016.66 285.58 1015.63 285.65 C 1015.52 289.59 1015.54 293.53 1015.50 297.47 C 1015.93 297.97 1016.79 298.95 1017.22 299.44 C 1017.89 299.46 1019.21 299.50 1019.88 299.52 C 1019.88 299.80 1019.87 300.35 1019.87 300.62 C 1014.73 300.07 1009.56 300.52 1004.42 300.34 C 1005.60 299.90 1006.81 299.56 1008.05 299.24 C 1009.07 298.03 1009.66 296.62 1009.48 295.01 C 1009.46 286.63 1009.44 278.26 1009.46 269.89 C 1007.83 269.26 1006.20 268.64 1004.58 268.04 M 1015.70 268.39 C 1015.50 273.72 1015.52 279.06 1015.68 284.40 C 1017.54 284.41 1019.41 284.43 1021.30 284.45 C 1021.79 284.16 1022.77 283.57 1023.26 283.27 C 1023.99 282.29 1024.74 281.31 1025.52 280.35 C 1025.52 277.30 1025.29 274.26 1024.37 271.35 C 1023.70 270.75 1023.06 270.16 1022.42 269.57 C 1020.21 268.99 1017.95 268.62 1015.70 268.39 Z" />
<path fill="#000000" opacity="1.00" d=" M 1088.24 267.68 C 1096.72 267.14 1105.24 267.69 1113.74 267.35 C 1113.61 268.67 1113.51 270.00 1113.42 271.33 L 1113.37 271.95 C 1113.31 273.18 1113.36 274.42 1113.52 275.66 C 1112.52 273.73 1112.75 270.84 1110.55 269.73 C 1107.17 268.04 1103.32 268.61 1099.71 268.51 C 1099.44 273.24 1099.58 277.98 1099.47 282.71 C 1102.51 282.68 1105.56 282.66 1108.61 282.60 C 1108.98 281.06 1109.31 279.52 1109.67 277.99 C 1109.89 278.04 1110.35 278.14 1110.57 278.19 C 1110.25 281.80 1110.25 285.42 1110.52 289.03 C 1110.31 289.00 1109.90 288.94 1109.70 288.90 C 1109.42 287.36 1109.33 285.65 1107.85 284.75 C 1105.06 284.37 1102.24 284.53 1099.46 284.45 C 1099.72 289.15 1099.01 293.95 1100.31 298.55 C 1104.40 299.78 1108.72 299.71 1112.81 298.45 C 1114.02 296.76 1114.97 294.92 1115.85 293.04 C 1116.09 293.09 1116.57 293.17 1116.81 293.21 C 1116.22 295.68 1115.57 298.13 1114.91 300.58 C 1105.70 300.34 1096.47 300.90 1087.29 300.27 C 1088.91 299.84 1090.55 299.54 1092.23 299.24 C 1094.43 294.48 1093.13 289.11 1093.45 284.06 C 1093.11 278.98 1094.46 273.56 1092.22 268.78 C 1090.86 268.43 1089.55 268.09 1088.24 267.68 Z" />
<path fill="#000000" opacity="1.00" d=" M 1145.60 267.97 C 1153.73 267.62 1162.00 266.77 1170.03 268.65 C 1171.26 269.15 1172.55 269.66 1173.82 270.14 C 1176.16 271.82 1178.16 273.91 1179.93 276.18 C 1182.80 281.84 1181.90 288.70 1178.28 293.81 C 1177.06 294.96 1175.87 296.13 1174.70 297.32 C 1169.84 299.75 1164.37 300.76 1158.96 300.47 C 1154.23 300.21 1149.45 301.06 1144.79 300.06 C 1146.36 299.81 1147.95 299.60 1149.56 299.43 C 1150.99 294.42 1150.33 289.18 1150.45 284.05 C 1150.34 279.77 1150.74 275.46 1150.26 271.20 C 1149.88 268.90 1147.25 268.85 1145.60 267.97 M 1156.50 269.37 C 1156.68 278.46 1156.68 287.55 1156.50 296.63 C 1157.86 297.60 1159.10 298.90 1160.77 299.37 C 1163.11 299.56 1165.38 298.74 1167.65 298.22 C 1168.50 297.56 1169.37 296.90 1170.26 296.25 C 1175.49 290.32 1175.60 281.37 1172.39 274.45 C 1168.75 269.76 1162.20 267.36 1156.50 269.37 Z" />
<path fill="#000000" opacity="1.00" d=" M 1196.24 267.68 C 1204.64 267.14 1213.06 267.69 1221.48 267.35 C 1221.64 268.73 1221.84 270.11 1222.09 271.49 L 1221.75 272.00 C 1221.49 272.41 1220.96 273.22 1220.69 273.62 C 1220.17 267.35 1212.14 268.64 1207.71 268.51 C 1207.44 273.24 1207.58 277.97 1207.47 282.71 C 1210.51 282.68 1213.56 282.66 1216.61 282.60 C 1216.98 281.09 1217.28 279.58 1217.64 278.08 C 1217.87 278.08 1218.32 278.10 1218.55 278.11 C 1218.25 281.89 1218.44 285.68 1218.27 289.47 C 1217.50 287.86 1217.23 285.93 1215.83 284.71 C 1213.04 284.40 1210.24 284.53 1207.46 284.45 C 1207.72 289.14 1207.00 293.96 1208.31 298.55 C 1212.40 299.79 1216.73 299.71 1220.82 298.45 C 1222.11 296.48 1223.24 294.39 1224.39 292.32 C 1224.65 295.00 1224.00 297.60 1222.63 299.90 L 1222.84 300.67 C 1213.64 300.24 1204.41 300.95 1195.22 300.26 C 1196.87 299.84 1198.54 299.53 1200.25 299.24 C 1202.43 294.46 1201.13 289.07 1201.45 284.00 C 1201.11 278.94 1202.46 273.54 1200.23 268.78 C 1198.86 268.44 1197.55 268.09 1196.24 267.68 Z" />
<path fill="#000000" opacity="1.00" d=" M 1248.63 267.58 C 1253.93 267.70 1259.24 267.57 1264.56 267.64 C 1263.37 268.09 1262.15 268.48 1260.97 268.88 C 1261.95 276.96 1266.48 284.03 1268.66 291.80 L 1270.30 291.78 C 1273.13 285.54 1275.20 279.00 1277.89 272.71 C 1278.14 271.36 1278.38 270.01 1278.60 268.65 C 1277.74 268.62 1276.02 268.55 1275.16 268.52 C 1275.13 268.25 1275.08 267.70 1275.05 267.43 C 1278.84 267.71 1282.64 267.68 1286.44 267.57 C 1282.69 268.50 1279.86 271.08 1278.72 274.80 C 1278.14 276.49 1277.45 278.13 1276.77 279.76 C 1275.87 282.15 1274.84 284.48 1273.77 286.80 C 1271.81 291.71 1269.96 296.66 1268.34 301.70 C 1267.46 301.60 1266.60 301.52 1265.76 301.43 C 1262.63 290.65 1257.44 280.60 1254.12 269.88 C 1253.48 269.62 1252.20 269.10 1251.56 268.84 C 1250.55 268.43 1249.59 268.02 1248.63 267.58 Z" />
<path fill="#000000" opacity="1.00" d=" M 1295.17 267.76 C 1303.58 267.03 1312.04 267.74 1320.48 267.35 C 1320.63 268.73 1320.84 270.10 1321.09 271.48 L 1320.75 272.00 C 1320.49 272.41 1319.96 273.24 1319.69 273.65 C 1319.21 267.36 1311.15 268.64 1306.72 268.50 C 1306.43 273.23 1306.59 277.97 1306.47 282.71 C 1309.51 282.68 1312.56 282.66 1315.62 282.60 C 1315.98 281.12 1316.27 279.62 1316.62 278.14 C 1316.86 278.12 1317.33 278.07 1317.56 278.05 C 1317.25 281.70 1317.25 285.37 1317.52 289.03 C 1317.31 289.00 1316.90 288.93 1316.70 288.90 C 1316.44 287.35 1316.31 285.67 1314.86 284.74 C 1312.07 284.37 1309.25 284.53 1306.46 284.45 C 1306.73 289.15 1305.99 293.97 1307.32 298.56 C 1311.42 299.80 1315.74 299.70 1319.83 298.44 C 1321.08 296.54 1322.15 294.53 1323.23 292.53 C 1323.77 295.29 1322.59 297.95 1321.90 300.58 C 1312.67 300.35 1303.43 300.90 1294.22 300.26 C 1295.87 299.84 1297.54 299.53 1299.24 299.24 C 1301.43 294.45 1300.12 289.05 1300.45 283.97 C 1300.12 278.91 1301.44 273.52 1299.23 268.74 C 1297.86 268.44 1296.51 268.11 1295.17 267.76 Z" />
<path fill="#000000" opacity="1.00" d=" M 1336.60 268.04 C 1342.54 267.67 1348.54 267.09 1354.49 267.78 C 1358.23 268.26 1362.66 269.83 1363.86 273.84 C 1364.81 275.88 1363.78 278.05 1363.44 280.11 C 1361.86 281.45 1360.21 282.72 1358.47 283.83 C 1358.45 284.78 1358.44 285.73 1358.45 286.69 L 1359.78 286.62 C 1359.64 287.11 1359.37 288.11 1359.23 288.61 L 1360.13 288.65 C 1361.29 291.02 1362.61 293.32 1363.81 295.68 C 1365.50 297.76 1367.53 299.64 1370.31 300.12 C 1367.28 300.82 1364.18 300.51 1361.28 299.48 C 1359.01 296.98 1355.93 294.89 1355.16 291.40 L 1354.16 291.43 C 1354.32 290.95 1354.63 289.98 1354.79 289.50 C 1354.54 289.45 1354.05 289.35 1353.81 289.30 C 1353.21 287.92 1352.54 286.62 1351.76 285.36 C 1350.73 285.43 1348.68 285.57 1347.65 285.64 C 1347.57 289.69 1347.31 293.76 1347.68 297.81 C 1348.98 299.13 1350.83 299.68 1352.49 300.49 C 1347.16 300.29 1341.84 300.28 1336.52 300.50 C 1338.16 299.69 1339.99 299.14 1341.33 297.80 C 1341.66 288.50 1341.33 279.19 1341.46 269.89 C 1339.83 269.26 1338.20 268.65 1336.60 268.04 M 1347.62 268.48 C 1347.55 273.78 1347.52 279.09 1347.67 284.39 C 1349.53 284.41 1351.40 284.43 1353.29 284.46 C 1353.78 284.16 1354.76 283.57 1355.25 283.28 C 1355.98 282.29 1356.73 281.32 1357.51 280.35 C 1357.52 277.33 1357.31 274.29 1356.38 271.40 C 1355.73 270.79 1355.09 270.18 1354.48 269.58 C 1352.23 268.96 1349.92 268.60 1347.62 268.48 Z" />
<path fill="#000000" opacity="1.00" d=" M 1380.53 267.94 C 1389.98 267.66 1399.86 266.26 1408.84 270.07 C 1411.11 271.84 1413.15 273.90 1414.93 276.17 C 1417.82 281.85 1416.86 288.69 1413.30 293.83 C 1408.90 299.21 1401.61 300.61 1395.01 300.49 C 1389.94 300.25 1384.85 300.88 1379.81 300.25 C 1381.38 299.87 1382.93 299.60 1384.56 299.34 C 1386.01 294.36 1385.32 289.13 1385.45 284.02 C 1385.32 279.68 1385.79 275.29 1385.21 270.97 C 1384.65 268.86 1382.15 268.80 1380.53 267.94 M 1391.50 269.38 C 1391.68 278.46 1391.68 287.55 1391.50 296.63 C 1392.85 297.61 1394.10 298.90 1395.77 299.37 C 1398.11 299.56 1400.39 298.74 1402.66 298.22 C 1403.51 297.56 1404.37 296.90 1405.26 296.24 C 1411.39 289.10 1411.26 276.62 1403.58 270.60 C 1399.72 269.23 1395.53 267.72 1391.50 269.38 Z" />
<path fill="#000000" opacity="1.00" d=" M 1473.98 267.90 C 1483.28 267.66 1493.01 266.29 1501.85 270.08 C 1504.12 271.84 1506.16 273.90 1507.93 276.18 C 1510.79 281.85 1509.90 288.72 1506.27 293.82 C 1505.05 294.96 1503.88 296.13 1502.72 297.31 C 1498.18 299.57 1493.11 300.65 1488.05 300.49 C 1482.96 300.25 1477.85 300.91 1472.79 300.19 C 1474.37 299.85 1475.92 299.60 1477.56 299.37 C 1479.01 294.36 1478.31 289.10 1478.45 283.96 C 1478.34 279.67 1478.75 275.34 1478.24 271.08 C 1477.83 269.05 1475.57 268.91 1474.05 268.15 L 1473.98 267.90 M 1484.50 269.38 C 1484.71 278.52 1484.62 287.68 1484.55 296.83 C 1485.89 297.73 1487.20 298.81 1488.77 299.37 C 1491.10 299.56 1493.38 298.75 1495.65 298.23 C 1496.50 297.56 1497.37 296.90 1498.26 296.25 C 1503.49 290.31 1503.61 281.35 1500.38 274.43 C 1496.72 269.75 1490.19 267.36 1484.50 269.38 Z" />
</g>
<g id="#0000002c">
<path fill="#000000" opacity="0.17" d=" M 832.09 271.51 C 833.55 271.56 833.60 274.12 832.32 274.54 C 831.33 274.07 831.14 273.22 831.74 272.01 L 832.09 271.51 Z" />
<path fill="#000000" opacity="0.17" d=" M 912.43 271.28 C 913.99 270.97 915.05 274.75 913.36 274.72 C 913.12 274.01 912.62 272.61 912.38 271.90 L 912.43 271.28 Z" />
<path fill="#000000" opacity="0.17" d=" M 1113.42 271.33 C 1114.97 270.95 1116.10 274.70 1114.38 274.69 C 1114.13 274.01 1113.62 272.63 1113.37 271.95 L 1113.42 271.33 Z" />
<path fill="#000000" opacity="0.17" d=" M 1222.09 271.49 C 1223.54 271.57 1223.58 274.13 1222.30 274.56 C 1221.33 274.07 1221.15 273.22 1221.75 272.00 L 1222.09 271.49 Z" />
<path fill="#000000" opacity="0.17" d=" M 1321.09 271.48 C 1322.54 271.55 1322.57 274.11 1321.31 274.55 C 1320.33 274.07 1320.15 273.22 1320.75 272.00 L 1321.09 271.48 Z" />
</g>
</svg>
