<?xml version="1.0" encoding="UTF-8" ?>
<!DOCTYPE svg PUBLIC "-//W3C//DTD SVG 1.1//EN" "http://www.w3.org/Graphics/SVG/1.1/DTD/svg11.dtd">
<svg width="960pt" height="960pt" viewBox="0 0 960 960" version="1.1" xmlns="http://www.w3.org/2000/svg">
<g id="#ff4e72ff">
<path fill="#ff4e72" opacity="1.00" d=" M 474.33 340.43 C 476.04 337.51 477.28 334.20 479.94 331.96 C 483.07 334.82 484.49 338.90 486.65 342.44 C 487.96 344.45 487.93 347.32 486.20 349.09 C 484.21 351.31 482.76 354.29 480.00 355.62 C 476.77 354.24 475.17 350.60 472.92 348.03 C 471.09 345.51 473.06 342.68 474.33 340.43 Z" />
<path fill="#ff4e72" opacity="1.00" d=" M 426.37 350.95 C 426.22 345.89 431.03 341.40 436.09 342.05 C 438.99 341.93 441.26 343.92 443.24 345.78 C 455.45 357.44 467.83 368.94 479.96 380.69 C 492.74 368.53 505.47 356.31 518.41 344.31 C 523.18 339.52 532.58 342.54 533.46 349.34 C 533.79 357.42 533.46 365.52 533.61 373.61 C 528.97 377.67 524.17 381.55 519.46 385.51 C 518.16 386.51 516.97 387.81 515.30 388.12 C 515.54 382.49 514.84 376.81 515.74 371.23 C 503.79 381.72 491.97 392.38 480.00 402.85 C 468.10 392.39 456.16 381.96 444.49 371.26 C 444.76 376.98 444.74 382.71 444.52 388.43 C 438.13 383.93 432.35 378.60 426.35 373.61 C 426.40 366.05 426.34 358.50 426.37 350.95 Z" />
<path fill="#ff4e72" opacity="1.00" d=" M 373.74 363.27 C 371.44 358.62 374.24 352.67 379.00 350.97 C 382.15 350.20 385.81 350.39 388.29 352.72 C 418.92 378.05 449.38 403.59 479.99 428.95 C 510.60 403.55 541.10 378.03 571.74 352.67 C 573.69 350.96 576.37 350.21 578.94 350.57 C 584.64 351.02 589.28 358.12 586.20 363.31 C 572.91 389.96 559.46 416.54 546.19 443.21 C 545.88 445.41 541.98 445.50 542.00 443.13 C 541.81 433.07 542.00 422.99 541.91 412.93 C 541.68 410.73 542.80 408.80 543.77 406.94 C 545.91 402.94 547.70 398.76 550.06 394.89 C 528.52 412.31 507.42 430.30 486.00 447.88 C 483.78 449.63 480.76 450.76 477.95 449.91 C 474.37 448.97 471.92 446.02 469.09 443.85 C 449.33 427.57 429.80 411.00 409.93 394.87 C 412.83 400.16 415.54 405.57 418.07 411.03 C 418.35 421.03 418.07 431.05 418.20 441.05 C 418.32 442.46 417.96 445.12 416.02 444.82 C 414.23 445.31 413.86 443.06 413.12 441.98 C 400.11 415.69 386.80 389.54 373.74 363.27 Z" />
<path fill="#ff4e72" opacity="1.00" d=" M 407.22 455.25 C 409.79 454.63 412.47 454.97 415.09 454.91 C 460.06 454.91 505.04 454.92 550.02 454.91 C 553.99 454.60 557.74 458.04 557.70 462.04 C 557.97 465.76 554.87 469.67 551.00 469.49 C 503.33 469.47 455.66 469.59 407.99 469.43 C 400.84 468.67 400.39 457.01 407.22 455.25 Z" />
<path fill="#ff4e72" opacity="1.00" d=" M 205.04 591.80 C 206.88 591.81 208.72 591.81 210.55 591.70 C 212.13 595.79 214.15 599.69 216.06 603.64 C 218.37 602.20 218.16 599.07 220.09 597.28 C 218.98 601.46 216.91 605.32 215.02 609.19 C 213.14 604.76 211.78 599.90 208.76 596.12 C 208.67 599.47 208.18 602.82 208.36 606.18 C 208.35 607.77 210.07 607.68 211.10 608.21 C 209.00 608.22 206.92 608.21 204.83 608.20 C 205.59 607.84 206.36 607.49 207.13 607.14 C 207.19 602.28 208.38 597.37 207.34 592.56 C 206.57 592.31 205.80 592.05 205.04 591.80 Z" />
<path fill="#ff4e72" opacity="1.00" d=" M 239.54 591.77 C 242.11 591.11 245.09 591.02 247.37 592.60 C 252.69 595.51 252.71 604.36 247.47 607.35 C 243.14 610.08 236.18 608.64 234.38 603.53 C 232.41 599.05 234.91 593.33 239.54 591.77 M 239.74 592.44 C 236.60 596.41 236.52 602.43 239.40 606.54 C 241.15 608.57 243.98 608.30 246.13 607.12 C 248.17 602.84 248.59 597.29 245.61 593.34 C 244.22 591.48 241.68 592.06 239.74 592.44 Z" />
<path fill="#ff4e72" opacity="1.00" d=" M 259.06 592.12 C 263.87 591.67 269.25 591.01 273.61 593.52 C 278.57 596.71 277.51 604.97 272.19 607.20 C 267.95 608.79 263.26 608.30 258.83 608.07 C 259.39 607.91 260.50 607.61 261.06 607.45 C 261.12 602.62 261.69 597.65 260.82 592.90 C 260.38 592.70 259.50 592.31 259.06 592.12 M 264.40 592.42 C 264.29 596.94 264.19 601.48 264.39 606.01 C 265.11 608.22 268.18 607.92 269.85 607.05 C 273.42 604.92 273.95 599.89 272.61 596.29 C 271.50 592.98 267.50 592.04 264.40 592.42 Z" />
<path fill="#ff4e72" opacity="1.00" d=" M 352.84 591.94 C 357.49 591.92 364.54 590.22 366.45 595.98 C 365.88 597.78 364.80 599.39 363.05 600.24 C 364.47 603.26 365.89 606.60 368.93 608.35 C 366.95 608.30 364.66 608.30 363.32 606.58 C 361.09 604.81 361.44 600.25 357.78 600.75 C 357.75 602.89 357.76 605.04 357.85 607.20 C 358.61 607.52 359.37 607.86 360.14 608.21 C 357.48 608.23 354.81 608.20 352.16 608.13 C 352.73 607.96 353.86 607.61 354.43 607.44 C 354.99 602.69 354.74 597.87 354.61 593.12 C 354.16 592.82 353.28 592.23 352.84 591.94 M 357.77 592.35 C 357.78 595.00 357.79 597.65 357.81 600.30 C 360.00 600.71 363.00 599.79 362.74 597.05 C 363.31 594.17 360.56 591.73 357.77 592.35 Z" />
<path fill="#ff4e72" opacity="1.00" d=" M 403.15 591.47 C 407.32 591.97 411.54 591.67 415.73 591.66 C 415.74 592.92 415.76 594.18 415.77 595.46 C 414.94 592.23 411.58 591.98 408.80 592.28 C 408.77 594.63 408.77 596.99 408.75 599.36 C 410.24 599.32 411.73 599.29 413.23 599.26 C 413.43 598.42 413.76 597.64 414.22 596.92 C 414.24 598.90 414.15 600.88 414.18 602.86 C 413.89 602.06 413.60 601.27 413.32 600.50 C 411.79 600.31 410.26 600.22 408.73 600.23 C 409.16 602.57 407.42 607.39 411.04 607.67 C 413.89 608.51 416.00 606.37 417.48 604.27 C 417.12 605.61 416.72 606.94 416.35 608.29 C 411.82 608.12 407.27 608.56 402.76 608.07 C 403.37 607.96 404.60 607.73 405.21 607.62 C 406.21 603.17 405.62 598.53 405.64 594.01 C 405.70 592.57 404.12 592.11 403.15 591.47 Z" />
<path fill="#ff4e72" opacity="1.00" d=" M 422.97 591.92 C 425.68 591.74 428.41 591.77 431.13 591.79 C 430.37 592.11 429.62 592.44 428.87 592.77 C 428.85 597.61 428.40 602.52 429.15 607.32 C 432.36 608.41 435.94 607.46 437.29 604.17 C 437.15 605.57 436.79 606.94 436.34 608.29 C 431.89 608.24 427.45 608.30 423.00 608.28 C 423.96 607.70 425.81 607.92 425.66 606.31 C 425.69 601.71 426.06 597.05 425.33 592.49 C 424.74 592.35 423.56 592.06 422.97 591.92 Z" />
<path fill="#ff4e72" opacity="1.00" d=" M 444.03 591.71 C 448.10 591.68 452.17 591.78 456.24 591.70 C 456.35 593.13 456.51 594.57 456.64 596.02 C 456.11 594.98 455.59 593.92 455.10 592.89 C 453.22 592.31 451.25 592.21 449.31 592.27 C 449.27 594.64 449.27 597.02 449.27 599.40 C 451.48 599.24 455.04 600.12 454.48 596.67 C 454.93 598.81 454.68 601.00 454.62 603.17 C 454.48 602.54 454.20 601.30 454.06 600.67 C 452.47 600.33 450.86 600.17 449.24 600.18 C 449.19 602.54 449.25 604.92 449.58 607.27 C 452.86 608.45 456.80 607.66 457.79 603.94 C 457.65 605.46 457.40 607.00 456.69 608.38 C 452.16 608.21 447.62 608.20 443.09 608.39 C 444.08 608.00 445.07 607.61 446.08 607.24 C 446.14 602.36 446.68 597.39 445.78 592.57 C 445.14 592.36 444.52 592.17 444.03 591.71 Z" />
<path fill="#ff4e72" opacity="1.00" d=" M 467.49 593.40 C 470.78 590.83 475.28 590.97 479.17 591.85 C 479.43 593.23 479.57 594.66 479.56 596.09 C 478.68 593.48 476.61 591.82 473.86 591.60 C 466.84 592.83 465.80 603.21 470.93 607.19 C 472.47 607.90 474.26 608.51 475.97 608.07 C 477.29 606.52 476.61 604.36 476.49 602.57 C 475.80 602.42 474.43 602.13 473.74 601.98 C 476.43 601.51 479.16 601.95 481.87 601.82 C 481.17 602.06 480.47 602.31 479.79 602.59 C 479.76 604.34 479.75 606.10 479.74 607.87 C 475.47 609.10 470.19 609.42 466.68 606.23 C 463.03 602.81 463.66 596.44 467.49 593.40 Z" />
<path fill="#ff4e72" opacity="1.00" d=" M 487.93 591.77 C 490.59 591.76 493.25 591.82 495.91 591.85 C 495.34 592.02 494.19 592.37 493.61 592.54 C 493.01 597.43 493.17 602.44 493.51 607.36 C 494.14 607.57 495.40 608.01 496.03 608.22 C 493.32 608.08 490.61 608.27 487.90 608.22 C 488.61 607.86 489.33 607.50 490.06 607.16 C 490.32 602.39 490.34 597.60 490.05 592.84 C 489.33 592.48 488.63 592.12 487.93 591.77 Z" />
<path fill="#ff4e72" opacity="1.00" d=" M 502.97 591.96 C 507.59 591.86 514.61 590.28 516.45 596.01 C 515.84 597.78 514.82 599.43 513.04 600.21 C 514.11 602.66 515.40 605.02 517.07 607.12 C 517.73 607.49 518.38 607.88 519.03 608.29 C 516.76 608.44 514.19 608.11 512.85 606.04 C 511.08 604.22 511.15 600.26 507.82 600.68 C 507.75 602.87 507.76 605.07 507.84 607.27 C 508.44 607.48 509.63 607.88 510.23 608.09 C 507.55 608.32 504.85 608.19 502.17 608.14 C 502.72 607.97 503.83 607.64 504.39 607.47 C 505.09 604.00 504.55 600.46 504.75 596.96 C 504.67 595.19 505.26 592.56 502.97 591.96 M 507.77 592.34 C 507.78 594.98 507.79 597.62 507.80 600.26 C 509.99 600.75 513.02 599.77 512.74 597.03 C 513.29 594.15 510.55 591.74 507.77 592.34 Z" />
<path fill="#ff4e72" opacity="1.00" d=" M 523.28 591.37 C 528.09 592.07 533.00 591.71 537.85 591.55 C 537.73 593.04 537.64 594.53 537.58 596.04 C 537.31 592.96 534.58 591.70 531.79 592.31 C 531.82 597.28 531.62 602.26 531.92 607.23 C 532.91 607.60 533.91 607.99 534.91 608.38 C 531.93 608.08 528.93 608.16 525.95 608.32 C 526.66 607.68 527.51 607.40 528.48 607.46 C 529.01 602.41 528.60 597.32 528.70 592.26 C 525.81 591.68 523.36 593.14 522.45 595.87 C 522.76 594.37 523.07 592.88 523.28 591.37 Z" />
<path fill="#ff4e72" opacity="1.00" d=" M 544.16 591.58 C 548.34 591.84 552.53 591.74 556.71 591.65 C 556.75 592.99 556.76 594.34 556.77 595.69 C 556.47 595.03 555.86 593.71 555.55 593.05 C 553.73 592.22 551.75 592.18 549.80 592.29 C 549.77 594.64 549.77 596.99 549.75 599.35 C 551.25 599.32 552.75 599.29 554.26 599.28 C 554.46 598.64 554.85 597.37 555.04 596.73 C 555.24 598.65 555.23 600.58 555.26 602.52 C 555.17 602.52 554.97 602.53 554.87 602.54 C 554.98 599.62 551.65 600.23 549.72 600.26 C 549.92 602.53 549.29 605.02 550.31 607.16 C 553.14 608.57 557.08 607.65 557.98 604.32 C 558.10 604.47 558.33 604.78 558.44 604.93 C 558.05 606.04 557.68 607.15 557.32 608.28 C 552.83 608.21 548.34 608.37 543.86 608.21 C 544.60 607.93 545.37 607.71 546.16 607.56 C 547.28 603.19 546.59 598.57 546.65 594.10 C 546.79 592.56 545.18 592.18 544.16 591.58 Z" />
<path fill="#ff4e72" opacity="1.00" d=" M 573.09 592.18 C 577.66 591.54 582.61 591.24 586.96 593.09 C 591.95 595.68 592.05 603.40 587.47 606.44 C 583.15 609.24 577.72 607.95 572.88 608.25 C 573.58 607.90 574.30 607.60 575.04 607.36 C 575.21 602.56 575.55 597.68 574.92 592.91 C 574.46 592.73 573.55 592.36 573.09 592.18 M 578.34 592.50 C 578.35 596.98 578.17 601.48 578.38 605.96 C 579.02 608.23 582.21 607.93 583.86 607.04 C 587.40 604.92 587.94 599.93 586.63 596.34 C 585.53 593.00 581.46 591.94 578.34 592.50 Z" />
<path fill="#ff4e72" opacity="1.00" d=" M 598.13 591.44 C 602.31 592.00 606.54 591.66 610.74 591.66 C 610.74 592.85 610.74 594.04 610.74 595.25 C 609.76 592.19 606.49 591.98 603.78 592.32 C 603.77 594.66 603.77 597.00 603.76 599.35 C 605.23 599.32 606.71 599.29 608.20 599.26 C 608.48 598.43 608.80 597.61 609.18 596.83 C 609.18 598.80 609.27 600.78 609.22 602.77 C 608.73 602.12 608.44 601.38 608.35 600.56 C 606.81 600.29 605.27 600.19 603.73 600.24 C 603.94 602.52 603.25 605.05 604.33 607.19 C 607.49 608.80 610.87 607.17 612.44 604.22 C 612.13 605.58 611.73 606.93 611.36 608.29 C 606.88 608.23 602.40 608.31 597.92 608.26 C 599.02 607.76 600.74 607.58 600.65 605.98 C 600.80 601.99 600.80 597.98 600.65 594.00 C 600.68 592.55 599.10 592.10 598.13 591.44 Z" />
<path fill="#ff4e72" opacity="1.00" d=" M 625.00 591.68 C 627.35 591.86 629.72 591.83 632.08 591.69 C 631.64 591.96 630.77 592.50 630.34 592.77 C 631.45 596.41 632.88 599.95 634.27 603.49 L 635.26 603.97 C 636.56 600.16 638.18 596.47 639.43 592.65 C 638.81 592.46 637.57 592.07 636.95 591.88 C 638.99 591.80 641.03 591.77 643.08 591.74 C 641.94 592.40 640.36 592.73 639.98 594.20 C 638.05 598.39 636.35 602.69 634.84 607.04 C 634.58 607.98 634.04 608.69 633.20 609.18 C 631.37 604.28 629.40 599.44 627.56 594.55 C 627.16 593.22 626.04 592.45 625.00 591.68 Z" />
<path fill="#ff4e72" opacity="1.00" d=" M 648.02 591.70 C 652.09 591.70 656.17 591.77 660.25 591.70 C 660.35 593.13 660.51 594.55 660.65 596.00 C 660.12 594.97 659.59 593.93 659.10 592.90 C 657.22 592.31 655.25 592.21 653.31 592.27 C 653.27 594.62 653.27 596.99 653.26 599.35 C 655.66 599.78 658.25 599.49 658.75 596.67 C 658.66 598.83 658.58 600.99 658.63 603.16 C 658.79 599.89 655.55 600.11 653.24 600.19 C 653.19 602.55 653.25 604.92 653.58 607.27 C 656.85 608.47 660.78 607.63 661.81 603.95 C 661.57 605.36 661.35 606.79 661.16 608.22 C 656.51 608.50 651.82 607.85 647.21 608.68 C 647.97 607.93 648.92 607.20 650.09 607.34 C 650.14 602.43 650.66 597.43 649.80 592.58 C 649.14 592.37 648.51 592.19 648.02 591.70 Z" />
<path fill="#ff4e72" opacity="1.00" d=" M 668.90 591.95 C 673.53 591.90 680.59 590.24 682.45 596.00 C 681.87 597.80 680.78 599.39 679.05 600.24 C 680.56 603.18 681.76 606.91 685.13 608.22 C 683.06 608.36 680.67 608.35 679.28 606.54 C 677.11 604.73 677.38 600.33 673.80 600.65 C 673.75 602.86 673.76 605.07 673.84 607.29 C 674.42 607.47 675.59 607.83 676.17 608.01 C 673.48 608.51 670.72 607.98 668.02 608.29 C 669.52 607.95 671.22 606.90 670.76 605.06 C 670.53 601.09 671.09 597.03 670.47 593.12 C 670.07 592.83 669.29 592.24 668.90 591.95 M 673.76 592.40 C 673.78 595.00 673.79 597.61 673.80 600.22 C 674.37 600.24 675.52 600.28 676.10 600.30 C 681.00 599.31 678.63 590.79 673.76 592.40 Z" />
<path fill="#ff4e72" opacity="1.00" d=" M 691.18 592.22 C 695.45 591.38 700.17 591.35 704.26 593.03 C 709.63 595.45 709.58 603.91 704.54 606.70 C 700.12 609.13 694.84 607.97 690.03 608.25 C 694.12 607.81 692.37 602.83 692.73 599.99 C 692.35 597.42 693.87 593.87 691.18 592.22 M 695.78 592.58 C 695.79 597.11 695.87 601.65 695.73 606.19 C 696.83 607.20 698.37 608.25 699.93 607.44 C 704.41 606.66 705.33 601.11 704.47 597.39 C 703.79 593.50 699.34 591.62 695.78 592.58 Z" />
<path fill="#ff4e72" opacity="1.00" d=" M 737.04 592.20 C 741.63 591.52 746.59 591.25 750.96 593.08 C 755.94 595.68 756.06 603.38 751.49 606.43 C 747.19 609.24 741.77 607.95 736.94 608.26 C 737.63 607.95 738.33 607.65 739.04 607.36 C 739.26 602.56 739.46 597.71 738.99 592.93 C 738.50 592.75 737.53 592.38 737.04 592.20 M 742.39 592.43 C 742.29 596.95 742.19 601.49 742.38 606.01 C 743.11 608.23 746.19 607.90 747.87 607.05 C 751.42 604.89 751.95 599.88 750.60 596.28 C 749.49 592.97 745.48 592.03 742.39 592.43 Z" />
<path fill="#ff4e72" opacity="1.00" d=" M 221.98 591.80 C 222.97 591.81 224.95 591.81 225.94 591.81 C 224.03 593.72 224.72 596.57 224.68 598.98 C 224.92 602.08 224.06 605.42 225.73 608.26 C 224.62 608.25 222.40 608.23 221.29 608.21 C 222.19 604.41 221.62 600.45 221.69 596.59 C 221.35 596.31 220.67 595.73 220.34 595.44 C 220.75 594.53 221.57 592.71 221.98 591.80 Z" />
<path fill="#ff4e72" opacity="1.00" d=" M 289.65 592.63 C 290.22 592.48 291.38 592.16 291.96 592.01 C 293.41 597.15 295.44 602.10 297.02 607.20 C 297.96 607.58 298.90 607.96 299.85 608.35 C 297.22 608.12 294.59 608.15 291.96 608.29 C 292.39 608.02 293.25 607.49 293.67 607.23 C 293.24 605.67 292.80 604.13 292.31 602.60 C 290.55 602.66 288.78 602.68 287.02 602.71 C 286.52 604.25 286.03 605.80 285.62 607.38 C 286.42 607.63 287.21 607.90 288.01 608.18 C 286.08 608.19 284.16 608.22 282.23 608.28 L 282.19 607.81 C 282.67 607.76 283.64 607.64 284.12 607.59 C 285.51 604.62 286.63 601.55 287.56 598.42 C 287.77 599.52 287.93 600.64 288.06 601.78 C 289.34 601.71 290.63 601.67 291.93 601.65 C 291.24 599.48 290.92 597.09 289.23 595.40 L 288.85 597.53 C 288.70 597.60 288.41 597.74 288.27 597.81 C 288.40 596.01 289.19 594.35 289.65 592.63 Z" />
<path fill="#ff4e72" opacity="1.00" d=" M 314.01 591.87 C 315.91 591.84 317.82 591.75 319.73 591.58 C 317.76 596.58 319.12 602.23 318.90 607.51 C 319.46 607.63 320.58 607.86 321.14 607.98 C 318.48 608.48 315.75 608.05 313.06 608.15 C 313.63 607.98 314.78 607.64 315.36 607.46 C 316.02 602.97 315.70 598.40 315.67 593.88 C 315.26 593.38 314.42 592.37 314.01 591.87 Z" />
<path fill="#ff4e72" opacity="1.00" d=" M 320.58 592.02 C 323.65 591.65 327.48 593.47 327.20 597.05 C 326.75 599.98 323.75 601.03 321.20 601.41 C 324.77 599.24 324.62 593.58 320.58 592.02 Z" />
<path fill="#ff4e72" opacity="1.00" d=" M 336.67 594.17 C 336.97 592.84 338.23 592.12 339.20 591.32 C 340.66 596.24 342.39 601.09 344.16 605.92 C 344.41 607.41 345.87 607.76 347.07 608.24 C 344.41 608.22 341.76 608.11 339.11 608.25 C 339.78 607.99 340.45 607.71 341.11 607.42 C 340.77 605.88 340.44 604.34 340.13 602.80 C 338.33 602.67 336.53 602.65 334.74 602.60 C 333.97 604.11 333.41 605.72 333.08 607.39 C 333.60 607.54 334.66 607.82 335.19 607.97 C 333.47 608.35 331.69 608.23 329.95 608.27 C 330.76 607.63 331.99 607.33 332.26 606.21 C 333.88 602.25 335.37 598.24 336.67 594.17 M 336.73 595.73 C 336.08 597.70 335.53 599.70 335.04 601.74 C 336.15 601.70 338.37 601.63 339.48 601.60 C 338.58 599.68 338.74 596.90 336.73 595.73 Z" />
<path fill="#ff4e72" opacity="1.00" d=" M 380.00 593.09 C 380.55 592.64 381.67 591.75 382.22 591.30 C 383.95 596.77 385.52 602.37 388.02 607.53 C 388.44 607.60 389.28 607.75 389.71 607.82 C 389.69 607.95 389.65 608.21 389.63 608.34 C 387.11 608.15 384.58 608.13 382.06 608.25 C 382.74 607.98 383.42 607.71 384.11 607.45 C 383.78 605.89 383.43 604.33 383.11 602.78 C 381.32 602.68 379.54 602.66 377.76 602.59 C 376.99 604.08 376.44 605.67 376.09 607.33 C 376.59 607.54 377.59 607.96 378.10 608.18 C 376.39 608.22 374.68 608.22 372.98 608.28 C 373.77 607.64 374.95 607.32 375.25 606.24 C 376.98 601.91 378.71 597.57 380.00 593.09 M 379.71 595.78 C 379.09 597.74 378.53 599.72 378.02 601.72 C 379.14 601.69 381.37 601.62 382.49 601.59 C 381.55 599.72 381.78 596.84 379.71 595.78 Z" />
<path fill="#ff4e72" opacity="1.00" d=" M 721.62 592.65 C 722.20 592.49 723.37 592.16 723.95 592.00 C 725.41 597.14 727.44 602.09 729.01 607.20 C 729.94 607.57 730.88 607.94 731.83 608.32 C 729.18 608.15 726.52 608.13 723.87 608.28 C 724.33 608.02 725.25 607.50 725.71 607.24 C 725.23 605.68 724.79 604.13 724.30 602.60 C 722.53 602.66 720.77 602.69 719.03 602.71 C 718.49 604.26 718.01 605.82 717.66 607.43 C 718.44 607.66 719.23 607.90 720.03 608.16 C 717.98 608.22 715.94 608.24 713.91 608.18 C 714.64 607.92 715.38 607.68 716.14 607.45 C 717.70 604.49 718.56 601.24 719.72 598.12 C 719.70 598.95 719.65 600.59 719.62 601.41 C 720.98 601.92 722.50 601.60 723.94 601.69 C 723.11 599.71 723.31 596.93 721.12 595.86 C 720.80 596.65 720.16 598.23 719.85 599.02 C 720.34 596.86 721.04 594.77 721.62 592.65 Z" />
</g>
<g id="#010101e9">
<path fill="#010101" opacity="0.91" d=" M 123.31 499.03 C 124.65 498.95 125.60 499.81 125.93 501.08 C 132.63 516.71 139.49 532.26 146.20 547.89 C 146.65 548.85 147.17 549.78 147.74 550.69 C 154.96 534.18 162.07 517.62 169.23 501.08 C 169.63 499.88 170.37 498.86 171.78 499.07 C 176.35 518.59 180.28 538.26 184.67 557.82 C 185.06 559.46 185.37 561.15 185.41 562.86 C 183.55 563.12 181.68 563.51 179.79 563.27 C 176.50 547.51 172.78 531.83 169.66 516.04 C 168.91 516.87 168.33 517.81 167.93 518.85 C 161.56 533.88 154.94 548.80 148.60 563.83 C 148.08 563.81 147.05 563.76 146.54 563.74 C 140.37 548.94 133.75 534.33 127.49 519.56 C 126.96 518.30 126.30 517.12 125.59 515.97 C 122.45 531.06 119.06 546.08 115.86 561.15 C 115.87 564.52 111.37 563.56 109.72 562.13 C 114.06 541.06 118.67 520.04 123.31 499.03 Z" />
<path fill="#010101" opacity="0.91" d=" M 339.41 499.52 C 353.82 495.57 370.09 502.99 376.80 516.27 C 381.60 525.41 381.73 536.80 377.15 546.05 C 372.11 556.36 361.44 563.68 349.95 564.40 C 333.52 565.99 317.41 553.35 315.00 537.04 C 311.79 520.66 323.18 503.26 339.41 499.52 M 339.54 505.66 C 335.83 506.83 332.38 508.78 329.48 511.37 C 319.51 519.95 317.49 536.06 325.21 546.76 C 332.54 557.98 348.66 561.91 360.32 555.28 C 372.48 549.11 378.09 533.05 372.29 520.67 C 367.19 508.34 352.22 501.49 339.54 505.66 Z" />
<path fill="#010101" opacity="0.91" d=" M 421.28 499.08 C 422.69 498.85 423.52 499.80 423.91 501.06 C 431.02 517.61 438.30 534.09 445.39 550.65 C 446.68 549.03 447.34 547.06 448.15 545.19 C 454.52 530.49 460.88 515.77 467.23 501.07 C 467.64 499.86 468.37 498.85 469.78 499.07 C 474.70 520.10 478.87 541.29 483.71 562.33 C 481.87 563.22 479.84 563.52 477.83 563.33 C 474.46 547.71 470.98 532.11 467.66 516.48 C 466.86 517.11 466.28 517.91 465.92 518.86 C 459.67 533.58 453.24 548.23 446.94 562.94 C 446.65 564.26 444.43 564.36 444.26 562.86 C 437.27 547.28 430.99 531.33 423.57 515.97 C 420.40 531.33 416.96 546.64 413.66 561.98 C 412.84 564.79 409.40 562.81 407.52 562.34 C 412.22 541.28 416.56 520.13 421.28 499.08 Z" />
<path fill="#010101" opacity="0.91" d=" M 721.62 512.51 C 728.75 502.50 741.79 497.10 753.90 499.53 C 760.21 500.68 766.20 503.78 770.73 508.33 C 771.82 510.49 768.68 511.81 767.67 513.35 C 760.67 506.22 749.84 503.02 740.22 506.14 C 728.14 509.59 719.80 522.45 721.68 534.89 C 723.02 547.03 733.76 557.22 745.95 557.94 C 754.04 558.74 761.99 555.27 767.67 549.63 C 768.67 551.17 771.85 552.49 770.71 554.67 C 762.54 562.96 749.63 566.11 738.54 562.58 C 728.86 559.68 720.76 551.97 717.41 542.43 C 713.82 532.57 715.43 521.00 721.62 512.51 Z" />
<path fill="#010101" opacity="0.91" d=" M 809.13 499.22 C 815.95 497.78 823.23 498.53 829.58 501.43 C 840.39 506.21 848.12 517.16 848.94 528.97 C 850.20 542.75 841.66 556.65 828.88 561.88 C 820.28 565.59 810.11 565.31 801.70 561.22 C 790.01 555.73 782.36 542.94 783.01 530.05 C 783.51 515.42 794.76 502.08 809.13 499.22 M 808.45 505.54 C 794.55 509.27 785.63 525.23 790.03 539.01 C 793.62 552.42 808.58 561.31 822.07 557.82 C 836.77 554.87 846.65 538.25 841.98 523.94 C 838.26 509.98 822.24 501.17 808.45 505.54 Z" />
<path fill="#010101" opacity="0.91" d=" M 199.85 500.14 C 210.21 499.80 220.58 500.12 230.94 499.97 C 232.24 500.19 234.46 499.40 234.99 501.13 C 235.11 502.59 235.37 504.24 234.64 505.60 C 233.22 506.28 231.56 505.91 230.04 506.03 C 221.90 505.97 213.76 506.01 205.62 506.00 C 205.56 513.00 205.57 520.00 205.61 527.00 C 214.45 527.02 223.29 526.96 232.12 527.02 C 235.14 526.65 234.53 530.93 233.80 532.69 C 224.46 533.42 215.00 532.79 205.61 533.00 C 205.56 541.00 205.57 549.00 205.61 557.00 C 215.04 557.09 224.48 556.83 233.91 557.11 C 235.84 557.92 235.91 563.33 233.03 562.98 C 222.01 562.99 210.99 563.08 199.97 562.92 C 199.66 561.62 199.50 560.32 199.50 559.00 C 199.57 543.35 199.51 527.70 199.53 512.05 C 199.64 508.08 199.22 504.08 199.85 500.14 Z" />
<path fill="#010101" opacity="0.91" d=" M 268.09 501.93 C 268.11 499.17 272.63 499.34 273.96 500.95 C 274.15 519.62 273.98 538.30 274.04 556.97 C 284.08 557.09 294.13 556.86 304.17 557.10 C 304.66 559.02 304.69 561.00 304.14 562.92 C 292.73 563.09 281.32 562.98 269.91 562.98 C 268.31 563.24 267.86 561.29 268.05 560.11 C 268.10 540.71 268.01 521.32 268.09 501.93 Z" />
<path fill="#010101" opacity="0.91" d=" M 497.51 503.98 C 497.69 502.72 496.93 500.07 498.97 500.10 C 509.66 499.86 520.37 500.05 531.06 500.01 C 533.93 499.77 533.85 505.06 531.88 505.91 C 522.46 506.15 513.03 505.92 503.61 506.00 C 503.57 513.00 503.55 520.00 503.62 527.00 C 512.42 527.02 521.22 526.97 530.02 527.01 C 533.38 526.63 532.13 530.87 531.96 532.87 C 522.52 533.16 513.07 532.92 503.62 533.00 C 503.55 541.00 503.57 549.00 503.61 557.00 C 513.08 557.06 522.55 556.88 532.02 557.07 C 533.83 558.22 533.89 563.17 531.06 562.99 C 520.07 562.84 509.04 563.36 498.09 562.72 L 497.63 561.89 C 497.38 542.59 497.63 523.28 497.51 503.98 Z" />
<path fill="#010101" opacity="0.91" d=" M 549.87 500.12 C 557.60 500.07 565.39 499.57 573.09 500.44 C 579.89 501.41 586.69 505.44 589.23 512.08 C 592.08 519.82 590.39 529.43 584.09 535.02 C 581.49 537.60 578.06 539.05 574.65 540.21 C 579.32 547.03 584.84 553.24 589.60 559.99 C 590.04 562.20 587.01 563.28 585.34 564.14 C 579.67 556.32 573.45 548.93 567.75 541.13 C 563.71 540.87 559.66 541.05 555.62 541.00 C 555.23 548.31 556.23 555.74 555.10 562.97 C 553.25 562.75 549.32 564.04 549.55 560.96 C 549.49 542.97 549.56 524.97 549.52 506.98 C 549.46 504.68 549.45 502.38 549.87 500.12 M 555.62 506.00 C 555.55 515.66 555.57 525.33 555.61 535.00 C 563.11 534.49 571.48 536.65 578.18 532.23 C 586.17 527.35 587.31 513.23 578.60 508.50 C 571.55 504.70 563.27 506.38 555.62 506.00 Z" />
<path fill="#010101" opacity="0.91" d=" M 605.88 500.12 C 616.93 499.85 627.98 500.06 639.03 500.00 C 641.74 499.77 641.16 503.16 640.98 504.88 C 640.49 506.56 638.29 505.79 637.04 506.03 C 628.56 505.97 620.09 506.01 611.61 506.00 C 611.56 513.00 611.57 520.00 611.61 527.00 C 621.05 527.07 630.49 526.86 639.93 527.10 C 640.32 529.01 640.35 530.96 639.96 532.87 C 630.51 533.17 621.06 532.92 611.61 533.00 C 611.56 541.00 611.56 549.00 611.61 557.00 C 621.08 557.06 630.57 556.88 640.04 557.08 C 641.80 558.22 641.22 560.96 640.61 562.62 C 639.17 563.26 637.54 562.92 636.03 563.03 C 625.98 562.90 615.93 563.16 605.89 562.89 C 605.30 559.93 605.55 556.91 605.53 553.92 C 605.52 538.63 605.53 523.34 605.53 508.06 C 605.49 505.40 605.38 502.74 605.88 500.12 Z" />
<path fill="#010101" opacity="0.91" d=" M 660.90 505.86 C 660.66 503.82 659.52 499.57 662.95 500.01 C 675.62 499.97 688.30 500.03 700.98 499.98 C 702.27 500.02 704.62 499.75 704.00 501.82 C 691.48 520.31 678.54 538.53 665.93 556.97 C 677.25 557.10 688.59 556.85 699.91 557.08 C 701.62 558.53 701.06 561.30 700.08 563.05 C 686.71 562.95 673.34 563.00 659.97 563.03 C 658.64 562.72 656.29 563.64 655.79 561.90 C 656.38 559.78 658.05 558.18 659.21 556.35 C 670.76 539.55 682.54 522.90 693.97 506.02 C 682.94 505.89 671.92 506.19 660.90 505.86 Z" />
</g>
</svg>
