<?xml version="1.0" encoding="UTF-8" ?>
<!DOCTYPE svg PUBLIC "-//W3C//DTD SVG 1.1//EN" "http://www.w3.org/Graphics/SVG/1.1/DTD/svg11.dtd">
<svg width="960pt" height="960pt" viewBox="0 0 960 960" version="1.1" xmlns="http://www.w3.org/2000/svg">
<g id="#000000ff">
<path fill="#000000" opacity="1.00" d=" M 472.47 344.15 C 474.56 339.82 476.66 335.36 479.97 331.81 C 483.09 335.43 485.33 339.72 487.33 344.03 C 488.51 347.72 485.01 350.37 483.08 353.03 C 481.95 354.26 480.08 356.83 478.43 354.78 C 476.04 351.65 471.43 348.54 472.47 344.15 Z" />
<path fill="#000000" opacity="1.00" d=" M 426.38 350.93 C 426.23 345.89 431.00 341.44 436.03 342.04 C 438.94 341.93 441.25 343.91 443.24 345.78 C 455.46 357.43 467.81 368.94 479.96 380.68 C 492.75 368.54 505.46 356.31 518.39 344.32 C 523.17 339.54 532.59 342.53 533.44 349.34 C 533.84 357.42 533.44 365.53 533.61 373.63 C 527.57 378.62 521.81 383.98 515.38 388.46 C 515.27 382.77 515.26 377.09 515.40 371.40 C 503.69 382.00 491.82 392.41 479.99 402.86 C 468.13 392.43 456.26 382.00 444.57 371.37 C 444.71 377.07 444.68 382.77 444.60 388.47 C 438.16 383.98 432.39 378.62 426.34 373.62 C 426.42 366.05 426.29 358.49 426.38 350.93 Z" />
<path fill="#000000" opacity="1.00" d=" M 373.79 363.34 C 370.86 357.75 375.70 350.15 382.02 350.58 C 386.21 350.13 389.13 353.50 392.10 355.86 C 421.43 380.18 450.67 404.62 479.99 428.96 C 509.30 404.60 538.57 380.18 567.90 355.84 C 570.84 353.46 573.76 350.22 577.90 350.49 C 584.05 350.25 589.46 357.75 586.19 363.31 C 572.65 390.49 558.95 417.59 545.39 444.76 C 544.34 444.73 543.30 444.70 542.27 444.68 C 541.63 433.46 541.88 422.17 542.09 410.95 C 544.18 405.30 547.35 400.09 550.08 394.72 C 528.85 412.25 507.73 429.91 486.53 447.46 C 484.41 449.20 481.69 450.56 478.89 450.11 C 474.87 449.45 472.10 446.22 469.05 443.83 C 449.33 427.52 429.75 411.04 409.95 394.84 C 412.71 400.19 415.67 405.47 417.99 411.02 C 418.41 421.34 418.11 431.70 418.15 442.04 C 418.44 444.28 416.46 444.92 414.65 444.96 C 401.09 417.72 387.33 390.58 373.79 363.34 Z" />
<path fill="#000000" opacity="1.00" d=" M 407.22 455.26 C 410.43 454.61 413.73 454.97 416.97 454.91 C 461.34 454.93 505.71 454.89 550.08 454.93 C 554.04 454.63 557.77 458.08 557.70 462.07 C 557.97 465.79 554.84 469.68 550.96 469.47 C 503.66 469.53 456.35 469.51 409.06 469.48 C 401.15 469.95 399.87 457.11 407.22 455.26 Z" />
<path fill="#000000" opacity="1.00" d=" M 123.32 499.11 C 123.79 499.21 124.75 499.40 125.23 499.49 C 132.65 516.65 139.87 533.93 147.70 550.91 C 154.82 534.59 161.87 518.24 168.92 501.89 C 169.39 500.50 170.23 499.32 171.67 498.84 C 176.62 520.01 180.87 541.35 185.67 562.56 C 183.75 562.94 181.82 563.26 179.88 563.45 C 176.39 547.52 173.14 531.53 169.34 515.67 C 162.30 531.68 155.45 547.77 148.50 563.82 C 148.05 563.81 147.14 563.79 146.68 563.78 C 139.71 547.73 132.86 531.63 125.71 515.67 C 122.69 529.07 119.85 542.50 116.94 555.93 C 116.36 558.38 116.09 560.96 115.01 563.28 C 113.17 563.47 111.37 562.84 109.57 562.55 C 114.18 541.41 118.63 520.23 123.32 499.11 Z" />
<path fill="#000000" opacity="1.00" d=" M 339.38 499.58 C 356.34 494.72 375.50 506.25 379.44 523.36 C 384.02 539.53 373.85 557.85 357.86 562.77 C 342.77 568.17 324.73 560.44 317.94 546.01 C 311.85 534.01 314.19 518.32 323.74 508.79 C 327.91 504.26 333.42 501.09 339.38 499.58 M 339.37 505.66 C 324.75 509.89 316.23 527.63 322.38 541.64 C 327.59 555.40 344.90 562.59 358.28 556.34 C 371.44 550.99 378.34 534.45 372.65 521.38 C 367.77 508.57 352.38 501.27 339.37 505.66 Z" />
<path fill="#000000" opacity="1.00" d=" M 421.47 498.77 C 423.63 499.60 424.21 501.97 425.09 503.87 C 431.83 519.57 438.69 535.22 445.48 550.90 C 453.19 534.48 459.94 517.63 467.31 501.06 C 467.61 499.87 468.65 499.31 469.69 498.87 C 474.61 520.04 478.88 541.35 483.67 562.55 C 481.74 562.94 479.81 563.27 477.86 563.43 C 474.48 547.52 470.98 531.64 467.49 515.75 C 460.11 531.59 453.53 547.81 446.51 563.82 C 446.05 563.80 445.11 563.76 444.65 563.74 C 437.72 547.69 430.83 531.62 423.72 515.66 C 420.54 529.79 417.51 543.95 414.48 558.11 C 414.03 559.76 413.95 561.61 413.03 563.10 C 411.28 563.83 409.36 562.69 407.57 562.53 C 412.26 541.29 416.58 519.96 421.47 498.77 Z" />
<path fill="#000000" opacity="1.00" d=" M 720.78 513.80 C 725.95 506.00 734.50 500.39 743.86 499.32 C 753.58 497.98 763.89 501.41 770.75 508.45 C 771.49 510.66 768.65 511.81 767.62 513.37 C 760.77 506.07 749.83 503.04 740.25 506.08 C 728.78 509.37 720.55 521.08 721.45 533.00 C 721.92 545.16 731.82 556.06 743.86 557.74 C 752.40 559.16 761.48 556.12 767.37 549.76 C 768.78 550.99 770.54 552.07 771.15 553.96 C 762.92 563.28 748.70 566.28 737.13 562.07 C 728.10 558.86 720.63 551.47 717.45 542.41 C 714.03 533.04 715.33 522.14 720.78 513.80 Z" />
<path fill="#000000" opacity="1.00" d=" M 809.22 499.26 C 824.25 495.76 840.79 504.57 846.45 518.87 C 850.02 527.37 849.76 537.35 845.77 545.66 C 840.65 556.62 829.11 564.20 817.00 564.44 C 802.18 565.12 787.81 554.49 784.23 540.09 C 780.24 526.47 786.51 510.91 798.56 503.54 C 801.83 501.50 805.47 500.10 809.22 499.26 M 808.33 505.52 C 796.56 508.81 788.07 520.81 788.96 533.01 C 789.43 544.76 798.48 555.45 809.97 557.89 C 820.17 560.34 831.51 556.17 837.71 547.72 C 844.25 539.22 844.90 526.80 839.30 517.66 C 833.30 507.19 819.85 501.94 808.33 505.52 Z" />
<path fill="#000000" opacity="1.00" d=" M 200.14 500.30 C 207.07 499.75 214.04 500.23 220.99 500.08 C 225.54 500.22 230.13 499.70 234.65 500.36 C 235.27 502.06 235.25 503.96 234.62 505.67 C 224.96 506.29 215.24 505.74 205.55 505.93 C 205.52 512.97 205.52 520.02 205.55 527.07 C 214.95 527.24 224.37 526.74 233.74 527.30 C 234.58 528.93 234.45 530.99 233.81 532.68 C 224.42 533.27 214.97 532.74 205.55 532.93 C 205.52 540.98 205.52 549.02 205.55 557.07 C 215.24 557.26 224.96 556.71 234.61 557.33 C 235.27 559.03 235.26 560.95 234.62 562.67 C 227.77 563.30 220.86 562.74 213.98 562.92 C 209.36 562.80 204.71 563.24 200.11 562.68 C 199.26 561.27 199.67 559.52 199.54 557.98 C 199.60 540.32 199.60 522.66 199.54 505.00 C 199.66 503.44 199.26 501.69 200.14 500.30 Z" />
<path fill="#000000" opacity="1.00" d=" M 268.17 501.99 C 268.13 499.17 271.71 499.97 273.52 500.34 C 274.23 501.77 273.96 503.45 274.07 505.01 C 274.01 522.37 274.03 539.72 274.05 557.07 C 284.13 557.11 294.21 557.00 304.28 557.13 C 304.42 559.03 304.43 560.94 304.31 562.85 C 292.88 562.98 281.43 562.94 270.00 562.90 C 268.37 563.20 267.98 561.24 268.13 560.07 C 268.18 540.71 268.08 521.35 268.17 501.99 Z" />
<path fill="#000000" opacity="1.00" d=" M 498.13 500.31 C 505.06 499.74 512.04 500.24 519.00 500.08 C 523.54 500.23 528.13 499.69 532.64 500.37 C 533.28 502.06 533.24 503.95 532.64 505.66 C 522.97 506.30 513.24 505.73 503.55 505.93 C 503.52 512.97 503.52 520.02 503.55 527.07 C 512.96 527.25 522.40 526.73 531.79 527.31 C 532.50 528.98 532.50 531.00 531.80 532.68 C 522.41 533.27 512.96 532.75 503.55 532.93 C 503.52 540.97 503.52 549.02 503.55 557.07 C 513.24 557.27 522.97 556.70 532.64 557.34 C 533.24 559.02 533.25 560.90 532.68 562.61 C 527.83 563.35 522.89 562.74 518.01 562.92 C 511.39 562.76 504.74 563.26 498.15 562.69 C 497.22 561.31 497.68 559.54 497.54 557.99 C 497.59 540.34 497.60 522.68 497.54 505.03 C 497.66 503.46 497.26 501.71 498.13 500.31 Z" />
<path fill="#000000" opacity="1.00" d=" M 550.12 500.32 C 553.39 499.84 556.71 500.11 560.01 500.07 C 565.58 500.14 571.30 499.61 576.70 501.32 C 582.39 502.95 587.58 507.08 589.45 512.83 C 591.84 520.22 590.25 529.12 584.52 534.57 C 581.79 537.42 578.08 538.97 574.44 540.29 C 579.55 547.24 585.34 553.71 590.01 560.98 C 588.61 562.06 587.22 563.16 585.83 564.26 C 580.03 557.34 574.70 550.03 569.12 542.93 C 568.31 542.02 567.54 540.66 566.09 540.95 C 562.58 540.80 559.06 540.96 555.55 540.94 C 555.36 548.05 555.84 555.19 555.34 562.28 C 553.78 563.44 549.55 563.80 549.61 561.05 C 549.49 542.36 549.65 523.67 549.54 504.98 C 549.67 503.43 549.25 501.70 550.12 500.32 M 555.55 505.93 C 555.52 515.64 555.52 525.36 555.55 535.07 C 563.08 534.60 571.49 536.67 578.21 532.26 C 586.25 527.37 587.37 513.16 578.60 508.44 C 571.53 504.70 563.22 506.26 555.55 505.93 Z" />
<path fill="#000000" opacity="1.00" d=" M 606.14 500.31 C 613.08 499.74 620.06 500.23 627.02 500.08 C 631.77 500.22 636.59 499.61 641.29 500.60 C 641.10 502.28 641.01 503.98 640.65 505.64 C 630.99 506.33 621.25 505.71 611.55 505.93 C 611.52 512.97 611.52 520.02 611.55 527.07 C 620.96 527.25 630.39 526.74 639.78 527.31 C 640.49 528.96 640.54 531.05 639.76 532.69 C 630.38 533.26 620.95 532.75 611.55 532.93 C 611.52 540.97 611.52 549.02 611.55 557.07 C 621.24 557.26 630.96 556.70 640.62 557.33 C 641.25 559.02 641.27 560.92 640.65 562.63 C 630.45 563.34 620.17 562.70 609.95 562.95 C 608.40 562.73 605.34 563.57 605.62 561.03 C 605.48 542.37 605.66 523.70 605.54 505.04 C 605.67 503.47 605.22 501.69 606.14 500.31 Z" />
<path fill="#000000" opacity="1.00" d=" M 661.08 500.33 C 675.42 499.81 689.82 500.07 704.18 500.22 C 703.78 501.39 703.46 502.62 702.77 503.66 C 690.48 521.48 678.05 539.20 665.84 557.06 C 677.20 557.18 688.58 556.90 699.94 557.18 C 701.64 558.66 700.58 561.10 700.30 562.98 C 685.46 562.75 670.61 563.16 655.78 562.77 C 656.49 559.62 658.72 557.20 660.48 554.59 C 671.68 538.37 682.99 522.21 694.13 505.94 C 683.74 505.86 673.35 506.01 662.96 505.89 C 659.81 506.44 660.31 502.18 661.08 500.33 Z" />
<path fill="#000000" opacity="1.00" d=" M 205.06 591.79 C 206.90 591.79 208.74 591.79 210.59 591.79 C 212.36 595.91 213.91 600.20 216.63 603.82 C 217.76 601.90 218.24 599.48 219.87 597.93 C 218.90 601.89 216.61 605.41 215.18 609.23 C 213.20 604.71 211.51 600.05 208.89 595.85 C 208.47 599.69 208.19 603.58 208.54 607.44 C 209.48 607.67 210.42 607.90 211.36 608.15 C 209.12 608.17 206.88 608.19 204.65 608.21 C 205.48 607.85 206.31 607.50 207.14 607.16 C 207.40 602.32 208.01 597.48 207.55 592.64 C 206.72 592.35 205.89 592.07 205.06 591.79 Z" />
<path fill="#000000" opacity="1.00" d=" M 221.96 591.80 C 223.79 591.82 225.61 591.84 227.44 591.88 C 226.76 592.11 225.39 592.56 224.71 592.78 C 224.78 597.94 224.15 603.20 225.48 608.26 C 224.48 608.24 222.47 608.20 221.47 608.18 C 221.90 604.12 221.73 600.04 221.74 595.96 C 221.29 596.21 220.39 596.70 219.94 596.94 C 220.54 595.20 221.25 593.50 221.96 591.80 Z" />
<path fill="#000000" opacity="1.00" d=" M 240.45 591.55 C 245.72 590.04 251.83 594.32 251.33 599.99 C 251.68 604.31 248.12 608.20 243.88 608.60 C 239.87 609.29 235.19 607.03 234.17 602.89 C 232.50 598.24 235.56 592.50 240.45 591.55 M 241.17 592.13 C 236.75 593.81 236.82 600.03 238.02 603.88 C 238.62 607.37 243.03 609.47 245.88 607.08 C 248.41 603.26 248.38 597.83 246.05 593.93 C 245.14 592.18 242.95 591.69 241.17 592.13 Z" />
<path fill="#000000" opacity="1.00" d=" M 259.89 591.89 C 264.45 591.86 269.49 591.04 273.59 593.52 C 278.27 596.51 277.68 604.17 272.94 606.78 C 268.55 609.09 263.38 608.01 258.64 608.23 C 259.46 607.93 260.28 607.64 261.10 607.37 C 261.29 602.86 261.22 598.36 261.24 593.86 C 260.90 593.37 260.23 592.38 259.89 591.89 M 264.44 592.97 C 264.20 597.50 264.09 602.09 264.53 606.62 C 266.98 608.90 271.16 607.26 272.33 604.38 C 273.96 600.81 273.77 595.22 269.86 593.24 C 268.27 592.71 265.69 591.43 264.44 592.97 Z" />
<path fill="#000000" opacity="1.00" d=" M 352.70 591.95 C 357.52 591.86 364.40 590.33 366.64 596.03 C 365.75 597.70 364.55 599.17 363.12 600.41 C 364.43 603.48 366.18 606.35 368.68 608.60 C 366.65 608.10 364.11 608.07 362.91 606.06 C 361.26 604.12 360.97 600.57 357.81 600.57 C 357.78 602.77 357.77 604.97 357.78 607.18 C 358.43 607.43 359.71 607.92 360.36 608.17 C 357.64 608.15 354.93 608.19 352.22 608.39 C 353.06 607.92 353.89 607.45 354.73 607.00 C 354.72 602.38 354.72 597.77 354.73 593.16 C 354.23 592.86 353.21 592.25 352.70 591.95 M 357.80 592.11 C 357.77 594.90 357.78 597.70 357.84 600.51 C 359.93 600.36 363.02 599.91 362.74 597.10 C 363.36 594.03 360.55 592.13 357.80 592.11 Z" />
<path fill="#000000" opacity="1.00" d=" M 403.31 591.52 C 407.44 591.86 411.60 591.73 415.75 591.67 C 415.74 593.05 415.74 594.44 415.74 595.83 C 415.44 595.08 414.84 593.59 414.54 592.85 C 412.64 592.51 410.72 592.29 408.81 592.15 C 408.78 594.53 408.77 596.92 408.76 599.31 C 409.64 599.33 411.42 599.38 412.31 599.41 C 412.76 599.06 413.66 598.36 414.11 598.01 C 414.17 598.96 414.29 600.85 414.36 601.80 C 412.92 600.01 410.67 600.32 408.70 600.13 C 408.84 602.45 408.43 604.92 409.28 607.16 C 412.40 608.81 415.80 607.15 417.56 604.39 C 417.14 605.67 416.72 606.97 416.33 608.28 C 411.75 608.26 407.17 608.35 402.60 608.17 C 403.29 608.02 404.67 607.72 405.36 607.57 C 405.87 602.82 405.96 597.99 405.50 593.24 C 404.83 592.57 404.05 592.06 403.31 591.52 Z" />
<path fill="#000000" opacity="1.00" d=" M 423.16 591.63 C 425.85 591.83 428.56 591.84 431.27 591.81 C 430.44 592.13 429.63 592.46 428.81 592.79 C 429.02 597.58 428.13 602.53 429.30 607.22 C 431.13 608.01 433.13 607.53 435.04 607.34 C 435.83 606.28 436.65 605.25 437.47 604.22 C 437.09 605.57 436.71 606.92 436.33 608.29 C 431.82 608.27 427.31 608.27 422.81 608.28 C 423.78 607.91 424.75 607.54 425.73 607.18 C 425.58 602.48 426.07 597.75 425.46 593.08 C 424.71 592.53 423.93 592.09 423.16 591.63 Z" />
<path fill="#000000" opacity="1.00" d=" M 443.71 591.76 C 447.87 591.70 452.03 591.73 456.20 591.71 C 456.34 593.16 456.49 594.61 456.65 596.07 C 456.11 594.97 455.58 593.85 455.07 592.75 C 453.15 592.50 451.23 592.31 449.32 592.16 C 449.28 594.55 449.27 596.95 449.26 599.35 C 450.31 599.35 452.41 599.36 453.46 599.37 C 453.86 598.42 454.26 597.48 454.67 596.55 C 454.67 598.80 454.70 601.06 454.72 603.32 C 454.55 602.63 454.21 601.25 454.04 600.56 C 452.43 600.40 450.82 600.26 449.21 600.14 C 449.26 602.54 449.34 604.95 449.48 607.36 C 451.64 607.70 453.82 607.67 455.98 607.30 C 456.57 606.14 457.19 605.00 457.81 603.87 C 457.59 605.33 457.34 606.79 457.10 608.27 C 452.40 608.27 447.70 608.28 443.00 608.26 C 444.03 607.93 445.06 607.60 446.11 607.29 C 446.29 602.46 446.29 597.62 446.11 592.79 C 445.30 592.44 444.50 592.10 443.71 591.76 Z" />
<path fill="#000000" opacity="1.00" d=" M 466.90 593.95 C 470.13 590.77 475.05 591.04 479.17 591.81 C 479.39 593.27 479.62 594.72 479.88 596.19 C 478.51 593.67 476.27 591.05 473.05 591.92 C 465.01 593.83 466.32 608.89 475.16 608.25 C 477.73 607.46 476.41 604.40 476.50 602.50 C 475.72 602.35 474.16 602.04 473.38 601.89 C 476.22 601.80 479.06 601.80 481.90 601.79 C 481.19 602.06 480.49 602.34 479.80 602.63 C 479.76 604.41 479.74 606.20 479.71 608.00 C 475.61 608.77 470.87 609.46 467.31 606.76 C 463.28 603.75 463.34 597.30 466.90 593.95 Z" />
<path fill="#000000" opacity="1.00" d=" M 487.64 591.81 C 490.36 591.83 493.09 591.81 495.82 591.67 C 494.97 592.11 494.10 592.53 493.26 593.00 C 493.28 597.66 493.28 602.33 493.26 607.01 C 494.11 607.43 494.96 607.86 495.82 608.30 C 493.09 608.18 490.36 608.16 487.64 608.19 C 488.46 607.84 489.28 607.51 490.12 607.18 C 490.29 602.39 490.29 597.60 490.11 592.82 C 489.28 592.48 488.46 592.14 487.64 591.81 Z" />
<path fill="#000000" opacity="1.00" d=" M 502.66 591.96 C 507.49 591.86 514.40 590.32 516.64 596.04 C 515.75 597.70 514.55 599.17 513.12 600.40 C 514.38 603.44 516.20 606.21 518.50 608.57 C 516.54 608.06 514.10 608.03 512.94 606.10 C 511.31 604.11 510.93 600.70 507.84 600.47 C 507.78 602.70 507.77 604.95 507.78 607.20 C 508.44 607.44 509.74 607.93 510.40 608.18 C 507.68 608.15 504.95 608.18 502.25 608.38 C 503.07 607.92 503.89 607.44 504.73 606.99 C 504.72 602.36 504.73 597.74 504.72 593.11 C 504.21 592.82 503.18 592.25 502.66 591.96 M 507.81 592.09 C 507.78 594.86 507.78 597.64 507.81 600.42 C 509.94 600.41 513.01 599.91 512.74 597.10 C 513.36 594.03 510.55 592.15 507.81 592.09 Z" />
<path fill="#000000" opacity="1.00" d=" M 523.34 591.54 C 528.13 591.85 532.94 591.77 537.74 591.61 C 537.81 592.97 537.89 594.33 537.99 595.69 C 536.95 593.02 534.56 591.93 531.80 592.15 C 531.77 597.07 531.67 602.01 531.91 606.94 C 533.00 607.50 535.27 607.82 534.36 609.56 L 533.45 607.81 C 530.85 608.06 528.26 608.24 525.66 608.26 C 526.62 607.94 527.60 607.64 528.58 607.35 C 528.83 602.27 528.73 597.19 528.68 592.11 C 525.75 591.81 523.47 593.23 522.35 595.87 C 522.69 594.42 523.02 592.98 523.34 591.54 Z" />
<path fill="#000000" opacity="1.00" d=" M 544.29 591.50 C 548.41 591.86 552.56 591.73 556.70 591.67 C 556.76 593.00 556.84 594.33 556.94 595.68 C 555.98 592.39 552.74 592.01 549.80 592.19 C 549.77 594.55 549.76 596.93 549.76 599.31 C 550.65 599.33 552.45 599.38 553.35 599.40 C 553.78 599.05 554.66 598.36 555.10 598.01 C 555.17 598.94 555.29 600.82 555.35 601.76 C 553.86 600.08 551.69 600.26 549.69 600.14 C 549.81 602.49 549.47 604.96 550.29 607.23 C 553.45 608.71 556.79 607.19 558.56 604.39 C 558.14 605.68 557.72 606.97 557.32 608.28 C 552.73 608.26 548.15 608.35 543.57 608.17 C 544.27 608.02 545.67 607.71 546.37 607.56 C 546.87 602.81 546.97 597.99 546.50 593.25 C 545.84 592.56 545.04 592.05 544.29 591.50 Z" />
<path fill="#000000" opacity="1.00" d=" M 573.93 591.88 C 578.62 591.91 584.05 590.90 588.09 593.91 C 592.55 597.29 591.27 605.00 586.24 607.16 C 581.96 608.90 577.21 608.06 572.72 608.23 C 573.51 607.93 574.30 607.64 575.10 607.36 C 575.29 602.87 575.23 598.38 575.23 593.90 C 574.79 593.21 574.36 592.54 573.93 591.88 M 578.51 606.56 C 580.67 608.75 584.59 607.52 585.97 605.01 C 587.72 602.01 587.77 597.93 585.92 594.97 C 584.33 592.54 581.09 592.57 578.56 592.06 C 578.23 596.88 578.06 601.74 578.51 606.56 Z" />
<path fill="#000000" opacity="1.00" d=" M 598.28 591.51 C 602.41 591.86 606.56 591.73 610.70 591.67 C 610.76 593.03 610.84 594.40 610.93 595.78 C 610.08 592.38 606.76 592.02 603.81 592.18 C 603.77 594.55 603.76 596.93 603.76 599.31 C 604.65 599.33 606.45 599.38 607.34 599.40 C 607.78 599.05 608.66 598.36 609.10 598.01 C 609.16 598.95 609.29 600.82 609.35 601.76 C 607.85 600.07 605.67 600.26 603.67 600.15 C 603.73 602.57 603.83 605.01 604.07 607.44 C 607.38 608.28 610.74 607.44 612.58 604.38 C 612.14 605.67 611.72 606.97 611.32 608.28 C 606.77 608.26 602.23 608.31 597.69 608.21 C 598.58 607.97 599.48 607.74 600.38 607.52 C 600.85 602.77 600.98 597.95 600.49 593.20 C 599.81 592.55 599.03 592.04 598.28 591.51 Z" />
<path fill="#000000" opacity="1.00" d=" M 624.54 591.77 C 627.10 591.81 629.67 591.80 632.24 591.77 C 631.75 592.03 630.77 592.55 630.29 592.81 C 631.65 596.75 633.01 600.72 634.89 604.46 C 636.57 600.62 637.97 596.67 639.47 592.76 C 638.64 592.42 637.82 592.09 637.01 591.77 C 639.12 591.79 641.24 591.81 643.37 591.84 C 642.48 592.13 641.61 592.42 640.74 592.71 C 638.94 596.36 637.33 600.10 635.98 603.94 C 635.26 605.82 634.75 607.89 633.19 609.28 C 631.26 603.80 628.95 598.47 627.00 593.01 C 626.17 592.59 625.35 592.18 624.54 591.77 Z" />
<path fill="#000000" opacity="1.00" d=" M 647.61 591.76 C 651.81 591.70 656.00 591.73 660.20 591.72 C 660.34 593.16 660.49 594.61 660.66 596.08 C 660.11 594.97 659.57 593.85 659.06 592.75 C 657.15 592.50 655.23 592.31 653.32 592.16 C 653.28 594.59 653.27 597.04 653.27 599.49 C 655.64 599.46 658.44 599.76 658.56 596.57 C 658.57 598.78 658.65 600.99 658.86 603.21 C 658.61 600.06 655.60 600.15 653.22 600.09 C 653.25 602.50 653.33 604.91 653.46 607.32 C 655.62 607.70 657.81 607.69 659.97 607.27 C 660.60 606.11 661.26 604.97 661.93 603.85 C 661.59 605.35 661.24 606.85 660.86 608.35 C 656.24 608.23 651.61 608.28 646.99 608.26 C 648.03 607.93 649.06 607.60 650.11 607.29 C 650.29 602.45 650.29 597.61 650.11 592.77 C 649.49 592.52 648.24 592.01 647.61 591.76 Z" />
<path fill="#000000" opacity="1.00" d=" M 669.02 591.85 C 673.75 591.92 680.48 590.38 682.64 596.03 C 681.75 597.70 680.55 599.17 679.11 600.40 C 680.39 603.35 682.29 605.96 684.00 608.67 C 679.55 608.49 677.92 604.44 675.98 601.23 C 675.44 601.07 674.35 600.74 673.81 600.58 C 673.77 602.78 673.77 604.99 673.79 607.20 C 674.44 607.44 675.73 607.93 676.38 608.17 C 673.66 608.16 670.94 608.19 668.24 608.38 C 669.06 607.91 669.89 607.45 670.73 607.00 C 670.57 602.45 671.06 597.87 670.51 593.35 C 670.14 592.98 669.39 592.23 669.02 591.85 M 673.80 592.11 C 673.77 594.91 673.78 597.71 673.84 600.52 C 675.95 600.37 679.04 599.88 678.74 597.05 C 679.32 594.01 676.53 592.11 673.80 592.11 Z" />
<path fill="#000000" opacity="1.00" d=" M 690.93 591.94 C 695.73 591.85 701.06 590.93 705.33 593.68 C 709.91 596.85 709.02 604.71 704.00 606.98 C 699.60 608.97 694.62 608.00 689.96 608.30 C 690.82 607.99 691.68 607.68 692.55 607.38 C 692.81 602.70 692.77 598.02 692.65 593.35 C 692.22 593.00 691.36 592.29 690.93 591.94 M 695.79 592.40 C 695.79 597.08 695.87 601.76 695.71 606.44 C 697.02 607.02 698.42 608.17 699.95 607.46 C 704.67 606.53 705.47 600.54 704.28 596.68 C 703.26 593.05 699.10 592.04 695.79 592.40 Z" />
<path fill="#000000" opacity="1.00" d=" M 737.90 591.89 C 742.43 591.85 747.44 591.06 751.54 593.48 C 756.29 596.46 755.69 604.21 750.88 606.82 C 746.49 609.07 741.36 608.01 736.63 608.23 C 737.45 607.93 738.27 607.64 739.10 607.37 C 739.28 602.86 739.22 598.36 739.23 593.86 C 738.90 593.37 738.23 592.38 737.90 591.89 M 742.28 592.47 C 742.44 597.16 742.01 601.88 742.51 606.56 C 744.70 608.77 748.65 607.50 750.01 604.95 C 751.71 601.97 751.75 597.95 749.94 595.00 C 748.29 592.53 744.98 592.25 742.28 592.47 Z" />
<path fill="#000000" opacity="1.00" d=" M 288.99 594.80 C 289.38 593.27 290.62 592.26 291.65 591.17 C 293.27 596.58 295.28 601.87 297.04 607.24 C 297.99 607.57 298.95 607.91 299.91 608.25 C 297.20 608.17 294.49 608.13 291.78 608.33 C 294.65 607.44 292.78 604.67 292.51 602.67 C 290.68 602.66 288.85 602.67 287.03 602.68 C 286.54 604.24 286.05 605.79 285.57 607.36 C 286.24 607.56 287.59 607.96 288.26 608.16 C 286.07 608.18 283.88 608.18 281.69 608.18 C 282.53 607.92 283.37 607.67 284.22 607.43 C 286.07 603.32 287.49 599.04 288.99 594.80 M 289.43 595.12 C 288.73 597.26 288.07 599.41 287.42 601.56 C 288.95 601.61 290.48 601.65 292.02 601.70 C 291.33 599.44 290.52 597.21 289.43 595.12 Z" />
<path fill="#000000" opacity="1.00" d=" M 313.93 591.93 C 315.57 591.85 317.21 591.77 318.86 591.70 C 318.73 596.93 318.72 602.17 318.85 607.41 C 319.67 607.65 320.50 607.90 321.32 608.15 C 318.60 608.14 315.87 608.14 313.16 608.36 C 313.95 607.87 314.75 607.38 315.50 606.83 C 316.02 602.38 315.63 597.89 315.68 593.43 C 315.24 593.05 314.37 592.31 313.93 591.93 Z" />
<path fill="#000000" opacity="1.00" d=" M 319.49 591.42 C 322.24 592.07 326.63 592.31 327.07 595.97 C 327.75 599.59 323.84 600.97 321.00 601.45 C 322.29 600.19 324.02 599.00 323.77 596.94 C 324.28 594.09 321.53 592.59 319.49 591.42 Z" />
<path fill="#000000" opacity="1.00" d=" M 335.84 595.84 C 336.74 594.14 337.75 592.51 339.00 591.05 C 340.89 596.55 342.63 602.10 344.81 607.50 C 345.66 607.71 346.52 607.93 347.39 608.16 C 344.58 608.17 341.77 608.18 338.96 608.23 C 339.54 608.02 340.70 607.60 341.28 607.39 C 340.75 605.72 340.19 604.08 339.54 602.47 C 338.93 600.13 338.27 597.81 337.54 595.51 L 335.84 595.84 Z" />
<path fill="#000000" opacity="1.00" d=" M 378.85 595.85 C 379.60 594.15 380.52 592.50 382.20 591.59 C 383.99 596.92 385.70 602.29 387.82 607.51 C 388.66 607.71 389.50 607.93 390.35 608.15 C 387.60 608.17 384.84 608.18 382.10 608.27 C 382.81 607.96 383.52 607.65 384.24 607.36 C 382.90 603.44 381.69 599.48 380.54 595.51 L 378.85 595.85 Z" />
<path fill="#000000" opacity="1.00" d=" M 721.00 594.79 C 721.39 593.26 722.62 592.26 723.66 591.17 C 725.26 596.59 727.28 601.87 729.04 607.24 C 729.97 607.56 730.92 607.91 731.87 608.25 C 729.14 608.18 726.41 608.17 723.69 608.21 C 724.19 607.97 725.19 607.50 725.69 607.26 C 725.26 605.72 724.84 604.19 724.43 602.67 C 722.62 602.66 720.83 602.67 719.04 602.68 C 718.54 604.22 718.04 605.75 717.56 607.29 C 718.41 607.59 719.27 607.89 720.14 608.21 C 717.96 608.19 715.80 608.18 713.64 608.15 C 714.28 607.98 715.57 607.63 716.21 607.46 C 718.07 603.33 719.48 599.04 721.00 594.79 M 721.42 595.12 C 720.72 597.26 720.07 599.42 719.44 601.58 C 720.95 601.62 722.48 601.65 724.02 601.69 C 723.32 599.43 722.52 597.21 721.42 595.12 Z" />
</g>
</svg>
