<?xml version="1.0" encoding="UTF-8" ?>
<!DOCTYPE svg PUBLIC "-//W3C//DTD SVG 1.1//EN" "http://www.w3.org/Graphics/SVG/1.1/DTD/svg11.dtd">
<svg width="1920pt" height="371pt" viewBox="0 0 1920 371" version="1.1" xmlns="http://www.w3.org/2000/svg">
<g id="#ff4d74ff">
<path fill="#ff4d74" opacity="1.00" d=" M 685.57 123.81 C 702.01 121.30 719.32 125.50 732.93 135.02 C 743.01 142.38 751.42 152.29 756.01 163.98 C 761.95 178.44 762.56 195.03 757.53 209.85 C 751.28 229.27 735.26 245.24 715.85 251.51 C 701.25 256.45 684.95 255.93 670.65 250.22 C 658.73 245.69 648.57 237.21 641.11 226.96 C 629.94 211.14 626.22 190.27 631.48 171.60 C 637.90 146.80 660.16 127.12 685.57 123.81 M 683.77 136.02 C 671.31 138.74 659.81 145.90 652.09 156.07 C 643.57 167.17 639.42 181.62 641.23 195.54 C 643.22 212.50 653.82 228.18 668.84 236.33 C 679.38 242.27 691.98 244.45 703.91 242.38 C 720.40 239.70 735.39 228.95 743.02 214.05 C 749.46 202.17 750.87 187.80 747.33 174.80 C 743.51 161.12 734.30 148.94 721.83 142.02 C 710.44 135.44 696.63 133.27 683.77 136.02 Z" />
<path fill="#ff4d74" opacity="1.00" d=" M 1622.56 123.81 C 1642.74 120.76 1664.37 127.71 1678.59 142.46 C 1690.32 153.74 1697.11 169.77 1697.85 185.96 C 1698.72 204.20 1691.77 222.88 1678.54 235.59 C 1665.83 248.78 1647.18 255.65 1628.97 254.84 C 1613.01 254.01 1597.19 247.49 1585.94 236.01 C 1570.27 221.16 1563.17 198.07 1567.27 176.94 C 1569.73 163.51 1576.40 150.84 1586.42 141.52 C 1596.10 131.86 1609.08 125.78 1622.56 123.81 M 1620.76 136.02 C 1611.79 137.97 1603.35 142.24 1596.42 148.25 C 1583.31 159.62 1576.12 177.56 1578.15 194.84 C 1579.91 211.78 1590.26 227.55 1605.09 235.92 C 1620.45 244.97 1640.36 245.53 1656.21 237.37 C 1671.98 229.71 1683.37 213.84 1685.73 196.49 C 1687.84 181.80 1683.45 166.45 1674.11 154.95 C 1661.69 139.37 1640.24 131.70 1620.76 136.02 Z" />
<path fill="#ff4d74" opacity="1.00" d=" M 1458.81 135.80 C 1476.58 123.04 1501.05 120.56 1521.13 129.12 C 1528.90 132.27 1535.81 137.23 1541.85 143.01 C 1541.85 143.78 1541.86 145.32 1541.86 146.09 C 1539.55 148.33 1537.24 150.55 1534.97 152.81 C 1523.36 140.00 1505.18 133.74 1488.14 136.48 C 1471.01 138.92 1455.44 150.35 1448.08 166.03 C 1439.96 182.41 1441.35 202.96 1451.61 218.09 C 1461.85 234.06 1481.14 243.60 1500.05 241.98 C 1513.28 241.07 1526.04 234.99 1534.95 225.16 C 1537.24 227.42 1539.56 229.65 1541.87 231.91 C 1541.87 232.67 1541.85 234.20 1541.85 234.96 C 1527.32 249.64 1505.51 256.61 1485.18 252.95 C 1470.57 250.65 1456.96 242.92 1447.29 231.76 C 1434.33 217.49 1428.75 197.08 1432.06 178.15 C 1434.67 161.11 1444.78 145.67 1458.81 135.80 Z" />
<path fill="#ff4d74" opacity="1.00" d=" M 246.32 124.82 C 247.57 124.68 248.83 124.55 250.10 124.41 C 264.66 158.01 279.31 191.57 293.82 225.19 C 294.18 226.13 294.81 226.85 295.72 227.34 C 310.02 193.80 324.69 160.41 339.07 126.90 C 339.80 125.85 339.86 123.30 341.94 124.53 C 343.95 123.78 343.90 125.97 344.37 127.10 C 352.53 164.70 360.68 202.31 368.82 239.91 C 369.63 243.64 370.59 247.34 371.01 251.15 C 367.23 251.64 363.01 254.21 359.46 251.78 C 353.19 221.73 346.37 191.78 339.98 161.75 C 339.64 160.34 339.46 158.78 338.29 157.77 C 324.75 189.80 310.77 221.65 297.01 253.59 C 295.81 253.61 294.61 253.64 293.42 253.67 C 279.93 222.47 266.32 191.31 252.82 160.11 C 252.46 159.20 251.78 158.51 251.07 157.88 C 244.61 189.25 237.48 220.48 230.87 251.82 C 227.14 254.07 223.00 251.38 219.10 250.95 C 228.30 208.93 237.35 166.88 246.32 124.82 Z" />
<path fill="#ff4d74" opacity="1.00" d=" M 842.32 124.82 C 843.56 124.68 844.83 124.55 846.10 124.41 C 860.66 158.02 875.32 191.59 889.83 225.23 C 890.19 226.15 890.82 226.86 891.73 227.33 C 906.14 193.53 920.90 159.88 935.41 126.12 C 935.67 123.44 940.18 123.86 940.20 126.46 C 948.97 166.45 957.54 206.50 966.27 246.51 C 966.58 248.04 966.78 249.59 967.02 251.14 C 963.24 251.63 959.03 254.19 955.48 251.81 C 949.17 221.70 942.36 191.70 935.95 161.62 C 935.67 160.22 935.29 158.81 934.35 157.71 C 920.71 189.74 906.82 221.67 892.97 253.61 C 891.77 253.62 890.59 253.64 889.41 253.66 C 876.37 223.46 863.18 193.32 850.13 163.12 C 849.25 161.32 848.81 159.11 847.05 157.93 C 840.60 189.30 833.48 220.54 826.84 251.87 C 823.09 254.01 818.99 251.39 815.10 250.95 C 824.30 208.94 833.35 166.89 842.32 124.82 Z" />
<path fill="#ff4d74" opacity="1.00" d=" M 401.19 126.14 C 423.14 126.18 445.09 126.11 467.04 126.17 C 470.16 125.93 470.26 129.82 470.17 132.03 C 470.24 134.19 470.17 137.99 467.12 137.83 C 448.46 137.88 429.80 137.85 411.14 137.83 C 411.02 151.94 411.02 166.06 411.14 180.17 C 429.63 180.11 448.12 180.19 466.61 180.13 C 467.07 180.63 468.00 181.64 468.46 182.14 C 468.45 184.71 468.45 187.29 468.46 189.86 C 468.00 190.36 467.07 191.37 466.61 191.87 C 448.12 191.81 429.63 191.88 411.14 191.83 C 411.02 207.94 411.03 224.06 411.14 240.17 C 429.78 240.15 448.43 240.12 467.07 240.17 C 470.16 239.96 470.25 243.81 470.17 245.99 C 470.25 248.19 470.15 252.06 467.04 251.83 C 445.09 251.89 423.13 251.82 401.18 251.86 C 400.50 251.17 399.82 250.49 399.14 249.81 C 399.16 209.27 399.15 168.73 399.14 128.19 C 399.82 127.51 400.50 126.82 401.19 126.14 Z" />
<path fill="#ff4d74" opacity="1.00" d=" M 538.25 126.14 C 540.83 126.17 543.41 126.01 545.99 126.26 C 547.99 126.85 548.06 129.25 548.08 130.98 C 548.11 167.37 547.98 203.77 548.14 240.17 C 567.43 240.15 586.73 240.13 606.02 240.17 C 609.06 240.07 609.18 243.75 609.07 245.94 C 609.17 248.15 609.11 251.92 606.03 251.83 C 583.44 251.89 560.84 251.81 538.25 251.87 C 537.58 251.18 536.92 250.49 536.27 249.81 C 536.29 209.26 536.29 168.72 536.27 128.17 C 536.93 127.49 537.59 126.82 538.25 126.14 Z" />
<path fill="#ff4d74" opacity="1.00" d=" M 997.19 126.14 C 1019.12 126.18 1041.05 126.11 1062.99 126.17 C 1066.09 125.88 1066.26 129.73 1066.17 131.93 C 1066.25 134.15 1066.18 138.07 1063.03 137.83 C 1044.40 137.88 1025.77 137.85 1007.14 137.83 C 1007.02 151.94 1007.02 166.06 1007.14 180.17 C 1025.63 180.12 1044.13 180.18 1062.62 180.13 C 1063.08 180.64 1064.00 181.64 1064.46 182.15 C 1064.45 184.72 1064.44 187.29 1064.46 189.86 C 1064.00 190.36 1063.08 191.37 1062.62 191.87 C 1044.13 191.82 1025.63 191.88 1007.14 191.83 C 1007.02 207.94 1007.02 224.06 1007.14 240.17 C 1025.77 240.15 1044.40 240.12 1063.02 240.17 C 1066.14 239.92 1066.25 243.78 1066.17 245.99 C 1066.24 248.17 1066.17 252.04 1063.07 251.83 C 1041.11 251.89 1019.15 251.82 997.19 251.86 C 996.50 251.17 995.82 250.49 995.14 249.82 C 995.15 209.27 995.15 168.73 995.15 128.18 C 995.81 127.50 996.49 126.82 997.19 126.14 Z" />
<path fill="#ff4d74" opacity="1.00" d=" M 1101.19 126.14 C 1113.13 126.16 1125.08 126.15 1137.02 126.14 C 1148.43 126.39 1160.26 129.43 1169.05 137.03 C 1175.30 142.23 1179.23 149.86 1180.46 157.85 C 1181.73 166.94 1180.82 176.54 1176.67 184.83 C 1171.24 195.60 1160.70 203.52 1148.96 206.12 C 1158.52 219.83 1169.51 232.55 1179.31 246.10 C 1179.50 250.61 1173.95 251.89 1171.33 254.70 C 1159.28 239.04 1147.10 223.48 1135.02 207.85 C 1127.06 207.84 1119.10 207.87 1111.14 207.83 C 1110.87 221.58 1111.31 235.35 1110.93 249.09 C 1110.81 252.68 1106.39 251.99 1103.94 252.06 C 1101.99 252.33 1100.39 251.35 1099.11 250.01 C 1099.20 209.40 1099.13 168.79 1099.14 128.19 C 1099.81 127.50 1100.49 126.82 1101.19 126.14 M 1111.14 137.83 C 1111.02 157.28 1111.02 176.72 1111.14 196.17 C 1120.09 196.11 1129.03 196.19 1137.98 196.14 C 1147.99 195.83 1158.27 191.44 1164.11 183.07 C 1169.20 175.88 1170.06 166.54 1168.64 158.07 C 1166.76 148.14 1157.51 141.46 1148.11 139.39 C 1135.95 136.82 1123.46 138.22 1111.14 137.83 Z" />
<path fill="#ff4d74" opacity="1.00" d=" M 1213.19 126.14 C 1235.13 126.18 1257.08 126.11 1279.02 126.17 C 1282.14 125.91 1282.20 129.76 1282.17 131.95 C 1282.25 134.14 1282.18 138.02 1279.08 137.83 C 1260.43 137.88 1241.79 137.85 1223.14 137.83 C 1223.02 151.94 1223.02 166.06 1223.14 180.17 C 1241.63 180.12 1260.12 180.19 1278.61 180.13 C 1279.07 180.63 1280.00 181.63 1280.46 182.13 C 1280.44 184.71 1280.44 187.29 1280.46 189.87 C 1280.00 190.37 1279.08 191.37 1278.62 191.87 C 1260.12 191.82 1241.63 191.88 1223.14 191.83 C 1223.02 207.94 1223.02 224.06 1223.14 240.17 C 1241.79 240.15 1260.43 240.12 1279.08 240.17 C 1282.16 239.97 1282.24 243.82 1282.17 246.01 C 1282.25 248.22 1282.13 252.10 1279.00 251.83 C 1257.06 251.89 1235.12 251.82 1213.18 251.86 C 1212.49 251.17 1211.81 250.49 1211.14 249.81 C 1211.15 209.27 1211.15 168.73 1211.14 128.18 C 1211.81 127.50 1212.49 126.82 1213.19 126.14 Z" />
<path fill="#ff4d74" opacity="1.00" d=" M 1323.25 126.13 C 1351.12 126.17 1379.00 126.15 1406.87 126.14 C 1407.38 127.16 1407.91 128.18 1408.45 129.21 C 1385.17 162.78 1361.91 196.37 1338.64 229.95 C 1336.34 233.33 1333.85 236.57 1331.82 240.12 C 1354.45 240.17 1377.09 240.16 1399.72 240.12 C 1400.34 240.83 1400.98 241.54 1401.63 242.26 C 1401.59 244.76 1401.59 247.25 1401.63 249.75 C 1400.97 250.46 1400.33 251.17 1399.71 251.88 C 1370.81 251.81 1341.91 251.87 1313.02 251.85 C 1312.48 250.79 1311.99 249.74 1311.49 248.68 C 1334.41 215.83 1357.13 182.84 1379.98 149.94 C 1382.70 145.93 1385.62 142.05 1388.11 137.88 C 1366.49 137.82 1344.86 137.85 1323.24 137.86 C 1322.57 137.18 1321.91 136.50 1321.27 135.82 C 1321.27 133.27 1321.27 130.73 1321.27 128.18 C 1321.92 127.50 1322.58 126.82 1323.25 126.13 Z" />
</g>
</svg>
