<?xml version="1.0" encoding="UTF-8" ?>
<!DOCTYPE svg PUBLIC "-//W3C//DTD SVG 1.1//EN" "http://www.w3.org/Graphics/SVG/1.1/DTD/svg11.dtd">
<svg width="1920pt" height="371pt" viewBox="0 0 1920 371" version="1.1" xmlns="http://www.w3.org/2000/svg">
<g id="#ff4d74ff">
<path fill="#ff4d74" opacity="1.00" d=" M 688.39 81.43 C 703.76 79.84 719.63 83.92 732.38 92.64 C 743.59 100.58 752.66 111.78 757.10 124.87 C 762.31 139.28 762.20 155.52 756.83 169.87 C 750.04 188.73 734.00 204.00 714.82 209.84 C 701.00 214.26 685.75 213.85 672.16 208.79 C 659.39 204.29 648.48 195.34 640.69 184.36 C 629.03 167.48 625.87 145.03 632.71 125.65 C 640.52 101.70 663.31 83.69 688.39 81.43 M 686.40 93.57 C 670.29 96.10 655.57 106.37 647.76 120.70 C 641.84 131.19 639.50 143.72 641.53 155.61 C 644.13 171.97 654.69 186.86 669.35 194.61 C 679.94 200.42 692.54 202.48 704.43 200.29 C 720.72 197.46 735.50 186.79 743.03 172.02 C 748.46 162.04 750.27 150.29 748.66 139.08 C 746.20 122.72 735.93 107.61 721.31 99.74 C 710.80 93.85 698.28 91.55 686.40 93.57 Z" />
<path fill="#ff4d74" opacity="1.00" d=" M 1625.39 81.43 C 1644.73 79.46 1665.02 86.37 1678.56 100.44 C 1688.43 109.87 1694.73 122.71 1697.03 136.10 C 1700.56 156.70 1693.70 179.01 1678.56 193.56 C 1668.07 204.50 1653.45 211.05 1638.45 212.60 C 1619.16 214.49 1598.98 207.55 1585.46 193.54 C 1573.72 182.24 1567.03 166.24 1566.17 150.06 C 1565.38 131.84 1572.27 113.20 1585.46 100.46 C 1595.93 89.59 1610.45 83.01 1625.39 81.43 M 1623.39 93.57 C 1614.80 94.89 1606.63 98.50 1599.66 103.65 C 1585.85 113.81 1577.46 130.88 1577.82 148.02 C 1578.07 165.94 1587.96 183.35 1603.20 192.78 C 1618.64 202.73 1639.24 203.90 1655.66 195.64 C 1670.58 188.62 1681.66 174.28 1685.08 158.20 C 1688.36 143.13 1684.63 126.88 1675.38 114.59 C 1663.70 98.71 1642.83 90.19 1623.39 93.57 Z" />
<path fill="#ff4d74" opacity="1.00" d=" M 1451.67 99.69 C 1465.58 86.16 1485.91 79.98 1505.04 82.71 C 1519.08 84.51 1532.16 91.41 1542.19 101.31 C 1541.95 105.70 1537.55 107.76 1534.99 110.77 C 1523.13 97.85 1504.66 91.55 1487.39 94.59 C 1469.24 97.42 1453.12 110.40 1446.53 127.56 C 1439.91 143.80 1442.28 163.23 1452.52 177.45 C 1463.31 193.17 1483.05 202.14 1502.00 199.80 C 1514.53 198.49 1526.43 192.48 1534.95 183.20 C 1537.52 186.20 1541.96 188.26 1542.18 192.67 C 1530.11 204.86 1513.17 212.00 1496.00 211.88 C 1478.05 211.98 1460.20 204.21 1448.23 190.79 C 1435.08 176.93 1429.02 156.87 1431.78 138.02 C 1433.68 123.44 1440.78 109.59 1451.67 99.69 Z" />
<path fill="#ff4d74" opacity="1.00" d=" M 246.31 82.86 C 247.56 82.70 248.80 82.54 250.05 82.39 C 263.20 112.46 276.19 142.59 289.30 172.68 C 291.21 177.01 292.94 181.43 295.12 185.65 C 295.81 184.46 296.50 183.27 297.07 182.02 C 311.43 148.91 325.70 115.76 340.09 82.66 C 341.31 82.60 342.54 82.59 343.77 82.64 C 353.01 124.76 362.18 166.90 371.15 209.09 C 368.16 209.75 365.20 210.75 362.12 210.88 C 360.86 210.94 359.44 209.99 359.31 208.67 C 353.73 182.93 348.10 157.19 342.50 131.45 C 341.27 126.14 340.37 120.75 338.81 115.52 C 338.06 116.89 337.35 118.29 336.72 119.71 C 323.74 149.76 310.77 179.82 297.77 209.86 C 297.38 211.92 295.07 211.57 293.52 211.86 C 280.27 181.31 266.97 150.78 253.74 120.23 C 253.05 118.65 252.28 117.11 251.43 115.62 C 244.17 146.89 237.94 178.42 230.72 209.69 C 227.29 212.35 222.90 209.26 219.12 208.93 C 228.27 166.93 237.35 124.90 246.31 82.86 Z" />
<path fill="#ff4d74" opacity="1.00" d=" M 842.31 82.86 C 843.55 82.70 844.80 82.54 846.05 82.39 C 859.59 113.38 873.00 144.43 886.49 175.44 C 888.06 178.84 889.16 182.50 891.40 185.55 C 906.55 151.37 921.10 116.91 936.09 82.65 C 937.31 82.59 938.53 82.59 939.77 82.63 C 949.01 124.76 958.18 166.90 967.15 209.09 C 964.42 209.72 961.71 210.52 958.93 210.85 C 957.42 211.15 955.49 210.34 955.31 208.66 C 950.68 187.31 946.02 165.96 941.36 144.61 C 939.13 134.92 937.38 125.11 934.81 115.51 C 929.04 127.42 924.23 139.78 918.83 151.86 C 910.48 171.20 902.14 190.53 893.77 209.86 C 893.36 211.92 891.07 211.59 889.51 211.85 C 879.80 189.45 870.05 167.06 860.34 144.67 C 855.95 135.03 852.22 125.08 847.43 115.63 C 840.28 146.64 833.95 177.85 826.98 208.91 C 826.76 210.22 825.04 210.95 823.85 210.82 C 820.89 210.42 818.02 209.58 815.12 208.93 C 824.27 166.93 833.35 124.90 842.31 82.86 Z" />
<path fill="#ff4d74" opacity="1.00" d=" M 399.14 87.99 C 398.73 85.83 400.83 83.73 402.99 84.14 C 423.35 84.16 443.71 84.15 464.07 84.14 C 465.85 84.14 467.62 84.28 469.40 84.49 C 470.35 88.10 470.34 91.90 469.40 95.51 C 465.62 96.01 461.79 95.84 457.99 95.85 C 442.37 95.84 426.74 95.85 411.12 95.85 C 410.99 109.95 410.99 124.05 411.12 138.15 C 429.74 138.13 448.35 138.18 466.97 138.13 C 469.22 141.50 469.22 146.50 466.97 149.87 C 448.35 149.82 429.74 149.87 411.12 149.85 C 410.99 165.95 410.99 182.05 411.12 198.15 C 426.74 198.14 442.37 198.16 457.99 198.15 C 461.79 198.16 465.61 197.99 469.40 198.49 C 470.35 202.10 470.35 205.90 469.40 209.51 C 465.61 210.01 461.79 209.84 458.00 209.85 C 439.66 209.85 421.32 209.84 402.99 209.86 C 400.83 210.27 398.73 208.16 399.14 206.01 C 399.16 166.67 399.16 127.33 399.14 87.99 Z" />
<path fill="#ff4d74" opacity="1.00" d=" M 537.97 84.10 C 541.12 84.13 544.29 84.08 547.42 84.52 C 547.74 86.30 548.02 88.10 548.04 89.92 C 548.10 125.99 547.93 162.07 548.12 198.15 C 564.08 198.15 580.04 198.15 596.00 198.15 C 600.12 198.18 604.28 197.93 608.38 198.54 C 609.25 202.12 609.25 205.88 608.38 209.47 C 604.28 210.07 600.12 209.81 596.00 209.85 C 576.66 209.87 557.32 209.80 537.98 209.89 C 537.18 208.68 536.04 207.53 536.29 205.95 C 536.28 166.65 536.28 127.34 536.29 88.04 C 536.05 86.46 537.18 85.31 537.97 84.10 Z" />
<path fill="#ff4d74" opacity="1.00" d=" M 995.14 87.99 C 994.73 85.83 996.83 83.73 998.99 84.14 C 1016.33 84.16 1033.66 84.15 1051.00 84.15 C 1055.79 84.22 1060.62 83.89 1065.40 84.49 C 1066.34 88.10 1066.34 91.90 1065.40 95.51 C 1046.00 96.29 1026.54 95.63 1007.12 95.85 C 1006.99 109.95 1006.99 124.05 1007.12 138.15 C 1025.73 138.13 1044.35 138.18 1062.97 138.13 C 1065.22 141.50 1065.22 146.50 1062.97 149.87 C 1044.35 149.82 1025.73 149.87 1007.12 149.85 C 1006.99 165.95 1006.99 182.05 1007.12 198.15 C 1024.43 198.14 1041.74 198.17 1059.05 198.13 C 1061.16 198.12 1063.28 198.23 1065.40 198.49 C 1066.34 202.10 1066.34 205.90 1065.40 209.51 C 1043.29 210.30 1021.12 209.62 998.99 209.86 C 996.83 210.27 994.73 208.17 995.14 206.01 C 995.16 166.67 995.16 127.33 995.14 87.99 Z" />
<path fill="#ff4d74" opacity="1.00" d=" M 1099.14 87.99 C 1098.73 85.83 1100.83 83.73 1102.99 84.14 C 1114.34 84.15 1125.70 84.16 1137.05 84.14 C 1149.12 84.39 1161.71 87.85 1170.58 96.41 C 1177.78 103.18 1181.15 113.25 1180.97 122.99 C 1181.25 134.07 1177.22 145.41 1169.11 153.11 C 1163.62 158.77 1156.32 162.18 1148.86 164.40 C 1158.80 177.78 1169.52 190.62 1179.23 204.15 C 1179.53 208.51 1173.92 209.93 1171.40 212.67 C 1159.21 197.10 1147.15 181.43 1134.99 165.84 C 1127.03 165.86 1119.07 165.85 1111.12 165.85 C 1110.94 175.90 1111.08 185.95 1111.04 196.00 C 1110.98 200.49 1111.33 205.02 1110.46 209.45 C 1107.43 210.00 1104.31 210.32 1101.26 209.80 C 1099.81 209.12 1098.85 207.64 1099.14 206.02 C 1099.16 166.67 1099.16 127.33 1099.14 87.99 M 1111.12 95.85 C 1110.99 115.28 1110.99 134.72 1111.12 154.15 C 1119.75 154.14 1128.39 154.15 1137.03 154.16 C 1147.12 154.09 1157.58 149.91 1163.71 141.65 C 1169.24 134.20 1170.20 124.28 1168.49 115.39 C 1166.31 105.65 1157.04 99.28 1147.73 97.30 C 1135.68 94.85 1123.32 96.20 1111.12 95.85 Z" />
<path fill="#ff4d74" opacity="1.00" d=" M 1211.14 87.99 C 1210.72 85.83 1212.83 83.73 1214.99 84.14 C 1229.66 84.16 1244.33 84.15 1259.00 84.15 C 1266.46 84.32 1273.95 83.77 1281.40 84.49 C 1282.34 88.10 1282.34 91.90 1281.40 95.51 C 1262.00 96.29 1242.54 95.63 1223.12 95.85 C 1222.99 109.95 1222.99 124.05 1223.12 138.15 C 1241.73 138.13 1260.35 138.18 1278.97 138.13 C 1281.22 141.50 1281.22 146.50 1278.97 149.87 C 1260.35 149.82 1241.73 149.87 1223.12 149.85 C 1222.99 165.95 1222.99 182.05 1223.12 198.15 C 1238.74 198.15 1254.37 198.15 1269.99 198.15 C 1273.79 198.16 1277.61 197.99 1281.40 198.49 C 1282.34 202.10 1282.34 205.90 1281.40 209.51 C 1271.62 210.27 1261.79 209.65 1252.00 209.85 C 1239.66 209.85 1227.33 209.85 1214.99 209.86 C 1212.82 210.27 1210.72 208.16 1211.14 206.01 C 1211.16 166.67 1211.16 127.33 1211.14 87.99 Z" />
<path fill="#ff4d74" opacity="1.00" d=" M 1322.98 84.11 C 1351.04 84.19 1379.11 84.14 1407.18 84.13 C 1407.51 85.75 1408.45 87.66 1407.13 89.09 C 1385.17 120.80 1363.20 152.51 1341.23 184.21 C 1338.08 188.84 1334.73 193.33 1331.80 198.11 C 1354.54 198.18 1377.28 198.17 1400.03 198.12 C 1402.43 201.41 1402.43 206.59 1400.03 209.88 C 1371.05 209.82 1342.08 209.84 1313.11 209.87 C 1312.54 208.86 1311.99 207.86 1311.45 206.85 C 1333.99 174.27 1356.58 141.72 1379.14 109.14 C 1382.16 104.74 1385.33 100.43 1388.13 95.88 C 1366.41 95.84 1344.69 95.82 1322.98 95.89 C 1320.38 92.70 1320.38 87.30 1322.98 84.11 Z" />
<path fill="#ff4d74" opacity="1.00" d=" M 482.43 266.75 C 489.30 265.41 496.60 268.87 500.36 274.67 C 504.29 281.93 503.38 292.31 496.55 297.56 C 490.03 302.76 480.08 302.72 473.52 297.60 C 470.04 294.77 468.02 290.39 467.51 285.99 C 466.48 277.01 473.58 268.09 482.43 266.75 M 482.36 268.18 C 478.53 269.24 476.35 272.98 475.53 276.63 C 473.68 282.54 474.73 289.04 477.29 294.56 C 479.31 298.70 484.87 302.09 489.23 299.41 C 494.10 297.06 495.32 290.96 495.38 286.05 C 495.75 280.49 494.67 274.44 490.68 270.29 C 488.47 268.32 485.27 266.66 482.36 268.18 Z" />
<path fill="#ff4d74" opacity="1.00" d=" M 579.18 270.33 C 580.44 268.90 582.02 267.80 583.33 266.41 C 586.20 276.65 590.10 286.57 593.50 296.64 C 594.11 299.40 597.30 299.41 599.38 300.48 C 594.15 300.41 588.92 300.12 583.70 300.64 C 585.00 299.61 587.64 299.16 586.86 296.95 C 586.39 294.44 586.14 291.54 584.54 289.51 C 581.20 289.18 577.82 289.21 574.48 289.46 C 572.66 292.02 572.32 295.46 571.17 298.39 C 572.83 299.08 574.52 299.72 576.17 300.46 C 572.03 300.36 567.89 300.34 563.75 300.53 C 565.59 299.40 568.28 299.19 569.17 296.96 C 573.21 288.37 575.87 279.21 579.18 270.33 M 579.19 274.49 C 577.47 278.66 575.95 282.95 575.13 287.40 C 578.00 287.39 580.88 287.38 583.76 287.42 C 582.60 283.00 581.60 278.43 579.19 274.49 Z" />
<path fill="#ff4d74" opacity="1.00" d=" M 674.18 270.33 C 675.45 268.91 677.01 267.80 678.32 266.41 C 681.21 276.65 685.11 286.57 688.50 296.65 C 689.10 299.40 692.31 299.40 694.38 300.48 C 689.04 300.30 683.70 300.41 678.36 300.37 C 679.61 299.87 680.87 299.40 682.15 298.97 C 681.52 295.82 681.49 292.13 679.54 289.52 C 676.20 289.18 672.82 289.21 669.48 289.46 C 667.66 292.03 667.32 295.46 666.17 298.39 C 667.83 299.08 669.52 299.72 671.18 300.46 C 667.03 300.36 662.90 300.35 658.77 300.53 C 660.60 299.40 663.29 299.18 664.17 296.96 C 668.21 288.37 670.87 279.21 674.18 270.33 M 674.19 274.49 C 672.47 278.66 670.95 282.95 670.13 287.40 C 673.00 287.39 675.88 287.38 678.76 287.42 C 677.60 283.00 676.60 278.43 674.19 274.49 Z" />
<path fill="#ff4d74" opacity="1.00" d=" M 759.61 271.82 C 760.19 269.36 762.76 268.25 764.31 266.44 C 767.23 276.66 771.11 286.57 774.48 296.65 C 775.06 299.39 778.33 299.38 780.38 300.48 C 775.05 300.29 769.73 300.43 764.41 300.35 C 765.63 299.86 766.88 299.40 768.14 298.98 C 767.51 295.83 767.51 292.10 765.53 289.52 C 762.18 289.17 758.79 289.22 755.44 289.45 C 753.71 292.11 753.28 295.44 752.17 298.39 C 753.83 299.08 755.52 299.72 757.17 300.45 C 753.00 300.33 748.83 300.47 744.66 300.36 C 746.26 299.69 747.90 299.10 749.54 298.50 C 753.53 289.86 756.46 280.79 759.61 271.82 M 760.19 274.49 C 758.47 278.66 756.95 282.95 756.13 287.40 C 759.00 287.39 761.88 287.38 764.76 287.42 C 763.60 283.00 762.60 278.43 760.19 274.49 Z" />
<path fill="#ff4d74" opacity="1.00" d=" M 944.22 266.90 C 948.96 265.91 953.83 266.64 958.42 268.00 C 958.76 270.80 959.25 273.58 959.46 276.40 C 957.37 273.06 955.46 268.57 951.03 268.04 C 948.75 267.10 946.36 268.00 944.03 267.91 C 944.08 267.66 944.17 267.15 944.22 266.90 Z" />
<path fill="#ff4d74" opacity="1.00" d=" M 1046.55 266.46 C 1050.78 268.32 1055.52 267.15 1060.00 267.45 C 1065.21 267.16 1070.59 268.17 1075.69 266.79 C 1075.53 269.72 1075.59 272.65 1075.27 275.57 C 1074.33 273.71 1073.62 271.75 1073.05 269.76 C 1070.04 268.76 1066.87 268.08 1063.71 268.72 C 1063.29 275.14 1063.66 281.57 1063.54 288.00 C 1063.66 291.77 1062.88 295.79 1064.82 299.25 C 1066.40 299.45 1068.01 299.70 1069.51 300.33 C 1063.54 300.50 1057.56 300.27 1051.60 300.49 C 1053.51 299.64 1055.50 299.01 1057.45 298.22 C 1057.42 288.34 1057.54 278.46 1057.38 268.58 C 1054.50 268.57 1051.35 268.04 1048.88 269.86 C 1047.33 271.45 1046.34 273.45 1045.10 275.26 C 1045.49 272.31 1046.31 269.43 1046.55 266.46 Z" />
<path fill="#ff4d74" opacity="1.00" d=" M 1442.36 272.57 C 1442.77 269.70 1445.53 268.39 1447.32 266.43 C 1450.21 276.66 1454.12 286.57 1457.48 296.65 C 1458.05 299.39 1461.33 299.38 1463.38 300.48 C 1458.04 300.30 1452.70 300.40 1447.37 300.38 C 1448.60 299.87 1449.86 299.39 1451.15 298.95 C 1450.50 295.82 1450.50 292.09 1448.53 289.52 C 1445.17 289.17 1441.78 289.22 1438.44 289.45 C 1436.70 292.09 1436.28 295.44 1435.17 298.39 C 1436.82 299.08 1438.51 299.72 1440.17 300.46 C 1436.02 300.36 1431.88 300.34 1427.75 300.53 C 1429.58 299.41 1432.28 299.18 1433.17 296.96 C 1436.88 289.09 1439.40 280.73 1442.36 272.57 M 1443.19 274.49 C 1441.46 278.66 1439.95 282.95 1439.13 287.40 C 1441.99 287.39 1444.87 287.38 1447.76 287.42 C 1446.60 283.00 1445.59 278.43 1443.19 274.49 Z" />
<path fill="#ff4d74" opacity="1.00" d=" M 410.57 267.55 C 414.19 267.61 417.81 267.78 421.43 267.49 C 423.74 275.81 428.41 283.16 431.89 291.00 C 433.25 290.40 434.61 289.82 435.99 289.26 C 434.28 293.57 432.44 297.83 430.60 302.09 C 427.27 296.54 425.49 290.21 422.62 284.42 C 421.10 281.68 420.45 277.98 417.37 276.54 C 417.35 283.03 416.50 289.49 416.58 295.97 C 416.51 299.29 420.06 299.52 422.42 300.36 C 418.16 300.44 413.91 300.27 409.65 300.54 C 411.23 299.59 413.15 299.06 414.37 297.61 C 414.74 288.39 415.92 279.23 415.43 269.99 C 413.81 269.16 412.17 268.39 410.57 267.55 Z" />
<path fill="#ff4d74" opacity="1.00" d=" M 443.74 267.52 C 447.33 267.76 450.92 267.57 454.51 267.63 C 452.85 268.38 451.15 269.01 449.45 269.67 C 449.14 278.97 449.44 288.28 449.59 297.59 C 450.81 299.03 452.70 299.61 454.28 300.58 C 449.07 300.21 443.86 300.36 438.65 300.52 C 440.26 299.77 441.97 299.21 443.51 298.28 C 443.51 290.71 443.60 283.12 443.22 275.56 C 439.47 279.09 439.64 285.38 435.23 288.21 C 437.66 281.15 441.87 274.79 443.74 267.52 Z" />
<path fill="#ff4d74" opacity="1.00" d=" M 517.91 267.96 C 526.79 267.65 536.08 266.30 544.57 269.62 C 549.92 272.15 554.17 277.87 553.60 283.98 C 553.83 291.06 548.51 297.65 541.70 299.34 C 533.60 301.43 525.15 300.08 516.89 300.56 C 519.15 299.63 522.51 299.14 522.40 295.97 C 522.51 287.99 522.50 280.00 522.40 272.02 C 522.44 269.49 519.73 268.85 517.91 267.96 M 528.51 269.49 C 528.79 278.35 528.45 287.21 528.66 296.06 C 529.79 299.04 533.79 300.18 536.67 299.00 C 543.34 297.72 546.99 290.32 546.44 284.00 C 546.84 278.91 544.71 273.44 540.25 270.70 C 536.64 268.97 532.34 267.65 528.51 269.49 Z" />
<path fill="#ff4d74" opacity="1.00" d=" M 626.90 267.97 C 633.89 267.60 641.13 266.62 647.92 268.82 C 651.46 270.32 654.67 273.79 654.31 277.86 C 653.67 280.06 652.93 282.48 651.07 283.96 C 648.35 285.73 645.04 286.08 641.94 286.67 C 643.85 284.98 646.44 283.69 647.14 281.03 C 647.97 277.69 647.54 274.04 646.00 270.95 C 644.05 268.91 640.99 268.84 638.44 268.13 C 637.77 269.65 637.43 271.29 637.52 272.96 C 637.56 281.38 637.52 289.80 637.56 298.23 C 639.40 299.06 641.30 299.77 643.17 300.56 C 637.65 300.27 632.12 300.25 626.60 300.51 C 628.62 299.51 631.52 298.81 631.40 295.98 C 631.51 288.00 631.50 280.00 631.40 272.01 C 631.48 269.44 628.76 268.82 626.90 267.97 Z" />
<path fill="#ff4d74" opacity="1.00" d=" M 704.84 268.02 C 712.04 267.66 719.49 266.55 726.51 268.72 C 729.98 269.76 732.58 273.22 732.34 276.88 C 731.71 280.39 728.55 282.40 726.19 284.72 C 728.84 290.78 731.97 297.26 738.03 300.58 C 734.01 300.78 729.59 300.37 726.52 297.49 C 723.65 293.79 722.11 289.27 719.57 285.36 C 718.57 285.45 716.57 285.64 715.57 285.74 C 715.53 289.87 715.52 294.00 715.57 298.13 C 717.18 298.90 718.82 299.62 720.44 300.40 C 715.17 300.42 709.90 300.22 704.64 300.55 C 706.22 299.69 707.84 298.92 709.43 298.08 C 709.48 288.71 709.43 279.33 709.46 269.96 C 707.92 269.30 706.37 268.66 704.84 268.02 M 715.66 268.50 C 715.52 273.80 715.54 279.10 715.64 284.41 C 718.34 284.25 721.83 285.33 723.61 282.62 C 726.40 280.28 725.67 276.16 724.80 273.08 C 723.94 269.07 719.06 268.45 715.66 268.50 Z" />
<path fill="#ff4d74" opacity="1.00" d=" M 806.71 267.41 C 814.98 267.44 823.25 267.57 831.51 267.35 C 831.49 270.11 831.94 272.84 832.28 275.57 C 830.91 273.64 830.00 271.38 828.34 269.67 C 825.01 268.02 821.24 268.60 817.67 268.56 C 817.43 273.27 817.63 277.99 817.46 282.71 C 820.44 282.66 823.41 282.66 826.40 282.55 C 827.01 280.85 827.61 279.15 828.35 277.50 C 828.40 281.46 828.33 285.43 828.43 289.40 C 827.59 287.80 826.84 286.17 826.03 284.57 C 823.18 284.54 820.32 284.55 817.48 284.47 C 817.68 288.59 817.28 292.74 817.72 296.84 C 819.95 300.15 824.60 299.79 828.04 299.12 C 831.50 298.59 832.70 294.93 834.84 292.65 C 834.36 295.34 833.63 297.97 832.89 300.59 C 823.78 300.43 814.67 300.67 805.57 300.47 C 807.18 299.76 809.08 299.64 810.51 298.54 C 811.81 296.61 811.39 294.21 811.48 292.02 C 811.37 285.36 811.58 278.68 811.40 272.02 C 811.48 269.27 808.66 268.48 806.71 267.41 Z" />
<path fill="#ff4d74" opacity="1.00" d=" M 846.65 267.41 C 851.91 267.82 857.19 267.57 862.46 267.58 C 860.83 268.35 859.17 269.05 857.56 269.83 C 857.65 278.83 857.30 287.85 857.71 296.84 C 859.97 300.14 864.59 299.88 868.01 298.94 C 871.38 298.40 872.57 294.72 874.78 292.57 C 874.25 295.28 873.48 297.95 872.72 300.61 C 863.70 300.44 854.69 300.64 845.68 300.50 C 847.58 299.72 849.73 299.37 851.32 297.95 C 851.60 289.32 851.45 280.66 851.40 272.02 C 851.47 269.25 848.58 268.53 846.65 267.41 Z" />
<path fill="#ff4d74" opacity="1.00" d=" M 887.66 267.51 C 895.94 267.32 904.23 267.62 912.51 267.35 C 912.49 270.11 912.94 272.84 913.28 275.57 C 911.91 273.64 911.00 271.38 909.33 269.67 C 906.00 268.02 902.23 268.60 898.67 268.56 C 898.43 273.27 898.63 277.99 898.46 282.71 C 901.44 282.66 904.41 282.66 907.40 282.55 C 908.01 280.85 908.61 279.14 909.35 277.50 C 909.40 281.46 909.33 285.43 909.43 289.40 C 908.59 287.80 907.84 286.17 907.03 284.57 C 904.18 284.54 901.32 284.55 898.48 284.47 C 898.68 288.59 898.28 292.73 898.72 296.83 C 900.93 300.16 905.61 299.79 909.04 299.12 C 912.50 298.59 913.70 294.93 915.84 292.65 C 915.36 295.33 914.63 297.97 913.89 300.59 C 904.78 300.44 895.67 300.67 886.57 300.47 C 888.18 299.76 890.08 299.64 891.50 298.54 C 892.80 296.61 892.39 294.21 892.48 292.02 C 892.36 285.35 892.58 278.68 892.40 272.02 C 892.51 269.22 889.66 268.49 887.66 267.51 Z" />
<path fill="#ff4d74" opacity="1.00" d=" M 975.67 267.39 C 980.89 267.78 986.12 267.70 991.35 267.44 C 989.76 268.31 988.14 269.11 986.56 269.98 C 986.53 279.33 986.53 288.67 986.56 298.02 C 988.14 298.88 989.76 299.68 991.34 300.55 C 986.11 300.30 980.88 300.22 975.67 300.61 C 977.52 299.42 980.41 298.67 980.40 295.99 C 980.57 288.98 980.37 281.97 980.48 274.96 C 980.39 273.13 980.75 271.06 979.41 269.58 C 978.21 268.76 976.91 268.12 975.67 267.39 Z" />
<path fill="#ff4d74" opacity="1.00" d=" M 1004.85 268.02 C 1012.04 267.66 1019.49 266.56 1026.51 268.73 C 1029.97 269.76 1032.58 273.23 1032.34 276.88 C 1031.71 280.39 1028.54 282.40 1026.19 284.72 C 1028.84 290.78 1031.97 297.26 1038.03 300.58 C 1034.01 300.78 1029.59 300.37 1026.52 297.49 C 1023.64 293.79 1022.11 289.27 1019.56 285.36 C 1018.57 285.45 1016.57 285.64 1015.57 285.74 C 1015.53 289.86 1015.53 293.99 1015.56 298.11 C 1017.18 298.91 1018.83 299.65 1020.47 300.45 C 1015.19 300.38 1009.92 300.26 1004.66 300.52 C 1006.23 299.67 1007.84 298.91 1009.44 298.08 C 1009.48 288.70 1009.43 279.33 1009.46 269.96 C 1007.92 269.30 1006.38 268.66 1004.85 268.02 M 1015.67 268.50 C 1015.51 273.80 1015.54 279.10 1015.64 284.41 C 1018.34 284.24 1021.83 285.33 1023.61 282.62 C 1026.39 280.28 1025.67 276.16 1024.80 273.08 C 1023.94 269.07 1019.06 268.45 1015.67 268.50 Z" />
<path fill="#ff4d74" opacity="1.00" d=" M 1088.66 267.52 C 1096.94 267.32 1105.23 267.62 1113.51 267.35 C 1113.49 270.11 1113.94 272.84 1114.28 275.58 C 1112.91 273.64 1111.99 271.38 1110.34 269.67 C 1107.01 268.02 1103.23 268.60 1099.67 268.56 C 1099.42 273.27 1099.63 277.99 1099.46 282.71 C 1102.43 282.66 1105.41 282.66 1108.40 282.55 C 1109.01 280.85 1109.60 279.15 1110.35 277.50 C 1110.40 281.46 1110.32 285.43 1110.43 289.40 C 1109.59 287.80 1108.83 286.17 1108.03 284.57 C 1105.17 284.54 1102.32 284.55 1099.48 284.47 C 1099.68 288.59 1099.28 292.73 1099.72 296.83 C 1101.92 300.16 1106.60 299.79 1110.04 299.12 C 1113.50 298.59 1114.70 294.93 1116.84 292.65 C 1116.36 295.34 1115.63 297.97 1114.89 300.59 C 1105.78 300.44 1096.67 300.67 1087.56 300.47 C 1089.18 299.76 1091.06 299.63 1092.50 298.55 C 1093.80 296.62 1093.39 294.21 1093.48 292.02 C 1093.36 285.35 1093.58 278.68 1093.40 272.02 C 1093.50 269.22 1090.66 268.49 1088.66 267.52 Z" />
<path fill="#ff4d74" opacity="1.00" d=" M 1145.93 267.97 C 1154.79 267.62 1164.08 266.32 1172.57 269.62 C 1177.92 272.15 1182.17 277.87 1181.60 283.98 C 1181.83 291.06 1176.51 297.65 1169.71 299.34 C 1161.60 301.43 1153.15 300.08 1144.89 300.56 C 1146.41 299.89 1148.10 299.53 1149.50 298.58 C 1150.78 296.63 1150.40 294.22 1150.48 292.02 C 1150.37 285.36 1150.57 278.69 1150.40 272.03 C 1150.47 269.49 1147.75 268.84 1145.93 267.97 M 1156.51 269.49 C 1156.79 278.34 1156.44 287.20 1156.67 296.05 C 1157.60 298.67 1161.13 300.09 1163.79 299.22 C 1170.89 298.32 1175.06 290.66 1174.44 284.00 C 1174.84 278.91 1172.71 273.44 1168.26 270.70 C 1164.64 268.98 1160.34 267.65 1156.51 269.49 Z" />
<path fill="#ff4d74" opacity="1.00" d=" M 1196.66 267.50 C 1204.94 267.34 1213.23 267.61 1221.51 267.35 C 1221.49 270.11 1221.94 272.84 1222.28 275.57 C 1220.91 273.64 1219.99 271.38 1218.33 269.67 C 1215.00 268.02 1211.23 268.61 1207.67 268.56 C 1207.42 273.27 1207.63 277.99 1207.46 282.71 C 1210.43 282.66 1213.41 282.66 1216.40 282.55 C 1217.01 280.85 1217.60 279.15 1218.35 277.50 C 1218.40 281.46 1218.32 285.43 1218.43 289.39 C 1217.59 287.80 1216.83 286.17 1216.03 284.57 C 1213.17 284.54 1210.32 284.55 1207.48 284.47 C 1207.68 288.59 1207.28 292.73 1207.72 296.84 C 1209.93 300.15 1214.60 299.79 1218.03 299.13 C 1221.49 298.59 1222.69 294.93 1224.84 292.65 C 1224.36 295.34 1223.63 297.97 1222.89 300.59 C 1213.78 300.44 1204.67 300.67 1195.57 300.47 C 1197.18 299.76 1199.08 299.64 1200.50 298.54 C 1201.80 296.61 1201.39 294.21 1201.48 292.02 C 1201.36 285.35 1201.58 278.68 1201.40 272.02 C 1201.50 269.22 1198.65 268.49 1196.66 267.50 Z" />
<path fill="#ff4d74" opacity="1.00" d=" M 1248.68 267.52 C 1253.84 267.57 1259.02 267.90 1264.17 267.29 C 1263.16 268.03 1262.12 268.73 1261.18 269.53 C 1261.01 273.20 1263.08 276.48 1264.24 279.85 C 1266.10 284.05 1267.00 288.75 1269.85 292.45 C 1271.85 288.54 1273.19 284.35 1274.86 280.30 C 1275.35 279.94 1276.33 279.20 1276.82 278.84 C 1274.41 286.59 1270.63 293.87 1268.32 301.69 C 1267.47 301.61 1266.64 301.54 1265.83 301.47 C 1262.52 290.72 1257.48 280.58 1254.08 269.86 C 1252.26 269.10 1250.44 268.37 1248.68 267.52 Z" />
<path fill="#ff4d74" opacity="1.00" d=" M 1274.55 267.54 C 1278.49 267.62 1282.43 267.69 1286.37 267.51 C 1285.06 268.13 1283.70 268.64 1282.44 269.33 C 1280.35 270.22 1280.35 273.61 1278.07 274.00 C 1277.78 272.47 1277.98 270.98 1278.69 269.52 C 1277.29 268.86 1275.90 268.24 1274.55 267.54 Z" />
<path fill="#ff4d74" opacity="1.00" d=" M 1295.60 267.48 C 1303.90 267.36 1312.21 267.60 1320.51 267.35 C 1320.49 270.11 1320.94 272.84 1321.28 275.58 C 1319.91 273.64 1318.99 271.38 1317.34 269.67 C 1314.00 268.02 1310.23 268.60 1306.67 268.56 C 1306.42 273.27 1306.62 277.99 1306.46 282.71 C 1309.43 282.66 1312.41 282.66 1315.40 282.55 C 1316.01 280.85 1316.60 279.14 1317.35 277.50 C 1317.40 281.46 1317.32 285.43 1317.43 289.39 C 1316.59 287.80 1315.83 286.17 1315.03 284.57 C 1312.17 284.54 1309.32 284.55 1306.48 284.47 C 1306.68 288.59 1306.28 292.73 1306.72 296.83 C 1308.93 300.16 1313.61 299.79 1317.04 299.12 C 1320.50 298.59 1321.70 294.93 1323.84 292.65 C 1323.36 295.34 1322.63 297.97 1321.88 300.59 C 1312.78 300.43 1303.67 300.67 1294.57 300.47 C 1296.18 299.76 1298.07 299.64 1299.50 298.55 C 1300.80 296.61 1300.39 294.21 1300.48 292.02 C 1300.36 285.35 1300.58 278.68 1300.40 272.02 C 1300.51 269.20 1297.61 268.48 1295.60 267.48 Z" />
<path fill="#ff4d74" opacity="1.00" d=" M 1336.83 268.02 C 1344.03 267.66 1351.48 266.55 1358.50 268.72 C 1361.97 269.76 1364.58 273.22 1364.34 276.88 C 1363.71 280.39 1360.54 282.40 1358.19 284.72 C 1360.84 290.78 1363.97 297.26 1370.03 300.57 C 1366.00 300.78 1361.59 300.37 1358.52 297.49 C 1355.64 293.79 1354.11 289.27 1351.56 285.36 C 1350.57 285.45 1348.57 285.64 1347.57 285.74 C 1347.53 289.86 1347.52 293.99 1347.57 298.12 C 1349.17 298.91 1350.81 299.63 1352.45 300.42 C 1347.18 300.40 1341.91 300.25 1336.66 300.52 C 1338.22 299.67 1339.83 298.91 1341.44 298.08 C 1341.48 288.71 1341.43 279.33 1341.46 269.96 C 1339.91 269.30 1338.36 268.66 1336.83 268.02 M 1347.67 268.50 C 1347.51 273.80 1347.54 279.10 1347.64 284.41 C 1350.34 284.24 1353.82 285.33 1355.61 282.62 C 1358.39 280.28 1357.67 276.16 1356.80 273.08 C 1355.93 269.07 1351.05 268.45 1347.67 268.50 Z" />
<path fill="#ff4d74" opacity="1.00" d=" M 1380.94 267.96 C 1388.85 267.66 1396.93 266.64 1404.71 268.65 C 1410.10 269.87 1414.55 274.25 1416.21 279.48 C 1417.44 284.91 1416.18 291.11 1412.07 295.07 C 1407.98 299.36 1401.71 300.36 1396.05 300.52 C 1390.65 300.32 1385.27 300.61 1379.88 300.56 C 1381.41 299.89 1383.10 299.54 1384.50 298.57 C 1385.78 296.63 1385.39 294.22 1385.48 292.02 C 1385.37 285.36 1385.57 278.69 1385.40 272.02 C 1385.43 269.52 1382.74 268.85 1380.94 267.96 M 1391.51 269.50 C 1391.79 278.34 1391.44 287.20 1391.67 296.05 C 1392.59 298.66 1396.13 300.09 1398.79 299.22 C 1405.89 298.32 1410.06 290.66 1409.44 284.00 C 1409.84 278.91 1407.70 273.44 1403.26 270.70 C 1399.64 268.98 1395.33 267.64 1391.51 269.50 Z" />
<path fill="#ff4d74" opacity="1.00" d=" M 1473.94 267.98 C 1481.84 267.63 1489.93 266.66 1497.71 268.65 C 1503.11 269.87 1507.55 274.25 1509.22 279.48 C 1510.43 284.92 1509.18 291.11 1505.07 295.07 C 1500.98 299.36 1494.71 300.36 1489.05 300.52 C 1483.65 300.32 1478.27 300.61 1472.88 300.56 C 1474.41 299.89 1476.09 299.53 1477.50 298.58 C 1478.78 296.63 1478.39 294.22 1478.48 292.03 C 1478.37 285.36 1478.57 278.69 1478.40 272.03 C 1478.46 269.49 1475.75 268.84 1473.94 267.98 M 1484.51 269.49 C 1484.79 278.34 1484.44 287.21 1484.67 296.06 C 1485.60 298.67 1489.12 300.09 1491.79 299.22 C 1498.89 298.31 1503.06 290.67 1502.44 284.00 C 1502.84 278.92 1500.71 273.45 1496.26 270.70 C 1492.64 268.98 1488.34 267.64 1484.51 269.49 Z" />
<path fill="#ff4d74" opacity="1.00" d=" M 938.43 268.68 C 939.77 268.39 942.15 266.40 943.09 268.04 C 941.79 269.97 939.44 271.03 938.22 273.07 C 934.20 280.46 934.60 290.45 940.01 297.03 C 943.28 299.69 948.54 301.71 952.49 299.47 C 954.15 296.64 953.39 293.15 953.33 290.03 C 951.60 288.70 949.42 288.40 947.46 287.60 C 952.76 287.56 958.06 287.77 963.37 287.55 C 962.08 288.27 960.76 288.93 959.47 289.62 C 959.66 292.91 959.05 296.36 960.41 299.48 C 952.74 301.61 944.21 302.76 936.85 298.98 C 932.23 296.76 929.57 291.90 928.61 287.05 C 927.49 279.66 931.68 271.86 938.43 268.68 Z" />
<path fill="#ff4d74" opacity="1.00" d=" M 1277.33 275.26 C 1279.57 275.10 1277.58 279.45 1275.98 278.77 C 1275.23 277.53 1276.38 276.04 1277.33 275.26 Z" />
<path fill="#ff4d74" opacity="1.00" d=" M 435.23 288.23 C 435.87 288.87 435.87 288.87 435.23 288.23 Z" />
</g>
</svg>
