<?xml version="1.0" encoding="UTF-8" ?>
<!DOCTYPE svg PUBLIC "-//W3C//DTD SVG 1.1//EN" "http://www.w3.org/Graphics/SVG/1.1/DTD/svg11.dtd">
<svg width="960pt" height="960pt" viewBox="0 0 960 960" version="1.1" xmlns="http://www.w3.org/2000/svg">
<g id="#000000ff">
<path fill="#000000" opacity="1.00" d=" M 478.33 241.46 C 479.76 240.70 481.52 241.27 482.65 242.32 C 485.79 245.16 488.62 248.43 490.60 252.20 C 495.26 260.85 500.02 269.45 504.72 278.08 C 506.95 282.48 510.22 286.72 509.83 291.96 C 510.05 300.97 502.53 306.95 497.65 313.59 C 492.85 319.09 489.22 325.88 482.88 329.82 C 479.60 332.51 475.51 329.22 472.98 326.97 C 466.89 319.42 460.92 311.76 454.81 304.23 C 449.90 298.68 448.50 289.85 452.41 283.39 C 458.53 272.19 464.55 260.94 470.80 249.81 C 473.15 246.94 474.95 243.25 478.33 241.46 Z" />
<path fill="#000000" opacity="1.00" d=" M 639.59 279.73 C 647.20 277.15 655.42 278.42 663.28 278.72 C 663.27 279.11 663.25 279.89 663.25 280.28 C 667.27 280.84 669.90 284.38 673.87 285.03 C 675.11 287.68 677.57 289.33 679.62 291.31 C 683.19 297.62 686.70 304.47 686.47 311.93 C 686.32 341.36 686.57 370.80 686.34 400.23 C 685.18 396.60 685.81 392.75 685.70 389.01 C 685.55 361.52 685.84 334.02 685.56 306.54 C 685.25 331.68 685.49 356.83 685.43 381.97 C 685.54 388.09 685.20 394.23 685.70 400.34 C 679.94 406.11 673.38 410.98 667.21 416.28 C 659.49 422.88 651.69 429.37 643.88 435.86 C 641.67 437.65 639.61 439.67 637.09 441.03 C 631.92 446.30 625.47 450.26 620.35 455.65 C 619.35 455.63 617.35 455.58 616.35 455.56 C 616.29 434.13 616.40 412.70 616.30 391.27 C 612.13 396.09 607.40 400.57 602.03 404.02 C 597.85 409.45 591.72 413.00 587.04 417.99 C 573.43 430.03 559.83 442.08 546.27 454.19 C 536.60 462.20 527.86 471.24 518.10 479.13 C 514.15 483.22 509.34 486.34 505.50 490.53 C 503.51 492.55 500.93 493.90 499.11 496.11 C 493.55 501.47 487.41 506.19 481.98 511.70 C 481.17 511.63 479.56 511.51 478.75 511.44 C 469.86 504.34 461.66 496.40 453.06 488.94 C 446.22 482.30 438.52 476.59 431.77 469.85 C 415.17 455.22 398.76 440.36 382.02 425.88 C 369.68 413.86 356.01 403.29 343.70 391.23 C 343.80 412.70 343.74 434.16 343.74 455.62 C 342.73 455.61 340.71 455.60 339.70 455.59 C 337.28 453.29 335.02 450.79 332.30 448.82 C 317.13 436.78 302.56 424.03 287.63 411.70 C 283.22 408.21 278.94 404.55 274.78 400.76 L 273.19 402.09 C 271.39 396.89 272.53 391.36 272.22 386.00 C 271.95 379.65 273.01 373.32 272.21 366.99 C 272.47 357.66 271.93 348.33 272.48 339.02 C 272.35 331.68 271.86 324.34 272.40 317.00 C 272.65 313.76 271.75 310.47 272.54 307.27 C 272.76 317.50 272.94 327.76 272.53 338.00 C 273.02 349.99 272.61 362.00 272.72 374.00 C 273.19 382.55 272.18 391.17 273.19 399.67 C 273.51 399.59 274.14 399.43 274.46 399.35 C 272.60 392.75 275.67 385.65 273.73 379.00 C 273.39 375.97 274.61 372.99 274.02 369.99 C 273.35 366.68 273.60 363.29 274.20 359.99 C 274.96 355.97 272.97 352.00 273.96 347.99 C 273.77 339.70 273.12 331.29 274.13 323.02 C 273.28 318.74 273.71 314.36 273.71 310.03 C 275.21 305.83 275.59 301.26 277.72 297.29 C 279.44 293.70 282.08 290.69 284.82 287.85 C 288.09 284.68 292.10 282.39 296.25 280.56 C 298.99 279.37 302.09 279.51 304.82 278.30 C 307.92 278.20 311.24 277.64 314.15 279.02 C 324.76 279.38 332.81 287.06 339.96 294.04 C 343.47 297.87 347.67 300.99 351.09 304.90 C 353.74 307.87 357.17 309.99 359.91 312.88 C 365.29 318.55 371.37 323.50 376.79 329.14 C 382.55 333.99 387.42 339.82 393.33 344.50 C 401.28 351.93 408.69 359.94 417.02 366.97 C 423.98 374.35 431.90 380.72 438.98 387.99 C 448.19 397.42 458.24 405.96 467.48 415.36 C 471.35 419.27 476.61 422.16 479.01 427.31 C 479.62 427.24 480.24 427.18 480.88 427.13 C 486.30 420.45 493.60 415.64 499.07 409.01 C 507.00 402.33 514.17 394.82 521.59 387.59 C 529.21 381.24 535.89 373.85 543.22 367.17 C 551.79 359.77 559.34 351.29 567.76 343.73 C 572.95 339.62 577.14 334.41 582.38 330.35 C 587.56 325.19 592.83 320.13 598.08 315.05 C 605.05 309.74 610.38 302.62 617.40 297.40 C 619.55 294.55 622.63 292.62 624.84 289.85 C 627.35 287.61 629.78 285.23 632.71 283.53 C 634.94 282.16 637.48 281.33 639.59 279.73 Z" />
<path fill="#000000" opacity="1.00" d=" M 89.37 314.06 C 97.27 310.99 106.19 310.47 114.39 312.64 C 120.77 313.56 125.61 318.25 130.51 322.06 C 144.89 334.14 159.59 345.87 173.75 358.21 C 186.33 367.84 197.92 378.70 210.35 388.52 C 218.99 396.35 228.52 403.14 237.13 411.01 C 243.61 416.44 250.41 421.50 256.59 427.28 C 272.61 439.83 287.86 453.30 303.51 466.28 C 324.81 483.72 345.79 501.54 366.99 519.08 C 375.14 526.60 384.09 533.18 392.37 540.56 C 414.62 558.88 436.74 577.39 458.86 595.86 C 462.54 598.89 465.86 602.36 469.88 604.95 C 472.64 608.07 476.64 609.83 479.05 613.30 C 479.69 613.31 480.34 613.33 481.00 613.37 C 483.03 611.09 485.46 609.24 487.89 607.42 C 527.31 573.86 567.60 541.32 606.97 507.69 C 622.25 495.41 636.95 482.43 652.21 470.14 C 654.30 468.23 656.35 466.19 658.99 465.04 C 660.57 462.79 662.79 461.16 664.92 459.47 C 697.57 431.87 730.70 404.84 763.46 377.36 C 771.27 370.83 778.88 364.07 786.96 357.87 C 797.66 348.59 808.74 339.77 819.51 330.57 C 826.77 324.68 833.69 318.27 841.80 313.52 C 846.24 312.97 850.46 311.09 855.01 311.27 C 862.43 311.26 870.33 312.61 876.31 317.30 C 880.59 320.56 884.36 324.59 887.13 329.23 C 888.36 331.93 889.64 334.60 891.24 337.12 C 892.36 343.45 891.83 349.94 890.55 356.20 C 889.92 356.97 889.30 357.74 888.69 358.51 C 888.61 359.14 888.46 360.41 888.38 361.04 C 887.50 362.28 886.76 363.61 886.12 364.98 C 884.30 368.08 883.61 371.75 880.99 374.39 C 879.86 378.13 877.75 381.44 876.25 385.02 C 873.53 388.88 872.07 393.40 870.02 397.61 C 864.49 407.92 859.42 418.46 854.26 428.96 C 851.77 433.61 849.26 438.27 847.24 443.15 C 845.25 446.11 844.29 449.68 841.83 452.31 C 841.74 453.03 841.56 454.46 841.47 455.18 C 838.29 460.24 835.58 465.61 833.28 471.11 C 831.19 474.03 829.82 477.35 828.09 480.47 C 826.73 484.64 824.66 488.60 822.08 492.13 C 819.39 499.92 814.76 506.84 811.56 514.42 C 804.38 527.61 798.50 541.45 791.08 554.49 C 788.71 560.41 784.99 565.76 783.08 571.91 C 780.41 575.40 778.98 579.61 776.94 583.46 C 770.50 595.98 764.57 608.76 757.84 621.11 C 755.14 627.81 751.83 634.30 747.92 640.36 C 747.80 641.01 747.58 642.32 747.46 642.97 C 746.35 644.76 745.09 646.47 744.15 648.36 C 740.66 656.93 735.73 664.82 732.19 673.36 C 728.56 674.86 724.42 675.03 720.80 673.41 C 719.41 671.16 718.09 668.76 718.42 666.02 C 718.58 624.98 718.27 583.94 718.58 542.91 C 720.13 540.31 720.96 537.36 722.59 534.81 C 725.91 529.61 727.24 523.38 731.18 518.55 C 731.28 517.92 731.50 516.67 731.61 516.04 C 732.84 514.21 733.87 512.25 734.74 510.23 C 736.00 506.97 738.78 504.49 739.49 500.99 C 742.24 494.11 746.62 488.00 749.60 481.21 C 746.42 482.88 744.40 486.00 741.48 488.01 C 724.62 502.00 707.79 516.06 690.97 530.05 C 685.05 534.42 679.86 539.71 674.10 544.28 C 670.44 546.47 667.62 549.71 664.26 552.30 C 650.08 564.16 635.83 575.93 621.71 587.86 C 613.00 595.47 603.67 602.35 595.10 610.13 C 563.24 635.99 532.15 662.79 500.31 688.68 C 496.23 691.82 491.06 692.62 486.42 694.57 C 483.15 696.01 479.49 695.51 476.03 695.34 C 475.02 694.93 474.01 694.54 472.99 694.18 C 470.77 693.30 468.45 692.69 466.18 692.01 C 460.83 690.06 456.89 685.85 452.41 682.54 C 418.44 654.20 384.43 625.91 350.41 597.62 C 339.65 589.08 329.41 579.92 318.83 571.17 C 296.54 552.87 274.60 534.15 252.29 515.87 C 244.48 509.68 237.15 502.93 229.38 496.69 C 224.16 492.21 218.26 488.38 213.90 483.00 C 212.73 482.47 211.55 481.96 210.39 481.44 C 214.63 488.54 218.82 495.77 221.93 503.46 C 223.45 506.95 226.24 509.82 226.93 513.67 C 228.75 516.00 229.42 518.96 230.98 521.46 C 233.14 525.03 235.00 528.82 236.10 532.87 C 239.39 535.78 239.95 540.34 242.43 543.79 C 242.46 584.55 242.42 625.31 242.45 666.07 C 242.12 669.47 239.90 672.44 237.35 674.62 C 234.63 674.37 231.71 674.95 229.14 673.87 C 225.89 669.22 223.90 663.83 221.06 658.94 C 219.37 655.03 216.92 651.39 216.06 647.18 C 215.73 646.92 215.08 646.42 214.75 646.17 C 211.49 639.47 208.22 632.78 204.80 626.17 C 202.86 622.40 201.70 618.15 198.66 615.06 C 198.58 614.55 198.42 613.52 198.33 613.01 C 191.11 599.58 184.88 585.64 177.63 572.21 C 176.51 569.34 175.14 566.58 173.54 563.95 C 173.45 563.27 173.29 561.91 173.20 561.23 C 172.85 560.97 172.14 560.45 171.79 560.20 C 170.31 557.56 169.32 554.69 167.79 552.09 C 165.86 547.29 162.29 543.24 161.10 538.17 C 160.61 537.55 160.12 536.93 159.63 536.31 C 158.88 532.65 156.08 529.94 155.02 526.40 C 152.58 521.99 150.70 517.27 147.76 513.14 C 147.49 511.77 147.16 510.41 146.42 509.22 C 140.99 498.94 136.02 488.43 130.74 478.08 C 128.19 472.74 125.57 467.41 122.73 462.21 C 122.11 459.52 120.16 457.49 118.79 455.18 C 116.64 448.50 112.62 442.69 109.78 436.32 C 107.64 431.96 105.30 427.67 102.83 423.50 C 102.71 422.80 102.47 421.41 102.35 420.71 C 101.94 420.51 101.10 420.09 100.68 419.89 C 100.63 419.10 100.53 417.52 100.48 416.73 C 100.07 416.50 99.26 416.03 98.86 415.79 C 98.63 414.23 97.89 412.88 96.98 411.63 C 96.57 410.17 96.03 408.77 94.99 407.66 C 94.62 406.16 93.91 404.83 93.05 403.58 C 91.78 400.90 90.53 398.20 89.03 395.64 C 88.58 394.21 88.30 392.63 86.82 391.92 C 86.71 390.89 86.60 389.87 86.50 388.86 C 83.76 384.89 82.19 380.29 79.72 376.18 C 78.91 372.51 75.40 370.10 75.15 366.23 C 74.64 365.59 74.14 364.96 73.64 364.33 C 72.60 361.13 71.30 357.99 69.42 355.18 C 68.87 349.75 68.06 344.27 69.25 338.86 C 72.26 328.39 79.43 318.83 89.37 314.06 Z" />
<path fill="#000000" opacity="1.00" d=" M 194.45 717.64 C 196.61 716.08 199.35 715.59 201.37 713.83 C 218.56 713.17 235.78 713.71 252.98 713.53 C 420.00 713.54 587.02 713.52 754.04 713.54 C 761.82 714.55 769.21 718.87 773.84 725.25 C 782.22 737.35 780.04 756.01 767.90 764.86 C 763.49 767.80 758.44 770.74 752.97 770.48 C 578.32 770.45 403.67 770.47 229.02 770.47 C 219.74 770.31 210.43 770.82 201.16 770.13 C 198.36 768.02 194.90 767.02 192.16 764.83 C 187.93 761.57 184.50 757.14 182.76 752.07 C 181.72 747.10 181.96 741.98 182.10 736.94 C 182.20 728.80 187.84 721.84 194.45 717.64 Z" />
</g>
</svg>
